<?xml version="1.0" standalone="no"?>
<!DOCTYPE svg PUBLIC "-//W3C//DTD SVG 1.1//EN" "http://www.w3.org/Graphics/SVG/1.1/DTD/svg11.dtd" >
<svg>
<metadata>
Created by FontForge 20120731 at Mon Dec  1 06:15:33 2014
 By Orthosie Webhosting
Generated by Fontographer 4.1.5
</metadata>
<defs>
<font id="00611Regular" horiz-adv-x="1024" >
  <font-face 
    font-family="00611Regular"
    font-weight="400"
    font-stretch="normal"
    units-per-em="2048"
    panose-1="0 0 4 0 0 0 0 0 0 0"
    ascent="1638"
    descent="-410"
    x-height="862"
    cap-height="1384"
    bbox="-342 -483 2288 1964"
    underline-thickness="84"
    underline-position="-167"
    unicode-range="U+0020-F002"
  />
<missing-glyph 
d="M128 0v1964h768v-1964h-768zM256 128h512v1708h-512v-1708z" />
    <glyph glyph-name=".notdef" 
d="M128 0v1964h768v-1964h-768zM256 128h512v1708h-512v-1708z" />
    <glyph glyph-name=".null" horiz-adv-x="0" 
 />
    <glyph glyph-name="glyph2" horiz-adv-x="541" 
 />
    <glyph glyph-name="space" unicode=" " horiz-adv-x="541" 
 />
    <glyph glyph-name="exclam" unicode="!" horiz-adv-x="606" 
d="M289 326l-94 960q-4 131 108 131q54 0 82 -33q31 -37 27 -98l-3 -52l-6 -75l-86 -833h-28zM303 -16q-48 0 -83.5 35t-35.5 83q0 50 34.5 84.5t84.5 34.5q49 0 84 -35t35 -84t-35 -83.5t-84 -34.5z" />
    <glyph glyph-name="quotedbl" unicode="&#x22;" horiz-adv-x="678" 
d="M518 864h-31l-69 496q0 102 86 102q39 0 62 -26q24 -29 22 -74l-2 -41zM190 864h-32l-68 498q-3 44 22 74q21 26 62 26q86 0 86 -100l-3 -34l-1 -7z" />
    <glyph glyph-name="numbersign" unicode="#" horiz-adv-x="1575" 
d="M700 868l-100 -286h289l102 286h-291zM778 1456h133l-168 -471h287l168 471h131l-166 -471h307l-40 -117h-310l-100 -286h332l-43 -115h-330l-166 -469h-133l166 469h-287l-166 -469h-131l166 469h-324l43 115h322l100 286h-348l43 117h348z" />
    <glyph glyph-name="dollar" unicode="$" horiz-adv-x="1081" 
d="M555 43q227 36 227 272q0 199 -227 334v-606zM504 870v475q-90 0 -147.5 -62t-57.5 -153q0 -130 205 -260zM555 0v-199h-51l-1 201q-158 0 -273 92q-105 84 -105 209q0 63 25 110q31 60 88 60q38 0 64 -28t26 -66q0 -33 -32 -90t-32 -86q0 -66 65 -111q76 -53 174 -53
l1 639q-159 87 -228 150q-114 105 -114 235q0 135 93 223q103 98 249 98v91h51v-90q137 0 234 -77q85 -67 85 -171q0 -113 -94 -113q-84 0 -84 80q0 21 16.5 63t16.5 64q0 76 -101 105q-34 9 -73 9v-505q173 -98 250 -177q117 -119 117 -272q0 -170 -98.5 -272.5
t-268.5 -118.5z" />
    <glyph glyph-name="percent" unicode="%" horiz-adv-x="1622" 
d="M1243 -35q-146 0 -235 152q-76 128 -76 284q0 154 77 283q89 152 234 152t234 -152q75 -128 75 -283q0 -157 -75 -284q-88 -152 -234 -152zM377 549q-145 0 -234 151q-75 128 -75 283t75 283q89 151 234 151t234 -151q75 -128 75 -283q0 -157 -74 -284
q-89 -150 -235 -150zM1241 6q92 0 131 163q23 98 23 232q0 394 -154 394q-92 0 -131 -163q-23 -98 -23 -231q0 -395 154 -395zM377 588q72 0 113 102q40 99 40 293q0 395 -153 395q-152 0 -152 -395t152 -395zM295 -35l944 1452h84l-942 -1452h-86z" />
    <glyph glyph-name="ampersand" unicode="&#x26;" horiz-adv-x="1489" 
d="M874 203q-172 -236 -387 -236q-162 0 -271.5 105t-109.5 266q0 268 314 453q-156 224 -156 350q0 121 87 200q83 76 206 76q115 0 203 -60q98 -68 98 -179q0 -102 -88 -190q-51 -52 -174 -130l160 -211l184 -233q88 141 113 242q8 32 8 57q0 59 -36 90t-105 31v28h391
v-28q-120 0 -241 -256q-62 -130 -101 -199q150 -183 230 -250.5t138 -67.5q98 0 115 111l25 -6q-8 -92 -76 -147q-64 -52 -158 -52q-161 0 -369 236zM571 889q164 109 164 282q0 90 -45 147q-50 62 -137 62q-69 0 -112.5 -43t-43.5 -112q0 -104 174 -336zM852 231l-78 94
q-13 16 -74 92q-19 23 -71 90q-93 120 -187 253q-147 -90 -147 -309q0 -141 74 -258q85 -134 219 -134q137 0 264 172z" />
    <glyph glyph-name="quotesingle" unicode="'" horiz-adv-x="348" 
d="M190 864h-32l-66 457q0 10 -2 16v23q0 102 84 102q86 0 86 -100l-3 -34l-1 -7z" />
    <glyph glyph-name="parenleft" unicode="(" horiz-adv-x="729" 
d="M643 -309q-212 155 -327 379t-115 485t116 485q114 221 326 377l23 -26q-291 -279 -291 -836q0 -274 74 -485.5t217 -350.5z" />
    <glyph glyph-name="parenright" unicode=")" horiz-adv-x="729" 
d="M90 1417q212 -155 326 -377q116 -225 116 -485q0 -261 -115 -484.5t-327 -379.5l-22 28q290 280 290 836q0 270 -73.5 484t-216.5 352z" />
    <glyph glyph-name="asterisk" unicode="*" horiz-adv-x="948" 
d="M489 975v-21q0 -74 38 -160t38 -120q0 -88 -90 -88q-44 0 -68 23t-24 65q0 28 37 120.5t37 155.5v27q-36 -19 -140 -132q-90 -97 -131 -97q-36 0 -62 26t-26 66q0 71 86 95q36 2 110 11q26 3 63 14q50 15 83 44q-85 59 -197 59h-13q-9 0 -17 2q-43 0 -79 29t-36 71
q0 37 25.5 64.5t62.5 27.5q40 0 128 -96q101 -111 145 -133v21q0 64 -38 159t-38 119q0 90 90 90q92 0 92 -88q0 -29 -36.5 -122t-36.5 -156v-25q34 19 139 134q89 97 133 97q32 0 59 -29t27 -63q0 -37 -30 -64q-35 -32 -74 -34l-16 -1q-150 -9 -222 -67q78 -47 202 -59
q18 0 25 -2q49 -4 82 -33.5t33 -70.5q0 -35 -28.5 -62t-63.5 -27q-37 0 -125 97q-101 111 -144 133z" />
    <glyph glyph-name="plus" unicode="+" horiz-adv-x="1706" 
d="M795 1221h118v-551h539v-117h-539v-553h-118v553h-541v117h541v551z" />
    <glyph glyph-name="comma" unicode="," horiz-adv-x="541" 
d="M301 4q-19 -9 -32 -12l-29 -4q-44 0 -72.5 29.5t-28.5 78.5q0 51 34 88t85 37q65 0 101 -56q32 -48 32 -116q0 -232 -260 -362l-12 24q128 84 170 211q12 39 12 82z" />
    <glyph glyph-name="hyphen" unicode="-" horiz-adv-x="639" 
d="M70 383v119h499v-119h-499z" />
    <glyph glyph-name="hyphen" unicode="&#x2010;" horiz-adv-x="639" 
d="M70 383v119h499v-119h-499z" />
    <glyph glyph-name="period" unicode="." horiz-adv-x="541" 
d="M270 -16q-47 0 -82.5 35.5t-35.5 82.5q0 50 34 84.5t84 34.5q49 0 84 -35t35 -84t-35 -83.5t-84 -34.5z" />
    <glyph glyph-name="slash" unicode="/" horiz-adv-x="664" 
d="M590 1417h94l-682 -1607h-94z" />
    <glyph glyph-name="zero" unicode="0" horiz-adv-x="1081" 
d="M541 -33q-126 0 -246 142q-99 117 -152 267t-53 316q0 335 205 582q85 103 184 133q32 10 62 10q124 0 243 -141q205 -243 205 -584q0 -335 -205 -581q-120 -144 -243 -144zM541 4q122 0 189 179.5t67 508.5q0 237 -36 402q-62 286 -220 286t-220 -286q-36 -165 -36 -402
q0 -238 36 -402q62 -286 220 -286z" />
    <glyph glyph-name="one" unicode="1" horiz-adv-x="1081" 
d="M469 1249h-209l1 29q128 0 229 36q83 29 126 89h23l-6 -67l-2 -103v-930q0 -164 38 -216q43 -59 138 -59v-28h-516v28q95 0 139 60q39 53 39 215v946z" />
    <glyph glyph-name="two" unicode="2" horiz-adv-x="1081" 
d="M47 0v33q289 278 431 460q249 321 249 560q0 143 -64 230q-72 97 -210 97q-117 0 -186.5 -76.5t-69.5 -195.5q0 -120 67 -198q73 -87 172 -79l12 1l13 2l2 -11q-66 -45 -137 -45q-108 0 -174 82q-60 76 -60 187q0 169 111 272q108 100 278 100q184 0 305 -117t121 -301
q0 -222 -252 -488q-115 -122 -428 -372h359q145 0 202 39.5t105 173.5h25l-76 -354h-795z" />
    <glyph glyph-name="three" unicode="3" horiz-adv-x="1081" 
d="M586 745q342 -42 342 -354q0 -188 -145 -309q-137 -115 -328 -115q-146 0 -256 73q-127 83 -127 222q0 90 61 147.5t152 57.5h4l6 -8q-100 -82 -100 -197t77.5 -186.5t192.5 -71.5q274 0 274 350q0 114 -36 217q-49 142 -142 142q-21 0 -82.5 -38t-101.5 -38
q-74 0 -74 65q0 47 55 68q16 6 35 6q7 0 65 -7l58 -7q100 0 154 101q45 82 45 190q0 134 -59 223q-68 104 -195 104q-83 0 -132.5 -50.5t-49.5 -133.5q0 -59 28 -108q34 -58 88 -58l2 -10l-44 -14l-34 -5q-161 0 -161 160q0 121 108 193q94 63 221 63q170 0 280 -90
q120 -96 120 -262q0 -251 -301 -320z" />
    <glyph glyph-name="four" unicode="4" horiz-adv-x="1081" 
d="M582 381v764l-461 -764h461zM741 381h21q84 0 118 53q23 36 35 133h29v-413h-29q-11 97 -37 135q-35 51 -122 51h-15v-37q0 -162 39 -216q42 -58 137 -58l1 -29h-515l1 29q95 0 138 59q40 55 40 215v37h-512v41l628 1036h43v-1036z" />
    <glyph glyph-name="five" unicode="5" horiz-adv-x="1081" 
d="M252 641l162 762q99 -39 209 -39q155 0 260 63q0 -104 -82 -159q-70 -47 -178 -47q-90 0 -195 32l-104 -471q76 103 219 103q164 0 267 -120q99 -114 99 -280q0 -214 -145 -366t-358 -152q-131 0 -237 64q-124 75 -124 198q0 103 84 103q96 0 92 -103l-2 -61
q-3 -83 43 -125q42 -39 135 -39q171 0 260 173q70 137 70 325q0 130 -41 220q-55 120 -170 120q-156 0 -221 -207z" />
    <glyph glyph-name="six" unicode="6" horiz-adv-x="1081" 
d="M559 2q134 0 196 156q44 110 44 268q0 161 -51 283q-68 165 -207 165q-133 0 -195 -153q-45 -111 -45 -266q0 -207 71.5 -330t186.5 -123zM305 762q111 149 281 149q185 0 292 -139q99 -127 99 -317q0 -201 -109 -339q-119 -149 -315 -149q-218 0 -337 202
q-99 168 -99 402q0 190 59 365q108 321 331 434q94 47 195 47q83 0 148 -29q84 -38 84 -112q0 -82 -80 -82q-75 0 -94 100q-15 82 -105 82q-155 0 -256 -243q-66 -158 -94 -371z" />
    <glyph glyph-name="seven" unicode="7" horiz-adv-x="1081" 
d="M899 1241h-317q-159 0 -236 -33q-103 -45 -153 -172h-29l98 400h35q0 -28 15 -40t69 -12h608v-14l-510 -1260q-59 -145 -135 -145q-37 0 -61.5 24.5t-24.5 61.5q0 35 49 123l10 18z" />
    <glyph glyph-name="eight" unicode="8" horiz-adv-x="1081" 
d="M621 786q153 131 153 320q0 120 -58 193q-63 81 -179 81q-106 0 -167 -76q-57 -70 -57 -178q0 -124 99 -213q61 -55 209 -127zM459 680q-199 -111 -199 -334q0 -143 70 -237q79 -105 217 -105q119 0 192 84q70 80 70 201q0 141 -112 244q-71 65 -238 147zM420 702
q-258 140 -258 359q0 158 110 259q107 97 267 97t265 -81q116 -89 116 -244q0 -95 -55 -168t-203 -162q303 -154 303 -397q0 -182 -127 -293q-122 -107 -306 -107q-170 0 -292 100q-131 107 -131 273q0 258 311 364z" />
    <glyph glyph-name="nine" unicode="9" horiz-adv-x="1081" 
d="M514 1382q-134 0 -196 -156q-44 -111 -44 -268q0 -160 51 -283q69 -167 207 -167q134 0 196 155q44 110 44 267q0 162 -50 285q-69 167 -208 167zM772 623q-85 -111 -198 -140q-40 -10 -82 -10q-185 0 -293 139q-99 128 -99 318q0 194 107 334q117 153 305 153
q226 0 347 -197q102 -166 102 -407q0 -399 -222 -661q-156 -185 -377 -185q-81 0 -142 31q-77 40 -77 113q0 79 78 79q65 0 92 -93q14 -50 33 -68q22 -21 70 -21q160 0 261 241q66 156 95 374z" />
    <glyph glyph-name="colon" unicode=":" horiz-adv-x="598" 
d="M299 -16q-48 0 -84.5 35t-36.5 83q0 49 36 85t85 36t84 -36t35 -85t-35 -83.5t-84 -34.5zM299 653q-47 0 -84 36t-37 83q0 48 36.5 83.5t84.5 35.5q49 0 84 -35t35 -84q0 -48 -35.5 -83.5t-83.5 -35.5z" />
    <glyph glyph-name="semicolon" unicode=";" horiz-adv-x="598" 
d="M332 4q-21 -10 -33 -12l-29 -4q-43 0 -71.5 29.5t-28.5 78.5q0 51 34 88t85 37q64 0 101 -56q32 -49 32 -116q0 -233 -262 -362l-13 24q185 124 185 293zM295 653q-47 0 -84 36t-37 83q0 49 36 84t85 35t84 -35t35 -84q0 -48 -35.5 -83.5t-83.5 -35.5z" />
    <glyph glyph-name="less" unicode="&#x3c;" horiz-adv-x="1706" 
d="M1442 1145v-127l-1000 -408l1000 -405v-129l-1178 483v103z" />
    <glyph glyph-name="equal" unicode="=" horiz-adv-x="1706" 
d="M254 477h1198v-117h-1198v117zM254 860h1198v-117h-1198v117z" />
    <glyph glyph-name="greater" unicode="&#x3e;" horiz-adv-x="1706" 
d="M264 1145l1178 -483v-103l-1178 -483v129l1000 405l-1000 408v127z" />
    <glyph glyph-name="question" unicode="?" horiz-adv-x="995" 
d="M293 326v526h44q0 -102 54 -169q50 -62 131 -62q168 0 168 325q0 157 -43 271q-61 161 -192 161q-81 0 -103 -88q-17 -68 -28 -88q-23 -43 -72 -43q-37 0 -58.5 20.5t-21.5 49.5q0 96 89 147q73 41 177 41q196 0 320.5 -134.5t124.5 -346.5q0 -151 -84 -254
q-90 -111 -238 -111q-123 0 -223 111v-356h-45zM315 -16q-47 0 -82.5 35.5t-35.5 82.5q0 50 34 84.5t84 34.5t85.5 -34.5t35.5 -84.5q0 -49 -36 -83.5t-85 -34.5z" />
    <glyph glyph-name="at" unicode="@" horiz-adv-x="2019" 
d="M1190 336q-123 -211 -309 -211q-135 0 -210 104q-67 92 -67 232q0 229 187 409q142 136 299 136q177 0 221 -195l53 180h143l-171 -615q-17 -85 -17 -104q0 -102 94 -102q75 0 164 66q252 188 252 546q0 275 -203 455q-84 75 -213.5 120.5t-269.5 45.5q-375 0 -617 -234
q-195 -189 -247 -469q-17 -92 -17 -194q0 -339 238 -539q114 -96 260.5 -146t320.5 -50q329 0 613 206l30 -36q-297 -222 -655 -222q-373 0 -616 185q-308 235 -308 633q0 415 336 694q198 164 456 207q84 14 179 14q334 0 540 -174q220 -185 220 -512q0 -333 -221 -533
q-56 -50 -122.5 -79t-135.5 -29q-145 0 -191 120q-16 39 -16 91zM1098 965q-103 0 -191 -131q-157 -234 -157 -459q0 -82 33 -136q39 -65 116 -65q130 0 242 179q125 202 125 399q0 84 -41 144q-47 69 -127 69z" />
    <glyph glyph-name="A" unicode="A" horiz-adv-x="1356" 
d="M362 596h439l-217 547zM346 549l-43 -103q-52 -125 -69 -220q-5 -29 -5 -52q0 -121 179 -145v-29h-447v29q129 0 326 486l366 902h39l447 -1088q124 -300 245 -300v-29h-583v28q77 0 125 32q41 27 41 79q0 37 -52 172l-92 238h-477z" />
    <glyph glyph-name="B" unicode="B" horiz-adv-x="1389" 
d="M502 715v-328q0 -189 19 -241q39 -103 188 -103q352 0 352 336t-428 336h-131zM86 0v29h16q103 0 148 87q34 66 38 190q-3 -99 -3 188v397q0 292 3 188q-4 124 -38 190q-45 87 -148 87h-16v28h602q488 0 488 -311q0 -241 -308 -309q432 -60 432 -393q0 -104 -49 -188
q-52 -89 -143 -130q-59 -27 -139 -41q-68 -12 -254 -12h-629zM502 1341v-583h78q173 0 257 52q105 65 105 226q0 305 -338 305h-102z" />
    <glyph glyph-name="C" unicode="C" horiz-adv-x="1419" 
d="M1313 406q0 -193 -157 -321q-144 -118 -378 -118q-313 0 -494.5 184.5t-181.5 497.5q0 332 188 545q196 223 523 223q85 0 223 -42t170 -42q36 0 60 47h30l11 -440h-27q-50 185 -149 297q-120 137 -291 137q-250 0 -380 -238q-104 -192 -104 -464q0 -266 111 -436
q131 -199 383 -199q177 0 291 96q119 99 135 273h37z" />
    <glyph glyph-name="D" unicode="D" horiz-adv-x="1565" 
d="M86 0v29h16q103 0 148 87q34 66 38 190q-3 -99 -3 188v397q0 292 3 188q-4 124 -38 190q-45 87 -148 87h-16v28h584q360 0 528 -114q135 -91 208 -254q69 -151 69 -324q0 -172 -67 -321q-72 -160 -204 -254q-165 -117 -534 -117h-584zM502 1341v-954q0 -184 19 -237
q38 -107 181 -107q251 0 393 206q124 180 124 443q0 292 -141 463q-152 186 -437 186h-139z" />
    <glyph glyph-name="E" unicode="E" horiz-adv-x="1356" 
d="M86 0v29h16q103 0 148 87q34 66 38 190q-3 -99 -3 188v397q0 292 3 188q-4 124 -38 190q-45 87 -148 87h-16v28h1061l14 -331h-26q-35 171 -150 235q-92 53 -283 53h-200v-587q190 0 263 54.5t73 186.5h28v-546h-28q0 144 -80 208q-74 60 -256 60v-299q0 -238 34 -294
q50 -83 261 -83q205 0 313 87q113 91 141 290h29l-14 -418h-1180z" />
    <glyph glyph-name="F" unicode="F" horiz-adv-x="1143" 
d="M502 537q0 -310 -3 -221q4 -133 47 -200q55 -87 181 -87h16v-29h-657v29h16q103 0 148 87q34 66 38 190q-3 -99 -3 188v397q0 292 3 188q-4 124 -38 190q-45 87 -148 87h-16v28h1038l15 -331h-29q-36 170 -149 235q-93 53 -283 53h-176v-587q173 0 243 55t70 186h29v-546
h-29q0 140 -73.5 204t-239.5 64v-180z" />
    <glyph glyph-name="G" unicode="G" horiz-adv-x="1546" 
d="M1337 104l-65 7q-275 -144 -502 -144q-312 0 -492 195q-176 190 -176 504q0 323 193 534q198 217 518 217q85 0 223 -42t170 -42q36 0 60 47h30l11 -440h-27q-50 185 -149 297q-120 137 -291 137q-255 0 -383 -247q-101 -194 -101 -474q0 -255 105 -431
q127 -212 366 -212q139 0 222.5 77.5t83.5 215.5q0 105 -49 151q-54 50 -166 50v26h616v-26q-119 0 -165 -48q-40 -42 -36 -190z" />
    <glyph glyph-name="H" unicode="H" horiz-adv-x="1698" 
d="M1194 696h-692v-182q0 -346 -3 -197q3 -130 37 -198q45 -90 150 -90h16v-29h-616v29h16q103 0 148 87q34 66 38 190q-3 -99 -3 188v397q0 292 3 188q-4 124 -38 190q-45 87 -148 87h-16v28h616v-28h-16q-104 0 -150 -92q-34 -70 -37 -200q3 140 3 -194v-127h692v148
q0 292 3 187q-4 125 -38 191q-45 87 -147 87h-17v28h617v-28h-17q-102 0 -147 -87q-34 -66 -38 -191q3 88 3 -187v-397q0 -297 -3 -188q3 -124 37 -190q45 -87 148 -87h17v-29h-617v29h17q102 0 147 87q34 66 38 191q-3 -100 -3 187v202z" />
    <glyph glyph-name="I" unicode="I" horiz-adv-x="807" 
d="M717 1384v-28h-17q-104 0 -150 -92q-34 -70 -37 -200q3 140 3 -194v-356q0 -354 -4 -195q3 -130 38 -199q45 -91 150 -91h17v-29h-627v29h16q103 0 148 87q34 66 38 190q-3 -99 -3 188v397q0 292 3 188q-4 124 -38 190q-45 87 -148 87h-16v28h627z" />
    <glyph glyph-name="J" unicode="J" horiz-adv-x="729" 
d="M270 891q0 297 3 188q-3 124 -37 190q-45 87 -148 87h-16v28h616v-28h-16q-105 0 -151 -92q-34 -69 -37 -200q3 141 3 -194v-858q0 -191 -93 -270q-86 -72 -281 -72q-111 0 -194 38q-109 49 -109 147q0 94 92 94q39 0 64 -23q20 -18 38 -71l1 -3q46 -139 138 -139
q89 0 115 83q12 41 12 159v936z" />
    <glyph glyph-name="K" unicode="K" horiz-adv-x="1421" 
d="M502 514q0 -346 -3 -197q3 -130 37 -198q45 -90 150 -90h16v-29h-616v29h16q103 0 148 87q34 66 38 190q-3 -99 -3 188v397q0 292 3 188q-4 124 -38 190q-45 87 -148 87h-16v28h616v-28h-16q-104 0 -150 -92q-34 -70 -37 -200q3 140 3 -194v-178l31 29q528 494 528 565
q0 70 -109 70h-24v28h424v-28q-97 0 -408 -300l-29 -28l-153 -149l424 -596q181 -254 293 -254v-29h-627v28q70 0 116 26q38 22 38 63q0 23 -14 55q-14 29 -40 66l-352 495l-98 -92v-127z" />
    <glyph glyph-name="L" unicode="L" horiz-adv-x="1298" 
d="M502 418q0 -226 35 -287q52 -90 251 -90q210 0 319 84q113 89 144 293h29l-14 -418h-1180v29h16q103 0 148 87q34 66 38 190q-3 -99 -3 188v397q0 292 3 188q-4 124 -38 190q-45 87 -148 87h-16v28h616v-28h-16q-104 0 -150 -92q-34 -70 -37 -200q3 140 3 -194v-452z" />
    <glyph glyph-name="M" unicode="M" horiz-adv-x="1872" 
d="M317 1253v-856q0 -218 52 -293t186 -75v-29h-516v29q132 0 185 75q50 71 50 293v451q0 49 -3 148t-3 148q0 94 -18 146q-17 48 -102 62q-29 4 -72 4v28h418l444 -1089l446 1089h404v-28q-79 0 -124 -17q-39 -15 -50 -47q-20 -61 -20 -158q0 -48 -3.5 -143t-3.5 -143v-311
q0 -75 4 -178l3 -116q0 -95 20 -151q17 -48 102 -59q32 -5 72 -5v-28h-617l1 29q148 0 174 63q17 62 17 154q0 15 5 168q2 61 2 123v716l-510 -1243h-35z" />
    <glyph glyph-name="N" unicode="N" horiz-adv-x="1567" 
d="M1282 354v633q0 172 -25 244q-45 125 -182 125v28h455v-28q-136 0 -180 -126q-25 -72 -25 -243v-1001h-29l-979 1224v-813q0 -172 25 -243q44 -126 180 -126v-28h-452v29q136 0 180 126q24 70 24 242v602q0 173 -22 237q-41 120 -176 120v28h379z" />
    <glyph glyph-name="O" unicode="O" horiz-adv-x="1659" 
d="M829 10q246 0 377 229q107 187 107 453q0 273 -103 455q-127 227 -379 227q-245 0 -376 -227q-109 -188 -109 -451q0 -264 107 -454q132 -232 376 -232zM90 686q0 253 162 453q225 278 590 278q215 0 399 -112q190 -116 271 -308q57 -136 57 -307q0 -311 -210 -512
q-101 -97 -243 -154t-282 -57q-312 0 -525 199q-219 205 -219 520z" />
    <glyph glyph-name="P" unicode="P" horiz-adv-x="1200" 
d="M502 506q0 -283 -3 -208q5 -124 45 -187q52 -82 171 -82h16v-29h-645v29h16q103 0 148 87q34 66 38 190q-3 -99 -3 188v397q0 292 3 188q-4 124 -38 190q-45 87 -148 87h-16v28h629q197 0 319 -73q150 -89 150 -273q0 -360 -504 -360h-178v-172zM502 721h102
q340 0 340 293q0 327 -377 327h-65v-620z" />
    <glyph glyph-name="Q" unicode="Q" horiz-adv-x="1659" 
d="M889 -27l-50 -6l-34 -2q-79 -5 -195 30q-102 31 -192 89q-328 210 -328 602q0 254 162 451q230 280 590 280q215 0 399 -112q190 -116 271 -308q57 -136 57 -307q0 -230 -122 -410t-337 -257q120 -103 264 -103q214 0 284 155q23 50 23 113h29q0 -467 -395 -467
q-224 0 -426 252zM860 12q-95 158 -201 158q-27 0 -59 -12q-26 -10 -61 -35q56 -56 123.5 -84.5t140.5 -28.5h30q17 0 27 2zM1047 74q266 173 266 618q0 273 -103 455q-127 227 -379 227q-245 0 -376 -227q-109 -188 -109 -451q0 -178 41 -313q42 -138 123 -231
q132 84 227 84q154 0 310 -162z" />
    <glyph glyph-name="R" unicode="R" horiz-adv-x="1432" 
d="M502 717h90q344 0 344 295q0 329 -330 329h-104v-624zM502 514q0 -346 -3 -197q3 -130 37 -198q45 -90 150 -90h16v-29h-616v29h16q103 0 148 87q34 66 38 190q-3 -99 -3 188v397q0 292 3 188q-4 124 -38 190q-45 87 -148 87h-16v28h592q487 0 487 -352q0 -288 -321 -334
q160 0 276 -256q43 -96 74 -151q146 -262 315 -262h9v-29h-394q-80 124 -161 294l-80 168q-60 126 -130 173q-58 39 -178 39h-73v-160z" />
    <glyph glyph-name="S" unicode="S" horiz-adv-x="1139" 
d="M137 -10l-18 434h26q33 -178 130 -288q111 -126 280 -126q121 0 191 79q67 76 67 198q0 120 -85 204q-59 59 -193 123q-194 94 -261 151q-122 104 -122 259q0 165 107 279t271 114q103 0 198 -38l95 -38q37 0 50 54h30l19 -385h-25q-116 364 -354 364q-96 0 -155.5 -61.5
t-59.5 -157.5q0 -108 85 -182q50 -44 181 -107l131 -63q102 -49 123 -64q176 -125 176 -348q0 -194 -133 -313q-127 -113 -324 -113q-91 0 -192 37q-113 41 -150 45q-43 0 -55 -57h-33z" />
    <glyph glyph-name="T" unicode="T" horiz-adv-x="1421" 
d="M819 494q0 -297 -3 -188q3 -124 37 -190q45 -87 148 -87h17v-29h-615v29h17q102 0 147 87q34 66 38 191q-3 -100 -3 187v847h-96q-206 0 -297 -67q-98 -72 -135 -268h-27l23 378h1282l22 -378h-26q-37 195 -136 268q-92 67 -297 67h-96v-847z" />
    <glyph glyph-name="U" unicode="U" horiz-adv-x="1507" 
d="M1233 987q0 172 -25 244q-45 125 -182 125v28h453l-1 -28q-136 0 -180 -126q-24 -71 -24 -243v-436q0 -311 -105 -440q-118 -144 -419 -144q-300 0 -428 139q-60 65 -77 195q-7 58 -7 215v354q0 352 4 196q-3 130 -38 199q-46 91 -151 91h-16v28h616v-28h-16
q-103 0 -148 -87q-34 -66 -37 -190q3 109 3 -188v-373q0 -239 70 -343q86 -126 311 -126q234 0 324 134q73 108 73 358v446z" />
    <glyph glyph-name="V" unicode="V" horiz-adv-x="1319" 
d="M637 -29l-436 1147q-54 141 -103 188q-53 50 -129 50v28h604v-28q-76 0 -125 -34q-38 -27 -38 -81q0 -37 22 -110q6 -16 17 -48l292 -821l260 668q70 180 70 280q0 146 -163 146l-1 28h463v-28q-113 -18 -194 -146q-38 -61 -105 -231l-395 -1008h-39z" />
    <glyph glyph-name="W" unicode="W" horiz-adv-x="2042" 
d="M682 -29h-37l-436 1147q-53 140 -103 187q-54 51 -131 51v28h598v-28q-76 0 -125 -34q-38 -27 -38 -81q0 -19 10 -65q7 -32 29 -93l290 -800l237 723q28 112 28 141q0 157 -103 196q-37 13 -86 13v28h571v-28q-97 -9 -131 -38t-34 -101q0 -42 5 -65l15 -69l232 -821
l247 668q35 95 52 163q18 73 18 117q0 146 -164 146v28h461v-28q-112 -15 -193 -146q-40 -63 -104 -231l-385 -1008h-47l-324 1080z" />
    <glyph glyph-name="X" unicode="X" horiz-adv-x="1403" 
d="M768 0v28q87 0 133 25q35 19 35 64q0 63 -107 223l-194 291l-170 -215q-156 -197 -156 -269q0 -46 36 -74q32 -25 116 -44v-29h-496v28q92 12 202 109q122 108 335 387l110 144l-331 506q-66 101 -125 140q-64 42 -142 42v28h648l-1 -28q-145 0 -145 -82q0 -56 104 -222
l130 -208l149 190q131 167 131 234q0 88 -131 88h-8v28h457v-28q-161 0 -448 -383l-9 -12l-117 -150l257 -397q250 -385 427 -385v-29h-690z" />
    <glyph glyph-name="Y" unicode="Y" horiz-adv-x="1247" 
d="M750 397q0 -186 15 -240q35 -128 167 -128h16v-29h-616v29h16q132 0 167 128q15 55 15 240v189l-324 564q-117 206 -243 206v28h594v-28q-71 0 -112 -24q-33 -19 -33 -62q0 -51 37 -117l276 -494l211 367q62 108 83 188q7 26 7 41q0 48 -39 74.5t-112 26.5l-1 28h441v-28
q-134 0 -331 -338l-7 -12l-227 -394v-215z" />
    <glyph glyph-name="Z" unicode="Z" horiz-adv-x="1395" 
d="M80 0v12l864 1329h-319q-215 0 -317 -60q-125 -72 -167 -265h-26l24 368h1071v-12l-852 -1329h308q288 0 419.5 86t194.5 307h29l-23 -436h-1206z" />
    <glyph glyph-name="bracketleft" unicode="[" horiz-adv-x="729" 
d="M272 -274v1658h365v-79h-234v-1500h234v-79h-365z" />
    <glyph glyph-name="backslash" unicode="\" horiz-adv-x="664" 
d="M74 1417l682 -1607h-94l-680 1607h92z" />
    <glyph glyph-name="bracketright" unicode="]" horiz-adv-x="729" 
d="M457 1384v-1658h-365v79h236v1500h-236v79h365z" />
    <glyph glyph-name="asciicircum" unicode="^" horiz-adv-x="2048" 
d="M934 1462h178l520 -565h-92l-518 436l-520 -436h-90z" />
    <glyph glyph-name="underscore" unicode="_" 
d="M0 -365h1024v-118h-1024v118z" />
    <glyph glyph-name="grave" unicode="`" 
d="M399 1300l289 -299h-67l-330 207q-62 39 -62 82q0 29 21.5 49.5t50.5 20.5q40 0 98 -60z" />
    <glyph glyph-name="a" unicode="a" horiz-adv-x="930" 
d="M567 492l-107 -59q-227 -125 -227 -261q0 -69 37 -112q39 -46 107 -46q190 0 190 281v197zM561 78q-80 -107 -239 -107q-252 0 -252 226q0 161 311 250l14 4q104 30 134 57q36 32 36 86v74q0 186 -168 186q-61 0 -87 -20.5t-38 -78.5q-21 -104 -86 -104q-77 0 -77 72
q0 90 112 135q81 33 187 33q153 0 225 -48q88 -58 88 -202v-455q0 -163 80 -163q60 0 121 63l22 -18q-62 -97 -199 -97q-160 0 -184 107z" />
    <glyph glyph-name="b" unicode="b" horiz-adv-x="1034" 
d="M141 -29v1209q0 93 -26 129q-30 44 -117 51v22q56 5 134 16l167 23v-633q109 103 238 103q187 0 307 -139q114 -132 114 -322q0 -203 -108 -327q-114 -132 -313 -132q-93 0 -186 35l-93 35q-52 0 -92 -70h-25zM299 561v-264q0 -139 34 -202q46 -87 171 -87q268 0 268 420
q0 203 -68 312.5t-192 109.5q-213 0 -213 -289z" />
    <glyph glyph-name="c" unicode="c" horiz-adv-x="846" 
d="M817 213q-19 -120 -110 -183q-83 -59 -209 -59q-194 0 -311 121t-117 316q0 202 115 338q123 145 321 145q94 0 177 -36q108 -46 108 -128t-78 -82q-69 0 -88.5 104.5t-116.5 104.5q-139 0 -202 -157q-46 -113 -46 -275q0 -166 62 -269q76 -126 231 -126q192 0 229 186
h35z" />
    <glyph glyph-name="d" unicode="d" horiz-adv-x="1096" 
d="M735 1180q0 93 -26 130q-31 42 -119 50v22l160 18q56 6 143 21v-1208q0 -100 27 -138q30 -42 104 -42v-23l-152 -18l-137 -21v109q-91 -109 -264 -109q-178 0 -291 139q-104 129 -104 312q0 194 113 327q119 142 309 142q128 0 237 -103v392zM735 301v262q0 287 -213 287
q-145 0 -212 -146q-48 -106 -48 -272q0 -418 268 -418q109 0 162 94q43 75 43 193z" />
    <glyph glyph-name="e" unicode="e" horiz-adv-x="944" 
d="M279 612l438 1q0 104 -63 177q-55 64 -142 64q-98 0 -162 -74q-56 -66 -71 -168zM268 573l-6 -55l-2 -45q-9 -194 85 -328q84 -122 226 -122q204 0 277 194h41q-76 -246 -373 -246q-205 0 -325.5 118t-120.5 323q0 207 125 341q128 138 333 138q145 0 238 -81
q98 -85 98 -228v-9h-596z" />
    <glyph glyph-name="f" unicode="f" horiz-adv-x="612" 
d="M217 825h-141v37h141v228q0 163 68 238q72 79 233 79q80 0 142 -25q85 -34 85 -102q0 -70 -75 -70q-59 0 -78 76q-21 84 -94 84q-89 0 -113 -97q-10 -39 -10 -169v-242h209v-37h-209v-518q0 -170 9 -198q27 -80 151 -80h10v-29h-475v29h8q110 0 133 89q6 24 6 189v518z
" />
    <glyph glyph-name="g" unicode="g" horiz-adv-x="877" 
d="M434 344q108 0 138 146q10 48 10 110q0 258 -148 258q-151 0 -151 -258q0 -256 151 -256zM350 326q-223 64 -223 260q0 127 87 216t214 89q135 0 221 -74q72 76 168 76q38 0 72 -19q39 -23 39 -59q0 -51 -56 -51q-27 0 -61 40t-57 40q-26 0 -82 -45q69 -79 69 -207
q0 -118 -70 -192q-75 -81 -200 -93l-80 -8q-188 -19 -188 -98q0 -71 125 -68l188 4q176 3 265 -65q85 -66 85 -207q0 -155 -146 -238q-118 -67 -286 -67q-153 0 -253 46q-134 62 -134 197q0 61 32 105q36 49 95 49q94 0 94 -86l-1 -11l-1 -9l-8 -1q-15 35 -61 35
q-95 0 -95 -108q0 -94 103 -141q78 -37 184 -37q132 0 222 46q116 60 116 179q0 116 -124 148q-53 14 -220 14q-270 0 -270 153q0 167 237 187z" />
    <glyph glyph-name="h" unicode="h" horiz-adv-x="1124" 
d="M360 307q0 -165 7 -190q23 -88 135 -88h8v-29h-455v29h8q112 0 134 88q6 22 6 190v873q0 94 -27 131q-31 41 -121 49v22l136 15l169 24v-643q123 115 302 115q155 0 211 -68q51 -61 51 -221v-297q0 -165 6 -189q24 -89 135 -89h8v-29h-455v29h9q109 0 132 90q7 26 7 188
v293q0 244 -184 244q-107 0 -176 -84q-25 -31 -35.5 -66t-10.5 -110v-277z" />
    <glyph glyph-name="i" unicode="i" horiz-adv-x="578" 
d="M375 307q0 -165 6 -189q24 -89 135 -89h8v-29h-454v29h8q110 0 133 89q6 24 6 189v324q0 94 -27 132q-31 43 -120 50v23q61 9 159 29q84 18 146 36v-594zM199 1313q0 38 28 66t66 28t66 -28t28 -66q0 -41 -26.5 -67.5t-67.5 -26.5q-42 0 -68 26t-26 68z" />
    <glyph glyph-name="j" unicode="j" horiz-adv-x="483" 
d="M184 631q0 98 -31 137q-36 45 -114 45v23q134 18 303 65v-993q0 -348 -301 -348q-75 0 -138 29q-81 37 -81 104q0 78 61 78q52 0 78 -74q35 -100 98 -100q125 0 125 258v776zM166 1313q0 37 27.5 65.5t64.5 28.5t66.5 -28.5t29.5 -65.5q0 -41 -26.5 -67.5t-69.5 -26.5
q-40 0 -66 27t-26 67z" />
    <glyph glyph-name="k" unicode="k" horiz-adv-x="1053" 
d="M360 436q295 262 295 334q0 44 -57 59q-21 5 -47 5v28h346v-28q-45 0 -123 -58q-73 -54 -258 -244l221 -235q121 -129 156 -160q118 -108 188 -108h9v-29h-494v28q49 0 80 18q26 15 26 42q0 34 -59 98l-227 248l-56 -47v-80q0 -165 7 -190q23 -88 135 -88h8v-29h-455v29
h8q112 0 134 88q6 22 6 190v873q0 94 -27 131q-31 41 -121 49v22l136 15l169 24v-985z" />
    <glyph glyph-name="l" unicode="l" horiz-adv-x="563" 
d="M360 307q0 -165 7 -190q23 -88 135 -88h8v-29h-455v29h8q112 0 134 88q6 22 6 190v873q0 94 -27 131q-31 41 -121 49v22l136 15l169 24v-1114z" />
    <glyph glyph-name="m" unicode="m" horiz-adv-x="1663" 
d="M903 768q138 125 303 125q150 0 207 -71q51 -63 51 -218v-297q0 -165 7 -190q23 -88 135 -88h8v-29h-455v29h8q110 0 134 89q6 25 6 189v293q0 244 -174 244q-88 0 -154 -68q-59 -59 -59 -196v-273q0 -165 6 -189q24 -89 135 -89h8v-29h-455v29h9q110 0 133 89
q6 24 6 189v293q0 244 -174 244q-88 0 -154 -68q-59 -59 -59 -196v-273q0 -165 6 -189q24 -89 135 -89h8v-29h-454v29h8q110 0 133 89q6 24 6 189v324q0 94 -27 132q-31 43 -120 50v23q157 21 280 65l12 -4l13 -119q123 115 289 115q194 0 239 -125z" />
    <glyph glyph-name="n" unicode="n" horiz-adv-x="1139" 
d="M375 307q0 -165 6 -189q24 -89 135 -89h8v-29h-454v29h8q110 0 133 89q6 24 6 189v324q0 94 -27 132q-31 43 -120 50v23q157 21 280 65l12 -4l13 -119q91 87 213 108q40 7 88 7q155 0 211 -68q51 -61 51 -221v-297q0 -165 6 -189q24 -89 135 -89h8v-29h-454v29h8
q89 0 114 39t25 239v293q0 244 -184 244q-105 0 -176 -84q-24 -28 -34.5 -65.5t-10.5 -110.5v-277z" />
    <glyph glyph-name="o" unicode="o" horiz-adv-x="1057" 
d="M528 854q-149 0 -217 -145q-51 -108 -51 -277t50 -277q68 -145 218 -145t218 145q51 108 51 277q0 422 -269 422zM528 891q193 0 325 -133t132 -326q0 -191 -133 -326t-324 -135q-192 0 -324 134.5t-132 326.5q0 191 132.5 325t323.5 134z" />
    <glyph glyph-name="p" unicode="p" horiz-adv-x="1096" 
d="M360 80v-197q0 -167 16 -203q31 -69 167 -69v-29h-488v29h8q112 0 134 88q6 22 6 190v742q0 96 -27 132q-30 42 -121 50v22q173 26 281 66l12 -4l12 -109q109 103 238 103q187 0 307 -139q115 -132 115 -322q0 -188 -102 -318q-110 -141 -293 -141q-171 0 -265 109z
M360 563v-262q0 -118 43 -193q53 -94 162 -94q269 0 269 418t-261 418q-213 0 -213 -287z" />
    <glyph glyph-name="q" unicode="q" horiz-adv-x="1034" 
d="M735 301v266q0 289 -213 289q-146 0 -212 -148q-48 -107 -48 -274q0 -206 68 -313t200 -107q205 0 205 287zM893 -117q0 -161 7 -186q23 -86 132 -86h8v-29h-487v29h12q127 0 157 78q13 35 13 200v191q-91 -109 -264 -109q-183 0 -293 141q-102 130 -102 318
q0 199 121 328q123 133 321 133q74 0 158 -31l84 -31q17 0 31 6t30 23l41 43h41l-8 -107l-2 -163v-748z" />
    <glyph glyph-name="r" unicode="r" horiz-adv-x="739" 
d="M375 301q0 -162 11 -193q28 -79 149 -79h12v-29h-477v29h8q110 0 133 89q6 24 6 189v324q0 94 -27 132q-31 43 -120 50v23q157 21 280 65l12 -4l7 -85l2 -101q89 180 243 180q150 0 150 -109q0 -32 -20.5 -51.5t-55.5 -19.5q-38 0 -81.5 57t-76.5 57q-61 0 -108 -100.5
t-47 -247.5v-176z" />
    <glyph glyph-name="s" unicode="s" horiz-adv-x="793" 
d="M109 -14v299h18q34 -132 83 -193q65 -82 183 -82q152 0 152 148q0 109 -152 194q-160 90 -204 149.5t-44 145.5q0 103 69 173.5t171 70.5q44 0 110 -24.5t74 -24.5q26 0 43 35h19v-256h-19q-48 231 -219 231q-57 0 -93 -37t-36 -94q0 -68 53 -118q31 -29 113 -73
q132 -70 179 -115q79 -76 79 -188q0 -119 -83 -190q-78 -66 -199 -66q-68 0 -143 29l-75 29q-16 0 -33 -12q-13 -9 -28 -31h-18z" />
    <glyph glyph-name="t" unicode="t" horiz-adv-x="649" 
d="M215 825h-123v37q97 16 154 80q45 51 82 158h32l-2 -238h240v-37h-240l-4 -555q0 -115 17 -163q31 -82 123 -82q89 0 147 92l23 -15q-68 -131 -232 -131q-235 0 -235 201v12z" />
    <glyph glyph-name="u" unicode="u" horiz-adv-x="1124" 
d="M764 557q0 194 -25.5 235.5t-113.5 41.5h-11v28h306v-649q0 -93 21 -128q28 -45 112 -52l-1 -23q-60 -7 -100.5 -12t-144.5 -20l-43 -7v113q-89 -84 -211 -106q-40 -7 -90 -7q-155 0 -212 67q-52 61 -52 220v299q0 194 -25.5 235.5t-114.5 41.5h-10v28h307v-600
q0 -244 185 -244q71 0 132 43t80 110q11 38 11 124v262z" />
    <glyph glyph-name="v" unicode="v" horiz-adv-x="915" 
d="M477 -29h-37l-256 641q-41 103 -71 145q-56 77 -133 77v28h442v-28q-115 -10 -115 -84q0 -32 15 -75q3 -9 12 -30l184 -477l176 430q35 86 35 143q0 93 -121 93v28h314v-28q-67 -11 -119 -94q-24 -38 -68 -144z" />
    <glyph glyph-name="w" unicode="w" horiz-adv-x="1331" 
d="M907 -29h-35l-200 643l-213 -643h-29l-242 641q-49 130 -89 171q-45 45 -115 51v28h438v-28q-115 -10 -115 -84q0 -31 27 -105l162 -442l219 659h26l209 -669l182 488q9 27 9 58q0 95 -123 95v28h313v-28q-102 -17 -186 -238z" />
    <glyph glyph-name="x" unicode="x" horiz-adv-x="901" 
d="M487 0v29q105 10 105 57q0 17 -18 50q-7 14 -23 36l-148 211l-67 -94q-80 -112 -80 -166q0 -94 125 -94v-29h-397v29h8q76 0 160 84q41 42 116 147l113 158l-205 294q-68 108 -170 122v28h420v-28q-92 -14 -92 -58q0 -12 12 -38q7 -18 29 -48l104 -145l78 94
q68 82 68 133q0 42 -50 57q-20 5 -47 5v28h336v-28q-105 0 -231 -160l-129 -164l225 -330q103 -151 191 -151h8v-29h-441z" />
    <glyph glyph-name="y" unicode="y" horiz-adv-x="915" 
d="M410 -182q-52 -125 -82 -168q-63 -92 -150 -92q-92 0 -92 75q0 27 22.5 45.5t49.5 18.5q16 0 47 -11.5t47 -11.5q47 0 88 82q76 152 76 219q0 45 -45 160l-187 477q-41 105 -71 146q-54 76 -133 76v28h442v-28q-115 -10 -115 -84q0 -32 15 -75q3 -9 12 -30l184 -477
l176 430q35 86 35 143q0 93 -121 93v28h314v-28q-67 -12 -119 -95q-24 -37 -68 -143z" />
    <glyph glyph-name="z" unicode="z" horiz-adv-x="909" 
d="M29 0v10l579 815h-194q-122 0 -184 -44q-69 -48 -93 -163h-24l30 244h658v-14l-574 -809h234q165 0 242 50q86 56 124 208h27l-31 -297h-794z" />
    <glyph glyph-name="braceleft" unicode="{" 
d="M846 1516v-51q-145 0 -197 -61q-49 -56 -49 -204v-143q0 -204 -46 -284q-59 -102 -241 -138q180 -33 240 -138q47 -82 47 -284v-143q0 -149 48 -204q52 -59 198 -59v-51h-10q-210 0 -290 68q-89 74 -89 278v213q0 158 -59 218q-71 73 -222 73v60q167 16 224 75t57 215
v213q0 203 89 278q81 69 290 69h10z" />
    <glyph glyph-name="bar" unicode="|" 
d="M449 1565h126v-2048h-126v2048z" />
    <glyph glyph-name="braceright" unicode="}" 
d="M178 1516h10q209 0 290 -68q89 -75 89 -279v-213q0 -159 62 -218q57 -55 219 -72v-60q-151 0 -220 -71q-61 -63 -61 -220v-213q0 -202 -90 -277q-82 -69 -289 -69h-10v51q140 0 193 54t53 209v143q0 203 47 284q59 104 240 138q-180 33 -240 138q-47 82 -47 284v143
q0 149 -48 205q-53 60 -198 60v51z" />
    <glyph glyph-name="asciitilde" unicode="~" horiz-adv-x="1706" 
d="M1530 758v-131q-200 -144 -387 -144q-86 0 -191 35q-22 7 -87 31q-199 72 -302 72q-83 0 -174 -38q-102 -43 -211 -122v133q212 145 387 145q116 0 291 -65l35 -13q159 -59 254 -59q163 0 385 156z" />
    <glyph glyph-name="nonbreakingspace" unicode="&#xa0;" horiz-adv-x="1081" 
 />
    <glyph glyph-name="exclamdown" unicode="&#xa1;" horiz-adv-x="606" 
d="M303 1417q48 0 83.5 -35.5t35.5 -83.5t-35.5 -84t-83.5 -36q-51 0 -85 34t-34 86q0 50 34.5 84.5t84.5 34.5zM317 1075l95 -960q4 -63 -27 -99q-28 -32 -82 -32q-112 0 -108 131l1 36l9 91l84 833h28z" />
    <glyph glyph-name="cent" unicode="&#xa2;" horiz-adv-x="1081" 
d="M545 63v779q-106 -18 -158 -163q-37 -106 -37 -239q0 -143 35 -225q45 -108 160 -152zM883 233q-16 -107 -94 -170t-193 -63v-170h-51v170q-163 0 -277 126q-102 112 -102 292q0 186 96 310q102 131 283 151v131h51v-127q103 0 188 -52q74 -45 74 -106q0 -78 -76 -78
q-67 0 -84 92q-10 55 -29.5 76t-72.5 31v-793l29 -2q86 -6 152 47q59 47 77 135h29z" />
    <glyph glyph-name="sterling" unicode="&#xa3;" horiz-adv-x="1081" 
d="M295 111q-137 84 -205 84q-100 0 -100 -97q0 -92 106 -92q115 0 199 105zM344 76q-129 -109 -250 -109q-69 0 -115 30q-53 35 -53 101q0 64 51 102q46 33 113 33q40 0 90 -14q65 -18 146 -53l7 55l3 47q3 41 -13 138q-13 82 -36 178h-236v43h230l-19 116q-6 37 -6 109
q0 214 108 378q124 187 328 187q123 0 209 -73q92 -76 92 -197q0 -110 -60 -177t-169 -67q-163 0 -182 168l30 8q26 -139 138 -139q76 0 118 67q35 57 35 138q0 237 -209 237q-266 0 -266 -432q0 -18 2 -53.5t2 -53.5q0 -6 17 -216h319v-43h-313l9 -103l3 -86
q2 -57 -20 -129q-19 -64 -60 -125q149 -49 266 -49q137 0 246 65q117 70 162 193l20 -2q-51 -381 -350 -381q-177 0 -387 109z" />
    <glyph glyph-name="currency" unicode="&#xa4;" horiz-adv-x="1241" 
d="M623 1200q-130 0 -222 -91.5t-92 -221.5q0 -131 91.5 -223.5t222.5 -92.5q129 0 221 93t92 223q0 131 -91 222t-222 91zM158 1419l207 -207q120 91 256 91q69 0 136 -23.5t124 -67.5l204 207l72 -73l-205 -205q86 -117 86 -256q0 -144 -86 -256l205 -205l-72 -74
l-204 207q-116 -88 -260 -88q-145 0 -256 88l-207 -207l-72 74l207 205q-88 116 -88 256q0 143 88 256l-207 205z" />
    <glyph glyph-name="yen" unicode="&#xa5;" horiz-adv-x="1081" 
d="M631 268q0 -134 27 -178q36 -61 157 -61h10v-29h-549v29h9q120 0 158 61q28 45 28 178v320h-432v55h403l-112 225h-291v56h264l-102 196q-73 140 -127 188t-125 48v28h520v-28q-69 0 -109 -24q-32 -19 -32 -62q0 -41 37 -117l241 -494l185 367q86 171 86 229q0 72 -84 94
q-29 7 -64 7v28h428v-28q-98 0 -199 -133q-49 -65 -129 -217l-43 -82h275v-56h-301l-113 -225h414v-55h-430v-320z" />
    <glyph glyph-name="brokenbar" unicode="&#xa6;" 
d="M449 408h126v-758h-126v758zM449 1432h126v-758h-126v758z" />
    <glyph glyph-name="section" unicode="&#xa7;" horiz-adv-x="1042" 
d="M252 692q0 -68 52 -136q24 -31 104 -107q94 -89 145.5 -120.5t97.5 -31.5q60 0 102 38.5t42 98.5q0 97 -156 240q-160 147 -244 147q-55 0 -98 -36q-45 -39 -45 -93zM633 262q190 -155 190 -297q0 -122 -109 -192q-93 -60 -222 -60q-112 0 -193 45q-98 56 -98 160
q0 50 28.5 83.5t77.5 33.5q38 0 66 -27t28 -65q0 -25 -27.5 -66.5t-27.5 -54.5q0 -37 53 -57q39 -15 84 -15q82 0 135 37q60 42 60 121q0 73 -64 150q-33 39 -122 114l-183 154q-174 146 -174 284q0 115 84 185q79 65 197 65q-189 166 -189 295q0 123 99 196q89 66 217 66
q105 0 181 -45q91 -55 91 -153q0 -51 -30 -85t-80 -34q-37 0 -65 23t-28 59q0 24 28 66t28 61q0 35 -52 55q-39 14 -81 14q-73 0 -119.5 -45.5t-46.5 -118.5q0 -104 194 -266l178 -149q87 -73 132 -150q42 -72 42 -149q0 -104 -77 -169q-82 -69 -205 -69z" />
    <glyph glyph-name="dieresis" unicode="&#xa8;" 
d="M688 1257q40 0 69 -30t29 -70q0 -43 -27.5 -71.5t-70.5 -28.5q-42 0 -71 29t-29 71q0 39 30.5 69.5t69.5 30.5zM336 1257q39 0 69.5 -30.5t30.5 -69.5q0 -42 -29 -71t-71 -29t-70 29t-28 71q0 40 29 70t69 30z" />
    <glyph glyph-name="copyright" unicode="&#xa9;" horiz-adv-x="1683" 
d="M1120 1096h35l2 -314h-41q-67 275 -280 275q-248 0 -248 -373q0 -381 266 -381q170 0 283 174l34 -24q-113 -209 -342 -209q-170 0 -288 126q-115 123 -115 294q0 180 109 306q115 132 292 132q68 0 130 -28q77 -35 100 -40q52 0 63 62zM844 1303q-188 0 -345 -107.5
t-227 -280.5q-47 -115 -47 -237q0 -126 47 -239q99 -237 335 -335q112 -47 235 -47q259 0 435 182q181 187 181 439q0 261 -180 443t-434 182zM844 1382q286 0 493 -204q96 -95 151.5 -228.5t55.5 -271.5q0 -289 -207 -498q-203 -205 -495 -205q-287 0 -495 204.5
t-208 498.5q0 214 117.5 390.5t314.5 259.5q130 54 273 54z" />
    <glyph glyph-name="ordfeminine" unicode="&#xaa;" horiz-adv-x="698" 
d="M426 1124l-80 -40q-170 -85 -170 -183q0 -110 107 -110q143 0 143 196v137zM422 835q-32 -37 -75.5 -56t-104.5 -19q-189 0 -189 158q0 97 238 176l6 2q41 13 101 40q26 21 26 60v51q0 131 -125 131q-46 0 -64 -13q-21 -14 -31 -57q-16 -71 -65 -71q-57 0 -57 49
q0 66 84 97q60 22 139 22q113 0 166 -32q70 -41 70 -144v-318q0 -114 59 -114q47 0 92 43l17 -13q-47 -67 -150 -67q-120 0 -137 75z" />
    <glyph glyph-name="guillemotleft" unicode="&#xab;" horiz-adv-x="829" 
d="M426 432l281 365h47l-144 -365l144 -366h-47zM72 432l278 365h47l-141 -365l141 -366h-47z" />
    <glyph glyph-name="logicalnot" unicode="&#xac;" horiz-adv-x="1706" 
d="M254 858h1198v-502h-115v385h-1083v117z" />
    <glyph glyph-name="c295" unicode="&#xad;" horiz-adv-x="1706" 
d="M254 670h1198v-119h-1198v119z" />
    <glyph glyph-name="c295" unicode="&#x2212;" horiz-adv-x="1706" 
d="M254 670h1198v-119h-1198v119z" />
    <glyph glyph-name="registered" unicode="&#xae;" horiz-adv-x="1683" 
d="M729 719q20 0 32 -2h34q235 0 235 174q0 80 -60 123q-53 39 -136 39q-105 0 -105 -72v-262zM469 1092h393q121 0 206 -40q112 -53 112 -161q0 -147 -287 -199q169 -51 213 -211q5 -17 11 -63q12 -88 59 -88q67 0 67 133h43v-12q0 -179 -160 -179q-95 0 -127 66
q-16 33 -20 84q-2 43 -3 86q-3 26 -7 39q-39 133 -207 133h-33v-248q0 -77 66 -94q24 -7 59 -7v-40h-385v40q127 0 127 101v516q0 101 -127 101v43zM844 1303q-257 0 -438 -184.5t-181 -440.5q0 -260 182 -440.5t435 -180.5q259 0 435 182q181 187 181 439q0 264 -179 444
q-182 181 -435 181zM844 1382q291 0 496 -205q97 -97 150.5 -228t53.5 -273q0 -209 -122 -390t-315 -260q-126 -51 -271 -51q-281 0 -489 204.5t-208 498.5q0 214 117.5 390.5t314.5 259.5q130 54 273 54z" />
    <glyph glyph-name="macron" unicode="&#xaf;" 
d="M254 1221h516v-127h-516v127z" />
    <glyph glyph-name="macron" unicode="&#x2c9;" 
d="M254 1221h516v-127h-516v127z" />
    <glyph glyph-name="degree" unicode="&#xb0;" horiz-adv-x="674" 
d="M338 1372q-86 0 -144.5 -58t-58.5 -143q0 -84 59.5 -143t143.5 -59q85 0 143 58.5t58 143.5t-58 143t-143 58zM338 1454q118 0 200.5 -82.5t82.5 -200.5q0 -117 -84 -199.5t-201 -82.5q-119 0 -200 81.5t-81 200.5t82 201t201 82z" />
    <glyph glyph-name="plusminus" unicode="&#xb1;" horiz-adv-x="1706" 
d="M254 158h1198v-117h-1198v117zM795 1180h118v-344h539v-117h-539v-344h-118v344h-541v117h541v344z" />
    <glyph glyph-name="twosuperior" unicode="&#xb2;" horiz-adv-x="713" 
d="M31 553v20q238 207 343 350t105 261q0 196 -180 196q-74 0 -122 -44t-48 -117q0 -71 44.5 -118.5t115.5 -47.5h16v-6q-42 -27 -90 -27q-69 0 -111.5 46t-42.5 116q0 105 77 166q71 57 179 57q117 0 196 -67q85 -70 85 -185q0 -134 -170 -296q-73 -71 -278 -220h237
q93 0 130 22q41 24 73 107h16l-51 -213h-524z" />
    <glyph glyph-name="threesuperior" unicode="&#xb3;" horiz-adv-x="713" 
d="M387 999q225 -25 225 -211q0 -116 -100 -190q-91 -66 -211 -66q-93 0 -166 42q-88 50 -88 137q0 56 43 91q41 32 98 32l7 -7q-66 -47 -66 -116q0 -72 54 -116q50 -40 124 -40q180 0 180 211q0 70 -24 132q-32 83 -92 83q-16 0 -54.5 -22.5t-68.5 -22.5q-47 0 -47 39
q0 43 59 43h22q7 -2 19 -4l39 -4q64 0 100 58q31 49 31 116q0 84 -40 137q-45 59 -126 59q-52 0 -86.5 -29.5t-34.5 -80.5q0 -35 20 -65q22 -34 56 -34l2 -5l-31 -11l-20 -2q-107 0 -107 96q0 75 75 118q62 36 143 36q107 0 181 -51q83 -57 83 -160q0 -150 -199 -193z" />
    <glyph glyph-name="acute" unicode="&#xb4;" 
d="M733 1208l-330 -207h-67l289 299q58 60 98 60q72 0 72 -70q0 -21 -15 -40q-20 -25 -47 -42z" />
    <glyph glyph-name="mu" unicode="&#xb5;" horiz-adv-x="1120" 
d="M164 193q-27 -131 -52 -339q-33 -272 -112 -272q-80 0 -80 88q0 39 65 274q62 224 105 427l109 514h147l-114 -551l-3 -53q-4 -77 43 -128q42 -47 117 -47q199 0 258 269l111 510h149l-135 -668q-4 -45 26 -78q26 -30 66 -30q72 0 117 69q2 4 37 87q28 67 43 67
q26 0 26 -37q0 -40 -23 -107q-7 -22 -17 -43q-75 -163 -230 -163q-74 0 -114 60q-35 52 -35 130v23q-90 -218 -281 -218q-193 0 -223 216z" />
    <glyph glyph-name="mu" unicode="&#x3bc;" horiz-adv-x="1120" 
d="M164 193q-27 -131 -52 -339q-33 -272 -112 -272q-80 0 -80 88q0 39 65 274q62 224 105 427l109 514h147l-114 -551l-3 -53q-4 -77 43 -128q42 -47 117 -47q199 0 258 269l111 510h149l-135 -668q-4 -45 26 -78q26 -30 66 -30q72 0 117 69q2 4 37 87q28 67 43 67
q26 0 26 -37q0 -40 -23 -107q-7 -22 -17 -43q-75 -163 -230 -163q-74 0 -114 60q-35 52 -35 130v23q-90 -218 -281 -218q-193 0 -223 216z" />
    <glyph glyph-name="paragraph" unicode="&#xb6;" 
d="M948 1479v-78h-125v-1401h-94v1401h-182v-1401h-96v782q-165 0 -274 102q-101 94 -101 246q0 165 116 260q108 89 277 89h479z" />
    <glyph glyph-name="periodcentered" unicode="&#xb7;" horiz-adv-x="541" 
d="M270 573q-47 0 -82.5 35.5t-35.5 83.5q0 50 34 85.5t84 35.5q49 0 84 -36t35 -85t-35 -84t-84 -35z" />
    <glyph glyph-name="periodcentered" unicode="&#x2219;" horiz-adv-x="541" 
d="M270 573q-47 0 -82.5 35.5t-35.5 83.5q0 50 34 85.5t84 35.5q49 0 84 -36t35 -85t-35 -84t-84 -35z" />
    <glyph glyph-name="cedilla" unicode="&#xb8;" 
d="M440 0h64v-112l40 4h12q5 0 17 2q77 0 126 -44t49 -120q0 -176 -220 -176q-126 0 -290 79l26 56q69 -34 130 -53t104 -19q118 0 118 107q0 97 -102 94l-37 -1l-36 -5z" />
    <glyph glyph-name="onesuperior" unicode="&#xb9;" horiz-adv-x="713" 
d="M309 1303h-137v15q78 0 151 24q55 18 85 53l14 -1l-5 -39l-1 -102v-518q0 -97 25 -129q29 -37 91 -37v-16h-339v16q72 0 98 50q18 35 18 116v568z" />
    <glyph glyph-name="ordmasculine" unicode="&#xba;" horiz-adv-x="793" 
d="M397 1378q-202 0 -202 -295t202 -295q201 0 201 295t-201 295zM397 1405q140 0 239 -91q103 -93 103 -231t-103 -232q-99 -91 -239 -91q-141 0 -241 90q-103 94 -103 233t104 232q100 90 240 90z" />
    <glyph glyph-name="guillemotright" unicode="&#xbb;" horiz-adv-x="829" 
d="M758 432l-279 -366h-47l143 366l-143 365h47zM403 432l-280 -366h-47l143 366l-143 365h47z" />
    <glyph glyph-name="onequarter" unicode="&#xbc;" horiz-adv-x="1704" 
d="M1391 213v428l-291 -428h291zM1491 213h12q52 0 73 27q18 21 26 77h16v-231h-16q-8 56 -27 78q-23 26 -76 26h-8v-20q0 -89 24.5 -121.5t85.5 -32.5l1 -16h-324v16q69 0 94 44q19 33 19 110v20h-324v23l397 582h27v-582zM422 -33h-82l944 1450h80zM297 1309h-133v14
q163 0 225 72h14l-5 -39l-1 -58v-520q0 -90 26 -122t87 -32v-16h-326v16q61 0 88 34q25 31 25 120v531z" />
    <glyph glyph-name="onehalf" unicode="&#xbd;" horiz-adv-x="1704" 
d="M1053 0v18q430 364 430 572q0 83 -46.5 132.5t-127.5 49.5q-70 0 -116 -41t-46 -110q0 -68 42 -112t109 -44l9 1l8 1v-6q-43 -25 -86 -25q-65 0 -106.5 41.5t-41.5 108.5q0 99 75 157q69 52 171 52q110 0 186 -61q82 -65 82 -173q0 -125 -163 -277q-71 -67 -265 -204h226
q90 0 123 19q39 22 71 100h15l-48 -199h-501zM422 -33h-82l944 1450h80zM297 1309h-133v14q163 0 225 72h14l-5 -39l-1 -58v-520q0 -90 26 -122t87 -32v-16h-326v16q61 0 88 34q25 31 25 120v531z" />
    <glyph glyph-name="threequarters" unicode="&#xbe;" horiz-adv-x="1704" 
d="M1391 213v428l-291 -428h291zM1491 213h12q52 0 73 27q18 21 26 77h16v-231h-16q-8 56 -27 78q-23 26 -76 26h-8v-20q0 -89 24.5 -121.5t85.5 -32.5l1 -16h-324v16q69 0 94 44q19 33 19 110v20h-324v23l397 582h27v-582zM422 -33h-82l944 1450h80zM369 1026
q215 -29 215 -199q0 -109 -97 -177q-86 -60 -200 -60q-87 0 -157 39q-85 46 -85 127q0 53 42 85q39 29 93 29l6 -6q-63 -46 -63 -108q0 -68 52 -109q48 -37 118 -37q172 0 172 197q0 66 -23 124q-31 77 -88 77q-13 0 -52 -21.5t-64 -21.5q-47 0 -48 36q-1 41 58 41h21
q7 -2 19 -4l38 -4q60 0 95 54q30 47 30 110q0 79 -40 128q-43 54 -120 54q-115 0 -115 -102q0 -92 74 -92v-6l-32 -9l-17 -2q-101 0 -101 91q0 70 72 110q59 33 135 33q102 0 172 -48q80 -54 80 -151q0 -138 -190 -178z" />
    <glyph glyph-name="questiondown" unicode="&#xbf;" horiz-adv-x="995" 
d="M723 1178q-48 0 -84.5 36t-36.5 84q0 49 36 84t85 35t84 -35t35 -84q0 -48 -35.5 -84t-83.5 -36zM750 1075v-526h-45q0 102 -55 168q-51 61 -134 61q-164 0 -164 -323q0 -157 43 -272q60 -163 191 -163q60 0 84 38q12 20 20 53q16 65 27 86q24 43 71 43q82 0 82 -76
q0 -92 -92 -141q-74 -39 -174 -39q-202 0 -326 141q-118 135 -118 340q0 147 80 250q88 112 231 112q71 0 127.5 -26.5t106.5 -81.5v356h45z" />
    <glyph glyph-name="Agrave" unicode="&#xc0;" horiz-adv-x="1356" 
d="M362 596h439l-217 547zM346 549l-43 -103q-52 -125 -69 -220q-5 -29 -5 -52q0 -121 179 -145v-29h-447v29q129 0 326 486l366 902h39l447 -1088q124 -300 245 -300v-29h-583v28q77 0 125 32q41 27 41 79q0 37 -52 172l-92 238h-477zM565 1826l289 -299h-67l-330 207
q-62 39 -62 82q0 29 21.5 49.5t50.5 20.5q40 0 98 -60z" />
    <glyph glyph-name="Aacute" unicode="&#xc1;" horiz-adv-x="1356" 
d="M362 596h439l-217 547zM346 549l-43 -103q-52 -125 -69 -220q-5 -29 -5 -52q0 -121 179 -145v-29h-447v29q129 0 326 486l366 902h39l447 -1088q124 -300 245 -300v-29h-583v28q77 0 125 32q41 27 41 79q0 37 -52 172l-92 238h-477zM899 1734l-330 -207h-67l289 299
q58 60 98 60q72 0 72 -70q0 -21 -15 -40q-20 -25 -47 -42z" />
    <glyph glyph-name="Acircumflex" unicode="&#xc2;" horiz-adv-x="1356" 
d="M362 596h439l-217 547zM346 549l-43 -103q-52 -125 -69 -220q-5 -29 -5 -52q0 -121 179 -145v-29h-447v29q129 0 326 486l366 902h39l447 -1088q124 -300 245 -300v-29h-583v28q77 0 125 32q41 27 41 79q0 37 -52 172l-92 238h-477zM619 1878h118l232 -351h-58l-233 211
l-233 -211h-58z" />
    <glyph glyph-name="Atilde" unicode="&#xc3;" horiz-adv-x="1356" 
d="M362 596h439l-217 547zM346 549l-43 -103q-52 -125 -69 -220q-5 -29 -5 -52q0 -121 179 -145v-29h-447v29q129 0 326 486l366 902h39l447 -1088q124 -300 245 -300v-29h-583v28q77 0 125 32q41 27 41 79q0 37 -52 172l-92 238h-477zM911 1824h54q-40 -202 -195 -202h-12
q-11 0 -21 2l-41 8l-109 27l-26 4l-30 2q-31 2 -51.5 -19t-37.5 -71h-51q36 213 197 213q30 0 63 -9l141 -37l25 -2q32 -3 57 18q22 18 37 66z" />
    <glyph glyph-name="Adieresis" unicode="&#xc4;" horiz-adv-x="1356" 
d="M362 596h439l-217 547zM346 549l-43 -103q-52 -125 -69 -220q-5 -29 -5 -52q0 -121 179 -145v-29h-447v29q129 0 326 486l366 902h39l447 -1088q124 -300 245 -300v-29h-583v28q77 0 125 32q41 27 41 79q0 37 -52 172l-92 238h-477zM854 1783q40 0 69 -30t29 -70
q0 -43 -27.5 -71.5t-70.5 -28.5q-42 0 -71 29t-29 71q0 39 30.5 69.5t69.5 30.5zM502 1783q39 0 69.5 -30.5t30.5 -69.5q0 -42 -29 -71t-71 -29t-70 29t-28 71q0 40 29 70t69 30z" />
    <glyph glyph-name="Aring" unicode="&#xc5;" horiz-adv-x="1356" 
d="M684 1874q-63 0 -105 -43.5t-42 -106.5q0 -62 42.5 -105.5t104.5 -43.5t106 43.5t44 105.5q0 63 -43.5 106.5t-106.5 43.5zM684 1964q101 0 171.5 -69.5t70.5 -170.5t-70.5 -170t-171.5 -69t-171.5 69t-70.5 170t70.5 170.5t171.5 69.5zM362 596h439l-217 547zM346 549
l-43 -103q-52 -125 -69 -220q-5 -29 -5 -52q0 -121 179 -145v-29h-447v29q130 0 327 490l31 77l334 821h39l447 -1088q124 -300 245 -300v-29h-583v28q77 0 125 32q41 27 41 79q0 37 -52 172l-92 238h-477z" />
    <glyph glyph-name="AE" unicode="&#xc6;" horiz-adv-x="1892" 
d="M494 754h378v587h-53zM1090 418q0 -226 26 -281q47 -96 236 -96q383 0 436 377h29l-15 -418h-1128v29h16q102 0 147 87q34 66 38 191q-3 -105 -3 187v223h-393l-170 -299q-121 -213 -121 -283q0 -106 138 -106h12v-29h-416v29q94 30 193 162q48 64 137 219l424 737
q13 23 32 70q13 52 13 51q0 88 -166 88v28h1128l15 -331h-27q-36 169 -151 235q-94 53 -283 53h-147v-587h10q148 0 208 53q64 57 64 188h27v-546h-27q0 140 -69 208q-61 60 -205 60h-8v-299z" />
    <glyph glyph-name="Ccedilla" unicode="&#xc7;" horiz-adv-x="1419" 
d="M682 -28q-243 24 -397 178q-183 182 -183 499q0 332 188 545q196 223 523 223q85 0 223 -42t170 -42q36 0 60 47h30l11 -440h-27q-50 185 -149 297q-120 137 -291 137q-250 0 -380 -238q-104 -192 -104 -464q0 -266 111 -436q131 -199 383 -199q177 0 291 96
q119 99 135 273h37q0 -193 -157 -321q-153 -125 -378 -118l-32 1v-80l40 4h12q5 0 17 2q77 0 126 -44t49 -120q0 -176 -220 -176q-126 0 -290 79l26 56q69 -34 130 -53t104 -19q118 0 118 107q0 97 -102 94l-37 -1l-36 -5z" />
    <glyph glyph-name="Egrave" unicode="&#xc8;" horiz-adv-x="1356" 
d="M86 0v29h16q103 0 148 87q34 66 38 190q-3 -99 -3 188v397q0 292 3 188q-4 124 -38 190q-45 87 -148 87h-16v28h1061l14 -331h-26q-35 171 -150 235q-92 53 -283 53h-200v-587q190 0 263 54.5t73 186.5h28v-546h-28q0 144 -80 208q-74 60 -256 60v-299q0 -238 34 -294
q50 -83 261 -83q205 0 313 87q113 91 141 290h29l-14 -418h-1180zM565 1826l289 -299h-67l-330 207q-62 39 -62 82q0 29 21.5 49.5t50.5 20.5q40 0 98 -60z" />
    <glyph glyph-name="Eacute" unicode="&#xc9;" horiz-adv-x="1356" 
d="M86 0v29h16q103 0 148 87q34 66 38 190q-3 -99 -3 188v397q0 292 3 188q-4 124 -38 190q-45 87 -148 87h-16v28h1061l14 -331h-26q-35 171 -150 235q-92 53 -283 53h-200v-587q190 0 263 54.5t73 186.5h28v-546h-28q0 144 -80 208q-74 60 -256 60v-299q0 -238 34 -294
q50 -83 261 -83q205 0 313 87q113 91 141 290h29l-14 -418h-1180zM899 1734l-330 -207h-67l289 299q58 60 98 60q72 0 72 -70q0 -21 -15 -40q-20 -25 -47 -42z" />
    <glyph glyph-name="Ecircumflex" unicode="&#xca;" horiz-adv-x="1356" 
d="M86 0v29h16q103 0 148 87q34 66 38 190q-3 -99 -3 188v397q0 292 3 188q-4 124 -38 190q-45 87 -148 87h-16v28h1061l14 -331h-26q-35 171 -150 235q-92 53 -283 53h-200v-587q190 0 263 54.5t73 186.5h28v-546h-28q0 144 -80 208q-74 60 -256 60v-299q0 -238 34 -294
q50 -83 261 -83q205 0 313 87q113 91 141 290h29l-14 -418h-1180zM619 1878h118l232 -351h-58l-233 211l-233 -211h-58z" />
    <glyph glyph-name="Edieresis" unicode="&#xcb;" horiz-adv-x="1356" 
d="M86 0v29h16q103 0 148 87q34 66 38 190q-3 -99 -3 188v397q0 292 3 188q-4 124 -38 190q-45 87 -148 87h-16v28h1061l14 -331h-26q-35 171 -150 235q-92 53 -283 53h-200v-587q190 0 263 54.5t73 186.5h28v-546h-28q0 144 -80 208q-74 60 -256 60v-299q0 -238 34 -294
q50 -83 261 -83q205 0 313 87q113 91 141 290h29l-14 -418h-1180zM854 1783q40 0 69 -30t29 -70q0 -43 -27.5 -71.5t-70.5 -28.5q-42 0 -71 29t-29 71q0 39 30.5 69.5t69.5 30.5zM502 1783q39 0 69.5 -30.5t30.5 -69.5q0 -42 -29 -71t-71 -29t-70 29t-28 71q0 40 29 70
t69 30z" />
    <glyph glyph-name="Igrave" unicode="&#xcc;" horiz-adv-x="807" 
d="M717 1384v-28h-17q-104 0 -150 -92q-34 -70 -37 -200q3 140 3 -194v-356q0 -354 -4 -195q3 -130 38 -199q45 -91 150 -91h17v-29h-627v29h16q103 0 148 87q34 66 38 190q-3 -99 -3 188v397q0 292 3 188q-4 124 -38 190q-45 87 -148 87h-16v28h627zM290 1826l289 -299h-67
l-330 207q-62 39 -62 82q0 29 21.5 49.5t50.5 20.5q40 0 98 -60z" />
    <glyph glyph-name="Iacute" unicode="&#xcd;" horiz-adv-x="807" 
d="M717 1384v-28h-17q-104 0 -150 -92q-34 -70 -37 -200q3 140 3 -194v-356q0 -354 -4 -195q3 -130 38 -199q45 -91 150 -91h17v-29h-627v29h16q103 0 148 87q34 66 38 190q-3 -99 -3 188v397q0 292 3 188q-4 124 -38 190q-45 87 -148 87h-16v28h627zM624 1734l-330 -207
h-67l289 299q58 60 98 60q72 0 72 -70q0 -21 -15 -40q-20 -25 -47 -42z" />
    <glyph glyph-name="Icircumflex" unicode="&#xce;" horiz-adv-x="807" 
d="M717 1384v-28h-17q-104 0 -150 -92q-34 -70 -37 -200q3 140 3 -194v-356q0 -354 -4 -195q3 -130 38 -199q45 -91 150 -91h17v-29h-627v29h16q103 0 148 87q34 66 38 190q-3 -99 -3 188v397q0 292 3 188q-4 124 -38 190q-45 87 -148 87h-16v28h627zM344 1878h118l232 -351
h-58l-233 211l-233 -211h-58z" />
    <glyph glyph-name="Idieresis" unicode="&#xcf;" horiz-adv-x="807" 
d="M717 1384v-28h-17q-104 0 -150 -92q-34 -70 -37 -200q3 140 3 -194v-356q0 -354 -4 -195q3 -130 38 -199q45 -91 150 -91h17v-29h-627v29h16q103 0 148 87q34 66 38 190q-3 -99 -3 188v397q0 292 3 188q-4 124 -38 190q-45 87 -148 87h-16v28h627zM579 1783q40 0 69 -30
t29 -70q0 -43 -27.5 -71.5t-70.5 -28.5q-42 0 -71 29t-29 71q0 39 30.5 69.5t69.5 30.5zM227 1783q39 0 69.5 -30.5t30.5 -69.5q0 -42 -29 -71t-71 -29t-70 29t-28 71q0 40 29 70t69 30z" />
    <glyph glyph-name="Eth" unicode="&#xd0;" horiz-adv-x="1546" 
d="M1337 104l-65 7q-275 -144 -502 -144q-312 0 -492 195q-176 190 -176 504q0 323 193 534q198 217 518 217q85 0 223 -42t170 -42q36 0 60 47h30l11 -440h-27q-50 185 -149 297q-120 137 -291 137q-255 0 -383 -247q-101 -194 -101 -474q0 -255 105 -431
q127 -212 366 -212q139 0 222.5 77.5t83.5 215.5q0 105 -49 151q-54 50 -166 50v26h616v-26q-119 0 -165 -48q-40 -42 -36 -190zM481 1839h51q26 -107 146 -133q41 -9 96 -9q206 0 240 142h51q-41 -273 -291 -273q-251 0 -293 273z" />
    <glyph glyph-name="Ntilde" unicode="&#xd1;" horiz-adv-x="1567" 
d="M1282 354v633q0 172 -25 244q-45 125 -182 125v28h455v-28q-136 0 -180 -126q-25 -72 -25 -243v-1001h-29l-979 1224v-813q0 -172 25 -243q44 -126 180 -126v-28h-452v29q136 0 180 126q24 70 24 242v602q0 173 -22 237q-41 120 -176 120v28h379zM1017 1824h54
q-40 -202 -195 -202h-12q-11 0 -21 2l-41 8l-109 27l-26 4l-30 2q-31 2 -51.5 -19t-37.5 -71h-51q36 213 197 213q30 0 63 -9l141 -37l25 -2q32 -3 57 18q22 18 37 66z" />
    <glyph glyph-name="Ograve" unicode="&#xd2;" horiz-adv-x="1659" 
d="M829 10q246 0 377 229q107 187 107 453q0 273 -103 455q-127 227 -379 227q-245 0 -376 -227q-109 -188 -109 -451q0 -264 107 -454q132 -232 376 -232zM90 686q0 253 162 453q225 278 590 278q215 0 399 -112q190 -116 271 -308q57 -136 57 -307q0 -311 -210 -512
q-101 -97 -243 -154t-282 -57q-312 0 -525 199q-219 205 -219 520zM716 1826l289 -299h-67l-330 207q-62 39 -62 82q0 29 21.5 49.5t50.5 20.5q40 0 98 -60z" />
    <glyph glyph-name="Oacute" unicode="&#xd3;" horiz-adv-x="1659" 
d="M829 10q246 0 377 229q107 187 107 453q0 273 -103 455q-127 227 -379 227q-245 0 -376 -227q-109 -188 -109 -451q0 -264 107 -454q132 -232 376 -232zM90 686q0 253 162 453q225 278 590 278q215 0 399 -112q190 -116 271 -308q57 -136 57 -307q0 -311 -210 -512
q-101 -97 -243 -154t-282 -57q-312 0 -525 199q-219 205 -219 520zM1050 1734l-330 -207h-67l289 299q58 60 98 60q72 0 72 -70q0 -21 -15 -40q-20 -25 -47 -42z" />
    <glyph glyph-name="Ocircumflex" unicode="&#xd4;" horiz-adv-x="1659" 
d="M829 10q246 0 377 229q107 187 107 453q0 273 -103 455q-127 227 -379 227q-245 0 -376 -227q-109 -188 -109 -451q0 -264 107 -454q132 -232 376 -232zM90 686q0 253 162 453q225 278 590 278q215 0 399 -112q190 -116 271 -308q57 -136 57 -307q0 -311 -210 -512
q-101 -97 -243 -154t-282 -57q-312 0 -525 199q-219 205 -219 520zM770 1878h118l232 -351h-58l-233 211l-233 -211h-58z" />
    <glyph glyph-name="Otilde" unicode="&#xd5;" horiz-adv-x="1659" 
d="M829 10q246 0 377 229q107 187 107 453q0 273 -103 455q-127 227 -379 227q-245 0 -376 -227q-109 -188 -109 -451q0 -264 107 -454q132 -232 376 -232zM90 686q0 253 162 453q225 278 590 278q215 0 399 -112q190 -116 271 -308q57 -136 57 -307q0 -311 -210 -512
q-101 -97 -243 -154t-282 -57q-312 0 -525 199q-219 205 -219 520zM1062 1824h54q-40 -202 -195 -202h-12q-11 0 -21 2l-41 8l-109 27l-26 4l-30 2q-31 2 -51.5 -19t-37.5 -71h-51q36 213 197 213q30 0 63 -9l141 -37l25 -2q32 -3 57 18q22 18 37 66z" />
    <glyph glyph-name="Odieresis" unicode="&#xd6;" horiz-adv-x="1659" 
d="M829 10q246 0 377 229q107 187 107 453q0 273 -103 455q-127 227 -379 227q-245 0 -376 -227q-109 -188 -109 -451q0 -264 107 -454q132 -232 376 -232zM90 686q0 253 162 453q225 278 590 278q215 0 399 -112q190 -116 271 -308q57 -136 57 -307q0 -311 -210 -512
q-101 -97 -243 -154t-282 -57q-312 0 -525 199q-219 205 -219 520zM1005 1783q40 0 69 -30t29 -70q0 -43 -27.5 -71.5t-70.5 -28.5q-42 0 -71 29t-29 71q0 39 30.5 69.5t69.5 30.5zM653 1783q39 0 69.5 -30.5t30.5 -69.5q0 -42 -29 -71t-71 -29t-70 29t-28 71q0 40 29 70
t69 30z" />
    <glyph glyph-name="multiply" unicode="&#xd7;" horiz-adv-x="1706" 
d="M381 1169l477 -477l475 477l82 -82l-475 -477l475 -475l-82 -82l-475 475l-477 -475l-80 82l475 475l-475 477z" />
    <glyph glyph-name="Oslash" unicode="&#xd8;" horiz-adv-x="1659" 
d="M1194 1180l-684 -1016q48 -73 140 -115q85 -39 179 -39q246 0 377 229q107 187 107 453q0 309 -119 488zM467 211l686 1016q-135 147 -322 147q-244 0 -376 -228q-109 -188 -109 -450q0 -275 121 -485zM219 -156l172 254q-301 209 -301 580q0 312 220 527
q219 212 532 212q148 0 281 -53q42 -17 91 -45l134 197h73l-151 -226q299 -212 299 -600q0 -318 -219 -522q-213 -201 -533 -201q-142 0 -281 55q-46 18 -94 44l-147 -222h-76z" />
    <glyph glyph-name="Ugrave" unicode="&#xd9;" horiz-adv-x="1507" 
d="M1233 987q0 172 -25 244q-45 125 -182 125v28h453l-1 -28q-136 0 -180 -126q-24 -71 -24 -243v-436q0 -311 -105 -440q-118 -144 -419 -144q-300 0 -428 139q-60 65 -77 195q-7 58 -7 215v354q0 352 4 196q-3 130 -38 199q-46 91 -151 91h-16v28h616v-28h-16
q-103 0 -148 -87q-34 -66 -37 -190q3 109 3 -188v-373q0 -239 70 -343q86 -126 311 -126q234 0 324 134q73 108 73 358v446zM698 1826l289 -299h-67l-330 207q-62 39 -62 82q0 29 21.5 49.5t50.5 20.5q40 0 98 -60z" />
    <glyph glyph-name="Uacute" unicode="&#xda;" horiz-adv-x="1507" 
d="M1233 987q0 172 -25 244q-45 125 -182 125v28h453l-1 -28q-136 0 -180 -126q-24 -71 -24 -243v-436q0 -311 -105 -440q-118 -144 -419 -144q-300 0 -428 139q-60 65 -77 195q-7 58 -7 215v354q0 352 4 196q-3 130 -38 199q-46 91 -151 91h-16v28h616v-28h-16
q-103 0 -148 -87q-34 -66 -37 -190q3 109 3 -188v-373q0 -239 70 -343q86 -126 311 -126q234 0 324 134q73 108 73 358v446zM1032 1734l-330 -207h-67l289 299q58 60 98 60q72 0 72 -70q0 -21 -15 -40q-20 -25 -47 -42z" />
    <glyph glyph-name="Ucircumflex" unicode="&#xdb;" horiz-adv-x="1507" 
d="M1233 987q0 172 -25 244q-45 125 -182 125v28h453l-1 -28q-136 0 -180 -126q-24 -71 -24 -243v-436q0 -311 -105 -440q-118 -144 -419 -144q-300 0 -428 139q-60 65 -77 195q-7 58 -7 215v354q0 352 4 196q-3 130 -38 199q-46 91 -151 91h-16v28h616v-28h-16
q-103 0 -148 -87q-34 -66 -37 -190q3 109 3 -188v-373q0 -239 70 -343q86 -126 311 -126q234 0 324 134q73 108 73 358v446zM752 1878h118l232 -351h-58l-233 211l-233 -211h-58z" />
    <glyph glyph-name="Udieresis" unicode="&#xdc;" horiz-adv-x="1507" 
d="M1233 987q0 172 -25 244q-45 125 -182 125v28h453l-1 -28q-136 0 -180 -126q-24 -71 -24 -243v-436q0 -311 -105 -440q-118 -144 -419 -144q-300 0 -428 139q-60 65 -77 195q-7 58 -7 215v354q0 352 4 196q-3 130 -38 199q-46 91 -151 91h-16v28h616v-28h-16
q-103 0 -148 -87q-34 -66 -37 -190q3 109 3 -188v-373q0 -239 70 -343q86 -126 311 -126q234 0 324 134q73 108 73 358v446zM987 1783q40 0 69 -30t29 -70q0 -43 -27.5 -71.5t-70.5 -28.5q-42 0 -71 29t-29 71q0 39 30.5 69.5t69.5 30.5zM635 1783q39 0 69.5 -30.5
t30.5 -69.5q0 -42 -29 -71t-71 -29t-70 29t-28 71q0 40 29 70t69 30z" />
    <glyph glyph-name="Yacute" unicode="&#xdd;" horiz-adv-x="807" 
d="M717 1384v-28h-17q-104 0 -150 -92q-34 -70 -37 -200q3 140 3 -194v-356q0 -354 -4 -195q3 -130 38 -199q45 -91 150 -91h17v-29h-627v29h16q103 0 148 87q34 66 38 190q-3 -99 -3 188v397q0 292 3 188q-4 124 -38 190q-45 87 -148 87h-16v28h627zM403 1790
q43 0 73.5 -32t30.5 -75t-30.5 -73.5t-73.5 -30.5t-73.5 29.5t-30.5 74.5q0 43 30.5 75t73.5 32z" />
    <glyph glyph-name="Thorn" unicode="&#xde;" horiz-adv-x="1139" 
d="M497 -30q-75 10 -146 36q-107 39 -126 41q-43 0 -55 -57h-33l-18 434h26q33 -178 130 -288q111 -126 280 -126q121 0 191 79q67 76 67 198q0 120 -85 204q-59 59 -193 123q-194 94 -261 151q-122 104 -122 259q0 165 107 279t271 114q103 0 198 -38l95 -38q37 0 50 54h30
l19 -385h-25q-116 364 -354 364q-96 0 -155.5 -61.5t-59.5 -157.5q0 -108 85 -182q50 -44 181 -107l131 -63q102 -49 123 -64q176 -125 176 -348q0 -194 -133 -313q-127 -113 -324 -113h-6v-77l40 4h12q5 0 17 2q77 0 126 -44t49 -120q0 -176 -220 -176q-126 0 -290 79
l26 56q69 -34 130 -53t104 -19q118 0 118 107q0 97 -102 94l-37 -1l-36 -5z" />
    <glyph glyph-name="germandbls" unicode="&#xdf;" horiz-adv-x="1034" 
d="M360 1104v-805q0 -143 6 -171q20 -99 109 -99v-29h-420v29h8q112 0 134 88q6 22 6 190v744q0 356 354 356q118 0 198 -55q91 -63 91 -176q0 -90 -121 -214l-37 -38q-61 -63 -61 -144q0 -101 113.5 -187.5t153.5 -138.5q64 -82 64 -190q0 -125 -81.5 -209t-206.5 -84
q-41 0 -75.5 14t-53.5 38l24 24q22 -27 61 -33q12 -2 31 -2q75 0 117 60q37 52 37 131q0 129 -143 246l-33 27q-139 114 -139 208q0 78 83 166l17 18q102 108 102 258q0 244 -176 244q-162 0 -162 -266z" />
    <glyph glyph-name="agrave" unicode="&#xe0;" horiz-adv-x="930" 
d="M567 492l-107 -59q-227 -125 -227 -261q0 -69 37 -112q39 -46 107 -46q190 0 190 281v197zM561 78q-80 -107 -239 -107q-252 0 -252 226q0 161 311 250l14 4q104 30 134 57q36 32 36 86v74q0 186 -168 186q-61 0 -87 -20.5t-38 -78.5q-21 -104 -86 -104q-77 0 -77 72
q0 90 112 135q81 33 187 33q153 0 225 -48q88 -58 88 -202v-455q0 -163 80 -163q60 0 121 63l22 -18q-62 -97 -199 -97q-160 0 -184 107zM317 1300l289 -299h-67l-330 207q-62 39 -62 82q0 29 21.5 49.5t50.5 20.5q40 0 98 -60z" />
    <glyph glyph-name="aacute" unicode="&#xe1;" horiz-adv-x="930" 
d="M567 492l-107 -59q-227 -125 -227 -261q0 -69 37 -112q39 -46 107 -46q190 0 190 281v197zM561 78q-80 -107 -239 -107q-252 0 -252 226q0 161 311 250l14 4q104 30 134 57q36 32 36 86v74q0 186 -168 186q-61 0 -87 -20.5t-38 -78.5q-21 -104 -86 -104q-77 0 -77 72
q0 90 112 135q81 33 187 33q153 0 225 -48q88 -58 88 -202v-455q0 -163 80 -163q60 0 121 63l22 -18q-62 -97 -199 -97q-160 0 -184 107zM651 1208l-330 -207h-67l289 299q58 60 98 60q72 0 72 -70q0 -21 -15 -40q-20 -25 -47 -42z" />
    <glyph glyph-name="acircumflex" unicode="&#xe2;" horiz-adv-x="930" 
d="M567 492l-107 -59q-227 -125 -227 -261q0 -69 37 -112q39 -46 107 -46q190 0 190 281v197zM561 78q-80 -107 -239 -107q-252 0 -252 226q0 161 311 250l14 4q104 30 134 57q36 32 36 86v74q0 186 -168 186q-61 0 -87 -20.5t-38 -78.5q-21 -104 -86 -104q-77 0 -77 72
q0 90 112 135q81 33 187 33q153 0 225 -48q88 -58 88 -202v-455q0 -163 80 -163q60 0 121 63l22 -18q-62 -97 -199 -97q-160 0 -184 107zM371 1352h118l232 -351h-58l-233 211l-233 -211h-58z" />
    <glyph glyph-name="atilde" unicode="&#xe3;" horiz-adv-x="930" 
d="M567 492l-107 -59q-227 -125 -227 -261q0 -69 37 -112q39 -46 107 -46q190 0 190 281v197zM561 78q-80 -107 -239 -107q-252 0 -252 226q0 161 311 250l14 4q104 30 134 57q36 32 36 86v74q0 186 -168 186q-61 0 -87 -20.5t-38 -78.5q-21 -104 -86 -104q-77 0 -77 72
q0 90 112 135q81 33 187 33q153 0 225 -48q88 -58 88 -202v-455q0 -163 80 -163q60 0 121 63l22 -18q-62 -97 -199 -97q-160 0 -184 107zM663 1298h54q-40 -202 -195 -202h-12q-11 0 -21 2l-41 8l-109 27l-26 4l-30 2q-31 2 -51.5 -19t-37.5 -71h-51q36 213 197 213
q30 0 63 -9l141 -37l25 -2q32 -3 57 18q22 18 37 66z" />
    <glyph glyph-name="adieresis" unicode="&#xe4;" horiz-adv-x="930" 
d="M567 492l-107 -59q-227 -125 -227 -261q0 -69 37 -112q39 -46 107 -46q190 0 190 281v197zM561 78q-80 -107 -239 -107q-252 0 -252 226q0 161 311 250l14 4q104 30 134 57q36 32 36 86v74q0 186 -168 186q-61 0 -87 -20.5t-38 -78.5q-21 -104 -86 -104q-77 0 -77 72
q0 90 112 135q81 33 187 33q153 0 225 -48q88 -58 88 -202v-455q0 -163 80 -163q60 0 121 63l22 -18q-62 -97 -199 -97q-160 0 -184 107zM606 1257q40 0 69 -30t29 -70q0 -43 -27.5 -71.5t-70.5 -28.5q-42 0 -71 29t-29 71q0 39 30.5 69.5t69.5 30.5zM254 1257
q39 0 69.5 -30.5t30.5 -69.5q0 -42 -29 -71t-71 -29t-70 29t-28 71q0 40 29 70t69 30z" />
    <glyph glyph-name="aring" unicode="&#xe5;" horiz-adv-x="930" 
d="M561 78q-80 -107 -239 -107q-252 0 -252 226q0 161 311 250l14 4q104 30 134 57q36 32 36 86v74q0 186 -168 186q-61 0 -87 -20.5t-38 -78.5q-21 -104 -86 -104q-77 0 -77 72q0 90 112 135q81 33 187 33q153 0 225 -48q88 -58 88 -202v-455q0 -163 80 -163q60 0 121 63
l22 -18q-62 -97 -199 -97q-160 0 -184 107zM424 1348q-63 0 -105.5 -43.5t-42.5 -106.5q0 -61 43.5 -105t104.5 -44q62 0 106.5 43.5t44.5 105.5t-44.5 106t-106.5 44zM424 1440q101 0 171.5 -70.5t70.5 -171.5t-70.5 -170.5t-171.5 -69.5q-100 0 -170 70t-70 170
q0 102 69 172t171 70zM567 492l-107 -59q-227 -125 -227 -261q0 -69 37 -112q39 -46 107 -46q190 0 190 281v197z" />
    <glyph glyph-name="ae" unicode="&#xe6;" horiz-adv-x="1380" 
d="M756 612h409q0 107 -57 178q-52 64 -135 64q-179 0 -217 -242zM700 776q138 115 289 115q140 0 228 -84.5t88 -224.5v-9h-557l-9 -63l-2 -35q-1 -20 -1 -40q0 -168 80 -290t214 -122q189 0 260 194h37q-70 -246 -348 -246q-210 0 -332 146q-142 -144 -309 -144
q-266 0 -266 224q0 171 346 257q149 37 149 140v74q0 186 -168 186q-60 0 -86.5 -21t-38.5 -79q-21 -103 -86 -103q-77 0 -77 72q0 118 178 156q55 12 125 12q207 0 286 -115zM567 492l-107 -59q-227 -125 -227 -261q0 -71 40 -114.5t110 -43.5q118 0 158 87q26 57 26 194
v197z" />
    <glyph glyph-name="ccedilla" unicode="&#xe7;" horiz-adv-x="846" 
d="M427 -25q-144 18 -240 116q-117 119 -117 317q0 202 115 338q123 145 321 145q94 0 177 -36q108 -46 108 -128t-78 -82q-69 0 -88.5 104.5t-116.5 104.5q-139 0 -202 -157q-46 -113 -46 -275q0 -166 62 -269q76 -126 231 -126q192 0 229 186h35q-19 -120 -110 -183
q-83 -59 -209 -59h-7v-83l40 4h12q5 0 17 2q77 0 126 -44t49 -120q0 -176 -220 -176q-126 0 -290 79l26 56q69 -34 130 -53t104 -19q118 0 118 107q0 97 -102 94l-37 -1l-36 -5z" />
    <glyph glyph-name="egrave" unicode="&#xe8;" horiz-adv-x="944" 
d="M279 612l438 1q0 104 -63 177q-55 64 -142 64q-98 0 -162 -74q-56 -66 -71 -168zM268 573l-6 -55l-2 -45q-9 -194 85 -328q84 -122 226 -122q204 0 277 194h41q-76 -246 -373 -246q-205 0 -325.5 118t-120.5 323q0 207 125 341q128 138 333 138q145 0 238 -81
q98 -85 98 -228v-9h-596zM403 1300l289 -299h-67l-330 207q-62 39 -62 82q0 29 21.5 49.5t50.5 20.5q40 0 98 -60z" />
    <glyph glyph-name="eacute" unicode="&#xe9;" horiz-adv-x="944" 
d="M279 612l438 1q0 104 -63 177q-55 64 -142 64q-98 0 -162 -74q-56 -66 -71 -168zM268 573l-6 -55l-2 -45q-9 -194 85 -328q84 -122 226 -122q204 0 277 194h41q-76 -246 -373 -246q-205 0 -325.5 118t-120.5 323q0 207 125 341q128 138 333 138q145 0 238 -81
q98 -85 98 -228v-9h-596zM737 1208l-330 -207h-67l289 299q58 60 98 60q72 0 72 -70q0 -21 -15 -40q-20 -25 -47 -42z" />
    <glyph glyph-name="ecircumflex" unicode="&#xea;" horiz-adv-x="944" 
d="M279 612l438 1q0 104 -63 177q-55 64 -142 64q-98 0 -162 -74q-56 -66 -71 -168zM268 573l-6 -55l-2 -45q-9 -194 85 -328q84 -122 226 -122q204 0 277 194h41q-76 -246 -373 -246q-205 0 -325.5 118t-120.5 323q0 207 125 341q128 138 333 138q145 0 238 -81
q98 -85 98 -228v-9h-596zM457 1352h118l232 -351h-58l-233 211l-233 -211h-58z" />
    <glyph glyph-name="edieresis" unicode="&#xeb;" horiz-adv-x="944" 
d="M279 612l438 1q0 104 -63 177q-55 64 -142 64q-98 0 -162 -74q-56 -66 -71 -168zM268 573l-6 -55l-2 -45q-9 -194 85 -328q84 -122 226 -122q204 0 277 194h41q-76 -246 -373 -246q-205 0 -325.5 118t-120.5 323q0 207 125 341q128 138 333 138q145 0 238 -81
q98 -85 98 -228v-9h-596zM692 1257q40 0 69 -30t29 -70q0 -43 -27.5 -71.5t-70.5 -28.5q-42 0 -71 29t-29 71q0 39 30.5 69.5t69.5 30.5zM340 1257q39 0 69.5 -30.5t30.5 -69.5q0 -42 -29 -71t-71 -29t-70 29t-28 71q0 40 29 70t69 30z" />
    <glyph glyph-name="igrave" unicode="&#xec;" horiz-adv-x="578" 
d="M375 307q0 -165 6 -189q24 -89 135 -89h8v-29h-454v29h8q110 0 133 89q6 24 6 189v324q0 94 -27 132q-31 43 -120 50v23q61 9 159 29q84 18 146 36v-594zM176 1300l289 -299h-67l-330 207q-62 39 -62 82q0 29 21.5 49.5t50.5 20.5q40 0 98 -60z" />
    <glyph glyph-name="iacute" unicode="&#xed;" horiz-adv-x="578" 
d="M375 307q0 -165 6 -189q24 -89 135 -89h8v-29h-454v29h8q110 0 133 89q6 24 6 189v324q0 94 -27 132q-31 43 -120 50v23q61 9 159 29q84 18 146 36v-594zM510 1208l-330 -207h-67l289 299q58 60 98 60q72 0 72 -70q0 -21 -15 -40q-20 -25 -47 -42z" />
    <glyph glyph-name="icircumflex" unicode="&#xee;" horiz-adv-x="578" 
d="M375 307q0 -165 6 -189q24 -89 135 -89h8v-29h-454v29h8q110 0 133 89q6 24 6 189v324q0 94 -27 132q-31 43 -120 50v23q61 9 159 29q84 18 146 36v-594zM230 1352h118l232 -351h-58l-233 211l-233 -211h-58z" />
    <glyph glyph-name="idieresis" unicode="&#xef;" horiz-adv-x="578" 
d="M375 307q0 -165 6 -189q24 -89 135 -89h8v-29h-454v29h8q110 0 133 89q6 24 6 189v324q0 94 -27 132q-31 43 -120 50v23q61 9 159 29q84 18 146 36v-594zM465 1257q40 0 69 -30t29 -70q0 -43 -27.5 -71.5t-70.5 -28.5q-42 0 -71 29t-29 71q0 39 30.5 69.5t69.5 30.5z
M113 1257q39 0 69.5 -30.5t30.5 -69.5q0 -42 -29 -71t-71 -29t-70 29t-28 71q0 40 29 70t69 30z" />
    <glyph glyph-name="eth" unicode="&#xf0;" horiz-adv-x="877" 
d="M434 344q108 0 138 146q10 48 10 110q0 258 -148 258q-151 0 -151 -258q0 -256 151 -256zM350 326q-223 64 -223 260q0 127 87 216t214 89q135 0 221 -74q72 76 168 76q38 0 72 -19q39 -23 39 -59q0 -51 -56 -51q-27 0 -61 40t-57 40q-26 0 -82 -45q69 -79 69 -207
q0 -118 -70 -192q-75 -81 -200 -93l-80 -8q-188 -19 -188 -98q0 -71 125 -68l188 4q176 3 265 -65q85 -66 85 -207q0 -155 -146 -238q-118 -67 -286 -67q-153 0 -253 46q-134 62 -134 197q0 61 32 105q36 49 95 49q94 0 94 -86l-1 -11l-1 -9l-8 -1q-15 35 -61 35
q-95 0 -95 -108q0 -94 103 -141q78 -37 184 -37q132 0 222 46q116 60 116 179q0 116 -124 148q-53 14 -220 14q-270 0 -270 153q0 167 237 187zM145 1313h51q26 -107 146 -133q41 -9 96 -9q206 0 240 142h51q-41 -273 -291 -273q-251 0 -293 273z" />
    <glyph glyph-name="ntilde" unicode="&#xf1;" horiz-adv-x="1139" 
d="M375 307q0 -165 6 -189q24 -89 135 -89h8v-29h-454v29h8q110 0 133 89q6 24 6 189v324q0 94 -27 132q-31 43 -120 50v23q157 21 280 65l12 -4l13 -119q91 87 213 108q40 7 88 7q155 0 211 -68q51 -61 51 -221v-297q0 -165 6 -189q24 -89 135 -89h8v-29h-454v29h8
q89 0 114 39t25 239v293q0 244 -184 244q-105 0 -176 -84q-24 -28 -34.5 -65.5t-10.5 -110.5v-277zM802 1298h54q-40 -202 -195 -202h-12q-11 0 -21 2l-41 8l-109 27l-26 4l-30 2q-31 2 -51.5 -19t-37.5 -71h-51q36 213 197 213q30 0 63 -9l141 -37l25 -2q32 -3 57 18
q22 18 37 66z" />
    <glyph glyph-name="ograve" unicode="&#xf2;" horiz-adv-x="1057" 
d="M528 854q-149 0 -217 -145q-51 -108 -51 -277t50 -277q68 -145 218 -145t218 145q51 108 51 277q0 422 -269 422zM528 891q193 0 325 -133t132 -326q0 -191 -133 -326t-324 -135q-192 0 -324 134.5t-132 326.5q0 191 132.5 325t323.5 134zM415 1300l289 -299h-67
l-330 207q-62 39 -62 82q0 29 21.5 49.5t50.5 20.5q40 0 98 -60z" />
    <glyph glyph-name="oacute" unicode="&#xf3;" horiz-adv-x="1057" 
d="M528 854q-149 0 -217 -145q-51 -108 -51 -277t50 -277q68 -145 218 -145t218 145q51 108 51 277q0 422 -269 422zM528 891q193 0 325 -133t132 -326q0 -191 -133 -326t-324 -135q-192 0 -324 134.5t-132 326.5q0 191 132.5 325t323.5 134zM749 1208l-330 -207h-67
l289 299q58 60 98 60q72 0 72 -70q0 -21 -15 -40q-20 -25 -47 -42z" />
    <glyph glyph-name="ocircumflex" unicode="&#xf4;" horiz-adv-x="1057" 
d="M528 854q-149 0 -217 -145q-51 -108 -51 -277t50 -277q68 -145 218 -145t218 145q51 108 51 277q0 422 -269 422zM528 891q193 0 325 -133t132 -326q0 -191 -133 -326t-324 -135q-192 0 -324 134.5t-132 326.5q0 191 132.5 325t323.5 134zM469 1352h118l232 -351h-58
l-233 211l-233 -211h-58z" />
    <glyph glyph-name="otilde" unicode="&#xf5;" horiz-adv-x="1057" 
d="M528 854q-149 0 -217 -145q-51 -108 -51 -277t50 -277q68 -145 218 -145t218 145q51 108 51 277q0 422 -269 422zM528 891q193 0 325 -133t132 -326q0 -191 -133 -326t-324 -135q-192 0 -324 134.5t-132 326.5q0 191 132.5 325t323.5 134zM761 1298h54
q-40 -202 -195 -202h-12q-11 0 -21 2l-41 8l-109 27l-26 4l-30 2q-31 2 -51.5 -19t-37.5 -71h-51q36 213 197 213q30 0 63 -9l141 -37l25 -2q32 -3 57 18q22 18 37 66z" />
    <glyph glyph-name="odieresis" unicode="&#xf6;" horiz-adv-x="1057" 
d="M528 854q-149 0 -217 -145q-51 -108 -51 -277t50 -277q68 -145 218 -145t218 145q51 108 51 277q0 422 -269 422zM528 891q193 0 325 -133t132 -326q0 -191 -133 -326t-324 -135q-192 0 -324 134.5t-132 326.5q0 191 132.5 325t323.5 134zM704 1257q40 0 69 -30t29 -70
q0 -43 -27.5 -71.5t-70.5 -28.5q-42 0 -71 29t-29 71q0 39 30.5 69.5t69.5 30.5zM352 1257q39 0 69.5 -30.5t30.5 -69.5q0 -42 -29 -71t-71 -29t-70 29t-28 71q0 40 29 70t69 30z" />
    <glyph glyph-name="divide" unicode="&#xf7;" horiz-adv-x="1706" 
d="M854 365q47 0 81 -34t34 -81t-34 -81t-81 -34q-48 0 -81.5 33.5t-33.5 81.5t33.5 81.5t81.5 33.5zM254 670h1198v-117h-1198v117zM854 1085q47 0 81 -33.5t34 -80.5q0 -48 -33.5 -81.5t-81.5 -33.5t-81.5 33.5t-33.5 81.5q0 47 34 80.5t81 33.5z" />
    <glyph glyph-name="oslash" unicode="&#xf8;" horiz-adv-x="1057" 
d="M741 723l-393 -629q55 -84 180 -84q150 0 218 145q51 108 51 277q0 185 -56 291zM313 139l394 631q-64 84 -179 84q-268 0 -268 -422q0 -146 53 -293zM152 -119l110 170q-190 147 -190 381q0 191 132.5 325t323.5 134q56 0 110 -14t110 -43l75 120h62l-92 -147
q192 -138 192 -375q0 -191 -133 -326t-324 -135q-132 0 -221 60l-94 -150h-61z" />
    <glyph glyph-name="ugrave" unicode="&#xf9;" horiz-adv-x="1124" 
d="M764 557q0 194 -25.5 235.5t-113.5 41.5h-11v28h306v-649q0 -93 21 -128q28 -45 112 -52l-1 -23q-60 -7 -100.5 -12t-144.5 -20l-43 -7v113q-89 -84 -211 -106q-40 -7 -90 -7q-155 0 -212 67q-52 61 -52 220v299q0 194 -25.5 235.5t-114.5 41.5h-10v28h307v-600
q0 -244 185 -244q71 0 132 43t80 110q11 38 11 124v262zM450 1300l289 -299h-67l-330 207q-62 39 -62 82q0 29 21.5 49.5t50.5 20.5q40 0 98 -60z" />
    <glyph glyph-name="uacute" unicode="&#xfa;" horiz-adv-x="1124" 
d="M764 557q0 194 -25.5 235.5t-113.5 41.5h-11v28h306v-649q0 -93 21 -128q28 -45 112 -52l-1 -23q-60 -7 -100.5 -12t-144.5 -20l-43 -7v113q-89 -84 -211 -106q-40 -7 -90 -7q-155 0 -212 67q-52 61 -52 220v299q0 194 -25.5 235.5t-114.5 41.5h-10v28h307v-600
q0 -244 185 -244q71 0 132 43t80 110q11 38 11 124v262zM784 1208l-330 -207h-67l289 299q58 60 98 60q72 0 72 -70q0 -21 -15 -40q-20 -25 -47 -42z" />
    <glyph glyph-name="ucircumflex" unicode="&#xfb;" horiz-adv-x="1124" 
d="M764 557q0 194 -25.5 235.5t-113.5 41.5h-11v28h306v-649q0 -93 21 -128q28 -45 112 -52l-1 -23q-60 -7 -100.5 -12t-144.5 -20l-43 -7v113q-89 -84 -211 -106q-40 -7 -90 -7q-155 0 -212 67q-52 61 -52 220v299q0 194 -25.5 235.5t-114.5 41.5h-10v28h307v-600
q0 -244 185 -244q71 0 132 43t80 110q11 38 11 124v262zM504 1352h118l232 -351h-58l-233 211l-233 -211h-58z" />
    <glyph glyph-name="udieresis" unicode="&#xfc;" horiz-adv-x="1124" 
d="M764 557q0 194 -25.5 235.5t-113.5 41.5h-11v28h306v-649q0 -93 21 -128q28 -45 112 -52l-1 -23q-60 -7 -100.5 -12t-144.5 -20l-43 -7v113q-89 -84 -211 -106q-40 -7 -90 -7q-155 0 -212 67q-52 61 -52 220v299q0 194 -25.5 235.5t-114.5 41.5h-10v28h307v-600
q0 -244 185 -244q71 0 132 43t80 110q11 38 11 124v262zM739 1257q40 0 69 -30t29 -70q0 -43 -27.5 -71.5t-70.5 -28.5q-42 0 -71 29t-29 71q0 39 30.5 69.5t69.5 30.5zM387 1257q39 0 69.5 -30.5t30.5 -69.5q0 -42 -29 -71t-71 -29t-70 29t-28 71q0 40 29 70t69 30z" />
    <glyph glyph-name="yacute" unicode="&#xfd;" horiz-adv-x="578" 
d="M375 307q0 -165 6 -189q24 -89 135 -89h8v-29h-454v29h8q110 0 133 89q6 24 6 189v324q0 94 -27 132q-31 43 -120 50v23q61 9 159 29q84 18 146 36v-594z" />
    <glyph glyph-name="thorn" unicode="&#xfe;" horiz-adv-x="793" 
d="M325 -20q-21 4 -62 20l-75 29q-16 0 -33 -12q-13 -9 -28 -31h-18v299h18q34 -132 83 -193q65 -82 183 -82q152 0 152 148q0 109 -152 194q-160 90 -204 149.5t-44 145.5q0 103 69 173.5t171 70.5q44 0 110 -24.5t74 -24.5q26 0 43 35h19v-256h-19q-48 231 -219 231
q-57 0 -93 -37t-36 -94q0 -68 53 -118q31 -29 113 -73q132 -70 179 -115q79 -76 79 -188q0 -119 -83 -190q-78 -66 -199 -66h-17v-83l40 4h12q5 0 17 2q77 0 126 -44t49 -120q0 -176 -220 -176q-126 0 -290 79l26 56q69 -34 130 -53t104 -19q118 0 118 107q0 97 -102 94
l-37 -1l-36 -5z" />
    <glyph glyph-name="ydieresis" unicode="&#xff;" horiz-adv-x="915" 
d="M410 -182q-52 -125 -82 -168q-63 -92 -150 -92q-92 0 -92 75q0 27 22.5 45.5t49.5 18.5q16 0 47 -11.5t47 -11.5q47 0 88 82q76 152 76 219q0 45 -45 160l-187 477q-41 105 -71 146q-54 76 -133 76v28h442v-28q-115 -10 -115 -84q0 -32 15 -75q3 -9 12 -30l184 -477
l176 430q35 86 35 143q0 93 -121 93v28h314v-28q-67 -12 -119 -95q-24 -37 -68 -143zM635 1257q40 0 69 -30t29 -70q0 -43 -27.5 -71.5t-70.5 -28.5q-42 0 -71 29t-29 71q0 39 30.5 69.5t69.5 30.5zM283 1257q39 0 69.5 -30.5t30.5 -69.5q0 -42 -29 -71t-71 -29t-70 29
t-28 71q0 40 29 70t69 30z" />
    <glyph glyph-name="Cacute" unicode="&#x106;" horiz-adv-x="1419" 
d="M1313 406q0 -193 -157 -321q-144 -118 -378 -118q-313 0 -494.5 184.5t-181.5 497.5q0 332 188 545q196 223 523 223q85 0 223 -42t170 -42q36 0 60 47h30l11 -440h-27q-50 185 -149 297q-120 137 -291 137q-250 0 -380 -238q-104 -192 -104 -464q0 -266 111 -436
q131 -199 383 -199q177 0 291 96q119 99 135 273h37zM1034 1734l-330 -207h-67l289 299q58 60 98 60q72 0 72 -70q0 -21 -15 -40q-20 -25 -47 -42z" />
    <glyph glyph-name="cacute" unicode="&#x107;" horiz-adv-x="846" 
d="M817 213q-19 -120 -110 -183q-83 -59 -209 -59q-194 0 -311 121t-117 316q0 202 115 338q123 145 321 145q94 0 177 -36q108 -46 108 -128t-78 -82q-69 0 -88.5 104.5t-116.5 104.5q-139 0 -202 -157q-46 -113 -46 -275q0 -166 62 -269q76 -126 231 -126q192 0 229 186
h35zM719 1208l-330 -207h-67l289 299q58 60 98 60q72 0 72 -70q0 -21 -15 -40q-20 -25 -47 -42z" />
    <glyph glyph-name="Ccaron" unicode="&#x10c;" horiz-adv-x="1419" 
d="M1313 406q0 -193 -157 -321q-144 -118 -378 -118q-313 0 -494.5 184.5t-181.5 497.5q0 332 188 545q196 223 523 223q85 0 223 -42t170 -42q36 0 60 47h30l11 -440h-27q-50 185 -149 297q-120 137 -291 137q-250 0 -380 -238q-104 -192 -104 -464q0 -266 111 -436
q131 -199 383 -199q177 0 291 96q119 99 135 273h37zM522 1878h58l233 -211l233 211h58l-232 -351h-118z" />
    <glyph glyph-name="ccaron" unicode="&#x10d;" horiz-adv-x="846" 
d="M817 213q-19 -120 -110 -183q-83 -59 -209 -59q-194 0 -311 121t-117 316q0 202 115 338q123 145 321 145q94 0 177 -36q108 -46 108 -128t-78 -82q-69 0 -88.5 104.5t-116.5 104.5q-139 0 -202 -157q-46 -113 -46 -275q0 -166 62 -269q76 -126 231 -126q192 0 229 186
h35zM207 1352h58l233 -211l233 211h58l-232 -351h-118z" />
    <glyph glyph-name="dcroat" unicode="&#x111;" horiz-adv-x="1096" 
d="M735 1180q0 93 -26 130q-31 42 -119 50v22l161 18q50 6 140 21v-303h194v-47h-194v-858q0 -91 22 -127q28 -44 111 -53v-23l-152 -18l-137 -21v109q-91 -109 -264 -109q-178 0 -291 139q-104 129 -104 312q0 194 113 327q119 142 309 142q128 0 237 -103v283h-352v47h352
v62zM735 301v262q0 287 -213 287q-145 0 -212 -146q-48 -106 -48 -272q0 -418 268 -418q109 0 162 94q43 75 43 193z" />
    <glyph glyph-name="Gbreve" unicode="&#x11e;" horiz-adv-x="1546" 
d="M1337 104l-65 7q-275 -144 -502 -144q-312 0 -492 195q-176 190 -176 504q0 323 193 534q198 217 518 217q85 0 223 -42t170 -42q36 0 60 47h30l11 -440h-27q-50 185 -149 297q-120 137 -291 137q-255 0 -383 -247q-101 -194 -101 -474q0 -255 105 -431
q127 -212 366 -212q139 0 222.5 77.5t83.5 215.5q0 105 -49 151q-54 50 -166 50v26h616v-26q-119 0 -165 -48q-40 -42 -36 -190zM481 1839h51q26 -107 146 -133q41 -9 96 -9q206 0 240 142h51q-41 -273 -291 -273q-251 0 -293 273z" />
    <glyph glyph-name="gbreve" unicode="&#x11f;" horiz-adv-x="877" 
d="M434 344q108 0 138 146q10 48 10 110q0 258 -148 258q-151 0 -151 -258q0 -256 151 -256zM350 326q-223 64 -223 260q0 127 87 216t214 89q135 0 221 -74q72 76 168 76q38 0 72 -19q39 -23 39 -59q0 -51 -56 -51q-27 0 -61 40t-57 40q-26 0 -82 -45q69 -79 69 -207
q0 -118 -70 -192q-75 -81 -200 -93l-80 -8q-188 -19 -188 -98q0 -71 125 -68l188 4q176 3 265 -65q85 -66 85 -207q0 -155 -146 -238q-118 -67 -286 -67q-153 0 -253 46q-134 62 -134 197q0 61 32 105q36 49 95 49q94 0 94 -86l-1 -11l-1 -9l-8 -1q-15 35 -61 35
q-95 0 -95 -108q0 -94 103 -141q78 -37 184 -37q132 0 222 46q116 60 116 179q0 116 -124 148q-53 14 -220 14q-270 0 -270 153q0 167 237 187zM145 1313h51q26 -107 146 -133q41 -9 96 -9q206 0 240 142h51q-41 -273 -291 -273q-251 0 -293 273z" />
    <glyph glyph-name="Idotaccent" unicode="&#x130;" horiz-adv-x="807" 
d="M717 1384v-28h-17q-104 0 -150 -92q-34 -70 -37 -200q3 140 3 -194v-356q0 -354 -4 -195q3 -130 38 -199q45 -91 150 -91h17v-29h-627v29h16q103 0 148 87q34 66 38 190q-3 -99 -3 188v397q0 292 3 188q-4 124 -38 190q-45 87 -148 87h-16v28h627zM403 1790
q43 0 73.5 -32t30.5 -75t-30.5 -73.5t-73.5 -30.5t-73.5 29.5t-30.5 74.5q0 43 30.5 75t73.5 32z" />
    <glyph glyph-name="dotlessi" unicode="&#x131;" horiz-adv-x="578" 
d="M375 307q0 -165 6 -189q24 -89 135 -89h8v-29h-454v29h8q110 0 133 89q6 24 6 189v324q0 94 -27 132q-31 43 -120 50v23q61 9 159 29q84 18 146 36v-594z" />
    <glyph glyph-name="Lslash" unicode="&#x141;" horiz-adv-x="1309" 
d="M512 418q0 -226 35 -287q51 -90 250 -90q211 0 319 84q115 89 146 293h28l-14 -418h-1182v29h17q105 0 150 92q35 69 38 199q-4 -157 -4 194v90l-285 -190v65l285 191v200q0 356 4 194q-3 131 -38 200q-45 92 -150 92h-17v28h617v-28h-17q-102 0 -147 -87
q-34 -66 -38 -191q3 88 3 -187v-103l377 254v-65l-377 -256v-303z" />
    <glyph glyph-name="lslash" unicode="&#x142;" horiz-adv-x="584" 
d="M371 791l192 145v-59l-192 -146v-424q0 -165 6 -189q24 -89 135 -89h8v-29h-457v29h9q111 0 134 89q7 25 7 189v338l-195 -143v57l195 146v475q0 99 -31 137q-35 43 -119 43v22l138 15l170 24v-630z" />
    <glyph glyph-name="OE" unicode="&#x152;" horiz-adv-x="2073" 
d="M1053 326v733q0 165 -25 219q-42 88 -182 88q-254 0 -388 -220q-112 -183 -112 -454q0 -277 114 -458q136 -214 398 -214q132 0 171 93q24 55 24 213zM1270 418q0 -226 26 -281q47 -96 236 -96q386 0 436 377h29l-15 -418h-647q-42 0 -191 -7q-49 -1 -124 -4l-186 -12
q-23 -1 -46 -1q-127 0 -252 46t-232.5 149.5t-160.5 228.5t-53 286q0 254 162 451q220 268 590 268q118 -11 189 -11q46 0 139 -5t139 -5h555l14 -331h-27q-36 170 -151 235q-94 53 -283 53h-147v-587h10q148 0 208 53q65 58 65 188h26v-546h-27q0 140 -69 208
q-61 60 -205 60h-8v-299z" />
    <glyph glyph-name="oe" unicode="&#x153;" horiz-adv-x="1616" 
d="M852 133q-147 -162 -338 -162q-187 0 -316 138q-126 134 -126 323t127 324t315 135q196 0 350 -174q128 174 350 174q142 0 233 -84t91 -225v-9h-573l-9 -64l-2 -36q-1 -19 -1 -37q0 -168 82.5 -290.5t219.5 -122.5q200 0 269 194h39q-35 -122 -136 -186
q-93 -60 -225 -60q-239 0 -350 162zM973 612l424 1q0 104 -61 177q-53 64 -138 64q-187 0 -225 -242zM518 10q145 0 209 148q47 107 47 274q0 422 -256 422q-145 0 -210 -148q-48 -108 -48 -274t48 -274q65 -148 210 -148z" />
    <glyph glyph-name="Scedilla" unicode="&#x15e;" horiz-adv-x="1139" 
d="M137 -10l-18 434h26q33 -178 130 -288q111 -126 280 -126q121 0 191 79q67 76 67 198q0 120 -85 204q-59 59 -193 123q-194 94 -261 151q-122 104 -122 259q0 165 107 279t271 114q103 0 198 -38l95 -38q37 0 50 54h30l19 -385h-25q-116 364 -354 364q-96 0 -155.5 -61.5
t-59.5 -157.5q0 -108 85 -182q50 -44 181 -107l131 -63q102 -49 123 -64q176 -125 176 -348q0 -194 -133 -313q-127 -113 -324 -113q-91 0 -192 37q-113 41 -150 45q-43 0 -55 -57h-33zM497 0h64v-112l40 4h12q5 0 17 2q77 0 126 -44t49 -120q0 -176 -220 -176
q-126 0 -290 79l26 56q69 -34 130 -53t104 -19q118 0 118 107q0 97 -102 94l-37 -1l-36 -5z" />
    <glyph glyph-name="scedilla" unicode="&#x15f;" horiz-adv-x="793" 
d="M109 -14v299h18q34 -132 83 -193q65 -82 183 -82q152 0 152 148q0 109 -152 194q-160 90 -204 149.5t-44 145.5q0 103 69 173.5t171 70.5q44 0 110 -24.5t74 -24.5q26 0 43 35h19v-256h-19q-48 231 -219 231q-57 0 -93 -37t-36 -94q0 -68 53 -118q31 -29 113 -73
q132 -70 179 -115q79 -76 79 -188q0 -119 -83 -190q-78 -66 -199 -66q-68 0 -143 29l-75 29q-16 0 -33 -12q-13 -9 -28 -31h-18zM325 0h64v-112l40 4h12q5 0 17 2q77 0 126 -44t49 -120q0 -176 -220 -176q-126 0 -290 79l26 56q69 -34 130 -53t104 -19q118 0 118 107
q0 97 -102 94l-37 -1l-36 -5z" />
    <glyph glyph-name="Scaron" unicode="&#x160;" horiz-adv-x="1139" 
d="M137 -10l-18 434h26q33 -178 130 -288q111 -126 280 -126q121 0 191 79q67 76 67 198q0 120 -85 204q-59 59 -193 123q-194 94 -261 151q-122 104 -122 259q0 165 107 279t271 114q103 0 198 -38l95 -38q37 0 50 54h30l19 -385h-25q-116 364 -354 364q-96 0 -155.5 -61.5
t-59.5 -157.5q0 -108 85 -182q50 -44 181 -107l131 -63q102 -49 123 -64q176 -125 176 -348q0 -194 -133 -313q-127 -113 -324 -113q-91 0 -192 37q-113 41 -150 45q-43 0 -55 -57h-33zM278 1878h58l233 -211l233 211h58l-232 -351h-118z" />
    <glyph glyph-name="scaron" unicode="&#x161;" horiz-adv-x="793" 
d="M109 -14v299h18q34 -132 83 -193q65 -82 183 -82q152 0 152 148q0 109 -152 194q-160 90 -204 149.5t-44 145.5q0 103 69 173.5t171 70.5q44 0 110 -24.5t74 -24.5q26 0 43 35h19v-256h-19q-48 231 -219 231q-57 0 -93 -37t-36 -94q0 -68 53 -118q31 -29 113 -73
q132 -70 179 -115q79 -76 79 -188q0 -119 -83 -190q-78 -66 -199 -66q-68 0 -143 29l-75 29q-16 0 -33 -12q-13 -9 -28 -31h-18zM106 1352h58l233 -211l233 211h58l-232 -351h-118z" />
    <glyph glyph-name="Ydieresis" unicode="&#x178;" horiz-adv-x="1247" 
d="M750 397q0 -186 15 -240q35 -128 167 -128h16v-29h-616v29h16q132 0 167 128q15 55 15 240v189l-324 564q-117 206 -243 206v28h594v-28q-71 0 -112 -24q-33 -19 -33 -62q0 -51 37 -117l276 -494l211 367q62 108 83 188q7 26 7 41q0 48 -39 74.5t-112 26.5l-1 28h441v-28
q-134 0 -331 -338l-7 -12l-227 -394v-215zM801 1783q40 0 69 -30t29 -70q0 -43 -27.5 -71.5t-70.5 -28.5q-42 0 -71 29t-29 71q0 39 30.5 69.5t69.5 30.5zM449 1783q39 0 69.5 -30.5t30.5 -69.5q0 -42 -29 -71t-71 -29t-70 29t-28 71q0 40 29 70t69 30z" />
    <glyph glyph-name="Zcaron" unicode="&#x17d;" horiz-adv-x="1395" 
d="M80 0v12l864 1329h-319q-215 0 -317 -60q-125 -72 -167 -265h-26l24 368h1071v-12l-852 -1329h308q288 0 419.5 86t194.5 307h29l-23 -436h-1206zM407 1878h58l233 -211l233 211h58l-232 -351h-118z" />
    <glyph glyph-name="zcaron" unicode="&#x17e;" horiz-adv-x="909" 
d="M29 0v10l579 815h-194q-122 0 -184 -44q-69 -48 -93 -163h-24l30 244h658v-14l-574 -809h234q165 0 242 50q86 56 124 208h27l-31 -297h-794zM164 1352h58l233 -211l233 211h58l-232 -351h-118z" />
    <glyph glyph-name="florin" unicode="&#x192;" horiz-adv-x="1081" 
d="M491 833l-210 1l8 43h211q65 540 401 540q201 0 201 -127q0 -73 -74 -73q-72 0 -96 73l-5 15q-24 73 -65 73q-122 0 -203 -501h213l-8 -43h-211l-60 -460q-57 -346 -155 -539q-132 -259 -342 -259q-75 0 -129 32q-65 39 -65 109q0 82 80 82q68 0 79 -75l4 -28
q12 -83 70 -83q174 0 349 1173z" />
    <glyph glyph-name="circumflex" unicode="&#x2c6;" 
d="M453 1352h118l232 -351h-58l-233 211l-233 -211h-58z" />
    <glyph glyph-name="caron" unicode="&#x2c7;" 
d="M221 1352h58l233 -211l233 211h58l-232 -351h-118z" />
    <glyph glyph-name="breve" unicode="&#x2d8;" 
d="M219 1313h51q26 -107 146 -133q41 -9 96 -9q206 0 240 142h51q-41 -273 -291 -273q-251 0 -293 273z" />
    <glyph glyph-name="dotaccent" unicode="&#x2d9;" 
d="M512 1264q43 0 73.5 -32t30.5 -75t-30.5 -73.5t-73.5 -30.5t-73.5 29.5t-30.5 74.5q0 43 30.5 75t73.5 32z" />
    <glyph glyph-name="ring" unicode="&#x2da;" 
d="M512 1374q-61 0 -104 -44.5t-43 -106.5t42.5 -105t104.5 -43t107 43.5t45 104.5q0 62 -45 106.5t-107 44.5zM512 1464q101 0 171.5 -69t70.5 -170q0 -102 -70 -172t-172 -70q-99 0 -169.5 69.5t-70.5 172.5q0 101 69.5 170t170.5 69z" />
    <glyph glyph-name="ogonek" unicode="&#x2db;" 
d="M600 31h49q-180 -144 -180 -267q0 -118 100 -118q76 0 119 73l29 -18q-34 -70 -90.5 -110t-120.5 -40q-67 0 -111 38q-47 40 -47 106q0 173 252 336z" />
    <glyph glyph-name="tilde" unicode="&#x2dc;" 
d="M745 1298h54q-40 -202 -195 -202h-12q-11 0 -21 2l-41 8l-109 27l-26 4l-30 2q-31 2 -51.5 -19t-37.5 -71h-51q36 213 197 213q30 0 63 -9l141 -37l25 -2q32 -3 57 18q22 18 37 66z" />
    <glyph glyph-name="Delta" unicode="&#x394;" horiz-adv-x="1208" 
d="M555 1212l-389 -1042h768zM596 1497h29l555 -1497h-1151z" />
    <glyph glyph-name="Delta" unicode="&#x2206;" horiz-adv-x="1208" 
d="M555 1212l-389 -1042h768zM596 1497h29l555 -1497h-1151z" />
    <glyph glyph-name="Omega" unicode="&#x3a9;" horiz-adv-x="1567" 
d="M1100 188v-26h313l66 203h61l-108 -365h-500q201 349 253 663q17 102 17 201q0 240 -86 384q-107 177 -330 177q-224 0 -331 -177q-86 -143 -86 -384q0 -393 272 -864h-500l-110 365h61l68 -203h311v26q-146 179 -214 319q-89 182 -89 370q0 271 173.5 445.5t444.5 174.5
t444 -174.5t173 -445.5q0 -186 -90 -370q-68 -139 -213 -319z" />
    <glyph glyph-name="Omega" unicode="&#x2126;" horiz-adv-x="1567" 
d="M1100 188v-26h313l66 203h61l-108 -365h-500q201 349 253 663q17 102 17 201q0 240 -86 384q-107 177 -330 177q-224 0 -331 -177q-86 -143 -86 -384q0 -393 272 -864h-500l-110 365h61l68 -203h311v26q-146 179 -214 319q-89 182 -89 370q0 271 173.5 445.5t444.5 174.5
t444 -174.5t173 -445.5q0 -186 -90 -370q-68 -139 -213 -319z" />
    <glyph glyph-name="pi" unicode="&#x3c0;" horiz-adv-x="1354" 
d="M1329 885l-35 -162h-329q-26 -139 -35 -202q-19 -134 -19 -250q0 -102 -19 -183q-31 -131 -101 -131q-78 0 -78 94q0 52 84 316q99 311 110 356h-375q-13 -70 -23 -128q-15 -87 -21 -149q-9 -90 -9 -171q0 -103 -20 -185q-31 -133 -103 -133q-77 0 -77 96q0 75 83 323
q102 303 113 347h-133q-131 0 -179 -44q-43 -39 -73 -171h-59q33 186 100 270q85 107 256 107h942z" />
    <glyph glyph-name="endash" unicode="&#x2013;" 
d="M0 401v84h1024v-84h-1024z" />
    <glyph glyph-name="emdash" unicode="&#x2014;" horiz-adv-x="2048" 
d="M0 401v84h2048v-84h-2048z" />
    <glyph glyph-name="quoteleft" unicode="&#x2018;" horiz-adv-x="541" 
d="M238 1119l31 10l30 4q100 0 100 -109q0 -47 -35.5 -81t-82.5 -34q-64 0 -101 52q-33 46 -33 112q0 219 261 344l12 -22q-182 -114 -182 -276z" />
    <glyph glyph-name="quoteright" unicode="&#x2019;" horiz-adv-x="541" 
d="M321 1210l-34 -13l-27 -3q-44 0 -72 29t-28 75q0 50 34.5 84.5t84.5 34.5q63 0 100 -52q33 -47 33 -112q0 -221 -260 -344l-13 23q129 80 170 200q12 37 12 78z" />
    <glyph glyph-name="quotesinglbase" unicode="&#x201a;" horiz-adv-x="541" 
d="M301 14l-31 -11l-30 -3q-45 0 -74 28.5t-29 73.5q0 50 34.5 84.5t84.5 34.5q64 0 101 -52q34 -46 34 -112q0 -216 -262 -342l-12 23q184 116 184 276z" />
    <glyph glyph-name="quotedblleft" unicode="&#x201c;" horiz-adv-x="915" 
d="M612 1119l31 9l31 5q45 0 72.5 -31.5t27.5 -77.5t-36.5 -80.5t-82.5 -34.5q-66 0 -101 51q-32 45 -32 113q0 218 260 344l13 -22q-128 -79 -169 -198q-14 -39 -14 -78zM238 1119l31 10l30 4q100 0 100 -109q0 -47 -35.5 -81t-82.5 -34q-64 0 -101 52q-33 46 -33 112
q0 219 261 344l12 -22q-182 -114 -182 -276z" />
    <glyph glyph-name="quotedblright" unicode="&#x201d;" horiz-adv-x="915" 
d="M321 1210l-34 -13l-27 -3q-44 0 -72 29t-28 75q0 50 34.5 84.5t84.5 34.5q63 0 100 -52q33 -47 33 -112q0 -221 -260 -344l-13 23q129 80 170 200q12 37 12 78zM696 1210l-34 -13l-27 -3q-44 0 -72 30t-28 74q0 50 34 84.5t84 34.5q64 0 100 -52q33 -46 33 -112
q0 -221 -260 -344l-12 23q129 80 170 200q12 37 12 78z" />
    <glyph glyph-name="quotedblbase" unicode="&#x201e;" horiz-adv-x="915" 
d="M675 14l-31 -11l-30 -3q-44 0 -73 29t-29 73q0 50 34.5 84.5t84.5 34.5q64 0 100 -52q33 -46 33 -112q0 -214 -260 -342l-12 23q183 114 183 276zM303 14l-31 -11l-30 -3q-45 0 -74 28.5t-29 73.5q0 50 34.5 84.5t84.5 34.5q64 0 100 -52q33 -46 33 -112
q0 -219 -260 -342l-12 23q184 115 184 276z" />
    <glyph glyph-name="dagger" unicode="&#x2020;" horiz-adv-x="995" 
d="M473 -319q0 472 -96 864q48 72 72 161q30 110 30 207q-65 0 -164 -43t-133 -43q-106 0 -106 99q0 108 112 108q31 0 128 -40t159 -40h4v13q0 82 -45 205t-45 141q0 104 111 104q106 0 106 -104q0 -12 -45 -139.5t-45 -212.5v-7h4q63 0 161 40t126 40q113 0 113 -104
q0 -103 -111 -103q-33 0 -124 42q-95 44 -169 44q0 -97 30 -207q24 -88 72 -161q-70 -254 -88 -610q-6 -121 -6 -254h-51z" />
    <glyph glyph-name="daggerdbl" unicode="&#x2021;" horiz-adv-x="995" 
d="M377 545q69 109 94 265q8 50 8 103q-65 0 -164 -43t-133 -43q-106 0 -106 99q0 108 112 108q31 0 128 -40t159 -40h4v13q0 82 -45 205t-45 141q0 104 111 104q106 0 106 -104q0 -12 -45 -139.5t-45 -212.5v-7h4q63 0 161 40t126 40q113 0 113 -104q0 -103 -111 -103
q-33 0 -124 42q-95 44 -169 44q0 -96 30 -206q25 -91 72 -162q-67 -105 -92 -264q-9 -54 -9 -107q64 0 163.5 43t132.5 43q107 0 107 -102q0 -47 -31.5 -76t-79.5 -29q-34 0 -130.5 40t-158.5 40h-4v-12q0 -108 44 -219q42 -105 44 -127q0 -105 -108 -105q-107 0 -107 105
q0 11 45 139t45 213v6h-4q-63 0 -161.5 -40t-129.5 -40q-49 0 -78.5 29.5t-29.5 79.5q0 98 106 98q38 0 130 -42q96 -44 167 -44q0 97 -30 208q-24 89 -72 163z" />
    <glyph glyph-name="bullet" unicode="&#x2022;" horiz-adv-x="1208" 
d="M307 762q0 123 87 209t210 86q122 0 208.5 -86.5t86.5 -208.5q0 -123 -87 -210t-210 -87t-209 87t-86 210z" />
    <glyph glyph-name="ellipsis" unicode="&#x2026;" horiz-adv-x="2048" 
d="M342 -16q-47 0 -82.5 35.5t-35.5 82.5q0 50 34 84.5t84 34.5q49 0 84 -35t35 -84t-35 -83.5t-84 -34.5zM1024 -16q-47 0 -82.5 35.5t-35.5 82.5q0 50 34 84.5t84 34.5q49 0 84 -35t35 -84t-35 -83.5t-84 -34.5zM1708 -16q-47 0 -82.5 35.5t-35.5 82.5q0 50 34 84.5
t84 34.5q49 0 84 -35t35 -84t-35 -83.5t-84 -34.5z" />
    <glyph glyph-name="perthousand" unicode="&#x2030;" horiz-adv-x="2355" 
d="M1976 6q74 0 114 103t40 292q0 394 -154 394q-72 0 -112.5 -102.5t-40.5 -291.5q0 -395 153 -395zM1978 -35q-146 0 -235 152q-76 128 -76 284q0 154 77 283q89 152 234 152t234 -152q76 -128 76 -283q0 -157 -75 -285q-88 -151 -235 -151zM1243 -35q-146 0 -235 152
q-76 128 -76 284q0 154 77 283q89 152 234 152t234 -152q75 -128 75 -283q0 -157 -75 -284q-88 -152 -234 -152zM377 549q-145 0 -234 151q-75 128 -75 283t75 283q89 151 234 151t234 -151q75 -128 75 -283q0 -157 -74 -284q-89 -150 -235 -150zM1241 6q92 0 131 163
q23 98 23 232q0 394 -154 394q-92 0 -131 -163q-23 -98 -23 -231q0 -395 154 -395zM377 588q72 0 113 102q40 99 40 293q0 395 -153 395q-152 0 -152 -395t152 -395zM295 -35l944 1452h84l-942 -1452h-86z" />
    <glyph glyph-name="guilsinglleft" unicode="&#x2039;" horiz-adv-x="473" 
d="M72 432l278 365h47l-141 -365l141 -366h-47z" />
    <glyph glyph-name="guilsinglright" unicode="&#x203a;" horiz-adv-x="473" 
d="M403 432l-280 -366h-47l143 366l-143 365h47z" />
    <glyph glyph-name="fraction" unicode="&#x2044;" horiz-adv-x="342" 
d="M-260 -33h-82l944 1450h80z" />
    <glyph glyph-name="franc" unicode="&#x20a3;" horiz-adv-x="1882" 
d="M502 537q0 -310 -3 -221q4 -133 47 -200q55 -87 181 -87h16v-29h-657v29h16q103 0 148 87q34 66 38 190q-3 -99 -3 188v397q0 292 3 188q-4 124 -38 190q-45 87 -148 87h-16v28h1038l15 -331h-29q-36 170 -149 235q-93 53 -283 53h-176v-587q173 0 243 55t70 186h29v-546
h-29q0 140 -73.5 204t-239.5 64v-180zM1518 301q0 -162 11 -193q28 -79 149 -79h12v-29h-477v29h8q110 0 133 89q6 24 6 189v324q0 94 -27 132q-31 43 -120 50v23q157 21 280 65l12 -4l7 -85l2 -101q89 180 243 180q150 0 150 -109q0 -32 -20.5 -51.5t-55.5 -19.5
q-38 0 -81.5 57t-76.5 57q-61 0 -108 -100.5t-47 -247.5v-176z" />
    <glyph glyph-name="trademark" unicode="&#x2122;" horiz-adv-x="1683" 
d="M788 1438h183l141 -400l148 400h174v-25l-30 -2q-46 -3 -46 -53v-373q0 -23 13 -37.5t33 -15.5l30 -2v-27h-236v27l31 2q45 3 45 53v395l-178 -479h-15l-174 479v-395q0 -50 47 -53l31 -2v-27h-197v27l34 2q44 3 44 53v371q0 50 -47 53l-31 2v27zM256 1438h440l11 -178
h-25q-15 151 -137 151h-21v-426q0 -50 45 -53l31 -2v-27h-248v27l31 2q45 3 45 53v426h-20q-121 0 -138 -151h-26z" />
    <glyph glyph-name="partialdiff" unicode="&#x2202;" horiz-adv-x="1044" 
d="M754 604q11 74 19 161q0 27 3.5 79.5t3.5 79.5q0 293 -151 293q-48 0 -117 -63.5t-109 -63.5q-30 0 -51.5 21.5t-21.5 51.5q0 71 84 115q70 37 147 37q198 0 298 -194q77 -152 77 -371q0 -273 -105 -494q-133 -281 -378 -281q-154 0 -248 115q-88 107 -88 264
q0 175 98 303q107 140 277 140q191 0 262 -193zM709 483q0 244 -172 244q-137 0 -206 -173q-50 -127 -50 -288q0 -239 172 -239q135 0 205 171q51 127 51 285z" />
    <glyph glyph-name="product" unicode="&#x220f;" horiz-adv-x="1595" 
d="M57 1473h1479v-70h-186v-1727h186v-69h-555v69h197v1727h-762v-1727h196v-69h-555v69h187v1727h-187v70z" />
    <glyph glyph-name="c294" unicode="&#x2211;" horiz-adv-x="1434" 
d="M12 1473h1135l98 -340h-74l-67 219q-16 51 -105 51h-741l864 -850v-37l-858 -756h893q53 0 70 9q23 11 37 55l71 229h74l-135 -446h-1260v28l959 838l-961 950v50z" />
    <glyph glyph-name="radical" unicode="&#x221a;" horiz-adv-x="1288" 
d="M1106 1647h182v-82h-119l-594 -1606h-53l-323 893l-119 -43l-23 68l262 92l265 -729z" />
    <glyph glyph-name="infinity" unicode="&#x221e;" horiz-adv-x="1706" 
d="M905 559q101 -188 275 -188q106 0 172 74q63 71 63 178q0 101 -55 173q-60 78 -158 78q-101 0 -187 -113q-48 -64 -110 -202zM803 666q-102 190 -273 190q-109 0 -173 -72t-64 -182q0 -101 55 -172q60 -78 158 -78q103 0 187 112q48 63 110 202zM866 494
q-134 -265 -321 -265q-145 0 -236 121q-82 110 -82 260q0 154 70 260q81 123 227 123q186 0 316 -266q67 139 146 204.5t175 65.5q145 0 236 -121q82 -110 82 -260q0 -153 -69 -259q-81 -124 -226 -124q-108 0 -193 83q-58 56 -125 178z" />
    <glyph glyph-name="integral" unicode="&#x222b;" horiz-adv-x="1020" 
d="M301 -268q56 0 83 166q25 152 33 498l5 216q7 289 27 424q27 179 75 295q90 217 281 217q117 0 156 -84q12 -26 12 -59q0 -107 -113 -107q-117 0 -117 127q0 21 -20 23q-58 0 -85 -159q-26 -145 -34 -475l-6 -245q-2 -90 -9 -255q-25 -314 -85 -453q-101 -232 -291 -232
q-67 0 -114 33q-52 38 -52 102q0 115 115 115q43 0 77.5 -27t34.5 -69q0 -51 27 -51z" />
    <glyph glyph-name="approxequal" unicode="&#x2248;" horiz-adv-x="1706" 
d="M1530 584v-131q-208 -146 -389 -146q-100 0 -289 69.5t-289 69.5q-153 0 -385 -159v131q216 147 387 147q103 0 297.5 -69.5t280.5 -69.5q156 0 387 158zM1530 934v-131q-206 -144 -387 -144q-100 0 -290 69t-290 69q-84 0 -173 -36.5t-212 -121.5v131q212 145 387 145
q102 0 295.5 -68.5t282.5 -68.5q88 0 175.5 35t211.5 121z" />
    <glyph glyph-name="approxequal" unicode="&#x22f2;" horiz-adv-x="1706" 
d="M1530 584v-131q-208 -146 -389 -146q-100 0 -289 69.5t-289 69.5q-153 0 -385 -159v131q216 147 387 147q103 0 297.5 -69.5t280.5 -69.5q156 0 387 158zM1530 934v-131q-206 -144 -387 -144q-100 0 -290 69t-290 69q-84 0 -173 -36.5t-212 -121.5v131q212 145 387 145
q102 0 295.5 -68.5t282.5 -68.5q88 0 175.5 35t211.5 121z" />
    <glyph glyph-name="notequal" unicode="&#x2260;" horiz-adv-x="1706" 
d="M1210 1180l88 -70l-196 -250h350v-115h-424l-211 -270h635v-115h-709l-251 -319l-89 70l197 249h-346v115h420l211 270h-631v115h704z" />
    <glyph glyph-name="lessequal" unicode="&#x2264;" horiz-adv-x="1706" 
d="M262 150h1182v-117h-1182v117zM1444 1192v-125l-977 -324l977 -323v-125l-1182 399v101z" />
    <glyph glyph-name="greaterequal" unicode="&#x2265;" horiz-adv-x="1706" 
d="M262 150h1182v-117h-1182v117zM262 1192l1182 -397v-101l-1182 -399v125l979 323l-979 324v125z" />
    <glyph glyph-name="lozenge" unicode="&#x25ca;" horiz-adv-x="1012" 
d="M506 1409l-385 -817l385 -825l385 825zM506 1653l500 -1061l-500 -1069l-500 1069z" />
    <glyph glyph-name="apple" unicode="&#xf000;" horiz-adv-x="1618" 
d="M836 1216l-2 14v23q0 132 102 237q95 98 229 124l1 -23l1 -39q3 -128 -102 -233t-205 -105h-8zM1505 403q-91 -197 -152 -279q-118 -159 -257 -159q-45 0 -129.5 33t-124.5 33q-43 0 -129.5 -33t-128.5 -33q-128 0 -258 176q-101 137 -158 295q-55 153 -55 301
q0 211 117 348q124 146 331 146q57 0 150.5 -34t128.5 -34q34 0 121.5 35t152.5 35q214 0 359 -164q-201 -127 -201 -328q0 -235 233 -338z" />
    <glyph glyph-name="fi" unicode="&#xf001;" horiz-adv-x="1161" 
d="M217 825h-141v37h141v152q0 301 218 371q75 24 179 24q113 0 198 -30q122 -43 122 -136q0 -76 -78 -76q-55 0 -93 114l-1 3q-29 88 -170 88q-146 0 -191 -110q-26 -65 -26 -242v-158h291q143 0 292 39v-594q0 -165 7 -190q23 -88 135 -88h8v-29h-457v29h8q111 0 135 89
q7 26 7 189v338q0 103 -34 141q-37 39 -138 39h-254v-524q0 -194 25 -233t116 -39h8v-29h-454v29h8q110 0 133 89q6 24 6 189v518z" />
    <glyph glyph-name="fl" unicode="&#xf002;" horiz-adv-x="1161" 
d="M217 825h-141v37h141v152q0 393 340 393q119 0 207 -35l109 24l85 25v-1114q0 -165 7 -190q23 -88 135 -88h8v-29h-457v29h8q111 0 135 89q7 26 7 189v877h-4q-61 0 -79 88q-21 98 -147 98q-134 0 -175 -117q-21 -62 -21 -233v-158h209v-37h-209v-524q0 -194 25 -233
t116 -39h8v-29h-454v29h8q110 0 133 89q6 24 6 189v518z" />
    <glyph glyph-name="minus" horiz-adv-x="639" 
d="M70 383v119h499v-119h-499z" />
    <glyph glyph-name="HT" horiz-adv-x="541" 
 />
    <glyph glyph-name="nonmarkingreturn" horiz-adv-x="541" 
 />
  </font>
</defs>
</svg>
