<?xml version="1.0" standalone="no"?>
<!DOCTYPE svg PUBLIC "-//W3C//DTD SVG 1.1//EN" "http://www.w3.org/Graphics/SVG/1.1/DTD/svg11.dtd" >
<svg xmlns="http://www.w3.org/2000/svg">
<metadata></metadata>
<defs>
<font id="amertyperegular" horiz-adv-x="1351" >
<font-face units-per-em="2048" ascent="1638" descent="-410" />
<missing-glyph horiz-adv-x="778" />
<glyph horiz-adv-x="2048" />
<glyph horiz-adv-x="2048" />
<glyph unicode="&#xd;" horiz-adv-x="778" />
<glyph unicode=" "  horiz-adv-x="778" />
<glyph unicode="&#x09;" horiz-adv-x="778" />
<glyph unicode="&#xa0;" horiz-adv-x="778" />
<glyph unicode="!" horiz-adv-x="696" d="M205 109q0 53 39 92t94 39q53 0 92 -39t39 -92q0 -55 -39 -94.5t-92 -39.5q-55 0 -94 39t-39 95zM254 1321q0 113 88 113t88 -113l-8 -901q0 -104 -76 -105q-84 0 -84 105z" />
<glyph unicode="&#x22;" d="M440 1370q0 63 62 64q61 -1 61 -64l-4 -498q0 -57 -57 -57t-58 57zM788 1370q0 63 62 64q61 -1 61 -64l-4 -498q0 -57 -57 -57t-57 57z" />
<glyph unicode="#" d="M2 442q0 102 176 103q37 0 93.5 -5t66.5 -5l121 333q-2 0 -68.5 -4t-114.5 -4q-154 0 -153 41q0 104 192 105q45 0 114 -6.5t77 -6.5q35 111 72 224q72 188 141 188q39 0 39 -35q0 -6 -135 -377h323q33 113 68 226q68 186 143 186q41 0 41 -35q0 -6 -137 -377q-2 0 52 4 t95 4q142 0 142 -43q0 -98 -181 -98q-37 0 -91 4t-62 4l-125 -333q2 0 68.5 4t113.5 4q160 0 160 -43q0 -102 -201 -103q-49 0 -115.5 6.5t-72.5 6.5l-70 -226q-70 -195 -139 -194q-45 0 -45 35q0 12 139 383h-323l-70 -226q-74 -193 -141 -192q-45 0 -45 35q0 8 141 383 l-55 -4q-56 -5 -97 -5q-137 0 -137 43zM449 532h323l125 336h-322z" />
<glyph unicode="$" d="M102 338q0 80 43 138.5t121 58.5q49 0 84 -32t35 -81q0 -45 -36 -72.5t-81 -25.5q4 -113 131 -177q104 -51 230 -51v553q-16 6 -209 64q-121 35 -174 88q-74 74 -74 215q0 195 139 299q106 82 318 119q0 8 -3 47t-3 63q0 131 69 131q68 0 68 -135q0 -25 -2 -61.5 t-2 -44.5q156 -8 282 -88q154 -94 154 -236q0 -55 -34 -96t-89 -41q-43 0 -75.5 28.5t-32.5 71.5q0 45 49 72q-20 74 -101 112q-68 31 -153 31v-493q244 -57 334 -111q157 -96 157 -295q0 -342 -491 -440q0 -8 3 -48t3 -65q0 -131 -70 -131t-69 127q0 25 3 66t3 51 q-199 4 -348 94q-178 111 -179 295zM344 1049q0 -104 96 -162q52 -31 189 -66v467q-109 2 -197 -65.5t-88 -173.5zM756 96q119 -4 218 72.5t99 193.5q0 131 -98 195q-72 45 -219 64v-525z" />
<glyph unicode="%" horiz-adv-x="1761" d="M53 967q0 199 84 321q98 145 287 146q172 0 264 -140q82 -121 82 -301q0 -201 -80 -325q-94 -150 -284 -150q-180 0 -273 139q-80 121 -80 310zM180 956q0 -131 45 -217q59 -111 178 -110q131 0 193 121q47 94 47 239q0 334 -231 334t-232 -367zM387 -35l16 37l852 1405 q20 33 28.5 39t43.5 6q57 0 57 -12l-14 -33l-856 -1417q-20 -35 -35 -41q-6 -2 -55 -2q-37 0 -37 18zM999 399q0 199 84 322q98 143 289 143q172 0 264 -139q80 -119 80 -299q0 -199 -80 -326q-96 -152 -284 -151q-178 0 -273 141q-80 121 -80 309zM1126 387q0 -129 48 -217 q57 -111 176 -111q131 0 192 121q47 95 47 240q0 334 -229 334q-233 0 -234 -367z" />
<glyph unicode="&#x26;" horiz-adv-x="1761" d="M104 365q0 168 101 284q78 90 250 180q-102 223 -103 340q0 121 101 197q90 68 215 68q139 0 227 -66q98 -72 98 -205q0 -219 -303 -393q59 -94 119 -188q74 -119 129 -181q51 135 100 271q72 168 154 256q109 113 256 112q123 0 205 -67q84 -74 84 -195q0 -106 -74 -185 t-180 -79q-72 0 -125 33q-61 41 -62 108q0 102 93 103q70 0 69 -68q0 -16 -6 -33l33 -4q43 0 70.5 35t27.5 78q0 63 -41 100t-106 37q-100 0 -181 -125q-53 -82 -118 -264q-70 -193 -99 -240q113 -127 183 -151q41 -12 235 -12q33 0 58.5 -20.5t25.5 -53.5q0 -80 -131 -80 q-20 0 -54 2t-44 2q-129 0 -209 39q-70 35 -166 135q-147 -186 -401 -186q-184 0 -307.5 115.5t-123.5 300.5zM285 371q0 -123 74.5 -197t197.5 -74q177 0 279 156q-94 129 -301 442q-250 -86 -250 -327zM528 1157q0 -82 95 -256q200 90 200 254q0 61 -42 100t-103 39 q-150 0 -150 -137z" />
<glyph unicode="'" horiz-adv-x="901" d="M389 1370q0 63 62 64q61 -1 61 -64l-4 -498q0 -57 -57 -57t-58 57z" />
<glyph unicode="(" horiz-adv-x="942" d="M141 561q0 279 219 549q231 285 504 295l31 -29q-4 -10 -166 -110q-182 -111 -283 -244q-152 -197 -151 -461q0 -262 149 -459q102 -135 285 -243q164 -101 166 -107l-43 -26q-268 6 -496 290q-215 272 -215 545z" />
<glyph unicode=")" horiz-adv-x="942" d="M53 -248q4 10 162 109q180 113 281 243q147 197 147 457q0 262 -149 457q-98 131 -279 244q-158 98 -162 114l21 29q272 -10 501 -295q222 -273 222 -549q0 -272 -215 -545q-227 -285 -496 -290z" />
<glyph unicode="*" horiz-adv-x="983" d="M139 883q0 55 119 102q76 23 152 45v23q-76 23 -154 47q-115 45 -115 106t66 62q49 0 129 -70q53 -49 104 -98l17 12q-14 57 -27 113q-16 70 -16 114q0 94 71 95q72 0 72 -91q0 -45 -16 -116q-14 -57 -29 -115l18 -12q51 51 105 102q82 76 131 76q68 0 68 -59 q0 -61 -111 -109q-82 -29 -164 -57v-23q82 -25 164 -47q115 -43 115 -100q0 -29 -19.5 -48.5t-48.5 -19.5q-43 0 -131 72q-53 47 -107 94l-16 -10q14 -55 27 -109q16 -68 16 -110q0 -102 -72 -103q-72 0 -71 88q0 25 41 232l-15 12q-51 -47 -104 -96q-84 -70 -129 -70 q-70 0 -70 68z" />
<glyph unicode="+" horiz-adv-x="1269" d="M104 477v156h439v436h155v-436h439v-156h-439v-442h-155v442h-439z" />
<glyph unicode="," horiz-adv-x="696" d="M180 80q0 63 43 102t107 39q78 0 125 -67q41 -60 41 -142q0 -90 -68 -239q-76 -170 -152 -170q-41 0 -40 41q0 10 66.5 113.5t66.5 162.5q0 29 -50 33q-70 8 -90 20q-49 27 -49 107z" />
<glyph unicode="-" horiz-adv-x="655" d="M70 553q0 74 108 74h299q109 0 109 -74q0 -76 -109 -76h-299q-109 0 -108 76z" />
<glyph unicode="." horiz-adv-x="696" d="M205 109q0 53 39 92t94 39q53 0 92 -39t39 -92q0 -55 -39 -94.5t-92 -39.5q-55 0 -94 39t-39 95z" />
<glyph unicode="/" horiz-adv-x="1064" d="M141 -131q0 12 160 412q92 225 182 452l197 512q31 104 59 209q37 90 140 90q43 1 43 -26l-625 -1618q-14 -35 -29.5 -44.5t-54.5 -9.5q-72 0 -72 23z" />
<glyph unicode="0" d="M98 676q0 315 133 518q158 240 457 240q283 0 434 -228q129 -194 129 -493q0 -319 -133 -523q-158 -242 -459 -241q-285 0 -434 231q-127 197 -127 496zM287 668q0 -225 73 -371q96 -190 302 -191q221 0 323 209q78 156 78 404q0 231 -76 375q-98 182 -311 182 q-219 0 -316 -209q-74 -154 -73 -399z" />
<glyph unicode="1" d="M313 51q0 68 70 68q16 0 49 -4t45 -4q78 0 101 67q10 33 10 137v758q0 150 -37 174q-20 14 -172 15q-66 0 -66 69q0 74 62 74q29 0 84 -11.5t84 -11.5q27 0 81 11.5t81 11.5q66 0 65 -64q0 -12 -3 -38.5t-3 -38.5v-936q0 -164 33 -191q20 -16 176 -16q65 0 65 -70 q0 -74 -88 -74q-47 0 -139 11.5t-139 11.5q-45 0 -137.5 -11.5t-137.5 -11.5q-35 0 -59.5 20.5t-24.5 53.5z" />
<glyph unicode="2" d="M102 174q0 264 236 408q6 2 438 178q236 94 236 248q0 139 -105 215q-92 68 -237 67q-102 0 -207 -47q-129 -57 -129 -147q0 -12 55 -35t55 -84q0 -53 -42 -91t-95 -38q-74 0 -117 51t-43 127q0 188 179 305q156 102 354 103q211 0 352 -103q160 -117 160 -319 q0 -217 -231 -336q-219 -82 -439 -164q-244 -98 -258 -262l4 -4q84 102 230 102q113 0 260 -115.5t229 -115.5q59 0 95 44t36 103l-10 39q-25 -35 -70 -35q-41 0 -67.5 24.5t-26.5 65.5q0 51 38 82t89 31q86 0 133 -63q41 -58 41 -148q0 -121 -78 -213q-84 -98 -200 -98 q-113 0 -272.5 119.5t-266.5 119.5q-131 0 -149 -86l22 2q63 0 64 -59q0 -41 -30 -68.5t-71 -27.5q-84 0 -127 74q-35 59 -35 151z" />
<glyph unicode="3" d="M109 356q0 92 55 162t145 70q51 0 86 -35t35 -86q0 -57 -39 -82q-16 -8 -69 -18q-39 -8 -39 -29q0 -113 143 -184q119 -59 242 -60q170 0 283.5 98.5t113.5 264.5q0 121 -79 195.5t-200 74.5q-41 0 -120.5 -12.5t-118.5 -12.5q-49 0 -49 58q0 31 200 235q119 117 236 234 h-494q-121 0 -121 -109q0 -16 3.5 -53t3.5 -55q0 -90 -76 -90q-68 0 -68 90v284q0 96 94 97h809q127 0 127 -76q0 -39 -198 -238q-113 -109 -226 -217q205 0 326 -100q129 -106 129 -309q0 -236 -178 -377q-166 -127 -408 -127q-207 0 -364 98q-184 115 -184 309z" />
<glyph unicode="4" d="M59 492q0 31 43 88l494 659q145 195 248 195q117 0 117 -174v-703q8 0 59 4t86 4q156 0 156 -80q0 -84 -154 -84q-33 0 -85 4.5t-62 4.5v-109q0 -111 19 -145.5t75 -34.5q12 0 58 3t77 3q29 0 47 -23.5t18 -52.5q0 -33 -24.5 -53.5t-59.5 -20.5q-47 0 -138 11.5 t-136 11.5t-137 -11.5t-137 -11.5q-139 0 -140 74q0 76 92 76q20 0 59.5 -4t53.5 -4q98 0 98 192v56q-2 35 -2 43h-610q-115 0 -115 82zM268 557h516v686h-4z" />
<glyph unicode="5" d="M131 311q0 74 46 129.5t118 55.5q51 0 88 -31t37 -82t-31 -74l-74 -28q2 -90 138 -144q106 -43 213 -43q164 0 281.5 104.5t117.5 264.5t-95.5 249t-256.5 89q-123 0 -215 -49q-45 -23 -125 -90q-59 -49 -97 -50q-76 0 -75 107q0 88 10 299q14 270 33 325q16 49 90 50 h680q121 0 121 -314q0 -29 -21.5 -49t-50.5 -20q-55 0 -64 57q-8 51 -16 104q-25 57 -119 58h-389q-94 0 -106 -154q0 -123 -2 -244q160 115 364 115q223 0 361 -119q145 -125 145 -344q0 -250 -176 -397q-164 -137 -420 -137q-182 0 -334 88q-176 104 -176 274z" />
<glyph unicode="6" d="M113 608q0 336 139 559q164 266 481 267q152 0 277 -74q147 -86 147 -227q0 -59 -40 -102.5t-97 -43.5q-43 0 -75 33t-32 78q0 68 58 84q-53 113 -250 112q-209 0 -328 -198q-92 -158 -106 -391l4 -5q113 229 432 230q215 0 363.5 -131t148.5 -342q0 -229 -164 -373 q-156 -135 -389 -135q-276 0 -430 196q-139 178 -139 463zM328 440q0 -156 100 -252t258 -96q156 0 261.5 97t105.5 251q0 160 -102.5 248t-264.5 88q-160 0 -256 -88q-102 -90 -102 -248z" />
<glyph unicode="7" d="M168 870q0 41 9 124t9 126q0 37 -9 112t-9 111q0 90 76 91q59 0 59 -74q0 -25 -10 -80l4 -4q80 143 197 143q111 0 259 -114.5t228 -114.5q98 0 111 63l-17 -2q-33 0 -55.5 24.5t-22.5 57.5q0 37 31 67t70 30q143 0 143 -193q0 -188 -135 -324q-231 -229 -254 -262 q-135 -207 -135 -567q0 -135 -105 -135q-109 0 -108 172q0 307 141 528q86 131 270 283q152 123 162 180l-4 4q-55 -61 -170 -61q-102 0 -196 51q-20 12 -138 96q-72 51 -120 51q-139 0 -140 -178q0 -35 12.5 -103.5t12.5 -103.5t-25.5 -59.5t-60.5 -24.5q-80 0 -80 86z" />
<glyph unicode="8" d="M117 403q0 139 77.5 238.5t213.5 144.5q-197 98 -197 271q0 178 156 284q135 92 323 93q182 0 307 -86q143 -98 144 -273q0 -197 -217 -289q135 -43 219 -141q90 -107 90 -242q0 -215 -182 -342q-160 -113 -385 -112q-221 0 -377 114q-172 127 -172 340zM301 416 q0 -158 119 -242q102 -76 266 -76q152 0 255 83t103 233q0 145 -120 225q-104 68 -258 68q-141 0 -246 -72q-119 -82 -119 -219zM389 1063q0 -96 96 -152q80 -43 185 -43q113 0 194 47q97 58 97 162q0 100 -95 158q-80 49 -188 49q-113 0 -195 -53q-94 -61 -94 -168z" />
<glyph unicode="9" d="M133 924q0 221 153.5 365.5t377.5 144.5q279 0 426 -209q129 -184 129 -473q0 -336 -142 -551q-164 -252 -483 -252q-158 0 -285 74q-152 88 -151 235q0 59 39 100t98 41q41 0 74.5 -31.5t33.5 -72.5q0 -68 -61 -90q29 -59 115 -92q70 -27 149 -27q217 0 334 193 q94 156 100 391l-4 4q-51 -109 -176 -166q-109 -49 -242 -49q-209 0 -347 129t-138 336zM322 934q0 -147 90 -235.5t239 -88.5q156 0 253 85t97 239q0 156 -93 253t-249 97q-152 0 -244.5 -98.5t-92.5 -251.5z" />
<glyph unicode=":" horiz-adv-x="696" d="M205 109q0 53 39 92t94 39q53 0 92 -39t39 -92q0 -55 -39 -94.5t-92 -39.5q-55 0 -94 39t-39 95zM205 799q0 55 39 94t94 39q53 0 92 -39t39 -94q0 -53 -39 -92t-92 -39q-55 0 -94 37.5t-39 93.5z" />
<glyph unicode=";" horiz-adv-x="696" d="M180 80q0 63 43 102t107 39q78 0 125 -67q41 -60 41 -142q0 -90 -68 -239q-76 -170 -152 -170q-41 0 -40 41q0 10 66.5 113.5t66.5 162.5q0 29 -50 33q-70 8 -90 20q-49 27 -49 107zM190 799q0 53 39 92t95 39q53 0 92 -39t39 -92q0 -55 -39 -94t-92 -39 q-55 0 -94.5 38.5t-39.5 94.5z" />
<glyph unicode="&#x3c;" horiz-adv-x="1269" d="M100 487v131l1043 476v-150l-848 -391l848 -391v-150z" />
<glyph unicode="=" horiz-adv-x="1269" d="M104 276v154h1033v-154h-1033zM104 676v153h1033v-153h-1033z" />
<glyph unicode="&#x3e;" horiz-adv-x="1269" d="M98 12v150l848 391l-848 391v150l1043 -476v-131z" />
<glyph unicode="?" horiz-adv-x="1228" d="M78 1030q0 197 176 309q150 94 358 95q211 0 353 -91q168 -106 168 -305q0 -178 -138 -278q-129 -68 -258 -135q-137 -76 -137 -193q0 -109 -76 -108q-92 0 -92 102q0 160 135 264q125 74 252 148q135 88 135 211q0 127 -112 194q-96 57 -232 57q-131 0 -241 -59 q-133 -74 -133 -194q0 -61 53 -89l-2 19q0 70 84 70q39 0 63.5 -28t24.5 -67q0 -63 -53.5 -101t-118.5 -38q-90 0 -149.5 63.5t-59.5 153.5zM406 109q0 53 38.5 92t94.5 39q53 0 92 -39t39 -92q0 -55 -39 -94.5t-92 -39.5q-55 0 -94 39t-39 95z" />
<glyph unicode="@" horiz-adv-x="1515" d="M45 590q0 346 254 595t600 249q250 0 414 -148q172 -153 172 -399q0 -199 -131 -391q-145 -211 -334 -211q-45 0 -92 28.5t-47 69.5q0 16 8 33l-4 4q-37 -63 -114 -98t-155 -35q-117 0 -184 77.5t-67 196.5q0 201 152.5 362.5t352.5 161.5q31 0 91.5 -15t87.5 -15 q16 0 45.5 12t44.5 14l37 -28q-12 -82 -89 -301q-68 -193 -67 -299q0 -45 45 -45q117 0 199 178q66 145 65 280q0 195 -126 324t-320 129q-276 0 -476 -218t-200 -499q0 -225 146.5 -377.5t369.5 -152.5q137 0 266 63q117 63 236 125l45 -43q-8 -104 -240 -192 q-197 -76 -328 -76q-276 0 -466.5 183t-190.5 458zM524 569q0 -152 140 -151q106 0 180 96q55 74 98 211q28 103 55 207q-70 37 -137 37q-145 0 -244 -129q-92 -121 -92 -271z" />
<glyph unicode="A" horiz-adv-x="1597" d="M-18 51q0 68 71 68q14 0 44 -3t42 -3q80 0 291 577q100 303 203 604q23 59 52.5 85t88.5 26q94 0 135 -111l363 -997q45 -123 67.5 -150.5t81.5 -27.5h49q37 2 66 2q66 0 66 -70q0 -74 -89 -74q-45 0 -136 11.5t-138 11.5t-138 -11.5t-136 -11.5q-117 0 -117 74 q0 70 86 70q23 0 63.5 -5t55.5 -5q66 0 65 55q0 63 -45 178q-55 135 -117 135q-23 0 -112.5 9.5t-143.5 9.5q-178 0 -213 -90q-78 -205 -77 -232q0 -65 85 -65h3q23 0 65.5 5t54.5 5q66 0 66 -70q0 -74 -88 -74q-45 0 -136 11.5t-138 11.5t-138.5 -11.5t-136.5 -11.5 q-18 0 -41.5 27t-23.5 47zM573 635q0 -16 54 -17h297h3q25 0 25 17q0 45 -82 287q-53 152 -104 303h-4q-53 -152 -107 -303q-82 -246 -82 -287z" />
<glyph unicode="B" horiz-adv-x="1474" d="M35 51q0 68 69 68q16 0 49 -4t46 -4q82 0 104 88q6 31 6 155v674q0 176 -24.5 205t-184.5 29q-66 0 -65 69q0 74 88 74q49 0 147.5 -11.5t147.5 -11.5q70 0 210 11.5t210 11.5q467 0 467 -344q0 -111 -68 -188.5t-176 -108.5v-4q315 -84 315 -365q0 -211 -180 -323 q-150 -94 -373 -95q-70 0 -210 11.5t-210 11.5q-49 0 -147 -11.5t-147 -11.5q-74 0 -74 74zM485 289q0 -137 90 -170q39 -14 216 -15q397 1 397 304q0 270 -408 270h-125q-121 0 -145.5 -25.5t-24.5 -146.5v-217zM485 969q0 -123 39 -146q23 -12 164 -12q188 0 283 35 q151 55 151 211q0 217 -319 217q-293 0 -314 -78q-4 -18 -4 -86v-141z" />
<glyph unicode="C" d="M76 672q0 315 153 526q172 236 476 236q252 0 380 -172l5 4q-8 90 -9 94q0 70 66 70q72 0 72 -89v-464q0 -80 -78 -80q-61 0 -80 127q-27 178 -64 239q-78 127 -284 127q-233 0 -351 -190q-98 -158 -98 -406t101 -409q119 -193 352 -193q203 0 293 119q47 61 82 223 q27 119 79 119q86 0 86 -94q0 -231 -160.5 -370.5t-394.5 -139.5q-299 0 -471 217q-156 199 -155 506z" />
<glyph unicode="D" horiz-adv-x="1515" d="M35 51q0 68 69 68q16 0 49 -4t46 -4q82 0 104 88q6 31 6 155q0 61 10.5 249t10.5 288q0 201 -31 305q-20 74 -92 74q-16 0 -52 -4t-55 -4q-65 0 -65 67q0 35 26.5 55.5t61.5 20.5q45 0 133 -11.5t133 -11.5q63 0 189.5 11.5t189.5 11.5q322 0 504 -195q176 -190 176 -516 q0 -332 -168 -520q-176 -197 -504 -197q-63 0 -189 11.5t-190 11.5q-45 0 -133 -11.5t-133 -11.5q-96 0 -96 74zM485 279q0 -129 72 -156q25 -8 199 -8q504 0 504 565q0 573 -531 573q-166 0 -186 -8q-57 -25 -58 -149v-817z" />
<glyph unicode="E" horiz-adv-x="1392" d="M35 51q0 68 69 68q16 0 49 -4t46 -4q86 0 104 96q6 27 6 166v698q0 150 -37 176q-20 14 -172 15q-66 0 -65 69q0 74 88 74q59 0 176 -11.5t176 -11.5q115 0 346.5 11.5t345.5 11.5q109 0 109 -98v-428q0 -33 -22.5 -55.5t-55.5 -22.5q-78 0 -78 155q0 10 2 33v35 q0 141 -45 188q-33 35 -157 41q-18 2 -168 2q-170 0 -199 -10q-68 -29 -68 -164v-188q0 -61 29 -76q16 -6 88 -6q121 0 156 16.5t35 67.5q0 12 -3.5 58t-3.5 81q0 86 74 86q78 0 78 -94q0 -51 -10 -151.5t-10 -151.5q0 -49 10 -146.5t10 -146.5q0 -72 -76 -72t-76 93 q0 25 6.5 70.5t6.5 60.5q0 70 -74 86q-20 4 -131 4q-78 0 -96 -29q-12 -20 -13 -108v-152q0 -178 13 -205q27 -59 166 -59h241q150 0 203 39q45 35 45 118q0 25 -5 92.5t-5 112.5q0 96 78 97q80 0 79 -95v-411q0 -94 -133 -95q-115 0 -346 11.5t-346 11.5q-59 0 -176 -11.5 t-176 -11.5q-88 0 -88 74z" />
<glyph unicode="F" horiz-adv-x="1310" d="M35 49q0 72 88 72q18 0 53 -3t47 -3q68 0 84 116q2 23 2 166v611q0 186 -16 211q-27 43 -193 43q-65 0 -65 67q0 35 27.5 55.5t60.5 20.5q59 0 176 -11.5t176 -11.5q115 0 346.5 11.5t345.5 11.5q98 0 99 -98v-428q0 -33 -22.5 -55.5t-55.5 -22.5q-78 0 -78 123 q0 20 3 69t3 72q0 139 -74.5 164.5t-402.5 25.5q-109 0 -131.5 -29.5t-22.5 -142.5v-186q0 -72 17.5 -94.5t62.5 -22.5q12 0 49 2t62 2q123 0 123 107q0 18 -3 59t-3 64q0 31 20.5 54.5t50.5 23.5q74 0 74 -95v-583q0 -33 -22.5 -56.5t-55.5 -23.5q-69 0 -69 101q0 26 4 67 t4 51q0 98 -129 98h-45q-31 -2 -45 -2q-49 0 -72 -13t-23 -77v-272q0 -104 25 -140q19 -26 76 -26h4h47q37 2 59 2q90 0 90 -74q0 -72 -106 -72q-41 0 -123 11.5t-123 11.5q-51 0 -151.5 -11.5t-151.5 -11.5q-96 0 -96 72z" />
<glyph unicode="G" horiz-adv-x="1474" d="M76 670q0 317 149 526q170 238 475 238q231 0 379 -160l4 4l-8 80q0 67 72 67h2q70 0 70 -82v-440q0 -88 -82 -88q-63 0 -80 123q-25 170 -62 229q-80 123 -297 123q-219 0 -336 -192q-98 -162 -98 -396q0 -246 98 -409q119 -201 347 -201q168 0 258 101q84 96 84 266 q0 125 -99 125q-16 0 -54 -3t-60 -3q-66 0 -66 71q0 33 26.5 53.5t61.5 20.5q43 0 127 -11.5t127 -11.5t127 11.5t127 11.5q88 0 88 -74q0 -67 -57 -67h-2q-14 0 -40 3t-36 3q-98 0 -98 -248q0 -68 8 -176.5t8 -126.5q0 -78 -78 -78q-74 0 -74 90q0 18 4.5 54t4.5 49h-4 q-111 -203 -410 -203q-289 0 -455 223q-152 201 -151 498z" />
<glyph unicode="H" horiz-adv-x="1638" d="M35 51q0 68 69 68q16 0 49 -4t46 -4q80 0 102 84q8 33 8 149v694q0 170 -25.5 197t-183.5 27q-66 0 -65 69q0 74 88 74q45 0 137 -11.5t137 -11.5q47 0 138.5 11.5t136.5 11.5q88 0 88 -74q0 -67 -68 -67h-2q-16 0 -49 4t-45 4q-86 0 -104 -94q-6 -29 -7 -164v-207h662 v274q0 143 -41 168q-18 12 -168 13q-66 0 -66 69q0 74 89 74q45 0 137 -11.5t137 -11.5q47 0 138 11.5t136 11.5q88 0 88 -74q0 -67 -67 -67h-2q-16 0 -49 4t-45 4q-82 0 -103 -86q-8 -31 -8 -152v-735q0 -143 41 -168q18 -10 168 -10q65 0 65 -70q0 -74 -88 -74 q-45 0 -137 11.5t-137 11.5t-136 -11.5t-138 -11.5q-88 0 -89 74q0 68 70 68q16 0 49 -4t45 -4q82 0 105 88q6 31 6 155v308h-662v-334q0 -160 31 -187q23 -20 178 -20q66 0 66 -70q0 -74 -88 -74q-45 0 -137.5 11.5t-137.5 11.5t-137 -11.5t-137 -11.5q-88 0 -88 74z" />
<glyph unicode="I" horiz-adv-x="778" d="M35 51q0 68 69 68q16 0 49 -4t46 -4q82 0 102 84q8 33 8 149v694q0 170 -25.5 197t-183.5 27q-66 0 -65 69q0 74 88 74q45 0 137 -11.5t137 -11.5q47 0 138.5 11.5t136.5 11.5q88 0 88 -74q0 -67 -68 -67h-2q-16 0 -49 4t-45 4q-82 0 -102 -86q-8 -33 -9 -154v-731 q0 -143 41 -168q18 -12 168 -12q66 0 66 -70q0 -74 -88 -74q-45 0 -137.5 11.5t-137.5 11.5t-137 -11.5t-137 -11.5q-88 0 -88 74z" />
<glyph unicode="J" horiz-adv-x="1269" d="M-41 365q0 131 86 223t215 92q84 0 142.5 -46t58.5 -128q0 -47 -34 -86t-79 -39q-39 0 -70.5 24.5t-31.5 63.5l28 55q-35 10 -34 11q-49 0 -82 -58q-31 -49 -31 -100q0 -127 98 -209q92 -76 221 -76q217 0 304 144q69 111 69 336v6v489q0 154 -35 178q-23 16 -174 17 q-65 0 -65 67q0 35 23.5 55.5t56.5 20.5q45 0 137 -11.5t137 -11.5t137 11.5t138 11.5q96 0 96 -74q0 -67 -68 -67h-2q-16 0 -49 4t-45 4q-121 0 -121 -344q0 -78 6 -192.5t6 -133.5q0 -309 -106 -465q-129 -188 -430 -188q-205 0 -346 102q-156 115 -156 314z" />
<glyph unicode="K" horiz-adv-x="1638" d="M35 51q0 68 69 68q16 0 49 -4t46 -4q80 0 102 82q8 35 8 149v698q0 168 -25.5 195t-183.5 27q-66 0 -65 69q0 74 88 74q45 0 137 -11.5t137 -11.5t137.5 11.5t137.5 11.5q88 0 88 -74q0 -67 -68 -67h-2q-16 0 -49 4t-45 4q-80 0 -102 -82q-8 -35 -9 -150v-333 q166 135 330 272q268 223 289 268l-39 25q-25 0 -74 -5t-73 -5q-66 0 -66 69q0 74 119 74q49 0 149.5 -11.5t149.5 -11.5q45 0 137 11.5t137 11.5q88 0 88 -74q0 -69 -82 -69h-2q-20 0 -60 5t-54 5q-70 0 -312 -209q-213 -188 -231 -219q43 -119 182 -293q109 -135 219 -270 q92 -123 105 -136q28 -28 66 -28h3q8 0 49 2t76 2q66 0 66 -70q0 -74 -88 -74q-45 0 -137.5 11.5t-137.5 11.5t-137 -11.5t-137 -11.5q-152 0 -152 74q0 72 107 72q27 0 78 -6t65 -6l51 24q-29 59 -215 311t-219 277q-55 -33 -129 -100q-59 -55 -121 -111v-223 q0 -109 22.5 -139.5t84.5 -30.5h47q33 2 55 2q66 0 66 -70q0 -74 -88 -74q-45 0 -137.5 11.5t-137.5 11.5t-137 -11.5t-137 -11.5q-88 0 -88 74z" />
<glyph unicode="L" horiz-adv-x="1310" d="M35 47q0 72 65 72q16 0 52 -6.5t49 -6.5q86 0 106 136q4 29 4 198v629q0 152 -37 176q-20 16 -172 17q-66 0 -65 69q0 74 80 74q45 0 137 -11.5t137 -11.5t137.5 11.5t137.5 11.5q96 0 96 -74q0 -67 -68 -67h-2q-16 0 -49 4t-45 4q-80 0 -102 -82q-8 -35 -9 -150v-772 q0 -92 21 -121q28 -34 118 -34h5h243q158 0 213 43q45 35 46 129q0 23 -4.5 89t-4.5 109q0 90 74 90q88 0 88 -81v-398q0 -117 -115 -117t-343 11.5t-341 11.5q-61 0 -181 -11.5t-179 -11.5q-92 0 -92 70z" />
<glyph unicode="M" horiz-adv-x="1966" d="M35 51q0 68 69 68q16 0 49 -4t46 -4q80 0 102 82q8 35 8 149v698q0 168 -25.5 195t-183.5 27q-66 0 -65 69q0 74 104 74h422q59 0 92 -66q14 -27 39 -116l287 -1043h4l309 1102q35 123 105 123h422q96 0 96 -74q0 -67 -68 -67h-2q-16 0 -49 4t-45 4q-80 0 -102 -82 q-8 -35 -9 -150v-698q0 -168 26 -194.5t183 -26.5q66 0 66 -70q0 -74 -96 -74h-549q-33 0 -56.5 20.5t-23.5 53.5q0 68 70 68q16 0 48.5 -4t45.5 -4q82 0 102 88q8 33 8 155v908q-68 -92 -145 -441q-104 -471 -135 -569q-88 -281 -203 -281q-137 0 -221 279q-18 61 -119 567 q-70 346 -156 445v-953q0 -150 37 -174q20 -14 172 -14q66 0 66 -70q0 -74 -88 -74h-549q-88 0 -88 74z" />
<glyph unicode="N" horiz-adv-x="1556" d="M35 51q0 68 69 68q16 0 49 -4t46 -4q80 0 102 84q8 33 8 147v698q0 168 -25.5 195t-183.5 27q-66 0 -65 69q0 74 106 74q31 0 92.5 -11.5t92.5 -11.5q33 0 96 11.5t96 11.5q45 0 76 -43q12 -16 41 -82l502 -1145h4v938q0 150 -37 174q-20 14 -172 15q-66 0 -66 69 q0 74 107 74q45 0 137 -11.5t137 -11.5q47 0 138.5 11.5t136.5 11.5q69 0 69 -74q0 -67 -67 -67h-2q-16 0 -49 4t-46 4q-114 0 -114 -198q0 -30 2 -73t2 -57v-729q0 -266 -156 -266q-70 0 -119 57q-29 35 -65 121l-488 1114h-4v-952q0 -109 22.5 -139.5t86.5 -30.5h45 q33 2 55 2q66 0 66 -70q0 -74 -107 -74q-43 0 -130 11.5t-132 11.5q-43 0 -126 -11.5t-124 -11.5q-106 0 -106 74z" />
<glyph unicode="O" horiz-adv-x="1392" d="M76 690q0 319 145 518q162 225 471 226q293 0 457 -213q147 -193 147 -496q0 -324 -143 -535q-165 -241 -472 -241h-3q-299 0 -461 229q-141 201 -141 512zM264 682q0 -231 90 -391q111 -199 324 -199q227 0 340 209q90 166 90 414q0 233 -90 387q-109 188 -326 188 q-233 0 -342 -198q-86 -156 -86 -410z" />
<glyph unicode="P" d="M35 51q0 68 69 68q16 0 49 -4t46 -4q80 0 102 82q8 33 8 147v702q0 168 -25.5 194t-183.5 26q-66 0 -65 69q0 74 98 74q45 0 133 -11.5t133 -11.5q63 0 189.5 11.5t189.5 11.5q529 0 529 -399q0 -287 -269 -369q-129 -39 -499 -39q-53 0 -54 -45v-223q0 -162 31 -189 q23 -20 178 -20q66 0 66 -70q0 -74 -90 -74q-45 0 -137.5 11.5t-137.5 11.5t-137 -11.5t-137 -11.5q-86 0 -86 74zM485 784q0 -45 50 -45h196q182 0 268 45q119 62 119 228q0 176 -137 227q-74 29 -287 29q-135 0 -166 -21q-43 -29 -43 -147v-316z" />
<glyph unicode="Q" d="M76 676q0 319 133 520q158 238 461 238q293 0 450 -228q137 -197 137 -504q0 -489 -321 -682v-145q0 -82 16 -119q27 -55 99 -55q76 0 94 59q8 55 18.5 112.5t65.5 57.5q84 0 84 -104q0 -117 -78 -187.5t-197 -70.5q-176 0 -227 123q-29 68 -29 272q-66 -14 -123 -14 q-289 0 -446 227q-137 197 -137 500zM264 680q0 -430 178 -541l4 4q-53 78 -53 183q0 104 88 174q82 63 189 63q162 0 217 -125q35 -78 35 -262q147 173 147 529q0 236 -76 387q-99 198 -311 198h-2q-227 0 -334 -203q-82 -158 -82 -407zM500 279q0 -80 45 -133.5t123 -53.5 q53 0 114 23v137q0 188 -129 188q-70 0 -111.5 -46t-41.5 -115z" />
<glyph unicode="R" horiz-adv-x="1515" d="M35 51q0 68 69 68q16 0 49 -4t46 -4q80 0 102 79q8 37 8 148v706q0 166 -26.5 192t-182.5 26q-66 0 -65 69q0 74 88 74q55 0 163.5 -11.5t164.5 -11.5q63 0 189 11.5t189 11.5q463 0 463 -352q0 -285 -319 -338v-4q150 -16 205 -111q41 -68 41 -197v-59q-2 -41 -2 -59 q0 -82 20 -119q25 -41 88 -41h12l95 6q35 2 58 -18.5t23 -55.5q0 -33 -22.5 -56.5t-54.5 -23.5q-233 0 -328 72q-70 53 -70 168q0 33 7.5 99.5t7.5 97.5q0 111 -68 161q-86 68 -303 68q-145 0 -171 -28.5t-26 -174.5q0 -37 -2 -93t-2 -75q0 -86 40 -118.5t173 -32.5 q66 0 66 -70q0 -74 -88 -74q-45 0 -137.5 11.5t-137.5 11.5t-137 -11.5t-137 -11.5q-88 0 -88 74zM485 838q0 -39 15 -47q8 -6 49 -7h186q176 0 254 39q115 57 115 215q0 248 -324 248q-295 0 -295 -115v-333z" />
<glyph unicode="S" horiz-adv-x="1228" d="M76 92v426q0 94 82 94t82 -102q0 -14 -2 -42t-2 -38q0 -156 110 -250q102 -88 262 -88q147 0 242 64q109 74 108 215q0 174 -219 237q-205 47 -409 97q-219 84 -219 311q0 201 149 313q135 104 340 105q217 0 334 -131q0 112 62 112h1q74 0 74 -92v-387q0 -102 -80 -102 t-80 96q0 16 2 47t2 43q0 133 -98 207q-88 63 -227 63q-125 0 -209 -61q-94 -70 -94 -189q0 -162 219 -217q205 -47 409 -94q220 -90 220 -336q0 -207 -154 -330q-142 -114 -350 -114h-4q-258 0 -396 151l-4 -4q6 -72 6 -71q0 -76 -75 -76q-82 0 -82 143z" />
<glyph unicode="T" horiz-adv-x="1310" d="M35 901v406q0 98 86 98q88 0 263 -11.5t263 -11.5t263 11.5t264 11.5q86 0 86 -98v-406q0 -100 -78 -100q-84 0 -84 133q0 37 8 106.5t8 87.5q0 90 -53 121q-41 25 -133 25q-104 0 -144 -31q-49 -35 -49 -135v-702q0 -33 -2 -82v-66q0 -86 36 -111.5t175 -25.5 q66 0 66 -70q0 -74 -86 -74q-47 0 -138.5 11.5t-138.5 11.5t-138 -11.5t-138 -11.5q-86 0 -86 74q0 68 69 68q16 0 49 -4t46 -4q112 0 112 183q0 21 -2 52v45v717q0 100 -49 135q-39 31 -143 31q-111 0 -154 -45q-37 -35 -37 -113q0 -31 8.5 -103.5t8.5 -111.5 q0 -55 -14.5 -77.5t-65.5 -22.5q-78 0 -78 100z" />
<glyph unicode="U" horiz-adv-x="1474" d="M-35 1331q0 31 22.5 52.5t55.5 21.5q45 0 137 -11.5t137 -11.5q47 0 138.5 11.5t136.5 11.5q98 0 98 -74q0 -67 -67 -67h-2q-16 0 -49 4t-46 4q-88 0 -106 -105q-4 -23 -4 -176v-547q0 -182 69 -264q74 -88 256 -88q186 0 263 94q69 83 69 268v5v506q0 35 2 88t2 69 q0 86 -38 113t-175 27q-65 0 -65 67q0 33 22.5 54.5t55.5 21.5q45 0 137 -11.5t137 -11.5q47 0 138 11.5t136 11.5q99 0 99 -74q0 -67 -68 -67h-2q-16 0 -49 4t-45 4q-117 0 -117 -230q0 -59 10.5 -217.5t10.5 -246.5q0 -287 -95 -435q-122 -194 -423 -194h-3 q-346 0 -456 219q-60 121 -60 368q0 60 4 128q10 196 10 326q0 143 -12 206q-14 74 -92 74q-18 0 -54 -4t-52 -4q-66 0 -66 69z" />
<glyph unicode="V" horiz-adv-x="1515" d="M-27 1331q0 74 113 74q45 0 137 -11.5t137 -11.5t137.5 11.5t137.5 11.5q88 0 88 -74q0 -69 -78 -69h-2q-18 0 -53 4t-47 4q-78 0 -78 -64q0 -121 139 -516q94 -262 191 -524h4q88 248 178 496q133 387 133 526q0 80 -94 80q-18 0 -54 -3t-51 -3q-66 0 -65 69q0 74 88 74 q39 0 117.5 -11.5t117.5 -11.5t118 11.5t118 11.5q88 0 88 -74q0 -39 -53 -69l-66 8q-51 0 -221 -500q-111 -340 -221 -682q-43 -125 -144 -125q-63 0 -96 33q-23 25 -47 92l-360 1016q-39 109 -60.5 134.5t-79.5 25.5h-45q-35 -2 -61 -2q-66 0 -66 69z" />
<glyph unicode="W" horiz-adv-x="1966" d="M-25 1331q0 74 121 74h549q88 0 88 -74q0 -71 -97 -71h-3q-25 0 -69 5t-58 5q-74 0 -74 -68q0 -195 74 -504q61 -248 121 -495h4l211 1050q16 84 41 119q35 49 106 49q117 0 146 -151l202 -1084h4q61 248 123 496q76 309 76 506q0 86 -92 86q-23 0 -69 -6t-62 -6 q-66 0 -66 69q0 74 84 74h549q88 0 88 -74q0 -67 -67 -67h-2q-16 0 -47 4t-44 4q-88 0 -153 -340q-59 -313 -117 -629q-82 -340 -205 -340q-113 0 -145 168l-205 1071h-4l-229 -1128q-23 -111 -115 -111q-68 0 -100 39q-23 29 -41 102l-234 977q-35 150 -59 166 q-16 14 -164 15q-66 0 -66 69z" />
<glyph unicode="X" horiz-adv-x="1638" d="M-14 47q0 72 94 72q16 0 45 -2t39 -2q88 0 311 274q125 168 252 336l-375 438q-59 68 -81.5 87.5t-51.5 19.5q-8 0 -48 -4t-77 -4q-66 0 -65 69q0 74 110 74q45 0 137.5 -11.5t137.5 -11.5t137 11.5t137 11.5q88 0 88 -74q0 -69 -84 -69h-2q-27 0 -75 7t-62 7l-29 -14 q51 -88 148 -211q82 -100 162 -201q82 102 165 205q125 158 142 202q-18 16 -60 17q-23 0 -66.5 -6t-58.5 -6q-66 0 -65 69q0 74 78 74q45 0 137 -11.5t137 -11.5t137.5 11.5t137.5 11.5q88 0 88 -74q0 -67 -72 -67h-2q-16 0 -51 4t-47 4q-66 0 -281 -264 q-109 -141 -217 -283l475 -567q35 -41 78 -41q8 0 32.5 2t41.5 2q88 0 88 -74q0 -70 -66 -70q-45 0 -137 11.5t-137 11.5t-136.5 -11.5t-138.5 -11.5q-127 0 -127 76q0 68 105 68q25 0 66.5 -4t54.5 -4l47 22q-43 106 -162 246q-98 111 -195 223q-94 -115 -186 -227 q-139 -174 -160 -242q10 -16 51 -20q10 -1 22 -1q25 0 60 3q61 4 64 4q88 0 88 -74q0 -70 -66 -70q-45 0 -136 11.5t-138 11.5q-55 0 -162.5 -11.5t-163.5 -11.5q-113 0 -112 70z" />
<glyph unicode="Y" horiz-adv-x="1556" d="M-20 1331q0 74 86 74q45 0 137 -11.5t137 -11.5t137 11.5t137 11.5q88 0 88 -74q0 -69 -77 -69h-2q-23 0 -65 6t-56 6q-33 0 -43 -21q47 -119 157 -295q90 -143 181 -286q92 143 186 284q115 180 154 299q-18 18 -68 19q-27 0 -75 -6t-62 -6q-66 0 -66 69q0 35 29 54.5 t63 19.5q45 0 137.5 -11.5t137.5 -11.5q47 0 138 11.5t136 11.5q88 0 88 -74q0 -67 -67 -67h-2q-18 0 -57 6t-54 6q-90 0 -299 -338q-119 -209 -239 -418v-90q0 -39 -2.5 -95t-2.5 -75q0 -84 39 -111.5t174 -27.5q88 0 89 -74q0 -70 -66 -70q-53 0 -159.5 11.5t-160.5 11.5 q-47 0 -142 -11.5t-142 -11.5q-100 0 -101 70q0 72 89 72q20 0 56 -4t48 -4q106 0 106 198v56q-2 33 -2 45v98l-424 672q-55 90 -116 90q-12 0 -49 -4t-66 -4q-66 0 -65 69z" />
<glyph unicode="Z" horiz-adv-x="1269" d="M55 106q0 63 66 142l866 1024h-485q-156 0 -207 -51q-41 -41 -41 -154v-72q2 -51 2 -82q0 -84 -82 -84q-76 0 -76 95v379q0 102 119 102h827q82 0 113 -14q47 -21 47 -91q0 -82 -436 -583q-266 -295 -530 -592h518q182 0 239 33q51 29 52 118q0 20 -4.5 89t-4.5 116 q0 84 82 84q76 0 76 -94v-379q0 -102 -119 -102h-854q-168 0 -168 116z" />
<glyph unicode="[" horiz-adv-x="696" d="M217 -180v1491q0 94 55 94q18 0 53 -11.5t54 -11.5q27 0 80 11.5t80 11.5q68 0 67 -74q0 -70 -65 -69q-14 0 -45 10t-45 10q-43 0 -54 -49q-4 -18 -4 -84v-1167q0 -66 4 -84q10 -49 54 -50q16 0 44.5 10.5t45.5 10.5q65 0 65 -70q0 -74 -76 -73q-27 0 -75.5 11t-75.5 11 q-18 0 -53 -11t-54 -11q-55 0 -55 94z" />
<glyph unicode="\" horiz-adv-x="1146" d="M160 1405h135l588 -1415h-133z" />
<glyph unicode="]" horiz-adv-x="696" d="M76 -201q0 70 65 70q16 0 45 -10.5t45 -10.5q43 0 54 50q4 18 4 84v1167q0 66 -4 84q-10 49 -54 49q-14 0 -44.5 -10t-45.5 -10q-66 0 -65 69q0 74 67 74q27 0 80 -11.5t80 -11.5q18 0 53 11.5t54 11.5q55 0 55 -94v-1491q0 -94 -55 -94q-18 0 -53 11t-54 11 q-27 0 -76 -11t-75 -11q-76 0 -76 73z" />
<glyph unicode="^" horiz-adv-x="1269" d="M106 604l435 830h159l435 -830h-168l-346 635l-347 -635h-168z" />
<glyph unicode="_" horiz-adv-x="1024" d="M0 -154h1024v-102h-1024v102z" />
<glyph unicode="`" horiz-adv-x="696" d="M100 1366q0 39 27 68.5t66 29.5q37 0 86 -43q68 -55 135 -110q121 -100 121 -129q0 -23 -29 -23t-164 51q-82 33 -162 64t-80 92z" />
<glyph unicode="a" horiz-adv-x="1228" d="M70 252q0 211 180 283q14 6 338 63q180 31 180 150q0 184 -231 184q-51 0 -119 -27q-84 -31 -86 -71q49 -12 49 -84q0 -43 -33 -70t-78 -27q-53 0 -90 39t-37 92q0 135 138 217q117 70 260 70q233 0 327 -131q72 -102 72 -313q0 -63 -8 -197.5t-8 -198.5q0 -147 80 -147 q75 0 75 139q0 20 -2 47v35q0 92 66 92q71 0 71 -84q0 -186 -22 -245q-45 -111 -201 -111q-180 0 -209 147q-97 -155 -328 -155h-3q-156 0 -261 71q-121 82 -120 232zM240 260q0 -86 65 -131q57 -41 148 -41q209 0 270 131q31 65 43 307q-57 -55 -203 -77q-186 -27 -219 -39 q-104 -41 -104 -150z" />
<glyph unicode="b" horiz-adv-x="1187" d="M-41 1343q0 31 23.5 53.5t56.5 22.5q23 0 65.5 -11t65.5 -11t66 11t65 11q51 0 51 -209q0 -68 -6 -173t-6 -117h4q118 151 305 151h2q227 0 353 -158q114 -143 114 -376q0 -246 -117 -406q-133 -182 -368 -182q-229 0 -314 162l-4 -5q10 -63 11 -63q0 -72 -74 -72 q-47 0 -62 31q-8 18 -8 74v1079q0 78 -11 102.5t-44 24.5q-8 0 -41 -3t-57 -3q-70 0 -70 67zM340 545q0 -203 45 -305q68 -152 244 -152q164 0 250 137q69 115 69 291t-65 283q-80 133 -244 133q-154 0 -231 -123q-68 -104 -68 -264z" />
<glyph unicode="c" horiz-adv-x="1024" d="M78 489q0 252 123 410q137 172 381 172q147 0 260 -84q125 -92 125 -235q0 -78 -37 -129q-43 -57 -117 -58q-49 0 -85 33t-36 80q0 41 32 66.5t75 27.5q-2 74 -80 121q-66 39 -146 39q-160 0 -249 -135q-76 -119 -76 -287q0 -174 69 -287q82 -135 246 -135q131 0 197 84 q25 33 71 158q31 84 82 84q33 0 56.5 -23.5t23.5 -56.5q0 -164 -141 -279q-133 -106 -299 -106q-221 0 -354 162q-121 152 -121 378z" />
<glyph unicode="d" horiz-adv-x="1228" d="M78 516q0 233 112 385q127 170 353 170q219 0 317 -153h4v198q0 111 -8 137.5t-43 26.5q-8 0 -42 -2t-60 -2q-70 0 -70 67q0 31 23.5 53.5t54.5 22.5q25 0 73 -11t72 -11q20 0 61.5 11t61.5 11q14 0 27 -39q8 -31 8 -49v-1050q0 -111 8 -137.5t45 -26.5q8 0 42 2t59 2 q69 0 69 -68q0 -76 -67 -76q-20 0 -60.5 11.5t-60.5 11.5q-18 0 -55 -11.5t-56 -11.5q-49 0 -63 37q-8 20 -9 82h-4q-90 -147 -315 -147q-231 0 -360 172q-117 158 -117 395zM248 506q0 -168 74 -283q86 -135 243 -135q176 0 248 135q51 100 51 295q0 414 -311 414 q-162 0 -242 -139q-63 -113 -63 -287z" />
<glyph unicode="e" horiz-adv-x="1105" d="M78 492q0 242 125 403q137 176 372 176q205 0 335 -133t130 -340q0 -78 -14 -94.5t-84 -16.5h-694v-26v-7q0 -151 84 -253q92 -113 246 -113q137 0 208 76q35 37 78 141q33 76 74 76q35 0 58.5 -22.5t23.5 -55.5q0 -158 -154 -262q-139 -92 -301 -92q-231 0 -364 157 q-123 150 -123 386zM266 635h604q-8 133 -83.5 215t-204.5 82t-217.5 -83t-98.5 -214z" />
<glyph unicode="f" horiz-adv-x="860" d="M37 53q0 66 67 66q16 0 50 -5t47 -5q59 0 59 116v580q0 67 -72 67h-2h-34q-23 -2 -35 -2q-78 0 -78 76q0 74 84 74q14 0 38.5 -2t37.5 -2q61 0 61 47q0 371 350 371q109 0 189 -43q98 -54 98 -152q0 -106 -106 -106q-37 0 -66 26.5t-29 63.5l21 53q-31 33 -107 33 q-192 0 -192 -236q0 -59 74 -59q14 0 50 3t54 3q84 0 84 -74q0 -78 -107 -78q-14 0 -47 2h-43q-66 0 -65 -36v-611q0 -110 54 -110h1q10 0 43 4t55 4q70 0 70 -68q0 -33 -26.5 -54.5t-61.5 -21.5t-104.5 11.5t-106.5 11.5t-108.5 -11.5t-108.5 -11.5q-33 0 -60.5 23 t-27.5 53z" />
<glyph unicode="g" horiz-adv-x="1146" d="M78 -84q0 86 54 150.5t138 91.5v4q-172 57 -172 194q0 76 52 131q45 53 120 76q-57 66 -57 178q0 150 125 246q115 86 268 86q63 0 121 -16v10q0 87 70 145q70 55 166 56q90 0 160.5 -49.5t70.5 -137.5q0 -47 -33 -82.5t-78 -35.5q-33 0 -57.5 23.5t-24.5 55.5 q0 37 46 68q-29 41 -86 41q-49 0 -81 -34t-32 -83v-22q160 -94 160 -289q0 -156 -119 -254q-111 -92 -271 -92q-55 0 -153 34.5t-137 34.5q-33 0 -54.5 -27.5t-21.5 -60.5q0 -88 225 -102q342 -25 422 -47q225 -68 225 -283q0 -176 -186 -262q-141 -65 -336 -65h-6 q-201 0 -336 61q-182 82 -182 256zM248 -82q0 -106 131 -154q87 -32 211 -32h8q129 0 223 35q133 49 133 155q0 186 -348 187q-358 0 -358 -191zM379 725q0 -96 65.5 -153.5t163.5 -57.5q100 0 171 57.5t71 155.5q0 94 -71.5 152.5t-168.5 58.5q-96 0 -163.5 -59.5 t-67.5 -153.5z" />
<glyph unicode="h" d="M41 53q0 66 68 66q16 0 50 -5t46 -5q45 0 55 69q4 18 4 103v835q0 109 -8 137.5t-43 28.5q-8 0 -42 -3t-60 -3q-70 0 -70 67q0 31 23.5 53.5t54.5 22.5q23 0 67.5 -11t67.5 -11q20 0 56 11t55 11q69 0 69 -219v-6q0 -68 -6 -161t-6 -95q133 133 313 133q242 0 336 -158 q68 -113 68 -354q0 -47 -3 -141t-3 -137q0 -82 4 -103q10 -69 54 -69h1q16 0 47 6t47 6q70 0 70 -68q0 -76 -88 -76q-35 0 -105.5 11.5t-105.5 11.5q-37 0 -108.5 -11.5t-108.5 -11.5q-35 0 -61.5 21.5t-26.5 54.5q0 66 67 66q16 0 50 -5t46 -5q45 0 56 69q4 18 4 103v311 q0 158 -45 237q-59 102 -207 103q-168 0 -240 -98q-61 -86 -61 -256v-297q0 -111 8 -137.5t45 -26.5q8 0 42 2t58 2q70 0 70 -68q0 -76 -88 -76q-35 0 -105.5 11.5t-105.5 11.5q-37 0 -108.5 -11.5t-108.5 -11.5q-35 0 -61.5 21.5t-26.5 54.5z" />
<glyph unicode="i" horiz-adv-x="655" d="M47 53q0 68 70 68q16 0 47 -6t47 -6q59 0 59 172v458q0 84 -2 103q-12 69 -56 69h-1q-16 0 -47 -6t-47 -6q-70 0 -70 68q0 75 70 75h2q23 0 67.5 -11t67.5 -11q20 0 58 11t59 11q69 0 69 -209v-6q0 -78 -12 -259t-12 -257q0 -202 64 -202h1q14 0 41 6t41 6q70 0 70 -68 q0 -33 -26.5 -54.5t-61.5 -21.5t-105.5 11.5t-105.5 11.5q-37 0 -108.5 -11.5t-108.5 -11.5q-29 0 -49.5 24t-20.5 52zM197 1266q0 49 33.5 82.5t82.5 33.5t84 -33.5t35 -82.5t-35 -84t-84 -35t-82.5 35t-33.5 84z" />
<glyph unicode="j" horiz-adv-x="573" d="M-266 -201q0 45 29.5 80t74.5 35q39 0 69 -23.5t30 -60.5q0 -49 -33 -76q51 -43 116 -43q133 0 183 99q35 70 35 217v712q0 109 -9.5 136.5t-46.5 27.5q-8 0 -40.5 -2t-57.5 -2q-70 0 -70 68q0 33 27 54t61 21q23 0 66 -11t65 -11q23 0 64 11t61 11h1q51 0 51 -69 q0 -156 -7.5 -466t-7.5 -466q0 -455 -368 -455q-113 0 -195 49q-98 59 -98 164zM174 1266q0 49 35 83.5t84 34.5t83 -34.5t34 -83.5t-34 -83t-83 -34t-84 34t-35 83z" />
<glyph unicode="k" horiz-adv-x="1310" d="M41 53q0 66 68 66q16 0 50 -5t46 -5q45 0 55 69q4 18 4 103v835q0 109 -8 137.5t-43 28.5q-8 0 -42 -3t-60 -3q-70 0 -70 67q0 31 23.5 53.5t54.5 22.5q23 0 67.5 -11t67.5 -11q20 0 56 11t55 11q41 0 51 -37q6 -16 6 -69v-789q104 92 207 185q160 145 178 190 q-23 14 -47 14q-12 0 -41 -7t-49 -7q-68 0 -68 68q0 75 108 75h3q39 0 117.5 -11t119.5 -11q35 0 103.5 11t103.5 11q74 0 74 -75q0 -66 -55 -66q-14 0 -43 5t-41 5q-63 0 -199 -125q-80 -78 -160 -157l283 -365q120 -155 161 -155h1q14 0 40.5 6t38.5 6q62 0 62 -68 q0 -33 -26.5 -54.5t-61.5 -21.5t-104.5 11.5t-106.5 11.5q-35 0 -102.5 -11.5t-102.5 -11.5q-33 0 -57.5 21.5t-24.5 54.5q0 66 78 66q29 0 78 -10l16 14q-41 88 -135 207q-78 98 -156 194l-192 -172q0 -29 -2 -71v-56q0 -66 25.5 -85t117.5 -19q68 0 68 -64 q0 -33 -23.5 -56.5t-58.5 -23.5t-101.5 11.5t-101.5 11.5q-37 0 -108.5 -11.5t-108.5 -11.5q-35 0 -61.5 21.5t-26.5 54.5z" />
<glyph unicode="l" horiz-adv-x="655" d="M41 1343q0 35 28.5 55.5t65.5 20.5q25 0 70 -11t67 -11q20 0 56.5 11t54.5 11q41 0 51 -37q6 -16 6 -69v-1032q0 -109 9.5 -136.5t46.5 -27.5q8 0 40.5 2t57.5 2q70 0 70 -68q0 -33 -27 -54.5t-62 -21.5t-104.5 11.5t-105.5 11.5q-37 0 -109 -11.5t-109 -11.5 q-35 0 -61.5 21.5t-26.5 54.5q0 66 68 66q16 0 50 -5t46 -5q59 0 60 172v835q0 88 -2 101q-8 67 -51 67h-1q-10 0 -49 -4t-69 -4q-70 0 -70 67z" />
<glyph unicode="m" horiz-adv-x="1966" d="M41 53q0 66 68 66q16 0 50 -5t46 -5q45 0 57 69q2 18 2 105v454q0 115 -7 140.5t-46 25.5q-8 0 -41 -2t-59 -2q-70 0 -70 68q0 29 23.5 52t52.5 23q18 0 54 -11t56 -11q23 0 65 11t64 11q35 0 43 -49q2 -12 2 -73h5q112 151 301 151h2q213 0 301 -151q108 151 322 151h3 q238 0 328 -147q70 -111 70 -342q0 -51 -4.5 -151.5t-4.5 -147.5q0 -174 60 -174q16 0 48 6t46 6q70 0 70 -68q0 -76 -88 -76q-35 0 -104.5 11.5t-104.5 11.5q-37 0 -110 -11.5t-109 -11.5q-88 0 -89 76q0 66 68 66q16 0 50 -5t46 -5q45 0 58 69q2 18 2 105v270 q0 182 -33 258q-51 121 -211 121q-162 0 -217 -139q-33 -84 -33 -275v-235q0 -113 8.5 -138.5t51.5 -25.5h41q31 2 53 2q70 0 69 -68q0 -76 -88 -76q-35 0 -104.5 11.5t-104.5 11.5q-37 0 -109.5 -11.5t-109.5 -11.5q-88 0 -88 76q0 66 68 66q16 0 50 -5t46 -5q45 0 57 69 q2 18 2 105v342q0 145 -32 211q-49 96 -183 96q-168 0 -233 -131q-45 -92 -45 -277v-241q0 -113 8 -138.5t51 -25.5h41q31 2 53 2q70 0 70 -68q0 -76 -88 -76q-35 0 -104.5 11.5t-104.5 11.5q-37 0 -109.5 -11.5t-109.5 -11.5q-88 0 -88 76z" />
<glyph unicode="n" d="M41 53q0 66 68 66q16 0 50 -5t46 -5q45 0 57 69q2 18 2 105v454q0 113 -7 139.5t-46 26.5q-8 0 -41 -2t-59 -2q-70 0 -70 68q0 29 23.5 52t52.5 23q18 0 54 -11t56 -11q23 0 65 11t64 11q35 0 43 -49q2 -12 2 -73h5q110 151 339 151h3q238 0 329 -151q70 -111 70 -345 q0 -49 -4 -149t-4 -145q0 -174 59 -175q16 0 47 6.5t47 6.5q70 0 70 -68q0 -74 -88 -74q-35 0 -104.5 11.5t-104.5 11.5q-37 0 -109.5 -11.5t-109.5 -11.5q-88 0 -88 74q0 66 67 66q16 0 50 -5.5t47 -5.5q45 0 57 70q2 18 2 105v337q0 154 -49 226q-59 88 -207 88 q-180 0 -252 -123q-51 -92 -51 -285v-241q0 -113 8 -138.5t51 -25.5h41q31 2 53 2q70 0 70 -68q0 -76 -88 -76q-35 0 -104.5 11.5t-104.5 11.5q-37 0 -109.5 -11.5t-109.5 -11.5q-88 0 -88 76z" />
<glyph unicode="o" horiz-adv-x="1146" d="M78 508q0 240 121 395q133 168 366 168q244 0 377 -160q127 -147 127 -397q0 -244 -129 -399q-137 -166 -377 -166q-231 0 -364 168q-121 154 -121 391zM248 514q0 -176 69 -289q84 -137 248 -137q174 0 260 135q74 115 74 299q0 178 -70 285q-82 125 -251 125 q-168 0 -254 -129q-76 -113 -76 -289z" />
<glyph unicode="p" horiz-adv-x="1269" d="M41 -309q0 65 66 65h2q16 0 50 -5t46 -5q45 0 55 70q4 20 4 102v821q0 111 -8 137.5t-49 26.5q-8 0 -40 -2t-56 -2q-70 0 -70 68q0 33 27.5 54t62.5 21q18 0 55 -11t58 -11q20 0 58 11t58 11q43 0 52 -49q2 -6 2 -82h4q96 160 313 160q231 0 354 -158q115 -143 115 -381 q0 -246 -119 -405q-131 -178 -370 -178q-199 0 -285 127h-4v-162q0 -106 9 -133t44 -27q10 0 43 2t57 2q70 0 70 -67q0 -33 -27.5 -54.5t-62.5 -21.5q-37 0 -108.5 11.5t-108.5 11.5q-35 0 -103.5 -11.5t-103.5 -11.5t-62.5 21.5t-27.5 54.5zM422 459q0 -371 280 -371 q174 0 259 133q69 111 69 295q0 176 -61 283q-76 133 -240 133q-195 0 -262 -152q-45 -100 -45 -321z" />
<glyph unicode="q" horiz-adv-x="1228" d="M78 518q0 244 115 391q125 162 362 162q209 0 322 -145l4 4l-2 41v7q0 64 69 64h2q61 0 62 -96v-1028q0 -109 8 -136.5t47 -27.5q8 0 41 2t57 2h2q68 0 68 -67q0 -33 -26.5 -54.5t-61.5 -21.5t-101.5 11.5t-101.5 11.5q-37 0 -108.5 -11.5t-108.5 -11.5t-66.5 20.5 t-29.5 55.5q0 65 65 65h2q16 0 50 -5t47 -5q45 0 55 66q4 20 4 100v156q-104 -119 -295 -119q-231 0 -362 174q-119 156 -119 395zM248 526q0 -176 65 -293q84 -145 246 -145q295 0 295 375q0 211 -45 313q-70 156 -256 156q-158 0 -238 -129q-68 -109 -67 -277z" />
<glyph unicode="r" horiz-adv-x="1064" d="M41 967q0 35 28.5 55t63.5 20q20 0 59 -11t60 -11q20 0 58 11t59 11q57 0 57 -109v-15h4q93 153 286 153h3q135 0 232.5 -78t97.5 -211q0 -88 -41 -145q-47 -66 -131 -66q-43 0 -77 28t-34 71q0 37 24.5 61.5t57.5 24.5q14 0 29 -4q12 27 12 47q0 66 -62 106 q-53 37 -120 37q-258 0 -258 -387v-274q0 -106 10 -135t51 -29q8 0 41 2t57 2q70 0 70 -68q0 -33 -26.5 -54.5t-61.5 -21.5t-105.5 11.5t-105.5 11.5q-37 0 -108.5 -11.5t-108.5 -11.5q-35 0 -63.5 20.5t-28.5 55.5q0 66 67 66q16 0 50 -5t46 -5q45 0 56 69q2 16 2 103v458 q0 88 -2 103q-10 65 -55 65h-1q-8 0 -49 -4t-73 -4q-70 0 -70 68z" />
<glyph unicode="s" horiz-adv-x="1064" d="M100 16q0 29 8.5 86.5t8.5 85.5q0 27 -8.5 82.5t-8.5 81.5q0 74 72 74q59 0 66 -94q8 -119 53 -158q100 -86 272 -86q94 0 160 41q78 51 78 139q0 123 -174 160q-160 31 -320 64q-174 63 -174 247q0 156 125 248q115 84 274 84q158 0 242 -72l-2 17v7q0 62 66 62h2 q70 0 69 -67v-303q0 -76 -73 -76q-41 0 -60 76q-23 104 -49 141q-57 76 -195 76q-90 0 -155 -45q-74 -49 -74 -135q0 -113 174 -148q160 -33 320 -63q174 -68 174 -256q0 -162 -135 -254q-119 -82 -289 -82q-182 0 -299 96l2 -25v-6q0 -30 -18 -56q-20 -28 -54 -28 q-78 0 -78 86z" />
<glyph unicode="t" horiz-adv-x="819" d="M0 971q0 69 74 69h2h18q14 -2 21 -2q75 0 75 70q0 14 -3 58t-3 71q0 145 86 145t86 -159q0 -33 -4 -84.5t-4 -61.5q0 -39 72 -39q20 0 73.5 5.5t79.5 5.5q119 0 119 -80q0 -76 -119 -76q-23 0 -70.5 4t-70.5 4q-84 0 -84 -47v-496q0 -115 21 -163q33 -80 129 -80 q111 0 133 102q6 96 14 195.5t80 99.5q76 0 76 -98q0 -211 -58 -312q-76 -131 -270 -131q-178 0 -240 121q-43 84 -43 279v452q0 76 -84 76h-12h-12q-82 0 -82 72z" />
<glyph unicode="u" horiz-adv-x="1310" d="M-16 967q0 75 97 75h3q20 0 59 -11t60 -11q20 0 58 11t58 11q70 0 70 -231q0 -70 -7 -178.5t-7 -122.5q0 -209 28 -285q51 -137 226 -137q199 0 262 166q39 98 39 336v149q0 104 -15.5 133t-64.5 29h-39q-29 -2 -49 -2q-70 0 -70 68q0 35 30 55t66 20q23 0 64 -11t63 -11 q20 0 58.5 11t58.5 11q66 0 66 -170q0 -43 -5.5 -111.5t-5.5 -80.5v-399q0 -109 8.5 -136.5t47.5 -27.5q8 0 41 2t57 2q70 0 70 -68q0 -33 -27 -54.5t-61 -21.5q-20 0 -58.5 11.5t-58.5 11.5t-59 -11.5t-60 -11.5q-49 0 -49 108v17h-4q-99 -153 -329 -153h-3 q-236 0 -326 143q-67 104 -67 325v7q0 53 4 158.5t4 156.5q0 172 -70 172q-16 0 -46.5 -6t-47.5 -6q-70 0 -69 68z" />
<glyph unicode="v" horiz-adv-x="1310" d="M27 975q0 67 80 67h2q33 0 94 -11t94 -11q35 0 102.5 11t102.5 11q90 0 90 -67q0 -29 -21.5 -52.5t-50.5 -23.5q-14 0 -47 8t-43 11l-33 -33q27 -145 121 -377q76 -184 152 -369q68 182 137 365q121 330 121 370q0 29 -31 44q-72 -18 -80 -19q-67 0 -67 74q0 69 67 69h2 q33 0 97.5 -11t97.5 -11t99.5 11t98.5 11h2q80 0 80 -67q0 -29 -21.5 -52.5t-49.5 -23.5h1q0 2 -83 19q-66 -66 -148 -324q-113 -354 -143 -424q-90 -209 -193 -209q-100 0 -202 248q-10 25 -156 461q-82 248 -137 248q-12 0 -40 -9.5t-40 -9.5q-55 0 -55 76z" />
<glyph unicode="w" horiz-adv-x="1720" d="M0 975q0 67 118 67h3q37 0 108.5 -11t108.5 -11q35 0 105.5 11t105.5 11q70 0 69 -67q0 -72 -73 -72q-20 0 -55 5t-48 5q-55 0 -55 -63q0 -143 64 -375q53 -182 104 -366h4l156 716q23 109 41 144q39 78 112 78q80 0 117 -74q16 -35 41 -148l152 -716h4l106 372 q63 233 64 377q0 55 -54 55q-16 0 -51 -7t-47 -7q-31 0 -53.5 22.5t-22.5 53.5q0 67 110 67h3q37 0 108.5 -11t108.5 -11q35 0 105.5 11t105.5 11h2q68 0 68 -67q0 -47 -72 -76l-72 14q-63 0 -123 -247q-53 -229 -106 -461q-78 -248 -184 -248q-74 0 -111 68q-23 41 -43 135 l-152 725h-4l-157 -713q-23 -106 -43 -143q-39 -72 -119 -72q-96 0 -137 154l-183 686q-20 74 -28 92t-27 18q-4 0 -34.5 -4t-59.5 -4q-31 0 -55.5 22.5t-24.5 53.5z" />
<glyph unicode="x" d="M18 53q0 68 72 68q14 0 43 -3t39 -3q45 0 221 207q139 164 170 210q-37 66 -160 211q-145 174 -196 175q-16 0 -48 -9.5t-48 -9.5q-31 0 -51.5 22.5t-20.5 53.5q0 67 68 67h2q37 0 110.5 -11t110.5 -11q35 0 105.5 11t105.5 11q69 0 69 -65q0 -31 -23.5 -54.5 t-51.5 -23.5q4 0 -50 19l-24 -9q92 -156 215 -247q37 25 119 118.5t94 126.5l-17 11q-47 -18 -45 -19q-31 0 -53 22.5t-22 53.5q0 67 69 67h2q37 0 109 -11t108 -11q35 0 106 11t105 11q70 0 70 -67q0 -29 -23.5 -52.5t-52.5 -23.5q-14 0 -46 9.5t-46 9.5q-61 0 -217 -179 q-127 -147 -156 -200q39 -78 140 -191q82 -90 163 -178q45 -53 82 -53q8 0 36 3t50 3q70 0 70 -70q0 -33 -26.5 -54.5t-61.5 -21.5t-105.5 11.5t-105.5 11.5t-102.5 -11.5t-102.5 -11.5q-84 0 -84 76q0 68 74 68q16 0 45 -3t39 -3l24 14q-8 16 -116.5 143t-130.5 142 q-27 -16 -130.5 -136t-121.5 -153q16 -12 53 -8q68 6 59 6q70 0 70 -70q0 -33 -26.5 -54.5t-61.5 -21.5t-105.5 11.5t-105.5 11.5t-101.5 -11.5t-99.5 -11.5q-80 0 -80 76z" />
<glyph unicode="y" horiz-adv-x="1310" d="M-41 -186q0 59 38 102t97 43q47 0 81 -27.5t34 -74.5q0 -72 -62 -82q27 -51 117 -51q106 0 199.5 80.5t93.5 187.5q0 78 -143 432q-78 180 -154 360q-53 135 -94 136q-18 0 -53 -10.5t-54 -10.5q-25 0 -41 21.5t-16 46.5q0 31 24.5 53t55.5 22q37 0 108.5 -11t108.5 -11 q35 0 105.5 11t105.5 11t61.5 -21.5t26.5 -53.5q0 -39 -53 -68l-105 19q-20 -10 -20 -31q0 -12 248 -754h4q74 193 145 387q121 326 121 363q0 33 -45 32q-20 0 -58 -8t-42 -8q-61 0 -62 68q0 31 23.5 53t54.5 22q37 0 108.5 -11t108.5 -11q35 0 105.5 11t105.5 11h2 q68 0 68 -67q0 -70 -52 -70q-14 0 -44.5 6.5t-43.5 6.5q-61 0 -178 -347q-150 -453 -260 -639q-201 -346 -473 -346q-111 0 -197 58q-100 66 -100 170z" />
<glyph unicode="z" horiz-adv-x="1105" d="M70 102q0 57 69 127l670 670h-483q-78 0 -78 -55q0 -23 7 -67t7 -66q0 -84 -67 -84q-76 0 -76 90v268q0 41 35 51q14 6 69 6h674q127 0 127 -94q0 -39 -33 -80q-6 -8 -61 -63l-670 -672h524q106 0 107 107q0 23 -5 71.5t-5 71.5q0 86 77 86q63 0 64 -86v-315 q0 -78 -102 -78h-705q-145 0 -145 112z" />
<glyph unicode="{" horiz-adv-x="573" d="M74 555v33q16 25 55 44t53 40q23 37 23 114q0 47 -6 148.5t-6 148.5q0 154 49 228q66 94 227 94l43 -27q-2 -18 -37 -35q-43 -18 -61 -40q-33 -41 -33 -123q0 -33 6 -126t6 -147q0 -297 -184 -334v-4q184 -37 184 -333q0 -53 -6 -146.5t-6 -126.5q0 -82 33 -123 q18 -23 61 -41q35 -17 37 -35l-43 -26q-162 0 -227 94q-49 74 -49 225q0 49 6 150.5t6 148.5q0 78 -23 115q-14 20 -53 39.5t-55 44.5z" />
<glyph unicode="|" horiz-adv-x="1269" d="M580 -10v1415h120v-1415h-120z" />
<glyph unicode="}" horiz-adv-x="573" d="M74 -236q2 18 37 35q43 18 61 41q33 41 33 123q0 33 -6 126t-6 147q0 295 184 333v4q-184 37 -184 334q0 53 6 146.5t6 126.5q0 82 -33 123q-18 23 -61 40q-35 16 -37 35l43 27q162 0 227 -94q49 -74 49 -228q0 -47 -6 -148t-6 -149q0 -78 22 -114q14 -20 53.5 -40 t55.5 -44v-33q-16 -25 -55 -44t-54 -40q-23 -37 -22 -115q0 -47 6 -148.5t6 -150.5q0 -152 -49 -225q-66 -94 -227 -94z" />
<glyph unicode="~" horiz-adv-x="1269" d="M104 467q133 242 293 242q80 0 239 -72t212 -72q113 0 203 170l86 -96q-127 -227 -291 -227q-74 0 -228.5 70.5t-220.5 70.5q-72 0 -127 -61q-31 -33 -82 -123z" />
<glyph unicode="&#xa2;" d="M190 700q0 215 113 369q121 162 330 186q0 8 -3 56.5t-3 79.5q0 145 67 145q70 0 70 -143q0 -31 -3 -78t-3 -55q156 -10 262 -91q123 -90 123 -237q0 -70 -46 -125t-114 -55q-49 0 -86 29.5t-37 76.5q0 104 103 105q-4 66 -71 110.5t-134 44.5v-811q115 6 170 86 q12 18 63 148q31 78 86 77q33 0 57.5 -26.5t24.5 -59.5q0 -150 -131 -256q-111 -88 -270 -116q0 -10 4 -62.5t4 -87.5q0 -145 -70 -145q-72 0 -71 143q0 35 4 88.5t4 63.5q-211 25 -330 178q-113 145 -113 362zM360 700q0 -150 62 -256q74 -127 211 -137v811 q-139 -31 -211 -155q-61 -109 -62 -263z" />
<glyph unicode="&#xa3;" d="M20 186q0 111 78 178.5t189 67.5q129 0 291 -106q6 41 6 71q0 74 -37 168q-35 78 -70 158q-10 0 -69.5 -5t-98.5 -5q-154 0 -153 71q0 66 133 66q29 0 74 -3t53 -3q-41 98 -41 196q0 172 105.5 283t275.5 111q135 0 236.5 -82t101.5 -215q0 -61 -27 -107q-31 -55 -88 -55 q-37 0 -60.5 31.5t-23.5 68.5q0 45 30.5 72t30.5 33q-45 66 -90 93t-118 27q-102 0 -168 -74.5t-66 -178.5q0 -51 64 -203h358q23 0 41 -17.5t18 -40.5q0 -78 -164 -77q-43 0 -112.5 6t-81.5 6q78 -150 78 -295q0 -106 -23 -176q188 -154 324 -154q88 0 137 62q45 55 45 145 q0 66 -37 118t-100 52q-66 0 -96 -45q-16 -41 -35 -85t-58 -44q-61 0 -61 80q0 98 75 164.5t173 66.5q125 0 203 -94q71 -88 71 -217q0 -139 -86 -242q-92 -109 -227 -108q-100 0 -203 53q-45 23 -180 115q-135 -168 -332 -168q-117 0 -196 59q-88 66 -89 178zM160 195 q0 -55 49 -84q43 -27 100 -27q146 0 209 111q-123 96 -242 96q-47 0 -81.5 -25.5t-34.5 -70.5z" />
<glyph unicode="&#xa5;" d="M10 1331q0 74 72 74q37 0 112.5 -11.5t114.5 -11.5t115 11.5t115 11.5q72 0 71 -74q0 -72 -80 -71q-20 0 -58 5t-52 5l-19 -21q12 -27 279 -579l156 286q98 180 127 295l-25 19q-25 0 -72 -4t-71 -4q-55 0 -56 69q0 74 74 74q39 0 115 -11.5t114 -11.5q39 0 115 11.5 t115 11.5q71 0 71 -74q0 -70 -63 -69q-14 0 -45 4t-43 4q-63 0 -123 -121q-37 -86 -74 -170q6 0 56.5 4t85.5 4q135 0 135 -65q0 -68 -160 -68q-47 0 -112.5 6t-69.5 6l-131 -258q4 0 101 8.5t165 8.5q207 0 207 -72q0 -76 -223 -76q-76 0 -185.5 9.5t-115.5 9.5v-105 q0 -27 -3 -72v-57q0 -80 29 -108q37 -33 148 -33q55 0 55 -70q0 -74 -74 -74q-39 0 -113.5 11.5t-113.5 11.5t-115 -11.5t-115 -11.5q-74 0 -73 74q0 68 61 68q10 0 36 -3t38 -3q72 0 88 96q4 25 4 153v134q-6 0 -114.5 -9.5t-182.5 -9.5q-221 0 -221 74t197 74 q66 0 163 -8.5t105 -8.5l-131 258q-4 0 -68.5 -6t-109.5 -6q-156 0 -156 68t129 67q33 0 84 -5t59 -5q-55 117 -108 233q-35 49 -180 50q-55 0 -56 69z" />
<glyph unicode="&#xa8;" horiz-adv-x="901" d="M143 1276q0 49 34 84t83 35t84 -35t35 -84t-35 -83t-84 -34t-83 34t-34 83zM518 1276q0 49 35 84t84 35t83 -35t34 -84t-34 -83t-83 -34t-84 34t-35 83z" />
<glyph unicode="&#xa9;" horiz-adv-x="1720" d="M115 688q0 307 219 526.5t526 219.5q311 0 534.5 -217.5t223.5 -526.5q0 -307 -223.5 -524t-532.5 -217q-305 0 -526 217t-221 522zM205 688q0 -268 194.5 -458.5t462.5 -190.5q270 0 467 190.5t197 460.5q0 272 -196.5 464t-469.5 192q-268 0 -461.5 -194t-193.5 -464z M459 682q0 193 119.5 310.5t312.5 117.5q121 0 295 -53v-221h-56q-2 104 -61 162.5t-164 58.5q-145 0 -229 -107q-76 -98 -76 -248q0 -145 78 -253q88 -123 227 -123q180 0 256 159l43 -18q-37 -96 -137 -152q-92 -51 -201 -51q-180 0 -293.5 118t-113.5 300z" />
<glyph unicode="&#xab;" horiz-adv-x="696" d="M35 555q18 43 112 197q109 178 136 178q35 0 34 -31q0 4 -20 -55l-98 -289q33 -88 67 -174q51 -137 51 -182q0 -29 -30 -29q-33 0 -142 182q-92 154 -110 203zM295 555q39 80 119 209q102 166 127 166q35 0 34 -31q0 -27 -118 -344q33 -88 67 -174q51 -139 51 -182 q0 -29 -30 -29q-33 0 -142 184q-94 162 -108 201z" />
<glyph unicode="&#xad;" horiz-adv-x="655" d="M70 553q0 74 108 74h299q109 0 109 -74q0 -76 -109 -76h-299q-109 0 -108 76z" />
<glyph unicode="&#xae;" horiz-adv-x="1720" d="M117 692q0 307 222 524.5t531 217.5q307 0 528.5 -217.5t221.5 -524.5t-220 -525t-530 -218q-309 0 -531 217t-222 526zM209 692q0 -270 195.5 -462.5t465.5 -192.5t465 192.5t195 462.5t-194.5 460.5t-465.5 190.5q-270 0 -465.5 -190t-195.5 -461zM518 1087v35h336 q311 0 311 -202q0 -92 -71 -150q-61 -53 -158 -63v-5q76 -8 127 -102q39 -84 80 -170q49 -88 121 -88v-33h-90q-96 0 -148 97q-37 90 -72 180q-49 98 -137 96h-82v-276q0 -45 31 -58q10 -4 72 -6v-33h-318v33q59 2 72 6q29 12 29 58v620q0 43 -33 55q-14 6 -70 6zM735 723 h58q256 0 256 186q0 174 -195 174h-59q-59 0 -60 -71v-289z" />
<glyph unicode="&#xb4;" horiz-adv-x="696" d="M180 1182q0 23 37 53l217 186q49 43 88 43t65.5 -29.5t26.5 -68.5q0 -61 -79.5 -92t-163.5 -64q-135 -51 -164 -51q-27 0 -27 23z" />
<glyph unicode="&#xb8;" horiz-adv-x="696" d="M141 -279q0 45 43 46q16 0 58.5 -37t95.5 -37q104 0 104 71q0 70 -88 70q-20 0 -58 -13.5t-56 -13.5q-23 0 -23 21q0 12 64 162h94l-31 -80q8 0 25.5 2t25.5 2q63 0 115.5 -41t52.5 -102q0 -80 -74 -125q-61 -37 -147 -37q-59 0 -123 26q-78 35 -78 86z" />
<glyph unicode="&#xbb;" horiz-adv-x="696" d="M139 199q0 43 51 182q35 86 68 174q-33 84 -65 168q-47 123 -48 176q0 31 29 31q25 0 135 -178q95 -154 113 -197q-33 -72 -98 -174q-53 -86 -109 -170q-25 -41 -47 -41q-29 0 -29 29zM399 199q0 47 50 182q35 86 67 174q-33 84 -65 168q-47 127 -48 176q0 31 31 31 q20 0 133 -177.5t113 -197.5l-18 -37q-37 -74 -103 -182q-100 -166 -131 -166q-29 0 -29 29z" />
<glyph unicode="&#xc2;" horiz-adv-x="1597" d="M-18 51q0 68 71 68q14 0 44 -3t42 -3q80 0 291 577q100 303 203 604q23 59 52.5 85t88.5 26q94 0 135 -111l363 -997q45 -123 67.5 -150.5t81.5 -27.5h49q37 2 66 2q66 0 66 -70q0 -74 -89 -74q-45 0 -136 11.5t-138 11.5t-138 -11.5t-136 -11.5q-117 0 -117 74 q0 70 86 70q23 0 63.5 -5t55.5 -5q66 0 65 55q0 63 -45 178q-55 135 -117 135q-23 0 -112.5 9.5t-143.5 9.5q-178 0 -213 -90q-78 -205 -77 -232q0 -66 88 -65q23 0 65.5 5t54.5 5q66 0 66 -70q0 -74 -88 -74q-45 0 -136 11.5t-138 11.5t-138.5 -11.5t-136.5 -11.5 q-18 0 -41.5 27t-23.5 47zM407 1526q0 14 172 139t195 127q57 -29 199 -127q161 -112 161 -139q0 -25 -26 -25q-27 0 -168 51q-133 47 -172 68q-262 -121 -330 -121q-31 0 -31 27zM573 635q0 -16 54 -17h297q28 -1 28 17q0 45 -82 287q-53 152 -104 303h-4 q-53 -152 -107 -303q-82 -246 -82 -287z" />
<glyph unicode="&#xc7;" d="M76 672q0 315 153 526q172 236 476 236q252 0 380 -172l5 4q-8 102 -9 94q0 70 66 70q72 0 72 -89v-464q0 -80 -78 -80q-61 0 -80 127q-25 176 -64 239q-78 127 -284 127q-233 0 -351 -190q-98 -158 -98 -406t101 -409q119 -193 352 -193q203 0 293 119q45 61 82 223 q27 119 79 119q86 0 86 -94q0 -221 -155 -365q-147 -135 -373 -143l-16 -41l51 4q61 4 114.5 -38t53.5 -105q0 -80 -74 -123q-63 -39 -147 -39q-61 0 -123 26q-78 33 -78 86l43 46q14 -6 72 -48q39 -27 82 -26q104 0 104 71q0 70 -88 70q-2 0 -115 -27l-22 21q16 55 47 125 q-270 25 -422 240q-135 195 -135 479z" />
<glyph unicode="&#xce;" horiz-adv-x="778" d="M28 1546q0 14 172 139t195 127q57 -29 199 -127q161 -112 161 -139q0 -25 -26 -25q-27 0 -168 51q-133 47 -172 68q-262 -121 -330 -121q-31 0 -31 27zM35 51q0 68 69 68q16 0 49 -4t46 -4q82 0 102 84q8 33 8 149v694q0 170 -25.5 197t-183.5 27q-66 0 -65 69 q0 74 88 74q45 0 137 -11.5t137 -11.5q47 0 138.5 11.5t136.5 11.5q88 0 88 -74q0 -68 -70 -67q-16 0 -49 4t-45 4q-82 0 -102 -86q-8 -33 -9 -154v-731q0 -143 41 -168q18 -12 168 -12q66 0 66 -70q0 -74 -88 -74q-45 0 -137.5 11.5t-137.5 11.5t-137 -11.5t-137 -11.5 q-88 0 -88 74z" />
<glyph unicode="&#xd6;" horiz-adv-x="1392" d="M76 690q0 319 145 518q162 225 471 226q293 0 457 -213q147 -193 147 -496q0 -324 -143 -535q-166 -242 -475 -241q-299 0 -461 229q-141 201 -141 512zM264 682q0 -231 90 -391q111 -199 324 -199q227 0 340 209q90 166 90 414q0 233 -90 387q-109 188 -326 188 q-233 0 -342 -198q-86 -156 -86 -410zM389 1638q0 49 34 84t83 35t84 -35t35 -84t-35 -83t-84 -34t-83 34t-34 83zM764 1638q0 49 35 84t84 35t83 -35t34 -84t-34 -83t-83 -34t-84 34t-35 83z" />
<glyph unicode="&#xdb;" horiz-adv-x="1474" d="M-35 1331q0 31 22.5 52.5t55.5 21.5q45 0 137 -11.5t137 -11.5q47 0 138.5 11.5t136.5 11.5q98 0 98 -74q0 -68 -69 -67q-16 0 -49 4t-46 4q-88 0 -106 -105q-4 -23 -4 -176v-547q0 -182 69 -264q74 -88 256 -88q186 0 263 94q70 84 69 273v506q0 35 2 88t2 69 q0 86 -38 113t-175 27q-66 0 -65 69q0 31 22.5 52.5t55.5 21.5q45 0 137 -11.5t137 -11.5q47 0 138 11.5t136 11.5q99 0 99 -74q0 -68 -70 -67q-16 0 -49 4t-45 4q-117 0 -117 -230q0 -59 10.5 -217.5t10.5 -246.5q0 -287 -95 -435q-123 -195 -426 -194q-346 0 -456 219 q-74 150 -56 496q20 412 -2 532q-14 74 -92 74q-18 0 -54 -4t-52 -4q-66 0 -66 69zM366 1546q0 14 172 139t195 127q57 -29 199 -127q161 -112 161 -139q0 -25 -26 -25q-27 0 -168 51q-133 47 -172 68q-262 -121 -330 -121q-31 0 -31 27z" />
<glyph unicode="&#xdc;" horiz-adv-x="1474" d="M-35 1331q0 31 22.5 52.5t55.5 21.5q45 0 137 -11.5t137 -11.5q47 0 138.5 11.5t136.5 11.5q98 0 98 -74q0 -68 -69 -67q-16 0 -49 4t-46 4q-88 0 -106 -105q-4 -23 -4 -176v-547q0 -182 69 -264q74 -88 256 -88q186 0 263 94q70 84 69 273v506q0 35 2 88t2 69 q0 86 -38 113t-175 27q-66 0 -65 69q0 31 22.5 52.5t55.5 21.5q45 0 137 -11.5t137 -11.5q47 0 138 11.5t136 11.5q99 0 99 -74q0 -68 -70 -67q-16 0 -49 4t-45 4q-117 0 -117 -230q0 -59 10.5 -217.5t10.5 -246.5q0 -287 -95 -435q-123 -195 -426 -194q-346 0 -456 219 q-74 150 -56 496q20 412 -2 532q-14 74 -92 74q-18 0 -54 -4t-52 -4q-66 0 -66 69zM440 1638q0 49 34 84t83 35t84 -35t35 -84t-35 -83t-84 -34t-83 34t-34 83zM815 1638q0 49 35 84t84 35t83 -35t34 -84t-34 -83t-83 -34t-84 34t-35 83z" />
<glyph unicode="&#xe2;" horiz-adv-x="1228" d="M70 252q0 211 180 283q14 6 338 63q180 31 180 150q0 184 -231 184q-51 0 -119 -27q-84 -31 -86 -71q49 -12 49 -84q0 -43 -33 -70t-78 -27q-53 0 -90 39t-37 92q0 135 138 217q117 70 260 70q233 0 327 -131q72 -102 72 -313q0 -63 -8 -197.5t-8 -198.5q0 -147 80 -147 q76 0 75 143q0 16 -2 43v35q0 92 66 92q71 0 71 -84q0 -186 -22 -245q-45 -111 -201 -111q-180 0 -209 147q-98 -156 -331 -155q-156 0 -261 71q-121 82 -120 232zM223 1184q0 14 172 139t195 127q57 -29 199 -127q161 -112 161 -139q0 -25 -26 -25q-27 0 -168 51 q-133 47 -172 68q-262 -121 -330 -121q-31 0 -31 27zM240 260q0 -86 65 -131q57 -41 148 -41q209 0 270 131q31 65 43 307q-57 -55 -203 -77q-186 -27 -219 -39q-104 -41 -104 -150z" />
<glyph unicode="&#xe7;" horiz-adv-x="1024" d="M78 489q0 252 123 410q137 172 381 172q147 0 260 -84q125 -92 125 -235q0 -78 -37 -129q-43 -57 -117 -58q-49 0 -85 33t-36 80q0 41 32 66.5t75 27.5q-2 74 -80 121q-66 39 -146 39q-160 0 -249 -135q-76 -119 -76 -287q0 -174 69 -287q84 -135 246 -135q131 0 197 84 q25 33 71 158q31 84 82 84q33 0 56.5 -23.5t23.5 -56.5q0 -160 -134 -271.5t-294 -111.5l-16 -41l51 4q61 4 114.5 -38t53.5 -105q0 -80 -74 -125q-61 -37 -147 -37q-61 0 -123 26q-78 33 -78 86l43 46q16 -6 72 -48q39 -27 82 -26q104 0 104 71q0 70 -88 70q-23 0 -57 -10 q-51 -14 -58 -17l-22 21q16 55 49 129q-188 29 -295 188q-98 145 -98 344z" />
<glyph unicode="&#xee;" horiz-adv-x="655" d="M-64 1184q0 14 172 139t195 127q57 -29 199 -127q161 -112 161 -139q0 -25 -26 -25q-27 0 -168 51q-133 47 -172 68q-262 -121 -330 -121q-31 0 -31 27zM47 53q0 68 70 68q16 0 47 -6t47 -6q59 0 59 172v458q0 84 -2 103q-12 70 -57 69q-16 0 -47 -6t-47 -6q-70 0 -70 68 q0 76 72 75q23 0 67.5 -11t67.5 -11q20 0 58 11t59 11q70 0 69 -215q0 -78 -12 -259t-12 -257q0 -203 65 -202q14 0 41 6t41 6q70 0 70 -68q0 -33 -26.5 -54.5t-61.5 -21.5t-105.5 11.5t-105.5 11.5q-37 0 -108.5 -11.5t-108.5 -11.5q-29 0 -49.5 24t-20.5 52z" />
<glyph unicode="&#xf6;" horiz-adv-x="1146" d="M78 508q0 240 121 395q133 168 366 168q244 0 377 -160q127 -147 127 -397q0 -244 -129 -399q-137 -166 -377 -166q-231 0 -364 168q-121 154 -121 391zM248 514q0 -176 69 -289q84 -137 248 -137q174 0 260 135q74 115 74 299q0 178 -70 285q-82 125 -251 125 q-168 0 -254 -129q-76 -113 -76 -289zM276 1276q0 49 34 84t83 35t84 -35t35 -84t-35 -83t-84 -34t-83 34t-34 83zM651 1276q0 49 35 84t84 35t83 -35t34 -84t-34 -83t-83 -34t-84 34t-35 83z" />
<glyph unicode="&#xfb;" horiz-adv-x="1310" d="M-16 967q0 76 100 75q20 0 59 -11t60 -11q20 0 58 11t58 11q70 0 70 -231q0 -70 -7 -178.5t-7 -122.5q0 -209 28 -285q51 -137 226 -137q199 0 262 166q39 98 39 336v149q0 104 -15.5 133t-64.5 29h-39q-29 -2 -49 -2q-70 0 -70 68q0 35 30 55t66 20q23 0 64 -11t63 -11 q20 0 58.5 11t58.5 11q66 0 66 -170q0 -43 -5.5 -111.5t-5.5 -80.5v-399q0 -109 8.5 -136.5t47.5 -27.5q8 0 41 2t57 2q70 0 70 -68q0 -33 -27 -54.5t-61 -21.5q-20 0 -58.5 11.5t-58.5 11.5t-59 -11.5t-60 -11.5q-53 0 -49 125h-4q-100 -154 -332 -153q-236 0 -326 143 q-68 106 -67 332q0 53 4 158.5t4 156.5q0 172 -70 172q-16 0 -46.5 -6t-47.5 -6q-70 0 -69 68zM264 1184q0 14 172 139t195 127q57 -29 199 -127q161 -112 161 -139q0 -25 -26 -25q-27 0 -168 51q-133 47 -172 68q-262 -121 -330 -121q-31 0 -31 27z" />
<glyph unicode="&#xfc;" horiz-adv-x="1310" d="M-16 967q0 76 100 75q20 0 59 -11t60 -11q20 0 58 11t58 11q70 0 70 -231q0 -70 -7 -178.5t-7 -122.5q0 -209 28 -285q51 -137 226 -137q199 0 262 166q39 98 39 336v149q0 104 -15.5 133t-64.5 29h-39q-29 -2 -49 -2q-70 0 -70 68q0 35 30 55t66 20q23 0 64 -11t63 -11 q20 0 58.5 11t58.5 11q66 0 66 -170q0 -43 -5.5 -111.5t-5.5 -80.5v-399q0 -109 8.5 -136.5t47.5 -27.5q8 0 41 2t57 2q70 0 70 -68q0 -33 -27 -54.5t-61 -21.5q-20 0 -58.5 11.5t-58.5 11.5t-59 -11.5t-60 -11.5q-53 0 -49 125h-4q-100 -154 -332 -153q-236 0 -326 143 q-68 106 -67 332q0 53 4 158.5t4 156.5q0 172 -70 172q-16 0 -46.5 -6t-47.5 -6q-70 0 -69 68zM327 1276q0 49 34 84t83 35t84 -35t35 -84t-35 -83t-84 -34t-83 34t-34 83zM702 1276q0 49 35 84t84 35t83 -35t34 -84t-34 -83t-83 -34t-84 34t-35 83z" />
<glyph unicode="&#x131;" horiz-adv-x="655" d="M47 53q0 68 70 68q16 0 47 -6t47 -6q59 0 59 172v458q0 84 -2 103q-12 70 -57 69q-16 0 -47 -6t-47 -6q-70 0 -70 68q0 76 72 75q23 0 67.5 -11t67.5 -11q20 0 58 11t59 11q70 0 69 -215q0 -78 -12 -259t-12 -257q0 -203 65 -202q14 0 41 6t41 6q70 0 70 -68 q0 -33 -26.5 -54.5t-61.5 -21.5t-105.5 11.5t-105.5 11.5q-37 0 -108.5 -11.5t-108.5 -11.5q-29 0 -49.5 24t-20.5 52z" />
<glyph unicode="&#x2c6;" horiz-adv-x="1024" d="M141 1184q0 14 172 139t195 127q57 -29 199 -127q161 -112 161 -139q0 -25 -26 -25q-27 0 -168 51q-133 47 -172 68q-262 -121 -330 -121q-31 0 -31 27z" />
<glyph unicode="&#x2da;" horiz-adv-x="614" d="M141 1325q0 68 48.5 116t115.5 48q68 0 116 -48t48 -116t-48 -117t-116 -49t-116 49t-48 117zM219 1325q0 -37 24.5 -61.5t61.5 -24.5t61.5 24.5t24.5 61.5q0 35 -25.5 59.5t-60.5 24.5t-60.5 -24.5t-25.5 -59.5z" />
<glyph unicode="&#x2dc;" horiz-adv-x="942" d="M141 1202q0 82 60.5 135.5t142.5 53.5q57 0 162.5 -42t157.5 -42q41 0 74.5 33.5t39.5 33.5q25 1 25 -28q0 -82 -56.5 -134.5t-138.5 -52.5q-57 0 -164.5 40t-164.5 40q-47 0 -75 -35t-36 -35q-27 0 -27 33z" />
<glyph unicode="&#x2000;" horiz-adv-x="906" />
<glyph unicode="&#x2001;" horiz-adv-x="1812" />
<glyph unicode="&#x2002;" horiz-adv-x="906" />
<glyph unicode="&#x2003;" horiz-adv-x="1812" />
<glyph unicode="&#x2004;" horiz-adv-x="604" />
<glyph unicode="&#x2005;" horiz-adv-x="453" />
<glyph unicode="&#x2006;" horiz-adv-x="302" />
<glyph unicode="&#x2007;" horiz-adv-x="302" />
<glyph unicode="&#x2008;" horiz-adv-x="226" />
<glyph unicode="&#x2009;" horiz-adv-x="362" />
<glyph unicode="&#x200a;" horiz-adv-x="100" />
<glyph unicode="&#x2010;" horiz-adv-x="655" d="M70 553q0 74 108 74h299q109 0 109 -74q0 -76 -109 -76h-299q-109 0 -108 76z" />
<glyph unicode="&#x2011;" horiz-adv-x="655" d="M70 553q0 74 108 74h299q109 0 109 -74q0 -76 -109 -76h-299q-109 0 -108 76z" />
<glyph unicode="&#x2012;" horiz-adv-x="655" d="M70 553q0 74 108 74h299q109 0 109 -74q0 -76 -109 -76h-299q-109 0 -108 76z" />
<glyph unicode="&#x2013;" horiz-adv-x="1024" d="M-82 553q0 76 109 76h970q109 0 109 -76t-109 -76h-970q-109 0 -109 76z" />
<glyph unicode="&#x2014;" horiz-adv-x="2048" d="M-82 553q0 76 109 76h1994q109 0 109 -76t-109 -76h-1994q-109 0 -109 76z" />
<glyph unicode="&#x2018;" horiz-adv-x="655" d="M180 1026q0 92 66 240q76 168 153 168q37 0 37 -41q0 -8 -65.5 -115t-65.5 -158q0 -29 49 -37q72 -12 90 -22q50 -27 50 -105q0 -63 -43 -102t-107 -39q-78 0 -125 70q-39 59 -39 141z" />
<glyph unicode="&#x2019;" horiz-adv-x="655" d="M180 1294q0 63 43 101.5t107 38.5q78 0 123 -68q41 -59 41 -141q0 -88 -66 -240q-76 -170 -149 -170q-41 0 -41 43q0 8 65.5 114.5t65.5 157.5q0 29 -50 37q-72 12 -90 23q-49 29 -49 104z" />
<glyph unicode="&#x201a;" horiz-adv-x="696" d="M180 82q0 63 43 101t107 38q78 0 123 -67q41 -60 41 -142q0 -88 -66 -237q-76 -170 -149 -170q-41 0 -41 41q0 8 65.5 114.5t65.5 157.5q0 29 -50 37q-72 12 -90 22q-49 27 -49 105z" />
<glyph unicode="&#x201c;" horiz-adv-x="1064" d="M180 1026q0 92 66 240q76 168 153 168q37 0 37 -41q0 -8 -65.5 -113.5t-65.5 -159.5q0 -29 49 -37q72 -12 90 -22q50 -29 50 -107q0 -61 -42 -100t-106 -39q-80 0 -125 68q-41 59 -41 143zM567 1024q0 92 66 240q74 170 151 170q39 0 39 -43q0 -4 -66.5 -112t-66.5 -161 q0 -29 49 -37q72 -12 92 -22q50 -29 50 -105q0 -61 -43 -100t-107 -39q-78 0 -123 68q-41 59 -41 141z" />
<glyph unicode="&#x201d;" horiz-adv-x="1064" d="M180 1294q0 61 43 100.5t107 39.5q78 0 125 -70q39 -59 39 -141q0 -90 -66 -240q-76 -168 -152 -168q-39 0 -38 41q0 6 66.5 112.5t66.5 159.5q0 29 -49 37q-72 12 -93 23q-49 29 -49 106zM565 1294q0 61 43 100.5t107 39.5q78 0 125 -70q39 -59 39 -141q0 -90 -66 -240 q-76 -168 -151 -168q-39 0 -39 41q0 6 66.5 112.5t66.5 159.5q0 29 -49 37q-72 12 -93 23q-49 29 -49 106z" />
<glyph unicode="&#x201e;" horiz-adv-x="1064" d="M180 82q0 63 43 101t107 38q78 0 123 -67q41 -60 41 -142q0 -88 -66 -237q-76 -170 -149 -170q-41 0 -41 41q0 8 65.5 114.5t65.5 157.5q0 29 -50 37q-72 12 -90 22q-49 27 -49 105zM565 84q0 61 43 100t107 39q78 0 125 -67q39 -62 39 -144q0 -90 -68 -239 q-74 -168 -149 -168q-39 0 -39 41q0 8 66.5 113.5t66.5 158.5q0 29 -49 39q-74 12 -93 23q-49 29 -49 104z" />
<glyph unicode="&#x2026;" horiz-adv-x="2048" d="M209 109q0 53 39 92t94 39q53 0 92 -39t39 -92q0 -55 -39 -94.5t-92 -39.5q-55 0 -94 39t-39 95zM891 109q0 53 39 92t92 39q55 0 94 -39t39 -92q0 -55 -39 -94.5t-94 -39.5q-53 0 -92 39t-39 95zM1573 109q0 53 39 92t94 39q53 0 92 -39t39 -92q0 -55 -39 -94.5 t-92 -39.5q-55 0 -94 39t-39 95z" />
<glyph unicode="&#x202f;" horiz-adv-x="362" />
<glyph unicode="&#x2039;" horiz-adv-x="450" d="M35 555q18 43 112 197q109 178 136 178q35 0 34 -31q0 4 -20 -55l-98 -289q33 -88 67 -174q51 -139 51 -182q0 -29 -30 -29q-33 0 -142 182q-92 154 -110 203z" />
<glyph unicode="&#x203a;" horiz-adv-x="450" d="M139 199q0 43 51 182q35 86 68 174q-119 342 -119 344q0 31 35 31q25 0 135 -178q95 -154 113 -197q-29 -72 -96 -176q-55 -84 -111 -168q-25 -41 -47 -41q-29 0 -29 29z" />
<glyph unicode="&#x205f;" horiz-adv-x="453" />
<glyph unicode="&#x2122;" horiz-adv-x="1884" d="M70 1208v197h692v-197h-47q0 88 -34 118t-124 30h-84v-676q0 -45 45 -57q16 -4 84 -5v-40h-373v40q74 0 88 5q41 14 41 67v666h-84q-90 0 -123.5 -30t-33.5 -118h-47zM901 578v40q57 2 70 9q29 12 28 59v647q0 29 -28 35h-53v37h223l264 -631l270 631h230v-37 q-55 0 -62 -2q-37 -6 -37 -39v-612q0 -61 17.5 -76.5t81.5 -20.5v-40h-318v40q63 0 80 13q25 16 25 74v618h-4l-308 -745h-16l-309 745h-4v-655q0 -49 102 -50v-40h-252z" />
<glyph unicode="&#xe000;" horiz-adv-x="1044" d="M0 0v1044h1044v-1044h-1044z" />
</font>
</defs>
</svg>
