<?xml version="1.0" standalone="no"?>
<!DOCTYPE svg PUBLIC "-//W3C//DTD SVG 1.1//EN" "http://www.w3.org/Graphics/SVG/1.1/DTD/svg11.dtd" >
<svg>
<metadata>
Created by FontForge 20090914 at Mon Dec  1 14:10:10 2014
 By www-data
Generated by Fontographer 4.1.5
</metadata>
<defs>
<font id="a0611" horiz-adv-x="1024" >
  <font-face 
    font-family="00611"
    font-weight="400"
    font-stretch="normal"
    units-per-em="2048"
    panose-1="0 0 4 0 0 0 0 0 0 0"
    ascent="1638"
    descent="-410"
    x-height="861.999"
    cap-height="1384"
    bbox="-342 -483 2288 1964"
    underline-thickness="84"
    underline-position="-167"
    unicode-range="U+0020-U+F002"
  />
<missing-glyph 
d="M128 0v1964h768v-1964h-768zM256 128h512v1708h-512v-1708z" />
    <glyph glyph-name=".notdef" 
d="M128 0v1964h768v-1964h-768zM256 128h512v1708h-512v-1708z" />
    <glyph glyph-name="space" unicode=" " horiz-adv-x="541" 
 />
    <glyph glyph-name="exclam" unicode="!" horiz-adv-x="606" 
d="M289 326l-94 960.001c-2.66699 87.333 33.333 131 108 131c36 0 63.333 -11 82 -33c20.667 -24.667 29.667 -57.334 27 -98.001l-3 -52l-6 -75l-86 -833h-28zM303 -15.999c-32 0 -59.833 11.667 -83.5 35s-35.5 51 -35.5 83c0 33.333 11.5 61.5 34.5 84.5
s51.167 34.5 84.5 34.5c32.667 0 60.667 -11.667 84 -35s35 -51.333 35 -84s-11.667 -60.5 -35 -83.5s-51.333 -34.5 -84 -34.5z" />
    <glyph glyph-name="quotedbl" unicode="&#x22;" horiz-adv-x="678" 
d="M518 864h-31l-69 496c0 68 28.667 102 86 102c26 0 46.667 -8.66699 62 -26c16 -19.333 23.333 -44 22 -74l-2 -41zM190 864h-32l-68 498c-2 29.333 5.33301 54 22 74c14 17.333 34.667 26 62 26c57.333 0 86 -33.333 86 -100l-3 -34l-1 -7z" />
    <glyph glyph-name="numbersign" unicode="#" horiz-adv-x="1575" 
d="M700 868l-100 -286h289l102 286h-291zM778 1456h133l-168 -471h287l168 471h131l-166 -471h307l-40 -117h-310l-100 -286h332l-43 -115h-330l-166 -469h-133l166 469h-287l-166 -469h-131l166 469h-324l43 115h322l100 286h-348l43 117h348z" />
    <glyph glyph-name="dollar" unicode="$" horiz-adv-x="1081" 
d="M555 43c151.333 24 227 114.667 227 272c0 132.667 -75.667 244 -227 334v-606zM504 870v475.001c-60 0 -109.167 -20.667 -147.5 -62s-57.5 -92.333 -57.5 -153c0 -86.667 68.333 -173.334 205 -260.001zM555 0.000976562l0.00195312 -199.001h-51l-1 201
c-105.333 0 -196.333 30.667 -273 92c-70 56 -105 125.667 -105 209c0 42 8.33301 78.667 25 110c20.667 40 50 60 88 60c25.333 0 46.666 -9.33301 63.999 -28s26 -40.667 26 -66c0 -22 -10.667 -52 -32 -90s-32 -66.667 -32 -86c0 -44 21.667 -81 65 -111
c50.667 -35.333 108.667 -53 174 -53l1 639c-106 58 -182 108 -228 150c-76 70 -114 148.333 -114 235c0 90 31 164.333 93 223c68.667 65.333 151.667 98 249 98v91h51v-90c91.333 0 169.333 -25.667 234 -77c56.667 -44.667 85 -101.667 85 -171
c0 -75.333 -31.333 -113 -94 -113c-56 0 -84 26.667 -84 80c0 14 5.5 35 16.5 63s16.5 49.333 16.5 64c0 50.667 -33.667 85.667 -101 105c-22.667 6 -47 9 -73 9v-505c115.333 -65.333 198.666 -124.333 249.999 -177c78 -79.333 117 -170 117 -272
c0 -113.333 -32.833 -204.166 -98.5 -272.499s-155.167 -107.833 -268.5 -118.5z" />
    <glyph glyph-name="percent" unicode="%" horiz-adv-x="1622" 
d="M1243 -35c-97.333 0 -175.667 50.667 -235 152c-50.667 85.333 -76 180 -76 284c0 102.667 25.667 197 77 283c59.333 101.333 137.333 152 234 152s174.667 -50.667 234 -152c50 -85.333 75 -179.666 75 -282.999c0 -104.667 -25 -199.334 -75 -284.001
c-58.667 -101.333 -136.667 -152 -234 -152zM376.999 549c-96.667 0 -174.668 50.335 -234.001 151.002c-50 85.333 -75 179.666 -75 282.999s25 197.666 75 282.999c59.333 100.667 137.333 151 234 151s174.667 -50.333 234 -151c50 -85.333 75 -179.666 75 -282.999
c0 -104.667 -24.667 -199.334 -74 -284.001c-59.333 -100 -137.666 -150 -234.999 -150zM1241 6.00195c61.333 0 105 54.334 131 163.001c15.333 65.333 23 142.666 23 231.999c0 262.667 -51.333 394 -154 394c-61.333 0 -105 -54.333 -131 -163
c-15.333 -65.333 -23 -142.333 -23 -231c0 -263.333 51.333 -395 154 -395zM376.998 588.003c48 0 85.667 34 113 102c26.667 66 40 163.667 40 293c0 263.333 -51 395 -153 395c-101.333 0 -152 -131.667 -152 -395s50.667 -395 152 -395zM294.998 -34.9971l944 1452h84
l-942 -1452h-86z" />
    <glyph glyph-name="ampersand" unicode="&#x26;" horiz-adv-x="1489" 
d="M874 203c-114.667 -157.333 -243.668 -236.001 -387.001 -236.001c-108 0 -198.5 35 -271.5 105s-109.5 158.667 -109.5 266c0 178.667 104.667 329.667 314 453c-104 149.333 -156 266 -156 350c0 80.667 29 147.334 87 200.001c55.333 50.667 124 76 206 76
c76.667 0 144.334 -20 203.001 -60c65.333 -45.333 98 -105 98 -179c0 -68 -29.333 -131.333 -88 -190c-34 -34.667 -92 -78 -174 -130l160 -211l184 -233c58.667 94 96.334 174.667 113.001 242c5.33301 21.333 8 40.333 8 57c0 39.333 -12 69.333 -36 90s-59 31 -105 31
v28h391v-28c-80 0 -160.333 -85.333 -241 -256c-41.333 -86.667 -75 -153 -101 -199c100 -122 176.667 -205.5 230 -250.5s99.333 -67.5 138 -67.5c65.333 0 103.666 37 114.999 111l25 -6c-5.33301 -61.333 -30.666 -110.333 -75.999 -147
c-42.667 -34.667 -95.334 -52 -158.001 -52c-107.333 0 -230.333 78.667 -369 236zM570.999 888.999c109.333 72.667 164 166.667 164 282c0 60 -15 109 -45 147c-33.333 41.333 -79 62 -137 62c-46 0 -83.5 -14.333 -112.5 -43s-43.5 -66 -43.5 -112
c0 -69.333 58 -181.333 174 -336zM851.999 230.999l-78 94l-74 92l-71 90l-187 253c-98 -60 -147 -163 -147 -309c0 -94 24.667 -180 74 -258c56.667 -89.333 129.667 -134 219 -134c91.333 0 179.333 57.333 264 172z" />
    <glyph glyph-name="quotesingle" unicode="'" horiz-adv-x="348" 
d="M190 864h-32l-66 457c0 6.66699 -0.666992 12 -2 16v23c0 68 28 102 84 102c57.333 0 86 -33.333 86 -100l-3 -34l-1 -7z" />
    <glyph glyph-name="parenleft" unicode="(" horiz-adv-x="729" 
d="M643 -309c-141.333 103.333 -250.332 229.667 -326.999 379s-115 311 -115 485s38.667 335.667 116 485c76 147.333 184.667 273 326 377l23 -26c-194 -186 -291 -464.667 -291 -836c0 -182.667 24.667 -344.5 74 -485.5s121.666 -257.833 216.999 -350.5z" />
    <glyph glyph-name="parenright" unicode=")" horiz-adv-x="729" 
d="M90 1417c141.333 -103.333 250 -229.001 326 -377.001c77.333 -150 116 -311.667 116 -485c0 -174 -38.333 -335.5 -115 -484.5s-185.667 -275.5 -327 -379.5l-22 28c193.333 186.667 290 465.334 290 836.001c0 180 -24.5 341.333 -73.5 484s-121.167 260 -216.5 352z
" />
    <glyph glyph-name="asterisk" unicode="*" horiz-adv-x="948" 
d="M489 975l0.00292969 -21.0029c0 -49.333 12.667 -102.666 38 -159.999s38 -97.333 38 -120c0 -58.667 -30 -88 -90 -88c-29.333 0 -52 7.66699 -68 23s-24 37 -24 65c0 18.667 12.333 58.834 37 120.501s37 113.5 37 155.5v27c-24 -12.667 -70.667 -56.667 -140 -132
c-60 -64.667 -103.667 -97 -131 -97c-24 0 -44.667 8.66699 -62 26s-26 39.333 -26 66c0 47.333 28.667 79 86 95c24 1.33301 60.667 5 110 11c17.333 2 38.333 6.66699 63 14c33.333 10 61 24.667 83 44c-56.667 39.333 -122.334 59 -197.001 59h-13
c-6 0 -11.667 0.666992 -17 2c-28.667 0 -55 9.66699 -79 29s-36 43 -36 71c0 24.667 8.5 46.167 25.5 64.5s37.833 27.5 62.5 27.5c26.667 0 69.334 -32 128.001 -96c67.333 -74 115.666 -118.333 144.999 -133v21c0 42.667 -12.667 95.667 -38 159s-38 103 -38 119
c0 60 30 90 90 90c61.333 0 92 -29.333 92 -88c0 -19.333 -12.167 -60 -36.5 -122s-36.5 -114 -36.5 -156v-25c22.667 12.667 69 57.334 139 134.001c59.333 64.667 103.666 97 132.999 97c21.333 0 41 -9.66699 59 -29s27 -40.333 27 -63c0 -24.667 -10 -46 -30 -64
c-23.333 -21.333 -48 -32.666 -74 -33.999l-16 -1c-100 -6 -174 -28.333 -222 -67c52 -31.333 119.333 -51 202 -59c12 0 20.333 -0.666992 25 -2c32.667 -2.66699 60 -13.834 82 -33.501s33 -43.167 33 -70.5c0 -23.333 -9.5 -44 -28.5 -62s-40.167 -27 -63.5 -27
c-24.667 0 -66.334 32.333 -125.001 97c-67.333 74 -115.333 118.333 -144 133z" />
    <glyph glyph-name="plus" unicode="+" horiz-adv-x="1706" 
d="M795 1221h118v-551h539v-117h-539v-553h-118v553h-541v117h541v551z" />
    <glyph glyph-name="comma" unicode="," horiz-adv-x="541" 
d="M301 4c-12.667 -6 -23.333 -10 -32 -12l-29 -4c-29.333 0 -53.5 9.83301 -72.5 29.5s-28.5 45.834 -28.5 78.501c0 34 11.333 63.333 34 88s51 37 85 37c43.333 0 77 -18.667 101 -56c21.333 -32 32 -70.667 32 -116c0 -154.667 -86.667 -275.334 -260 -362.001l-12 24
c85.333 56 142 126.333 170 211c8 26 12 53.333 12 82z" />
    <glyph glyph-name="hyphen" unicode="-" horiz-adv-x="639" 
d="M70 383v119h499v-119h-499z" />
    <glyph glyph-name="hyphen" unicode="&#x2010;" horiz-adv-x="639" 
d="M70 383v119h499v-119h-499z" />
    <glyph glyph-name="period" unicode="." horiz-adv-x="541" 
d="M270 -16c-31.333 0 -58.833 11.833 -82.5 35.5s-35.5 51.167 -35.5 82.5c0 33.333 11.333 61.5 34 84.5s50.667 34.5 84 34.5c32.667 0 60.667 -11.667 84 -35s35 -51.333 35 -84s-11.667 -60.5 -35 -83.5s-51.333 -34.5 -84 -34.5z" />
    <glyph glyph-name="slash" unicode="/" horiz-adv-x="664" 
d="M590 1417h94l-682 -1607h-94z" />
    <glyph glyph-name="zero" unicode="0" horiz-adv-x="1081" 
d="M541 -33c-84 0 -166 47.333 -246 142c-66 78 -116.667 167 -152 267s-53 205.333 -53 316c0 223.333 68.333 417.333 205 582c56.667 68.667 118 113 184 133c21.333 6.66699 42 10 62 10c82.667 0 163.667 -47 243 -141c136.667 -162 205 -356.667 205 -584
c0 -223.333 -68.333 -417 -205 -581c-80 -96 -161 -144 -243 -144zM541 4c81.333 0 144.332 59.833 188.999 179.5s67 289.167 67 508.5c0 158 -12 292 -36 402c-41.333 190.667 -114.666 286 -219.999 286s-178.666 -95.333 -219.999 -286c-24 -110 -36 -244 -36 -402
c0 -158.667 12 -292.667 36 -402c41.333 -190.667 114.666 -286 219.999 -286z" />
    <glyph glyph-name="one" unicode="1" horiz-adv-x="1081" 
d="M469 1249h-208.998l1 29c85.333 0 161.666 12 228.999 36c55.333 19.333 97.333 49 126 89h23l-6 -67l-2 -103v-930c0 -109.333 12.667 -181.333 38 -216c28.667 -39.333 74.667 -59 138 -59v-28h-516v28c63.333 0 109.666 20 138.999 60c26 35.333 39 107 39 215v946z
" />
    <glyph glyph-name="two" unicode="2" horiz-adv-x="1081" 
d="M47 0l-0.000976562 33.001c192.667 185.333 336.334 338.666 431.001 459.999c166 214 249 400.667 249 560c0 95.333 -21.333 172 -64 230c-48 64.667 -118 97 -210 97c-78 0 -140.167 -25.5 -186.5 -76.5s-69.5 -116.167 -69.5 -195.5c0 -80 22.333 -146 67 -198
c48.667 -58 106 -84.333 172 -79l12 1l13 2l2 -11c-44 -30 -89.667 -45 -137 -45c-72 0 -130 27.333 -174 82c-40 50.667 -60 113 -60 187c0 112.667 37 203.334 111 272.001c72 66.667 164.667 100 278 100c122.667 0 224.334 -39 305.001 -117s121 -178.333 121 -301
c0 -148 -84 -310.667 -252 -488c-76.667 -81.333 -219.334 -205.333 -428.001 -372h359c96.667 0 164 13.167 202 39.5s73 84.166 105 173.499h25l-76 -354h-795z" />
    <glyph glyph-name="three" unicode="3" horiz-adv-x="1081" 
d="M586 745c228 -28 341.994 -145.997 341.994 -353.997c0 -125.333 -48.333 -228.333 -145 -309c-91.333 -76.667 -200.666 -115 -327.999 -115c-97.333 0 -182.666 24.333 -255.999 73c-84.667 55.333 -127 129.333 -127 222c0 60 20.333 109.167 61 147.5
s91.334 57.5 152.001 57.5h4l6 -8c-66.667 -54.667 -100 -120.334 -100 -197.001s25.833 -138.834 77.5 -186.501s115.834 -71.5 192.501 -71.5c182.667 0 274 116.667 274 350c0 76 -12 148.333 -36 217c-32.667 94.667 -80 142 -142 142c-14 0 -41.5 -12.667 -82.5 -38
s-74.833 -38 -101.5 -38c-49.333 0 -74 21.667 -74 65c0 31.333 18.333 54 55 68c10.667 4 22.334 6 35.001 6c4.66699 0 26.334 -2.33301 65.001 -7l58 -7c66.667 0 118 33.667 154 101c30 54.667 45 118 45 190c0 89.333 -19.667 163.666 -59 222.999
c-45.333 69.333 -110.333 104 -195 104c-55.333 0 -99.5 -16.833 -132.5 -50.5s-49.5 -78.167 -49.5 -133.5c0 -39.333 9.33301 -75.333 28 -108c22.667 -38.667 52 -58 88 -58l2 -10l-44 -14l-34 -5c-107.333 0 -161 53.333 -161 160c0 80.667 36 145 108 193
c62.667 42 136.334 63 221.001 63c113.333 0 206.666 -30 279.999 -90c80 -64 120 -151.333 120 -262c0 -167.333 -100.333 -274 -301 -320z" />
    <glyph glyph-name="four" unicode="4" horiz-adv-x="1081" 
d="M582 381v764l-461 -764h461zM741 381l20.999 -0.000976562c56 0 95.333 17.667 118 53c15.333 24 27 68.333 35 133h29v-413h-29c-7.33301 64.667 -19.666 109.667 -36.999 135c-23.333 34 -64 51 -122 51h-15v-37c0 -108 13 -180 39 -216c28 -38.667 73.667 -58 137 -58
l1 -29h-515l1 29c63.333 0 109.333 19.667 138 59c26.667 36.667 40 108.334 40 215.001v37h-512v41l628 1036h43v-1036z" />
    <glyph glyph-name="five" unicode="5" horiz-adv-x="1081" 
d="M252 641l162.001 762.001c66 -26 135.667 -39 209 -39c103.333 0 190 21 260 63c0 -69.333 -27.333 -122.333 -82 -159c-46.667 -31.333 -106 -47 -178 -47c-60 0 -125 10.667 -195 32l-104 -471c50.667 68.667 123.667 103 219 103c109.333 0 198.333 -40 267 -120
c66 -76 99 -169.333 99 -280c0 -142.667 -48.333 -264.667 -145 -366s-216 -152 -358 -152c-87.333 0 -166.333 21.333 -237 64c-82.667 50 -124 116 -124 198c0 68.667 28 103 84 103c64 0 94.667 -34.333 92 -103l-2 -61c-2 -55.333 12.333 -97 43 -125
c28 -26 73 -39 135 -39c114 0 200.667 57.667 260 173c46.667 91.333 70 199.666 70 324.999c0 86.667 -13.667 160 -41 220c-36.667 80 -93.334 120 -170.001 120c-104 0 -177.667 -69 -221 -207z" />
    <glyph glyph-name="six" unicode="6" horiz-adv-x="1081" 
d="M559 2c89.333 0 154.666 52.002 195.999 156.002c29.333 73.333 44 162.666 44 267.999c0 107.333 -17 201.666 -51 282.999c-45.333 110 -114.333 165 -207 165c-88.667 0 -153.667 -51 -195 -153c-30 -74 -45 -162.667 -45 -266c0 -138 23.833 -248 71.5 -330
s109.834 -123 186.501 -123zM305 762.002c74 99.333 167.667 148.999 281 148.999c123.333 0 220.666 -46.333 291.999 -139c66 -84.667 99 -190.334 99 -317.001c0 -134 -36.333 -247 -109 -339c-79.333 -99.333 -184.333 -149 -315 -149
c-145.333 0 -257.666 67.333 -336.999 202c-66 112 -99 246 -99 402c0 126.667 19.667 248.334 59 365.001c72 214 182.333 358.667 331 434c62.667 31.333 127.667 47 195 47c55.333 0 104.666 -9.66699 147.999 -29c56 -25.333 84 -62.666 84 -111.999
c0 -54.667 -26.667 -82 -80 -82c-50 0 -81.333 33.333 -94 100c-10 54.667 -45 82 -105 82c-103.333 0 -188.666 -81 -255.999 -243c-44 -105.333 -75.333 -229 -94 -371z" />
    <glyph glyph-name="seven" unicode="7" horiz-adv-x="1081" 
d="M899 1241h-317c-106 0 -184.667 -11 -236 -33c-68.667 -30 -119.667 -87.333 -153 -172h-29l98 400h35c0 -18.667 5 -32 15 -40s33 -12 69 -12h608v-14l-510 -1260c-39.333 -96.667 -84.333 -145 -135 -145c-24.667 0 -45.167 8.16699 -61.5 24.5
s-24.5 36.833 -24.5 61.5c0 23.333 16.333 64.333 49 123l10 18z" />
    <glyph glyph-name="eight" unicode="8" horiz-adv-x="1081" 
d="M621 786c102 87.333 153 194 153 320c0 80 -19.333 144.333 -58 193c-42 54 -101.667 81 -179 81c-70.667 0 -126.334 -25.333 -167.001 -76c-38 -46.667 -57 -106 -57 -178c0 -82.667 33 -153.667 99 -213c40.667 -36.667 110.334 -79 209.001 -127zM459 680
c-132.667 -74 -199.001 -185.333 -199.001 -334c0 -95.333 23.333 -174.333 70 -237c52.667 -70 125 -105 217 -105c79.333 0 143.333 28 192 84c46.667 53.333 70 120.333 70 201c0 94 -37.333 175.333 -112 244c-47.333 43.333 -126.666 92.333 -237.999 147zM419.999 702
c-172 93.333 -258 213 -258 359c0 105.333 36.667 191.666 110 258.999c71.333 64.667 160.333 97 267 97s195 -27 265 -81c77.333 -59.333 116 -140.666 116 -243.999c0 -63.333 -18.333 -119.333 -55 -168s-104.334 -102.667 -203.001 -162
c202 -102.667 303 -235 303 -397c0 -121.333 -42.333 -219 -127 -293c-81.333 -71.333 -183.333 -107 -306 -107c-113.333 0 -210.666 33.333 -291.999 100c-87.333 71.333 -131 162.333 -131 273c0 172 103.667 293.333 311 364z" />
    <glyph glyph-name="nine" unicode="9" horiz-adv-x="1081" 
d="M514 1382c-89.333 0 -154.666 -52 -195.999 -156c-29.333 -74 -44 -163.333 -44 -268c0 -106.667 17 -201 51 -283c46 -111.333 115 -167 207 -167c89.333 0 154.666 51.667 195.999 155c29.333 73.333 44 162.333 44 267c0 108 -16.667 203 -50 285
c-46 111.333 -115.333 167 -208 167zM772 623c-56.667 -74 -122.668 -120.666 -198.001 -139.999c-26.667 -6.66699 -54 -10 -82 -10c-123.333 0 -221 46.333 -293 139c-66 85.333 -99 191.333 -99 318c0 129.333 35.667 240.666 107 333.999c78 102 179.667 153 305 153
c150.667 0 266.334 -65.667 347.001 -197c68 -110.667 102 -246.334 102 -407.001c0 -266 -74 -486.333 -222 -661c-104 -123.333 -229.667 -185 -377 -185c-54 0 -101.333 10.333 -142 31c-51.333 26.667 -77 64.334 -77 113.001c0 52.667 26 79 78 79
c43.333 0 74 -31 92 -93c9.33301 -33.333 20.333 -56 33 -68c14.667 -14 38 -21 70 -21c106.667 0 193.667 80.333 261 241c44 104 75.667 228.667 95 374z" />
    <glyph glyph-name="colon" unicode=":" horiz-adv-x="598" 
d="M299 -16c-32 0 -60.167 11.667 -84.5 35s-36.5 51 -36.5 83c0 32.667 12 61 36 85s52.333 36 85 36s60.667 -12 84 -36s35 -52.333 35 -85s-11.667 -60.5 -35 -83.5s-51.333 -34.5 -84 -34.5zM299 653c-31.333 0 -59.333 12 -84 36s-37 51.667 -37 83
c0 32 12.167 59.833 36.5 83.5s52.5 35.5 84.5 35.5c32.667 0 60.667 -11.667 84 -35s35 -51.333 35 -84c0 -32 -11.833 -59.833 -35.5 -83.5s-51.5 -35.5 -83.5 -35.5z" />
    <glyph glyph-name="semicolon" unicode=";" horiz-adv-x="598" 
d="M332 4c-14 -6.66699 -25.001 -10.668 -33.001 -12.001l-29 -4c-28.667 0 -52.5 9.83301 -71.5 29.5s-28.5 45.834 -28.5 78.501c0 34 11.333 63.333 34 88s51 37 85 37c42.667 0 76.334 -18.667 101.001 -56c21.333 -32.667 32 -71.334 32 -116.001
c0 -155.333 -87.333 -276 -262 -362l-13 24c123.333 82.667 185 180.334 185 293.001zM294.999 652.999c-31.333 0 -59.333 12 -84 36s-37 51.667 -37 83c0 32.667 12 60.667 36 84s52.333 35 85 35s60.667 -11.667 84 -35s35 -51.333 35 -84
c0 -32 -11.833 -59.833 -35.5 -83.5s-51.5 -35.5 -83.5 -35.5z" />
    <glyph glyph-name="less" unicode="&#x3c;" horiz-adv-x="1706" 
d="M1442 1145v-127l-1000 -408l1000 -405v-129l-1178 483v103z" />
    <glyph glyph-name="equal" unicode="=" horiz-adv-x="1706" 
d="M254 477h1198v-117h-1198v117zM254 860h1198v-117h-1198v117z" />
    <glyph glyph-name="greater" unicode="&#x3e;" horiz-adv-x="1706" 
d="M264 1145l1178 -483v-103l-1178 -483v129l1000 405l-1000 408v127z" />
    <glyph glyph-name="question" unicode="?" horiz-adv-x="995" 
d="M293 326l-0.000976562 526h44c0 -68 18 -124.333 54 -169c33.333 -41.333 77 -62 131 -62c112 0 168 108.333 168 325c0 104.667 -14.333 195 -43 271c-40.667 107.333 -104.667 161 -192 161c-54 0 -88.333 -29.333 -103 -88
c-11.333 -45.333 -20.666 -74.666 -27.999 -87.999c-15.333 -28.667 -39.333 -43 -72 -43c-24.667 0 -44.167 6.83301 -58.5 20.5s-21.5 30.167 -21.5 49.5c0 64 29.667 113 89 147c48.667 27.333 107.667 41 177 41c130.667 0 237.5 -44.833 320.5 -134.5
s124.5 -205.167 124.5 -346.5c0 -100.667 -28 -185.334 -84 -254.001c-60 -74 -139.333 -111 -238 -111c-82 0 -156.333 37 -223 111v-356h-45zM314.999 -16c-31.333 0 -58.833 11.833 -82.5 35.5s-35.5 51.167 -35.5 82.5c0 33.333 11.333 61.5 34 84.5
s50.667 34.5 84 34.5s61.833 -11.5 85.5 -34.5s35.5 -51.167 35.5 -84.5c0 -32.667 -12 -60.5 -36 -83.5s-52.333 -34.5 -85 -34.5z" />
    <glyph glyph-name="at" unicode="@" horiz-adv-x="2019" 
d="M1190 336c-82 -140.667 -185.001 -210.999 -309.001 -210.999c-90 0 -160 34.667 -210 104c-44.667 61.333 -67 138.666 -67 231.999c0 152.667 62.333 289 187 409c94.667 90.667 194.334 136 299.001 136c118 0 191.667 -65 221 -195l53 180h143l-171 -615
c-11.333 -56.667 -17 -91.334 -17 -104.001c0 -68 31.333 -102 94 -102c50 0 104.667 22 164 66c168 125.333 252 307.333 252 546c0 183.333 -67.667 335 -203 455c-56 50 -127.167 90.167 -213.5 120.5s-176.166 45.5 -269.499 45.5c-250 0 -455.667 -78 -617 -234
c-130 -126 -212.333 -282.333 -247 -469c-11.333 -61.333 -17 -126 -17 -194c0 -226 79.333 -405.667 238 -539c76 -64 162.833 -112.667 260.5 -146s204.5 -50 320.5 -50c219.333 0 423.666 68.667 612.999 206l30 -36c-198 -148 -416.333 -222 -655 -222
c-248.667 0 -454 61.667 -616 185c-205.333 156.667 -308 367.667 -308 633c0 276.667 112 508 336 694c132 109.333 284 178.333 456 207c56 9.33301 115.667 14 179 14c222.667 0 402.667 -58 540 -174c146.667 -123.333 220 -294 220 -512
c0 -222 -73.667 -399.667 -221 -533c-37.333 -33.333 -78.166 -59.666 -122.499 -78.999s-89.5 -29 -135.5 -29c-96.667 0 -160.334 40 -191.001 120c-10.667 26 -16 56.333 -16 91zM1098 965.001c-68.667 0 -132.335 -43.667 -191.002 -131
c-104.667 -156 -157 -309 -157 -459c0 -54.667 11 -100 33 -136c26 -43.333 64.667 -65 116 -65c86.667 0 167.334 59.667 242.001 179c83.333 134.667 125 267.667 125 399c0 56 -13.667 104 -41 144c-31.333 46 -73.666 69 -126.999 69z" />
    <glyph glyph-name="A" unicode="A" horiz-adv-x="1356" 
d="M362 596h439l-217 547zM346 549l-43.001 -103.002c-34.667 -83.333 -57.667 -156.666 -69 -219.999c-3.33301 -19.333 -5 -36.666 -5 -51.999c0 -80.667 59.667 -129 179 -145v-29h-447v29c86 0 194.667 162 326 486l366 902h39l447 -1088
c82.667 -200 164.334 -300 245.001 -300v-29h-583v28c51.333 0 93 10.667 125 32c27.333 18 41 44.333 41 79c0 24.667 -17.333 82 -52 172l-92 238h-477z" />
    <glyph glyph-name="B" unicode="B" horiz-adv-x="1389" 
d="M502 715v-328c0 -126 6.33301 -206.333 19 -241c26 -68.667 88.667 -103 188 -103c234.667 0 352 112 352 336s-142.667 336 -428 336h-131zM86 0v28.998h16c68.667 0 118 29 148 87c22.667 44 35.334 107.333 38.001 190c-2 -66 -3 -3.33301 -3 188v397
c0 194.667 1 257.334 3 188.001c-2.66699 82.667 -15.334 146 -38.001 190c-30 58 -79.333 87 -148 87h-16v28h602c325.333 0 488 -103.667 488 -311c0 -160.667 -102.667 -263.667 -308 -309c288 -40 432 -171 432 -393c0 -69.333 -16.333 -132 -49 -188
c-34.667 -59.333 -82.334 -102.666 -143.001 -129.999c-39.333 -18 -85.666 -31.667 -138.999 -41c-45.333 -8 -130 -12 -254 -12h-629zM502 1341v-582.999h78c115.333 0 201 17.333 257 52c70 43.333 105 118.666 105 225.999c0 203.333 -112.667 305 -338 305h-102z" />
    <glyph glyph-name="C" unicode="C" horiz-adv-x="1419" 
d="M1313 406c0 -128.667 -52.332 -235.668 -156.999 -321.001c-96 -78.667 -222 -118 -378 -118c-208.667 0 -373.5 61.5 -494.5 184.5s-181.5 288.833 -181.5 497.5c0 221.333 62.667 403 188 545c130.667 148.667 305 223 523 223c56.667 0 131 -14 223 -42
s148.667 -42 170 -42c24 0 44 15.667 60 47h30l11 -440h-27c-33.333 123.333 -83 222.333 -149 297c-80 91.333 -177 137 -291 137c-166.667 0 -293.334 -79.333 -380.001 -238c-69.333 -128 -104 -282.667 -104 -464c0 -177.333 37 -322.666 111 -435.999
c87.333 -132.667 215 -199 383 -199c118 0 215 32 291 96c79.333 66 124.333 157 135 273h37z" />
    <glyph glyph-name="D" unicode="D" horiz-adv-x="1565" 
d="M86 0v29.001h16c68.667 0 118 29 148 87c22.667 44 35.334 107.333 38.001 190c-2 -66 -3 -3.33301 -3 188v397c0 194.667 1 257.334 3 188.001c-2.66699 82.667 -15.334 146 -38.001 190c-30 58 -79.333 87 -148 87h-16v28h584c240 0 416 -38 528 -114
c90 -60.667 159.333 -145.334 208 -254.001c46 -100.667 69 -208.667 69 -324c0 -114.667 -22.333 -221.667 -67 -321c-48 -106.667 -116 -191.334 -204 -254.001c-110 -78 -288 -117 -534 -117h-584zM502 1341l0.000976562 -954c0 -122.667 6.33301 -201.667 19 -237
c25.333 -71.333 85.666 -107 180.999 -107c167.333 0 298.333 68.667 393 206c82.667 120 124 267.667 124 443c0 194.667 -47 349 -141 463c-101.333 124 -247 186 -437 186h-139z" />
    <glyph glyph-name="E" unicode="E" horiz-adv-x="1356" 
d="M86 0l-0.00292969 28.998h16c68.667 0 118 29 148 87c22.667 44 35.334 107.333 38.001 190c-2 -66 -3 -3.33301 -3 188v397c0 194.667 1 257.334 3 188.001c-2.66699 82.667 -15.334 146 -38.001 190c-30 58 -79.333 87 -148 87h-16v28h1061l14 -331h-26
c-23.333 114 -73.333 192.333 -150 235c-61.333 35.333 -155.666 53 -282.999 53h-200v-587c126.667 0 214.334 18.167 263.001 54.5s73 98.5 73 186.5h28v-546h-28c0 96 -26.667 165.333 -80 208c-49.333 40 -134.666 60 -255.999 60v-299
c0 -158.667 11.333 -256.667 34 -294c33.333 -55.333 120.333 -83 261 -83c136.667 0 241 29 313 87c75.333 60.667 122.333 157.334 141 290.001h29l-14 -418h-1180z" />
    <glyph glyph-name="F" unicode="F" horiz-adv-x="1143" 
d="M502 537c0 -206.667 -1.00098 -280.332 -3.00098 -220.999c2.66699 -88.667 18.334 -155.334 47.001 -200.001c36.667 -58 97 -87 181 -87h16v-29h-657v29h16c68.667 0 118 29 148 87c22.667 44 35.334 107.333 38.001 190c-2 -66 -3 -3.33301 -3 188v397
c0 194.667 1 257.334 3 188.001c-2.66699 82.667 -15.334 146 -38.001 190c-30 58 -79.333 87 -148 87h-16v28h1038l15 -331h-29c-24 113.333 -73.667 191.666 -149 234.999c-62 35.333 -156.333 53 -283 53h-176v-587c115.333 0 196.333 18.333 243 55s70 98.667 70 186h29
v-546h-29c0 93.333 -24.5 161.333 -73.5 204s-128.833 64 -239.5 64v-180z" />
    <glyph glyph-name="G" unicode="G" horiz-adv-x="1546" 
d="M1337 104l-65.002 7c-183.333 -96 -350.666 -144 -501.999 -144c-208 0 -372 65 -492 195c-117.333 126.667 -176 294.667 -176 504c0 215.333 64.333 393.333 193 534c132 144.667 304.667 217 518 217c56.667 0 131 -14 223 -42s148.667 -42 170 -42
c24 0 44 15.667 60 47h30l11 -440h-27c-33.333 123.333 -83 222.333 -149 297c-80 91.333 -177 137 -291 137c-170 0 -297.667 -82.333 -383 -247c-67.333 -129.333 -101 -287.333 -101 -474c0 -170 35 -313.667 105 -431c84.667 -141.333 206.667 -212 366 -212
c92.667 0 166.834 25.833 222.501 77.5s83.5 123.5 83.5 215.5c0 70 -16.333 120.333 -49 151c-36 33.333 -91.333 50 -166 50v26h616v-26c-79.333 0 -134.333 -16 -165 -48c-26.667 -28 -38.667 -91.333 -36 -190z" />
    <glyph glyph-name="H" unicode="H" horiz-adv-x="1698" 
d="M1194 696l-691.999 0.00195312v-182c0 -230.667 -1 -296.334 -3 -197.001c2 -86.667 14.333 -152.667 37 -198c30 -60 80 -90 150 -90h16v-29h-616v29h16c68.667 0 118 29 148 87c22.667 44 35.334 107.333 38.001 190c-2 -66 -3 -3.33301 -3 188v397
c0 194.667 1 257.334 3 188.001c-2.66699 82.667 -15.334 146 -38.001 190c-30 58 -79.333 87 -148 87h-16v28h616v-28h-16c-69.333 0 -119.333 -30.667 -150 -92c-22.667 -46.667 -35 -113.334 -37 -200.001c2 93.333 3 28.666 3 -194.001v-127h692v148
c0 194.667 1 257 3 187c-2.66699 83.333 -15.334 147 -38.001 191c-30 58 -79 87 -147 87h-17v28h617v-28h-17c-68 0 -117 -29 -147 -87c-22.667 -44 -35.334 -107.667 -38.001 -191c2 58.667 3 -3.66602 3 -186.999v-397c0 -198 -1 -260.667 -3 -188
c2 -82.667 14.333 -146 37 -190c30 -58 79.333 -87 148 -87h17v-29h-617v29h17c68 0 117 29 147 87c22.667 44 35.334 107.667 38.001 191c-2 -66.667 -3 -4.33398 -3 186.999v202z" />
    <glyph glyph-name="I" unicode="I" horiz-adv-x="807" 
d="M717 1384v-27.999h-17c-69.333 0 -119.333 -30.667 -150 -92c-22.667 -46.667 -35 -113.334 -37 -200.001c2 93.333 3 28.666 3 -194.001v-356c0 -236 -1.33301 -301 -4 -195c2 -86.667 14.667 -153 38 -199c30 -60.667 80 -91 150 -91h17v-29h-627v29h16
c68.667 0 118 29 148 87c22.667 44 35.334 107.333 38.001 190c-2 -66 -3 -3.33301 -3 188v397c0 194.667 1 257.334 3 188.001c-2.66699 82.667 -15.334 146 -38.001 190c-30 58 -79.333 87 -148 87h-16v28h627z" />
    <glyph glyph-name="J" unicode="J" horiz-adv-x="729" 
d="M270 891c0 198 1.00098 260.667 3.00098 188c-2 82.667 -14.333 146 -37 190c-30 58 -79.333 87 -148 87h-16v28h616v-28h-16c-70 0 -120.333 -30.667 -151 -92c-22.667 -46 -35 -112.667 -37 -200c2 94 3 29.333 3 -194v-858c0 -127.333 -31 -217.333 -93 -270
c-57.333 -48 -151 -72 -281 -72c-74 0 -138.667 12.667 -194 38c-72.667 32.667 -109 81.667 -109 147c0 62.667 30.667 94 92 94c26 0 47.333 -7.66699 64 -23c13.333 -12 26 -35.667 38 -71l1 -3c30.667 -92.667 76.667 -139 138 -139c59.333 0 97.666 27.667 114.999 83
c8 27.333 12 80.333 12 159v936z" />
    <glyph glyph-name="K" unicode="K" horiz-adv-x="1421" 
d="M502 514c0 -230.667 -1.00293 -296.33 -3.00293 -196.997c2 -86.667 14.333 -152.667 37 -198c30 -60 80 -90 150 -90h16v-29h-616v29h16c68.667 0 118 29 148 87c22.667 44 35.334 107.333 38.001 190c-2 -66 -3 -3.33301 -3 188v397c0 194.667 1 257.334 3 188.001
c-2.66699 82.667 -15.334 146 -38.001 190c-30 58 -79.333 87 -148 87h-16v28h616v-28h-16c-69.333 0 -119.333 -30.667 -150 -92c-22.667 -46.667 -35 -113.334 -37 -200.001c2 93.333 3 28.666 3 -194.001v-178l31 29c352 329.333 528 517.666 528 564.999
c0 46.667 -36.333 70 -109 70h-24v28h424v-28c-64.667 0 -200.667 -100 -408 -300l-29 -28l-153 -149l424 -596c120.667 -169.333 218.334 -254 293.001 -254v-29h-627v28c46.667 0 85.334 8.66699 116.001 26c25.333 14.667 38 35.667 38 63
c0 15.333 -4.66699 33.666 -14 54.999c-9.33301 19.333 -22.666 41.333 -39.999 66l-352 495l-98 -92v-127z" />
    <glyph glyph-name="L" unicode="L" horiz-adv-x="1298" 
d="M502 418c0 -150.667 11.666 -246.332 34.999 -286.999c34.667 -60 118.334 -90 251.001 -90c140 0 246.333 28 319 84c75.333 59.333 123.333 157 144 293h29l-14 -418h-1180v29h16c68.667 0 118 29 148 87c22.667 44 35.334 107.333 38.001 190
c-2 -66 -3 -3.33301 -3 188v397c0 194.667 1 257.334 3 188.001c-2.66699 82.667 -15.334 146 -38.001 190c-30 58 -79.333 87 -148 87h-16v28h616v-28h-16c-69.333 0 -119.333 -30.667 -150 -92c-22.667 -46.667 -35 -113.334 -37 -200.001c2 93.333 3 28.666 3 -194.001
v-452z" />
    <glyph glyph-name="M" unicode="M" horiz-adv-x="1872" 
d="M317 1253v-856c0 -145.333 17.333 -243 52 -293s96.667 -75 186 -75v-29h-516v29c88 0 149.667 25 185 75c33.333 47.333 50 145 50 293v451c0 32.667 -1 82 -3 148s-3 115.333 -3 148c0 62.667 -6 111.334 -18 146.001c-11.333 32 -45.333 52.667 -102 62
c-19.333 2.66699 -43.333 4 -72 4v28h418l444 -1089l446 1089h404v-28c-52.667 0 -94 -5.66699 -124 -17c-26 -10 -42.667 -25.667 -50 -47c-13.333 -40.667 -20 -93.334 -20 -158.001c0 -32 -1.16699 -79.667 -3.5 -143s-3.5 -111 -3.5 -143v-311
c0 -50 1.33301 -109.333 4 -178l3 -116c0 -63.333 6.66699 -113.666 20 -150.999c11.333 -32 45.333 -51.667 102 -59c21.333 -3.33301 45.333 -5 72 -5v-28h-617l1 29c98.667 0 156.667 21 174 63c11.333 41.333 17 92.666 17 153.999c0 10 1.66699 66 5 168
c1.33301 40.667 2 81.667 2 123v716l-510 -1243h-35z" />
    <glyph glyph-name="N" unicode="N" horiz-adv-x="1567" 
d="M1282 354v632.999c0 114.667 -8.33301 196 -25 244c-30 83.333 -90.667 125 -182 125v28h455v-28c-90.667 0 -150.667 -42 -180 -126c-16.667 -48 -25 -129 -25 -243v-1001h-29l-979 1224v-813c0 -114.667 8.33301 -195.667 25 -243c29.333 -84 89.333 -126 180 -126v-28
h-452v29c90.667 0 150.667 42 180 126c16 46.667 24 127.334 24 242.001v602c0 115.333 -7.33301 194.333 -22 237c-27.333 80 -86 120 -176 120v28h379z" />
    <glyph glyph-name="O" unicode="O" horiz-adv-x="1659" 
d="M829 10c164 0 289.666 76.332 376.999 228.999c71.333 124.667 107 275.667 107 453c0 182 -34.333 333.667 -103 455c-84.667 151.333 -211 227 -379 227c-163.333 0 -288.666 -75.667 -375.999 -227c-72.667 -125.333 -109 -275.666 -109 -450.999
c0 -176 35.667 -327.333 107 -454c88 -154.667 213.333 -232 376 -232zM89.999 685.999c0 168.667 54 319.667 162 453c150 185.333 346.667 278 590 278c143.333 0 276.333 -37.333 399 -112c126.667 -77.333 217 -180 271 -308c38 -90.667 57 -193 57 -307
c0 -207.333 -70 -378 -210 -512c-67.333 -64.667 -148.333 -116 -243 -154s-188.667 -57 -282 -57c-208 0 -383 66.333 -525 199c-146 136.667 -219 310 -219 520z" />
    <glyph glyph-name="P" unicode="P" horiz-adv-x="1200" 
d="M502 506c0 -188.667 -0.999023 -258.001 -2.99902 -208.001c3.33301 -82.667 18.333 -145 45 -187c34.667 -54.667 91.667 -82 171 -82h16v-29h-645v29h16c68.667 0 118 29 148 87c22.667 44 35.334 107.333 38.001 190c-2 -66 -3 -3.33301 -3 188v397
c0 194.667 1 257.334 3 188.001c-2.66699 82.667 -15.334 146 -38.001 190c-30 58 -79.333 87 -148 87h-16v28h629c131.333 0 237.666 -24.333 318.999 -73c100 -59.333 150 -150.333 150 -273c0 -240 -168 -360 -504 -360h-178v-172zM502.001 720.999h102
c226.667 0 340 97.667 340 293c0 218 -125.667 327 -377 327h-65v-620z" />
    <glyph glyph-name="Q" unicode="Q" horiz-adv-x="1659" 
d="M889 -27l-50.002 -6l-34 -2c-52.667 -3.33301 -117.667 6.66699 -195 30c-68 20.667 -132 50.334 -192 89.001c-218.667 140 -328 340.667 -328 602c0 169.333 54 319.666 162 450.999c153.333 186.667 350 280 590 280c143.333 0 276.333 -37.333 399 -112
c126.667 -77.333 217 -180 271 -308c38 -90.667 57 -193 57 -307c0 -153.333 -40.667 -290 -122 -410s-193.666 -205.667 -336.999 -257c80 -68.667 168 -103 264 -103c142.667 0 237.334 51.667 284.001 155c15.333 33.333 23 71 23 113h29
c0 -311.333 -131.667 -467 -395 -467c-149.333 0 -291.333 84 -426 252zM859.998 12c-63.333 105.333 -130.334 158.001 -201.001 158.001c-18 0 -37.667 -4 -59 -12c-17.333 -6.66699 -37.666 -18.334 -60.999 -35.001c37.333 -37.333 78.5 -65.5 123.5 -84.5
s91.833 -28.5 140.5 -28.5h30c11.333 0 20.333 0.666992 27 2zM1047 74.001c177.333 115.333 265.999 321.332 265.999 617.999c0 182 -34.333 333.667 -103 455c-84.667 151.333 -211 227 -379 227c-163.333 0 -288.666 -75.667 -375.999 -227
c-72.667 -125.333 -109 -275.666 -109 -450.999c0 -118.667 13.667 -223 41 -313c28 -92 69 -169 123 -231c88 56 163.667 84 227 84c102.667 0 206 -54 310 -162z" />
    <glyph glyph-name="R" unicode="R" horiz-adv-x="1432" 
d="M502 717h90c229.333 0 344 98.333 344 295c0 219.333 -110 329 -330 329h-104v-624zM502 514c0 -230.667 -1.00098 -296.334 -3.00098 -197.001c2 -86.667 14.333 -152.667 37 -198c30 -60 80 -90 150 -90h16v-29h-616v29h16c68.667 0 118 29 148 87
c22.667 44 35.334 107.333 38.001 190c-2 -66 -3 -3.33301 -3 188v397c0 194.667 1 257.334 3 188.001c-2.66699 82.667 -15.334 146 -38.001 190c-30 58 -79.333 87 -148 87h-16v28h592c324.667 0 487 -117.333 487 -352c0 -192 -107 -303.333 -321 -334
c106.667 0 198.667 -85.333 276 -256c28.667 -64 53.334 -114.333 74.001 -151c97.333 -174.667 202.333 -262 315 -262h9v-29h-394c-53.333 82.667 -107 180.667 -161 294l-80 168c-40 84 -83.333 141.667 -130 173c-38.667 26 -98 39 -178 39h-73v-160z" />
    <glyph glyph-name="S" unicode="S" horiz-adv-x="1139" 
d="M137 -10l-18.001 434h26c22 -118.667 65.333 -214.667 130 -288c74 -84 167.333 -126 280 -126c80.667 0 144.334 26.333 191.001 79c44.667 50.667 67 116.667 67 198c0 80 -28.333 148 -85 204c-39.333 39.333 -103.666 80.333 -192.999 123
c-129.333 62.667 -216.333 113 -261 151c-81.333 69.333 -122 155.666 -122 258.999c0 110 35.667 203 107 279s161.666 114 270.999 114c68.667 0 134.667 -12.667 198 -38l95 -38c24.667 0 41.334 18 50.001 54h30l19 -385h-25c-77.333 242.667 -195.333 364 -354 364
c-64 0 -115.833 -20.5 -155.5 -61.5s-59.5 -93.5 -59.5 -157.5c0 -72 28.333 -132.667 85 -182c33.333 -29.333 93.666 -65 180.999 -107l131 -63c68 -32.667 109 -54 123 -64c117.333 -83.333 176 -199.333 176 -348c0 -129.333 -44.333 -233.666 -133 -312.999
c-84.667 -75.333 -192.667 -113 -324 -113c-60.667 0 -124.667 12.333 -192 37c-75.333 27.333 -125.333 42.333 -150 45c-28.667 0 -47 -19 -55 -57h-33z" />
    <glyph glyph-name="T" unicode="T" horiz-adv-x="1421" 
d="M819 494c0 -198 -1.00098 -260.666 -3.00098 -187.999c2 -82.667 14.333 -146 37 -190c30 -58 79.333 -87 148 -87h17v-29h-615v29h17c68 0 117 29 147 87c22.667 44 35.334 107.667 38.001 191c-2 -66.667 -3 -4.33398 -3 186.999v847h-96
c-137.333 0 -236.333 -22.333 -297 -67c-65.333 -48 -110.333 -137.333 -135 -268h-27l23 378h1282l22 -378h-26c-24.667 130 -70 219.333 -136 268c-61.333 44.667 -160.333 67 -297 67h-96v-847z" />
    <glyph glyph-name="U" unicode="U" horiz-adv-x="1507" 
d="M1233 987c0 114.667 -8.33203 195.998 -24.999 243.998c-30 83.333 -90.667 125 -182 125v28h453l-1 -28c-90.667 0 -150.667 -42 -180 -126c-16 -47.333 -24 -128.333 -24 -243v-436c0 -207.333 -35 -354 -105 -440c-78.667 -96 -218.334 -144 -419.001 -144
c-200 0 -342.667 46.333 -428 139c-40 43.333 -65.667 108.333 -77 195c-4.66699 38.667 -7 110.334 -7 215.001v354c0 234.667 1.33301 300 4 196c-2 86.667 -14.667 153 -38 199c-30.667 60.667 -81 91 -151 91h-16v28h616v-28h-16c-68.667 0 -118 -29 -148 -87
c-22.667 -44 -35 -107.333 -37 -190c2 72.667 3 10 3 -188v-373c0 -159.333 23.333 -273.666 70 -342.999c57.333 -84 161 -126 311 -126c156 0 264 44.667 324 134c48.667 72 73 191.333 73 358v446z" />
    <glyph glyph-name="V" unicode="V" horiz-adv-x="1319" 
d="M637 -29l-435.999 1147c-36 94 -70.333 156.667 -103 188c-35.333 33.333 -78.333 50 -129 50v28h604v-28c-50.667 0 -92.334 -11.333 -125.001 -34c-25.333 -18 -38 -45 -38 -81c0 -24.667 7.33301 -61.334 22 -110.001c4 -10.667 9.66699 -26.667 17 -48l292 -821
l260 668c46.667 120 70 213.333 70 280c0 97.333 -54.333 146 -163 146l-1 28h463v-28c-75.333 -12 -140 -60.667 -194 -146c-25.333 -40.667 -60.333 -117.667 -105 -231l-395 -1008h-39z" />
    <glyph glyph-name="W" unicode="W" horiz-adv-x="2042" 
d="M682 -29l-36.9971 0.00292969l-436 1147c-35.333 93.333 -69.666 155.666 -102.999 186.999c-36 34 -79.667 51 -131 51v28h598v-28c-50.667 0 -92.334 -11.333 -125.001 -34c-25.333 -18 -38 -45 -38 -81c0 -12.667 3.33301 -34.334 10 -65.001
c4.66699 -21.333 14.334 -52.333 29.001 -93l290 -800l237 723c18.667 74.667 28 121.667 28 141c0 104.667 -34.333 170 -103 196c-24.667 8.66699 -53.334 13 -86.001 13v28h571v-28c-64.667 -6 -108.334 -18.667 -131.001 -38s-34 -53 -34 -101
c0 -28 1.66699 -49.667 5 -65l15 -69l232 -821l247 668c23.333 63.333 40.666 117.666 51.999 162.999c12 48.667 18 87.667 18 117c0 97.333 -54.667 146 -164 146v28h461v-28c-74.667 -10 -139 -58.667 -193 -146c-26.667 -42 -61.334 -119 -104.001 -231l-385 -1008h-47
l-324 1080z" />
    <glyph glyph-name="X" unicode="X" horiz-adv-x="1403" 
d="M768 0v28.002c58 0 102.333 8.33301 133 25c23.333 12.667 35 34 35 64c0 42 -35.667 116.333 -107 223l-194 291l-170 -215c-104 -131.333 -156 -221 -156 -269c0 -30.667 12 -55.334 36 -74.001c21.333 -16.667 60 -31.334 116 -44.001v-29h-496v28
c61.333 8 128.666 44.333 201.999 109c81.333 72 193 201 335 387l110 144l-331 506c-44 67.333 -85.667 114 -125 140c-42.667 28 -90 42 -142 42v28h648l-1 -28c-96.667 0 -145 -27.333 -145 -82c0 -37.333 34.667 -111.333 104 -222l130 -208l149 190
c87.333 111.333 131 189.333 131 234c0 58.667 -43.667 88 -131 88h-8v28h457v-28c-107.333 0 -256.666 -127.667 -447.999 -383l-9 -12l-117 -150l257 -397c166.667 -256.667 309 -385 427 -385v-29h-690z" />
    <glyph glyph-name="Y" unicode="Y" horiz-adv-x="1247" 
d="M750 397c0 -124 4.99805 -203.999 14.998 -239.999c23.333 -85.333 79 -128 167 -128h16v-29h-616v29h16c88 0 143.667 42.667 167 128c10 36.667 15 116.667 15 240v189l-324 564c-78 137.333 -159 206 -243 206v28h594v-28c-47.333 0 -84.666 -8 -111.999 -24
c-22 -12.667 -33 -33.334 -33 -62.001c0 -34 12.333 -73 37 -117l276 -494l211 367c41.333 72 69 134.667 83 188c4.66699 17.333 7 31 7 41c0 32 -13 56.833 -39 74.5s-63.333 26.5 -112 26.5l-1 28h441v-28c-89.333 0 -199.666 -112.667 -330.999 -338l-7 -12l-227 -394
v-215z" />
    <glyph glyph-name="Z" unicode="Z" horiz-adv-x="1395" 
d="M80 0v12.001l864 1329h-319c-143.333 0 -249 -20 -317 -60c-83.333 -48 -139 -136.333 -167 -265h-26l24 368h1071v-12l-852 -1329h308c192 0 331.833 28.667 419.5 86s152.5 159.666 194.5 306.999h29l-23 -436h-1206z" />
    <glyph glyph-name="bracketleft" unicode="[" horiz-adv-x="729" 
d="M272 -274v1658h365v-79h-234v-1500h234v-79h-365z" />
    <glyph glyph-name="backslash" unicode="\" horiz-adv-x="664" 
d="M74 1417l682 -1607h-94l-680 1607h92z" />
    <glyph glyph-name="bracketright" unicode="]" horiz-adv-x="729" 
d="M457 1384v-1658h-365v79h236v1500h-236v79h365z" />
    <glyph glyph-name="asciicircum" unicode="^" horiz-adv-x="2048" 
d="M934 1462h178l520 -565h-92l-518 436l-520 -436h-90z" />
    <glyph glyph-name="underscore" unicode="_" 
d="M0 -365h1024v-118h-1024v118z" />
    <glyph glyph-name="grave" unicode="`" 
d="M399 1300l289 -299h-67l-330 207c-41.333 26 -62 53.333 -62 82c0 19.333 7.16699 35.833 21.5 49.5s31.166 20.5 50.499 20.5c26.667 0 59.334 -20 98.001 -60z" />
    <glyph glyph-name="a" unicode="a" horiz-adv-x="930" 
d="M567 492l-107 -59c-151.333 -83.333 -227 -170.333 -227 -261c0 -46 12.333 -83.333 37 -112c26 -30.667 61.667 -46 107 -46c126.667 0 190 93.667 190 281v197zM561 78c-53.333 -71.333 -133.001 -106.998 -239.001 -106.998c-168 0 -252 75.333 -252 226
c0 107.333 103.667 190.666 311 249.999l14 4c69.333 20 114 39 134 57c24 21.333 36 50 36 86v74c0 124 -56 186 -168 186c-40.667 0 -69.667 -6.83301 -87 -20.5s-30 -39.834 -38 -78.501c-14 -69.333 -42.667 -104 -86 -104c-51.333 0 -77 24 -77 72
c0 60 37.333 105 112 135c54 22 116.333 33 187 33c102 0 177 -16 225 -48c58.667 -38.667 88 -106 88 -202v-455c0 -108.667 26.667 -163 80 -163c40 0 80.333 21 121 63l22 -18c-41.333 -64.667 -107.666 -97 -198.999 -97c-106.667 0 -168 35.667 -184 107z" />
    <glyph glyph-name="b" unicode="b" horiz-adv-x="1034" 
d="M141 -29l0.000976562 1209c0 62 -8.66699 105 -26 129c-20 29.333 -59 46.333 -117 51v22c37.333 3.33301 82 8.66602 134 15.999l167 23v-633c72.667 68.667 152 103 238 103c124.667 0 227 -46.333 307 -139c76 -88 114 -195.333 114 -322
c0 -135.333 -36 -244.333 -108 -327c-76 -88 -180.333 -132 -313 -132c-62 0 -124 11.667 -186 35l-93 35c-34.667 0 -65.334 -23.333 -92.001 -70h-25zM299.001 561.001v-264c0 -92.667 11.333 -160 34 -202c30.667 -58 87.667 -87 171 -87c178.667 0 268 140 268 420
c0 135.333 -22.667 239.5 -68 312.5s-109.333 109.5 -192 109.5c-142 0 -213 -96.333 -213 -289z" />
    <glyph glyph-name="c" unicode="c" horiz-adv-x="846" 
d="M817 213c-12.667 -80 -49.333 -140.999 -110 -182.999c-55.333 -39.333 -125 -59 -209 -59c-129.333 0 -233 40.333 -311 121s-117 186 -117 316c0 134.667 38.333 247.334 115 338.001c82 96.667 189 145 321 145c62.667 0 121.667 -12 177 -36
c72 -30.667 108 -73.334 108 -128.001s-26 -82 -78 -82c-46 0 -75.5 34.833 -88.5 104.5s-51.833 104.5 -116.5 104.5c-92.667 0 -160 -52.333 -202 -157c-30.667 -75.333 -46 -167 -46 -275c0 -110.667 20.667 -200.334 62 -269.001c50.667 -84 127.667 -126 231 -126
c128 0 204.333 62 229 186h35z" />
    <glyph glyph-name="d" unicode="d" horiz-adv-x="1096" 
d="M735 1180c0 62 -8.66602 105.333 -25.999 130c-20.667 28 -60.334 44.667 -119.001 50v22l160 18c37.333 4 85 11 143 21v-1208c0 -66.667 9 -112.667 27 -138c20 -28 54.667 -42 104 -42v-23l-152 -18l-137 -21v109c-60.667 -72.667 -148.667 -109 -264 -109
c-118.667 0 -215.667 46.333 -291 139c-69.333 86 -104 190 -104 312c0 129.333 37.667 238.333 113 327c79.333 94.667 182.333 142 309 142c85.333 0 164.333 -34.333 237 -103v392zM735.001 301l0.000976562 262.001c0 191.333 -71 287 -213 287
c-96.667 0 -167.334 -48.667 -212.001 -146c-32 -70.667 -48 -161.334 -48 -272.001c0 -278.667 89.333 -418 268 -418c72.667 0 126.667 31.333 162 94c28.667 50 43 114.333 43 193z" />
    <glyph glyph-name="e" unicode="e" horiz-adv-x="944" 
d="M279 612l438 1c0 69.333 -21 128.333 -63 177c-36.667 42.667 -84 64 -142 64c-65.333 0 -119.333 -24.667 -162 -74c-37.333 -44 -61 -100 -71 -168zM268 573l-6 -55.002l-2 -45c-6 -129.333 22.333 -238.666 85 -327.999c56 -81.333 131.333 -122 226 -122
c136 0 228.333 64.667 277 194h41c-50.667 -164 -175 -246 -373 -246c-136.667 0 -245.167 39.333 -325.5 118s-120.5 186.334 -120.5 323.001c0 138 41.667 251.667 125 341c85.333 92 196.333 138 333 138c96.667 0 176 -27 238 -81c65.333 -56.667 98 -132.667 98 -228
v-9h-596z" />
    <glyph glyph-name="f" unicode="f" horiz-adv-x="612" 
d="M217 825h-140.998v37h141v228c0 108.667 22.667 188 68 238c48 52.667 125.667 79 233 79c53.333 0 100.666 -8.33301 141.999 -25c56.667 -22.667 85 -56.667 85 -102c0 -46.667 -25 -70 -75 -70c-39.333 0 -65.333 25.333 -78 76c-14 56 -45.333 84 -94 84
c-59.333 0 -97 -32.333 -113 -97c-6.66699 -26 -10 -82.333 -10 -169v-242h209v-37h-209v-518c0 -113.333 3 -179.333 9 -198c18 -53.333 68.333 -80 151 -80h10v-29h-475v29h8c73.333 0 117.666 29.667 132.999 89c4 16 6 79 6 189v518z" />
    <glyph glyph-name="g" unicode="g" horiz-adv-x="877" 
d="M434 344c72 0 118 48.667 138 146c6.66699 32 10 68.667 10 110c0 172 -49.333 258 -148 258c-100.667 0 -151 -86 -151 -258c0 -170.667 50.333 -256 151 -256zM350 326c-148.667 42.667 -223.001 129.335 -223.001 260.002c0 84.667 29 156.667 87 216
s129.333 89 214 89c90 0 163.667 -24.667 221 -74c48 50.667 104 76 168 76c25.333 0 49.333 -6.33301 72 -19c26 -15.333 39 -35 39 -59c0 -34 -18.667 -51 -56 -51c-18 0 -38.333 13.333 -61 40s-41.667 40 -57 40c-17.333 0 -44.666 -15 -81.999 -45
c46 -52.667 69 -121.667 69 -207c0 -78.667 -23.333 -142.667 -70 -192c-50 -54 -116.667 -85 -200 -93l-80 -8c-125.333 -12.667 -188 -45.334 -188 -98.001c0 -47.333 41.667 -70 125 -68l188 4c117.333 2 205.666 -19.667 264.999 -65c56.667 -44 85 -113 85 -207
c0 -103.333 -48.667 -182.666 -146 -237.999c-78.667 -44.667 -174 -67 -286 -67c-102 0 -186.333 15.333 -253 46c-89.333 41.333 -134 107 -134 197c0 40.667 10.667 75.667 32 105c24 32.667 55.667 49 95 49c62.667 0 94 -28.667 94 -86l-1 -11l-1 -9l-8 -1
c-10 23.333 -30.333 35 -61 35c-63.333 0 -95 -36 -95 -108c0 -62.667 34.333 -109.667 103 -141c52 -24.667 113.333 -37 184 -37c88 0 162 15.333 222 46c77.333 40 116 99.667 116 179c0 77.333 -41.333 126.666 -124 147.999c-35.333 9.33301 -108.666 14 -219.999 14
c-180 0 -270 51 -270 153c0 111.333 79 173.666 237 186.999z" />
    <glyph glyph-name="h" unicode="h" horiz-adv-x="1124" 
d="M360 307c0 -110 2.33301 -173.332 7 -189.999c15.333 -58.667 60.333 -88 135 -88h8v-29h-455v29h8c74.667 0 119.334 29.333 134.001 88c4 14.667 6 78 6 190v873c0 62.667 -9 106.334 -27 131.001c-20.667 27.333 -61 43.666 -121 48.999v22l136 15l169 24v-643
c82 76.667 182.667 115 302 115c103.333 0 173.666 -22.667 210.999 -68c34 -40.667 51 -114.334 51 -221.001v-297c0 -110 2 -173 6 -189c16 -59.333 61 -89 135 -89h8v-29h-455v29h9c72.667 0 116.667 30 132 90c4.66699 17.333 7 80 7 188v293
c0 162.667 -61.333 244 -184 244c-71.333 0 -130 -28 -176 -84c-16.667 -20.667 -28.5 -42.667 -35.5 -66s-10.5 -60 -10.5 -110v-277z" />
    <glyph glyph-name="i" unicode="i" horiz-adv-x="578" 
d="M375 307c0 -110 2.00098 -173.001 6.00098 -189.001c16 -59.333 61 -89 135 -89h8v-29h-454v29h8c73.333 0 117.666 29.667 132.999 89c4 16 6 79 6 189v324c0 62.667 -9 106.667 -27 132c-20.667 28.667 -60.667 45.334 -120 50.001v23c40.667 6 93.667 15.667 159 29
c56 12 104.667 24 146 36v-594zM199.001 1313c0 25.333 9.33301 47.333 28 66s40.667 28 66 28s47.333 -9.33301 66 -28s28 -40.667 28 -66c0 -27.333 -8.83301 -49.833 -26.5 -67.5s-40.167 -26.5 -67.5 -26.5c-28 0 -50.667 8.66699 -68 26s-26 40 -26 68z" />
    <glyph glyph-name="j" unicode="j" horiz-adv-x="483" 
d="M184 631c0 65.333 -10.333 110.999 -31 136.999c-24 30 -62 45 -114 45v23c89.333 12 190.333 33.667 303 65v-993c0 -232 -100.333 -348 -301 -348c-50 0 -96 9.66699 -138 29c-54 24.667 -81 59.334 -81 104.001c0 52 20.333 78 61 78c34.667 0 60.667 -24.667 78 -74
c23.333 -66.667 56 -100 98 -100c83.333 0 125 86 125 258v776zM166 1313c0 24.667 9.16699 46.5 27.5 65.5s39.833 28.5 64.5 28.5s46.834 -9.5 66.501 -28.5s29.5 -40.833 29.5 -65.5c0 -27.333 -8.83301 -49.833 -26.5 -67.5s-40.834 -26.5 -69.501 -26.5
c-26.667 0 -48.667 9 -66 27s-26 40.333 -26 67z" />
    <glyph glyph-name="k" unicode="k" horiz-adv-x="1053" 
d="M360 436c196.667 174.667 294.997 285.999 294.997 333.999c0 29.333 -19 49 -57 59c-14 3.33301 -29.667 5 -47 5v28h346v-28c-30 0 -71 -19.333 -123 -58c-48.667 -36 -134.667 -117.333 -258 -244l221 -235c80.667 -86 132.667 -139.333 156 -160
c78.667 -72 141.334 -108 188.001 -108h9v-29h-494v28c32.667 0 59.334 6 80.001 18c17.333 10 26 24 26 42c0 22.667 -19.667 55.334 -59 98.001l-227 248l-56 -47v-80c0 -110 2.33301 -173.333 7 -190c15.333 -58.667 60.333 -88 135 -88h8v-29h-455v29h8
c74.667 0 119.334 29.333 134.001 88c4 14.667 6 78 6 190v873c0 62.667 -9 106.334 -27 131.001c-20.667 27.333 -61 43.666 -121 48.999v22l136 15l169 24v-985z" />
    <glyph glyph-name="l" unicode="l" horiz-adv-x="563" 
d="M360 307c0 -110 2.33203 -173.333 6.99902 -190c15.333 -58.667 60.333 -88 135 -88h8v-29h-455v29h8c74.667 0 119.334 29.333 134.001 88c4 14.667 6 78 6 190v873c0 62.667 -9 106.334 -27 131.001c-20.667 27.333 -61 43.666 -121 48.999v22l136 15l169 24v-1114z
" />
    <glyph glyph-name="m" unicode="m" horiz-adv-x="1663" 
d="M903 768c92 83.333 193.002 124.997 303.002 124.997c100 0 169 -23.667 207 -71c34 -42 51 -114.667 51 -218v-297c0 -110 2.33301 -173.333 7 -190c15.333 -58.667 60.333 -88 135 -88h8v-29h-455v29h8c73.333 0 118 29.667 134 89c4 16.667 6 79.667 6 189v293
c0 162.667 -58 244 -174 244c-58.667 0 -110 -22.667 -154 -68c-39.333 -39.333 -59 -104.666 -59 -195.999v-273c0 -110 2 -173 6 -189c16 -59.333 61 -89 135 -89h8v-29h-455v29h9c73.333 0 117.666 29.667 132.999 89c4 16 6 79 6 189v293c0 162.667 -58 244 -174 244
c-58.667 0 -110 -22.667 -154 -68c-39.333 -39.333 -59 -104.666 -59 -195.999v-273c0 -110 2 -173 6 -189c16 -59.333 61 -89 135 -89h8v-29h-454v29h8c73.333 0 117.666 29.667 132.999 89c4 16 6 79 6 189v324c0 62.667 -9 106.667 -27 132
c-20.667 28.667 -60.667 45.334 -120 50.001v23c104.667 14 198 35.667 280 65l12 -4l13 -119c82 76.667 178.333 115 289 115c129.333 0 209 -41.667 239 -125z" />
    <glyph glyph-name="n" unicode="n" horiz-adv-x="1139" 
d="M375 307c0 -110 2.00195 -173 6.00195 -189c16 -59.333 61 -89 135 -89h8v-29h-454v29h8c73.333 0 117.666 29.667 132.999 89c4 16 6 79 6 189v324c0 62.667 -9 106.667 -27 132c-20.667 28.667 -60.667 45.334 -120 50.001v23c104.667 14 198 35.667 280 65l12 -4
l13 -119c60.667 58 131.667 94 213 108c26.667 4.66699 56 7 88 7c103.333 0 173.666 -22.667 210.999 -68c34 -40.667 51 -114.334 51 -221.001v-297c0 -110 2 -173 6 -189c16 -59.333 61 -89 135 -89h8v-29h-454v29h8c59.333 0 97.333 13 114 39s25 105.667 25 239v293
c0 162.667 -61.333 244 -184 244c-70 0 -128.667 -28 -176 -84c-16 -18.667 -27.5 -40.5 -34.5 -65.5s-10.5 -61.833 -10.5 -110.5v-277z" />
    <glyph glyph-name="o" unicode="o" horiz-adv-x="1057" 
d="M528 854c-99.333 0 -171.667 -48.333 -217 -145c-34 -72 -51 -164.333 -51 -277s16.667 -205 50 -277c45.333 -96.667 118 -145 218 -145s172.667 48.333 218 145c34 72 51 164.333 51 277c0 281.333 -89.667 422 -269 422zM527.999 891
c128.667 0 237.001 -44.3311 325.001 -132.998s132 -197.334 132 -326.001c0 -127.333 -44.333 -236 -133 -326s-196.667 -135 -324 -135c-128 0 -236 44.833 -324 134.5s-132 198.5 -132 326.5c0 127.333 44.167 235.666 132.5 324.999s196.166 134 323.499 134z" />
    <glyph glyph-name="p" unicode="p" horiz-adv-x="1096" 
d="M360 80l-0.00195312 -197c0 -111.333 5.33301 -179 16 -203c20.667 -46 76.334 -69 167.001 -69v-29h-488v29h8c74.667 0 119.334 29.333 134.001 88c4 14.667 6 78 6 190v742c0 64 -9 108 -27 132c-20 28 -60.333 44.667 -121 50v22c115.333 17.333 209 39.333 281 66
l12 -4l12 -109c72.667 68.667 152 103 238 103c124.667 0 227 -46.333 307 -139c76.667 -88 115 -195.333 115 -322c0 -125.333 -34 -231.333 -102 -318c-73.333 -94 -171 -141 -293 -141c-114 0 -202.333 36.333 -265 109zM359.998 563v-262c0 -78.667 14.333 -143 43 -193
c35.333 -62.667 89.333 -94 162 -94c179.333 0 269 139.333 269 418s-87 418 -261 418c-142 0 -213 -95.667 -213 -287z" />
    <glyph glyph-name="q" unicode="q" horiz-adv-x="1034" 
d="M735 301v265.998c0 192.667 -71 289 -213 289c-97.333 0 -168 -49.333 -212 -148c-32 -71.333 -48 -162.666 -48 -273.999c0 -137.333 22.667 -241.666 68 -312.999s112 -107 200 -107c136.667 0 205 95.667 205 287zM893 -117.002
c0 -107.333 2.33398 -169.333 7.00098 -186c15.333 -57.333 59.333 -86 132 -86h8v-29h-487v29h12c84.667 0 137 26 157 78c8.66699 23.333 13 90 13 200v191c-60.667 -72.667 -148.667 -109 -264 -109c-122 0 -219.667 47 -293 141c-68 86.667 -102 192.667 -102 318
c0 132.667 40.333 242 121 328c82 88.667 189 133 321 133c49.333 0 102 -10.333 158 -31l84 -31c11.333 0 21.666 2 30.999 6s19.333 11.667 30 23l41 43h41l-8 -107l-2 -163v-748z" />
    <glyph glyph-name="r" unicode="r" horiz-adv-x="739" 
d="M375 301c0 -108 3.66699 -172.334 11 -193.001c18.667 -52.667 68.334 -79 149.001 -79h12v-29h-477v29h8c73.333 0 117.666 29.667 132.999 89c4 16 6 79 6 189v324c0 62.667 -9 106.667 -27 132c-20.667 28.667 -60.667 45.334 -120 50.001v23
c104.667 14 198 35.667 280 65l12 -4l7 -85l2 -101c59.333 120 140.333 180 243 180c100 0 150 -36.333 150 -109c0 -21.333 -6.83301 -38.5 -20.5 -51.5s-32.167 -19.5 -55.5 -19.5c-25.333 0 -52.5 19 -81.5 57s-54.5 57 -76.5 57c-40.667 0 -76.667 -33.5 -108 -100.5
s-47 -149.5 -47 -247.5v-176z" />
    <glyph glyph-name="s" unicode="s" horiz-adv-x="793" 
d="M109 -14l-0.000976562 298.997h18c22.667 -88 50.334 -152.333 83.001 -193c43.333 -54.667 104.333 -82 183 -82c101.333 0 152 49.333 152 148c0 72.667 -50.667 137.334 -152 194.001c-106.667 60 -174.667 109.833 -204 149.5s-44 88.167 -44 145.5
c0 68.667 23 126.5 69 173.5s103 70.5 171 70.5c29.333 0 66 -8.16699 110 -24.5s68.667 -24.5 74 -24.5c17.333 0 31.666 11.667 42.999 35h19v-256h-19c-32 154 -105 231 -219 231c-38 0 -69 -12.333 -93 -37s-36 -56 -36 -94c0 -45.333 17.667 -84.666 53 -117.999
c20.667 -19.333 58.334 -43.666 113.001 -72.999c88 -46.667 147.667 -85 179 -115c52.667 -50.667 79 -113.334 79 -188.001c0 -79.333 -27.667 -142.666 -83 -189.999c-52 -44 -118.333 -66 -199 -66c-45.333 0 -93 9.66699 -143 29l-75 29c-10.667 0 -21.667 -4 -33 -12
c-8.66699 -6 -18 -16.333 -28 -31h-18z" />
    <glyph glyph-name="t" unicode="t" horiz-adv-x="649" 
d="M215 825l-123.001 -0.000976562v37c64.667 10.667 116 37.334 154 80.001c30 34 57.333 86.667 82 158h32l-2 -238h240v-37h-240l-4 -555c0 -76.667 5.66699 -131 17 -163c20.667 -54.667 61.667 -82 123 -82c59.333 0 108.333 30.667 147 92l23 -15
c-45.333 -87.333 -122.666 -131 -231.999 -131c-156.667 0 -235 67 -235 201v12z" />
    <glyph glyph-name="u" unicode="u" horiz-adv-x="1124" 
d="M764 557c0 129.333 -8.50195 207.833 -25.502 235.5s-54.833 41.5 -113.5 41.5h-11v28h306v-649c0 -62 7 -104.667 21 -128c18.667 -30 56 -47.333 112 -52l-1 -23l-100.5 -12c-27 -3.33301 -75.167 -10 -144.5 -20l-43 -7v113
c-59.333 -56 -129.666 -91.333 -210.999 -106c-26.667 -4.66699 -56.667 -7 -90 -7c-103.333 0 -174 22.333 -212 67c-34.667 40.667 -52 114 -52 220v299c0 129.333 -8.5 207.833 -25.5 235.5s-55.167 41.5 -114.5 41.5h-10v28h307v-600c0 -162.667 61.667 -244 185 -244
c47.333 0 91.333 14.333 132 43s67.334 65.334 80.001 110.001c7.33301 25.333 11 66.666 11 123.999v262z" />
    <glyph glyph-name="v" unicode="v" horiz-adv-x="915" 
d="M477 -29l-37 -0.000976562l-256 641c-27.333 68.667 -51 117 -71 145c-37.333 51.333 -81.666 77 -132.999 77v28h442v-28c-76.667 -6.66699 -115 -34.667 -115 -84c0 -21.333 5 -46.333 15 -75c2 -6 6 -16 12 -30l184 -477l176 430c23.333 57.333 35 105 35 143
c0 62 -40.333 93 -121 93v28h314v-28c-44.667 -7.33301 -84.334 -38.666 -119.001 -93.999c-16 -25.333 -38.667 -73.333 -68 -144z" />
    <glyph glyph-name="w" unicode="w" horiz-adv-x="1331" 
d="M907 -29l-34.999 -0.000976562l-200 643l-213 -643h-29l-242 641c-32.667 86.667 -62.334 143.667 -89.001 171c-30 30 -68.333 47 -115 51v28h438v-28c-76.667 -6.66699 -115 -34.667 -115 -84c0 -20.667 9 -55.667 27 -105l162 -442l219 659h26l209 -669l182 488
c6 18 9 37.333 9 58c0 63.333 -41 95 -123 95v28h313v-28c-68 -11.333 -130 -90.666 -186 -237.999z" />
    <glyph glyph-name="x" unicode="x" horiz-adv-x="901" 
d="M487 0l-0.000976562 28.999c70 6.66699 105 25.667 105 57c0 11.333 -6 28 -18 50c-4.66699 9.33301 -12.334 21.333 -23.001 36l-148 211l-67 -94c-53.333 -74.667 -80 -130 -80 -166c0 -62.667 41.667 -94 125 -94v-29h-397v29h8c50.667 0 104 28 160 84
c27.333 28 66 77 116 147l113 158l-205 294c-45.333 72 -102 112.667 -170 122v28h420v-28c-61.333 -9.33301 -92 -28.666 -92 -57.999c0 -8 4 -20.667 12 -38c4.66699 -12 14.334 -28 29.001 -48l104 -145l78 94c45.333 54.667 68 99 68 133c0 28 -16.667 47 -50 57
c-13.333 3.33301 -29 5 -47 5v28h336v-28c-70 0 -147 -53.333 -231 -160l-129 -164l225 -330c68.667 -100.667 132.334 -151 191.001 -151h8v-29h-441z" />
    <glyph glyph-name="y" unicode="y" horiz-adv-x="915" 
d="M410 -182c-34.667 -83.333 -62 -139.332 -82 -167.999c-42 -61.333 -92 -92 -150 -92c-61.333 0 -92 25 -92 75c0 18 7.5 33.167 22.5 45.5s31.5 18.5 49.5 18.5c10.667 0 26.334 -3.83301 47.001 -11.5s36.334 -11.5 47.001 -11.5c31.333 0 60.666 27.333 87.999 82
c50.667 101.333 76 174.333 76 219c0 30 -15 83.333 -45 160l-187 477c-27.333 70 -51 118.667 -71 146c-36 50.667 -80.333 76 -133 76v28h442v-28c-76.667 -6.66699 -115 -34.667 -115 -84c0 -21.333 5 -46.333 15 -75c2 -6 6 -16 12 -30l184 -477l176 430
c23.333 57.333 35 105 35 143c0 62 -40.333 93 -121 93v28h314v-28c-44.667 -8 -84.334 -39.667 -119.001 -95c-16 -24.667 -38.667 -72.334 -68 -143.001z" />
    <glyph glyph-name="z" unicode="z" horiz-adv-x="909" 
d="M29 0v10.001l579 815h-194c-81.333 0 -142.666 -14.667 -183.999 -44c-46 -32 -77 -86.333 -93 -163h-24l30 244h658v-14l-574 -809h234c110 0 190.667 16.667 242 50c57.333 37.333 98.666 106.666 123.999 207.999h27l-31 -297h-794z" />
    <glyph glyph-name="braceleft" unicode="{" 
d="M846 1516v-50.999c-96.667 0 -162.334 -20.333 -197.001 -61c-32.667 -37.333 -49 -105.333 -49 -204v-143c0 -136 -15.333 -230.667 -46 -284c-39.333 -68 -119.666 -114 -240.999 -138c120 -22 200 -68 240 -138c31.333 -54.667 47 -149.334 47 -284.001v-143
c0 -99.333 16 -167.333 48 -204c34.667 -39.333 100.667 -59 198 -59v-51h-10c-140 0 -236.667 22.667 -290 68c-59.333 49.333 -89 142 -89 278v213c0 105.333 -19.667 178 -59 218c-47.333 48.667 -121.333 73 -222 73v60c111.333 10.667 186 35.667 224 75s57 111 57 215
v213c0 135.333 29.667 228 89 278c54 46 150.667 69 290 69h10z" />
    <glyph glyph-name="bar" unicode="|" 
d="M449 1565h126v-2048h-126v2048z" />
    <glyph glyph-name="braceright" unicode="}" 
d="M178 1516h10.001c139.333 0 236 -22.667 290 -68c59.333 -50 89 -143 89 -279v-213c0 -106 20.667 -178.667 62 -218c38 -36.667 111 -60.667 219 -72v-60c-100.667 0 -174 -23.667 -220 -71c-40.667 -42 -61 -115.333 -61 -220v-213c0 -134.667 -30 -227 -90 -277
c-54.667 -46 -151 -69 -289 -69h-10v51c93.333 0 157.666 18 192.999 54s53 105.667 53 209v143c0 135.333 15.667 230 47 284c39.333 69.333 119.333 115.333 240 138c-120 22 -200 68 -240 138c-31.333 54.667 -47 149.334 -47 284.001v143
c0 99.333 -16 167.666 -48 204.999c-35.333 40 -101.333 60 -198 60v51z" />
    <glyph glyph-name="asciitilde" unicode="~" horiz-adv-x="1706" 
d="M1530 758l0.000976562 -130.999c-133.333 -96 -262.333 -144 -387 -144c-57.333 0 -121 11.667 -191 35c-14.667 4.66699 -43.667 15 -87 31c-132.667 48 -233.334 72 -302.001 72c-55.333 0 -113.333 -12.667 -174 -38c-68 -28.667 -138.333 -69.334 -211 -122.001v133
c141.333 96.667 270.333 145 387 145c77.333 0 174.333 -21.667 291 -65l35 -13c106 -39.333 190.667 -59 254 -59c108.667 0 237 52 385 156z" />
    <glyph glyph-name="nonbreakingspace" unicode="&#xa0;" horiz-adv-x="1081" 
 />
    <glyph glyph-name="exclamdown" unicode="&#xa1;" horiz-adv-x="606" 
d="M303 1417c32 0 59.833 -11.834 83.5 -35.501s35.5 -51.5 35.5 -83.5s-11.833 -60 -35.5 -84s-51.5 -36 -83.5 -36c-34 0 -62.333 11.333 -85 34s-34 51.334 -34 86.001c0 33.333 11.5 61.5 34.5 84.5s51.167 34.5 84.5 34.5zM317 1075l95 -960
c2.66699 -42 -6.33301 -75 -27 -99c-18.667 -21.333 -46 -32 -82 -32c-74.667 0 -110.667 43.667 -108 131l1 36l9 91l84 833h28z" />
    <glyph glyph-name="cent" unicode="&#xa2;" horiz-adv-x="1081" 
d="M545 63l0.000976562 779.001c-70.667 -12 -123.334 -66.333 -158.001 -163c-24.667 -70.667 -37 -150.334 -37 -239.001c0 -95.333 11.667 -170.333 35 -225c30 -72 83.333 -122.667 160 -152zM883.001 233.001c-10.667 -71.333 -42.001 -127.999 -94.001 -169.999
s-116.333 -63 -193 -63v-170h-51v170c-108.667 0 -201 42 -277 126c-68 74.667 -102 172 -102 292c0 124 32 227.333 96 310c68 87.333 162.333 137.666 283 150.999v131h51v-127c68.667 0 131.334 -17.333 188.001 -52c49.333 -30 74 -65.333 74 -106
c0 -52 -25.333 -78 -76 -78c-44.667 0 -72.667 30.667 -84 92c-6.66699 36.667 -16.5 62 -29.5 76s-37.167 24.333 -72.5 31v-793l29 -2c57.333 -4 108 11.667 152 47c39.333 31.333 65 76.333 77 135h29z" />
    <glyph glyph-name="sterling" unicode="&#xa3;" horiz-adv-x="1081" 
d="M295 111c-91.333 56 -159.667 84 -205 84c-66.667 0 -100 -32.333 -100 -97c0 -61.333 35.333 -92 106 -92c76.667 0 143 35 199 105zM343.999 76c-86 -72.667 -169.332 -108.998 -249.999 -108.998c-46 0 -84.333 10 -115 30c-35.333 23.333 -53 57 -53 101
c0 42.667 17 76.667 51 102c30.667 22 68.334 33 113.001 33c26.667 0 56.667 -4.66699 90 -14c43.333 -12 92 -29.667 146 -53l7 55l3 47c2 27.333 -2.33301 73.333 -13 138c-8.66699 54.667 -20.667 114 -36 178h-236v43h230l-19 116c-4 24.667 -6 61 -6 109
c0 142.667 36 268.667 108 378c82.667 124.667 192 187 328 187c82 0 151.667 -24.333 209 -73c61.333 -50.667 92 -116.334 92 -197.001c0 -73.333 -20 -132.333 -60 -177s-96.333 -67 -169 -67c-108.667 0 -169.334 56 -182.001 168l30 8
c17.333 -92.667 63.333 -139 138 -139c50.667 0 90 22.333 118 67c23.333 38 35 84 35 138c0 158 -69.667 237 -209 237c-177.333 0 -266 -144 -266 -432c0 -12 0.666992 -29.833 2 -53.5s2 -41.5 2 -53.5c0 -4 5.66699 -76 17 -216h319v-43h-313l9 -103l3 -86
c1.33301 -38 -5.33398 -81 -20.001 -129c-12.667 -42.667 -32.667 -84.334 -60 -125.001c99.333 -32.667 188 -49 266 -49c91.333 0 173.333 21.667 246 65c78 46.667 132 111 162 193l20 -2c-34 -254 -150.667 -381 -350 -381c-118 0 -247 36.333 -387 109z" />
    <glyph glyph-name="currency" unicode="&#xa4;" horiz-adv-x="1241" 
d="M623 1200c-86.667 0 -160.667 -30.5 -222 -91.5s-92 -134.833 -92 -221.5c0 -87.333 30.5 -161.833 91.5 -223.5s135.167 -92.5 222.5 -92.5c86 0 159.667 31 221 93s92 136.333 92 223c0 87.333 -30.333 161.333 -91 222s-134.667 91 -222 91zM158 1419l207 -206.998
c80 60.667 165.333 91 256 91c46 0 91.333 -7.83301 136 -23.5s86 -38.167 124 -67.5l204 207l72 -73l-205 -205c57.333 -78 86 -163.333 86 -256c0 -96 -28.667 -181.333 -86 -256l205 -205l-72 -74l-204 207c-77.333 -58.667 -164 -88 -260 -88
c-96.667 0 -182 29.333 -256 88l-207 -207l-72 74l207 205c-58.667 77.333 -88 162.666 -88 255.999c0 95.333 29.333 180.666 88 255.999l-207 205z" />
    <glyph glyph-name="yen" unicode="&#xa5;" horiz-adv-x="1081" 
d="M631 268c0 -89.333 8.99805 -148.667 26.998 -178c24 -40.667 76.333 -61 157 -61h10v-29h-549v29h9c80 0 132.667 20.333 158 61c18.667 30 28 89.333 28 178v320h-432v55h403l-112 225h-291v56h264l-102 196c-48.667 93.333 -91 156 -127 188s-77.667 48 -125 48v28
h520v-28c-46 0 -82.333 -8 -109 -24c-21.333 -12.667 -32 -33.334 -32 -62.001c0 -27.333 12.333 -66.333 37 -117l241 -494l185 367c57.333 114 86 190.333 86 229c0 48 -28 79.333 -84 94c-19.333 4.66699 -40.666 7 -63.999 7v28h428v-28
c-65.333 0 -131.666 -44.333 -198.999 -133c-32.667 -43.333 -75.667 -115.666 -129 -216.999l-43 -82h275v-56h-301l-113 -225h414v-55h-430v-320z" />
    <glyph glyph-name="brokenbar" unicode="&#xa6;" 
d="M449 408h126v-758h-126v758zM449 1432h126v-758h-126v758z" />
    <glyph glyph-name="section" unicode="&#xa7;" horiz-adv-x="1042" 
d="M252 692c0 -45.333 17.334 -90.666 52.001 -135.999c16 -20.667 50.667 -56.334 104 -107.001c62.667 -59.333 111.167 -99.5 145.5 -120.5s66.833 -31.5 97.5 -31.5c40 0 74 12.833 102 38.5s42 58.5 42 98.5c0 64.667 -52 144.667 -156 240
c-106.667 98 -188 147 -244 147c-36.667 0 -69.334 -12 -98.001 -36c-30 -26 -45 -57 -45 -93zM633.001 262c126.667 -103.333 190.001 -202.33 190.001 -296.997c0 -81.333 -36.333 -145.333 -109 -192c-62 -40 -136 -60 -222 -60c-74.667 0 -139 15 -193 45
c-65.333 37.333 -98 90.666 -98 159.999c0 33.333 9.5 61.166 28.5 83.499s44.833 33.5 77.5 33.5c25.333 0 47.333 -9 66 -27s28 -39.667 28 -65c0 -16.667 -9.16699 -38.834 -27.5 -66.501s-27.5 -45.834 -27.5 -54.501c0 -24.667 17.667 -43.667 53 -57
c26 -10 54 -15 84 -15c54.667 0 99.667 12.333 135 37c40 28 60 68.333 60 121c0 48.667 -21.333 98.667 -64 150c-22 26 -62.667 64 -122 114l-183 154c-116 97.333 -174 192 -174 284c0 76.667 28 138.334 84 185.001c52.667 43.333 118.334 65 197.001 65
c-126 110.667 -189 209 -189 295c0 82 33 147.333 99 196c59.333 44 131.666 66 216.999 66c70 0 130.333 -15 181 -45c60.667 -36.667 91 -87.667 91 -153c0 -34 -10 -62.333 -30 -85s-46.667 -34 -80 -34c-24.667 0 -46.334 7.66699 -65.001 23s-28 35 -28 59
c0 16 9.33301 38 28 66s28 48.333 28 61c0 23.333 -17.333 41.666 -52 54.999c-26 9.33301 -53 14 -81 14c-48.667 0 -88.5 -15.167 -119.5 -45.5s-46.5 -69.833 -46.5 -118.5c0 -69.333 64.667 -158 194 -266l178 -149c58 -48.667 102 -98.667 132 -150
c28 -48 42 -97.667 42 -149c0 -69.333 -25.667 -125.666 -77 -168.999c-54.667 -46 -123 -69 -205 -69z" />
    <glyph glyph-name="dieresis" unicode="&#xa8;" 
d="M688 1257c26.667 0 49.667 -10 69 -30s29 -43.333 29 -70c0 -28.667 -9.16699 -52.5 -27.5 -71.5s-41.833 -28.5 -70.5 -28.5c-28 0 -51.667 9.66699 -71 29s-29 43 -29 71c0 26 10.167 49.167 30.5 69.5s43.5 30.5 69.5 30.5zM336 1257c26 0 49.167 -10.167 69.5 -30.5
s30.5 -43.5 30.5 -69.5c0 -28 -9.66699 -51.667 -29 -71s-43 -29 -71 -29s-51.333 9.66699 -70 29s-28 43 -28 71c0 26.667 9.66699 50 29 70s42.333 30 69 30z" />
    <glyph glyph-name="copyright" unicode="&#xa9;" horiz-adv-x="1683" 
d="M1120 1096l35.0029 -0.000976562l2 -314h-41c-44.667 183.333 -138 275 -280 275c-165.333 0 -248 -124.333 -248 -373c0 -254 88.667 -381 266 -381c113.333 0 207.666 58 282.999 174l34 -24c-75.333 -139.333 -189.333 -209 -342 -209
c-113.333 0 -209.333 42 -288 126c-76.667 82 -115 180 -115 294c0 120 36.333 222 109 306c76.667 88 174 132 292 132c45.333 0 88.666 -9.33301 129.999 -28c51.333 -23.333 84.666 -36.666 99.999 -39.999c34.667 0 55.667 20.667 63 62zM844.003 1303
c-125.333 0 -240.332 -35.833 -344.999 -107.5s-180.334 -165.167 -227.001 -280.5c-31.333 -76.667 -47 -155.667 -47 -237c0 -84 15.667 -163.667 47 -239c66 -158 177.667 -269.667 335 -335c74.667 -31.333 153 -47 235 -47c172.667 0 317.667 60.667 435 182
c120.667 124.667 181 271 181 439c0 174 -60 321.667 -180 443s-264.667 182 -434 182zM844.004 1382c190.667 0 355.001 -68.001 493.001 -204.001c64 -63.333 114.5 -139.5 151.5 -228.5s55.5 -179.5 55.5 -271.5c0 -192.667 -69 -358.667 -207 -498
c-135.333 -136.667 -300.333 -205 -495 -205c-191.333 0 -356.333 68.167 -495 204.5s-208 302.5 -208 498.5c0 142.667 39.167 272.834 117.5 390.501s183.166 204.167 314.499 259.5c86.667 36 177.667 54 273 54z" />
    <glyph glyph-name="ordfeminine" unicode="&#xaa;" horiz-adv-x="698" 
d="M426 1124l-80 -40c-113.333 -56.667 -170 -117.667 -170 -183c0 -73.333 35.667 -110 107 -110c95.333 0 143 65.333 143 196v137zM422 835c-21.333 -24.667 -46.498 -43.334 -75.498 -56.001s-63.833 -19 -104.5 -19c-126 0 -189 52.667 -189 158
c0 64.667 79.333 123.334 238 176.001l6 2c27.333 8.66699 61 22 101 40c17.333 14 26 34 26 60v51c0 87.333 -41.667 131 -125 131c-30.667 0 -52 -4.33301 -64 -13c-14 -9.33301 -24.333 -28.333 -31 -57c-10.667 -47.333 -32.334 -71 -65.001 -71
c-38 0 -57 16.333 -57 49c0 44 28 76.333 84 97c40 14.667 86.333 22 139 22c75.333 0 130.666 -10.667 165.999 -32c46.667 -27.333 70 -75.333 70 -144v-318c0 -76 19.667 -114 59 -114c31.333 0 62 14.333 92 43l17 -13c-31.333 -44.667 -81.333 -67 -150 -67
c-80 0 -125.667 25 -137 75z" />
    <glyph glyph-name="guillemotleft" unicode="&#xab;" horiz-adv-x="829" 
d="M426 432l281 365h47l-144 -365l144 -366h-47zM72 432l278 365h47l-141 -365l141 -366h-47z" />
    <glyph glyph-name="logicalnot" unicode="&#xac;" horiz-adv-x="1706" 
d="M254 858h1198v-502h-115v385h-1083v117z" />
    <glyph glyph-name="c295" unicode="&#xad;" horiz-adv-x="1706" 
d="M254 670h1198v-119h-1198v119z" />
    <glyph glyph-name="c295" unicode="&#x2212;" horiz-adv-x="1706" 
d="M254 670h1198v-119h-1198v119z" />
    <glyph glyph-name="registered" unicode="&#xae;" horiz-adv-x="1683" 
d="M729 719c13.333 0 23.999 -0.666992 31.999 -2h34c156.667 0 235 58 235 174c0 53.333 -20 94.333 -60 123c-35.333 26 -80.666 39 -135.999 39c-70 0 -105 -24 -105 -72v-262zM468.999 1092l392.999 -0.00195312c80.667 0 149.334 -13.333 206.001 -40
c74.667 -35.333 112 -89 112 -161c0 -98 -95.667 -164.333 -287 -199c112.667 -34 183.667 -104.333 213 -211c3.33301 -11.333 7 -32.333 11 -63c8 -58.667 27.667 -88 59 -88c44.667 0 67 44.333 67 133h43v-12c0 -119.333 -53.333 -179 -160 -179
c-63.333 0 -105.666 22 -126.999 66c-10.667 22 -17.334 50 -20.001 84c-1.33301 28.667 -2.33301 57.334 -3 86.001c-2 17.333 -4.33301 30.333 -7 39c-26 88.667 -95 133 -207 133h-33v-248c0 -51.333 22 -82.666 66 -93.999c16 -4.66699 35.667 -7 59 -7v-40h-385v40
c84.667 0 127 33.667 127 101v516c0 67.333 -42.333 101 -127 101v43zM843.998 1303c-171.333 0 -317.333 -61.501 -438 -184.501s-181 -269.833 -181 -440.5c0 -173.333 60.667 -320.166 182 -440.499s266.333 -180.5 435 -180.5c172.667 0 317.667 60.667 435 182
c120.667 124.667 181 271 181 439c0 176 -59.667 324 -179 444c-121.333 120.667 -266.333 181 -435 181zM843.998 1382c194 0 359.333 -68.333 496 -205c64.667 -64.667 114.834 -140.667 150.501 -228s53.5 -178.333 53.5 -273c0 -139.333 -40.667 -269.333 -122 -390
s-186.333 -207.334 -315 -260.001c-84 -34 -174.333 -51 -271 -51c-187.333 0 -350.333 68.167 -489 204.5s-208 302.5 -208 498.5c0 142.667 39.167 272.834 117.5 390.501s183.166 204.167 314.499 259.5c86.667 36 177.667 54 273 54z" />
    <glyph glyph-name="macron" unicode="&#xaf;" 
d="M254 1221h516v-127h-516v127z" />
    <glyph glyph-name="macron" unicode="&#x2c9;" 
d="M254 1221h516v-127h-516v127z" />
    <glyph glyph-name="degree" unicode="&#xb0;" horiz-adv-x="674" 
d="M338 1372c-57.333 0 -105.5 -19.333 -144.5 -58s-58.5 -86.334 -58.5 -143.001c0 -56 19.833 -103.667 59.5 -143s87.5 -59 143.5 -59c56.667 0 104.334 19.5 143.001 58.5s58 86.833 58 143.5s-19.333 104.334 -58 143.001s-86.334 58 -143.001 58zM338 1454
c78.667 0 145.5 -27.499 200.5 -82.499s82.5 -121.833 82.5 -200.5c0 -78 -28 -144.5 -84 -199.5s-123 -82.5 -201 -82.5c-79.333 0 -146 27.167 -200 81.5s-81 121.166 -81 200.499s27.333 146.333 82 201s121.667 82 201 82z" />
    <glyph glyph-name="plusminus" unicode="&#xb1;" horiz-adv-x="1706" 
d="M254 158h1198v-117h-1198v117zM795 1180h118v-344h539v-117h-539v-344h-118v344h-541v117h541v344z" />
    <glyph glyph-name="twosuperior" unicode="&#xb2;" horiz-adv-x="713" 
d="M31 553l0.00195312 19.999c158.667 138 273 254.667 343 350s105 182.333 105 261c0 130.667 -60 196 -180 196c-49.333 0 -90 -14.667 -122 -44s-48 -68.333 -48 -117c0 -47.333 14.833 -86.833 44.5 -118.5s68.167 -47.5 115.5 -47.5h16v-6c-28 -18 -58 -27 -90 -27
c-46 0 -83.167 15.333 -111.5 46s-42.5 69.334 -42.5 116.001c0 70 25.667 125.333 77 166c47.333 38 107 57 179 57c78 0 143.333 -22.333 196 -67c56.667 -46.667 85 -108.334 85 -185.001c0 -89.333 -56.667 -188 -170 -296
c-48.667 -47.333 -141.334 -120.666 -278.001 -219.999h237c62 0 105.333 7.33301 130 22c27.333 16 51.666 51.667 72.999 107h16l-51 -213h-524z" />
    <glyph glyph-name="threesuperior" unicode="&#xb3;" horiz-adv-x="713" 
d="M387 999c150 -16.667 225.002 -87.002 225.002 -211.002c0 -77.333 -33.333 -140.666 -100 -189.999c-60.667 -44 -131 -66 -211 -66c-62 0 -117.333 14 -166 42c-58.667 33.333 -88 79 -88 137c0 37.333 14.333 67.666 43 90.999c27.333 21.333 60 32 98 32l7 -7
c-44 -31.333 -66 -70 -66 -116c0 -48 18 -86.667 54 -116c33.333 -26.667 74.666 -40 123.999 -40c120 0 180 70.333 180 211c0 46.667 -8 90.667 -24 132c-21.333 55.333 -52 83 -92 83c-10.667 0 -28.834 -7.5 -54.501 -22.5s-48.5 -22.5 -68.5 -22.5
c-31.333 0 -47 13 -47 39c0 28.667 19.667 43 59 43h22c4.66699 -1.33301 11 -2.66602 19 -3.99902l39 -4c42.667 0 76 19.333 100 58c20.667 32.667 31 71.334 31 116.001c0 56 -13.333 101.667 -40 137c-30 39.333 -72 59 -126 59c-34.667 0 -63.5 -9.83301 -86.5 -29.5
s-34.5 -46.5 -34.5 -80.5c0 -23.333 6.66699 -45 20 -65c14.667 -22.667 33.334 -34 56.001 -34l2 -5l-31 -11l-20 -2c-71.333 0 -107 32 -107 96c0 50 25 89.333 75 118c41.333 24 89 36 143 36c71.333 0 131.666 -17 180.999 -51c55.333 -38 83 -91.333 83 -160
c0 -100 -66.333 -164.333 -199 -193z" />
    <glyph glyph-name="acute" unicode="&#xb4;" 
d="M733 1208l-330.001 -207h-67l289 299c38.667 40 71.334 60 98.001 60c48 0 72 -23.333 72 -70c0 -14 -5 -27.333 -15 -40c-13.333 -16.667 -29 -30.667 -47 -42z" />
    <glyph glyph-name="mu" unicode="&#xb5;" horiz-adv-x="1120" 
d="M164 193c-18 -87.333 -35.3301 -200.331 -51.9971 -338.998c-22 -181.333 -59.333 -272 -112 -272c-53.333 0 -80 29.333 -80 88c0 26 21.667 117.333 65 274c41.333 149.333 76.333 291.666 105 426.999l109 514h147l-114 -551l-3 -53
c-2.66699 -51.333 11.666 -94 42.999 -128c28 -31.333 67 -47 117 -47c132.667 0 218.667 89.667 258 269l111 510h149l-135 -668c-2.66699 -30 6 -56 26 -78c17.333 -20 39.333 -30 66 -30c48 0 87 23 117 69c1.33301 2.66699 13.666 31.667 36.999 87
c18.667 44.667 33 67 43 67c17.333 0 26 -12.333 26 -37c0 -26.667 -7.66699 -62.334 -23 -107.001c-4.66699 -14.667 -10.334 -29 -17.001 -43c-50 -108.667 -126.667 -163 -230 -163c-49.333 0 -87.333 20 -114 60c-23.333 34.667 -35 78 -35 130v23
c-60 -145.333 -153.667 -218 -281 -218c-128.667 0 -203 72 -223 216z" />
    <glyph glyph-name="mu" unicode="&#x3bc;" horiz-adv-x="1120" 
d="M164 193c-18 -87.333 -35.3301 -200.331 -51.9971 -338.998c-22 -181.333 -59.333 -272 -112 -272c-53.333 0 -80 29.333 -80 88c0 26 21.667 117.333 65 274c41.333 149.333 76.333 291.666 105 426.999l109 514h147l-114 -551l-3 -53
c-2.66699 -51.333 11.666 -94 42.999 -128c28 -31.333 67 -47 117 -47c132.667 0 218.667 89.667 258 269l111 510h149l-135 -668c-2.66699 -30 6 -56 26 -78c17.333 -20 39.333 -30 66 -30c48 0 87 23 117 69c1.33301 2.66699 13.666 31.667 36.999 87
c18.667 44.667 33 67 43 67c17.333 0 26 -12.333 26 -37c0 -26.667 -7.66699 -62.334 -23 -107.001c-4.66699 -14.667 -10.334 -29 -17.001 -43c-50 -108.667 -126.667 -163 -230 -163c-49.333 0 -87.333 20 -114 60c-23.333 34.667 -35 78 -35 130v23
c-60 -145.333 -153.667 -218 -281 -218c-128.667 0 -203 72 -223 216z" />
    <glyph glyph-name="paragraph" unicode="&#xb6;" 
d="M948 1479v-78h-125v-1401h-94v1401h-182v-1401h-96v782c-110 0 -201.333 34 -274 102c-67.333 62.667 -101 144.667 -101 246c0 110 38.667 196.667 116 260c72 59.333 164.333 89 277 89h479z" />
    <glyph glyph-name="periodcentered" unicode="&#xb7;" horiz-adv-x="541" 
d="M270 573c-31.333 0 -58.833 11.833 -82.5 35.5s-35.5 51.5 -35.5 83.5c0 33.333 11.333 61.833 34 85.5s50.667 35.5 84 35.5c32.667 0 60.667 -12 84 -36s35 -52.333 35 -85s-11.667 -60.667 -35 -84s-51.333 -35 -84 -35z" />
    <glyph glyph-name="periodcentered" unicode="&#x2219;" horiz-adv-x="541" 
d="M270 573c-31.333 0 -58.833 11.833 -82.5 35.5s-35.5 51.5 -35.5 83.5c0 33.333 11.333 61.833 34 85.5s50.667 35.5 84 35.5c32.667 0 60.667 -12 84 -36s35 -52.333 35 -85s-11.667 -60.667 -35 -84s-51.333 -35 -84 -35z" />
    <glyph glyph-name="cedilla" unicode="&#xb8;" 
d="M440 0l63.999 0.000976562v-112l40 4h12c3.33301 0 9 0.666992 17 2c51.333 0 93.333 -14.667 126 -44s49 -69.333 49 -120c0 -117.333 -73.333 -176 -220 -176c-84 0 -180.667 26.333 -290 79l26 56c46 -22.667 89.333 -40.334 130 -53.001s75.334 -19 104.001 -19
c78.667 0 118 35.667 118 107c0 64.667 -34 96 -102 94l-37 -1l-36 -5z" />
    <glyph glyph-name="onesuperior" unicode="&#xb9;" horiz-adv-x="713" 
d="M309 1303h-136.999v15c52 0 102.333 8 151 24c36.667 12 65 29.667 85 53l14 -1l-5 -39l-1 -102v-518c0 -64.667 8.33301 -107.667 25 -129c19.333 -24.667 49.666 -37 90.999 -37v-16h-339v16c48 0 80.667 16.667 98 50c12 23.333 18 62 18 116v568z" />
    <glyph glyph-name="ordmasculine" unicode="&#xba;" horiz-adv-x="793" 
d="M397 1378c-134.667 0 -202 -98.333 -202 -295s67.333 -295 202 -295c134 0 201 98.333 201 295s-67 295 -201 295zM397 1405c93.333 0 173 -30.334 239 -91.001c68.667 -62 103 -139 103 -231s-34.333 -169.333 -103 -232c-66 -60.667 -145.667 -91 -239 -91
c-94 0 -174.333 30 -241 90c-68.667 62.667 -103 140.334 -103 233.001s34.667 170 104 232c66.667 60 146.667 90 240 90z" />
    <glyph glyph-name="guillemotright" unicode="&#xbb;" horiz-adv-x="829" 
d="M758 432l-279 -366h-47l143 366l-143 365h47zM403 432l-280 -366h-47l143 366l-143 365h47z" />
    <glyph glyph-name="onequarter" unicode="&#xbc;" horiz-adv-x="1704" 
d="M1391 213v428l-291 -428h291zM1491 213h11.999c34.667 0 59 9 73 27c12 14 20.667 39.667 26 77h16v-231h-16c-5.33301 37.333 -14.333 63.333 -27 78c-15.333 17.333 -40.666 26 -75.999 26h-8v-20c0 -59.333 8.16699 -99.833 24.5 -121.5s44.833 -32.5 85.5 -32.5
l1 -16h-324v16c46 0 77.333 14.667 94 44c12.667 22 19 58.667 19 110v20h-324v23l397 582h27v-582zM421.999 -33h-82l944 1450h80zM296.999 1309h-133v14c108.667 0 183.667 24 225 72h14l-5 -39l-1 -58v-520c0 -60 8.66699 -100.667 26 -122s46.333 -32 87 -32v-16h-326
v16c40.667 0 70 11.333 88 34c16.667 20.667 25 60.667 25 120v531z" />
    <glyph glyph-name="onehalf" unicode="&#xbd;" horiz-adv-x="1704" 
d="M1053 0l0.000976562 17.9961c286.667 242.667 430 433.334 430 572.001c0 55.333 -15.5 99.5 -46.5 132.5s-73.5 49.5 -127.5 49.5c-46.667 0 -85.334 -13.667 -116.001 -41s-46 -64 -46 -110c0 -45.333 14 -82.666 42 -111.999s64.333 -44 109 -44l9 1l8 1v-6
c-28.667 -16.667 -57.334 -25 -86.001 -25c-43.333 0 -78.833 13.833 -106.5 41.5s-41.5 63.834 -41.5 108.501c0 66 25 118.333 75 157c46 34.667 103 52 171 52c73.333 0 135.333 -20.333 186 -61c54.667 -43.333 82 -101 82 -173
c0 -83.333 -54.333 -175.666 -163 -276.999c-47.333 -44.667 -135.666 -112.667 -264.999 -204h226c60 0 101 6.33301 123 19c26 14.667 49.667 48 71 100h15l-48 -199h-501zM422.001 -33.0039h-82l944 1450h80zM297.001 1309h-133v14c108.667 0 183.667 24 225 72h14
l-5 -39l-1 -58v-520c0 -60 8.66699 -100.667 26 -122s46.333 -32 87 -32v-16h-326v16c40.667 0 70 11.333 88 34c16.667 20.667 25 60.667 25 120v531z" />
    <glyph glyph-name="threequarters" unicode="&#xbe;" horiz-adv-x="1704" 
d="M1391 213v428l-291 -428h291zM1491 213h11.999c34.667 0 59 9 73 27c12 14 20.667 39.667 26 77h16v-231h-16c-5.33301 37.333 -14.333 63.333 -27 78c-15.333 17.333 -40.666 26 -75.999 26h-8v-20c0 -59.333 8.16699 -99.833 24.5 -121.5s44.833 -32.5 85.5 -32.5
l1 -16h-324v16c46 0 77.333 14.667 94 44c12.667 22 19 58.667 19 110v20h-324v23l397 582h27v-582zM421.999 -33h-82l944 1450h80zM368.999 1026c143.333 -19.333 215.001 -85.6699 215.001 -199.003c0 -72.667 -32.333 -131.667 -97 -177c-57.333 -40 -124 -60 -200 -60
c-58 0 -110.333 13 -157 39c-56.667 30.667 -85 73 -85 127c0 35.333 14 63.666 42 84.999c26 19.333 57 29 93 29l6 -6c-42 -30.667 -63 -66.667 -63 -108c0 -45.333 17.333 -81.666 52 -108.999c32 -24.667 71.333 -37 118 -37c114.667 0 172 65.667 172 197
c0 44 -7.66699 85.333 -23 124c-20.667 51.333 -50 77 -88 77c-8.66699 0 -26 -7.16699 -52 -21.5s-47.333 -21.5 -64 -21.5c-31.333 0 -47.333 12 -48 36c-0.666992 27.333 18.666 41 57.999 41h21c4.66699 -1.33301 11 -2.66602 19 -3.99902l38 -4c40 0 71.667 18 95 54
c20 31.333 30 68 30 110c0 52.667 -13.333 95.334 -40 128.001c-28.667 36 -68.667 54 -120 54c-76.667 0 -115 -34 -115 -102c0 -61.333 24.667 -92 74 -92v-6l-32 -9l-17 -2c-67.333 0 -101 30.333 -101 91c0 46.667 24 83.334 72 110.001c39.333 22 84.333 33 135 33
c68 0 125.333 -16 172 -48c53.333 -36 80 -86.333 80 -151c0 -92 -63.333 -151.333 -190 -178z" />
    <glyph glyph-name="questiondown" unicode="&#xbf;" horiz-adv-x="995" 
d="M723 1178c-32 0 -60.167 12 -84.5 36s-36.5 52 -36.5 84c0 32.667 12 60.667 36 84s52.333 35 85 35s60.667 -11.667 84 -35s35 -51.333 35 -84c0 -32 -11.833 -60 -35.5 -84s-51.5 -36 -83.5 -36zM750 1075l0.000976562 -525.998h-45c0 68 -18.333 124 -55 168
c-34 40.667 -78.667 61 -134 61c-109.333 0 -164 -107.667 -164 -323c0 -104.667 14.333 -195.334 43 -272.001c40 -108.667 103.667 -163 191 -163c40 0 68 12.667 84 38c8 13.333 14.667 31 20 53c10.667 43.333 19.667 72 27 86c16 28.667 39.667 43 71 43
c54.667 0 82 -25.333 82 -76c0 -61.333 -30.667 -108.333 -92 -141c-49.333 -26 -107.333 -39 -174 -39c-134.667 0 -243.334 47 -326.001 141c-78.667 90 -118 203.333 -118 340c0 98 26.667 181.333 80 250c58.667 74.667 135.667 112 231 112
c47.333 0 89.833 -8.83301 127.5 -26.5s73.167 -44.834 106.5 -81.501v356h45z" />
    <glyph glyph-name="Agrave" unicode="&#xc0;" horiz-adv-x="1356" 
d="M362 596h439l-217 547zM346 549l-43.001 -103.002c-34.667 -83.333 -57.667 -156.666 -69 -219.999c-3.33301 -19.333 -5 -36.666 -5 -51.999c0 -80.667 59.667 -129 179 -145v-29h-447v29c86 0 194.667 162 326 486l366 902h39l447 -1088
c82.667 -200 164.334 -300 245.001 -300v-29h-583v28c51.333 0 93 10.667 125 32c27.333 18 41 44.333 41 79c0 24.667 -17.333 82 -52 172l-92 238h-477zM564.999 1826l289 -299h-67l-330 207c-41.333 26 -62 53.333 -62 82c0 19.333 7.16699 35.833 21.5 49.5
s31.166 20.5 50.499 20.5c26.667 0 59.334 -20 98.001 -60z" />
    <glyph glyph-name="Aacute" unicode="&#xc1;" horiz-adv-x="1356" 
d="M362 596h439l-217 547zM346 549l-43.001 -103.002c-34.667 -83.333 -57.667 -156.666 -69 -219.999c-3.33301 -19.333 -5 -36.666 -5 -51.999c0 -80.667 59.667 -129 179 -145v-29h-447v29c86 0 194.667 162 326 486l366 902h39l447 -1088
c82.667 -200 164.334 -300 245.001 -300v-29h-583v28c51.333 0 93 10.667 125 32c27.333 18 41 44.333 41 79c0 24.667 -17.333 82 -52 172l-92 238h-477zM898.999 1734l-330.001 -207h-67l289 299c38.667 40 71.334 60 98.001 60c48 0 72 -23.333 72 -70
c0 -14 -5 -27.333 -15 -40c-13.333 -16.667 -29 -30.667 -47 -42z" />
    <glyph glyph-name="Acircumflex" unicode="&#xc2;" horiz-adv-x="1356" 
d="M362 596h439l-217 547zM346 549l-43.001 -103.002c-34.667 -83.333 -57.667 -156.666 -69 -219.999c-3.33301 -19.333 -5 -36.666 -5 -51.999c0 -80.667 59.667 -129 179 -145v-29h-447v29c86 0 194.667 162 326 486l366 902h39l447 -1088
c82.667 -200 164.334 -300 245.001 -300v-29h-583v28c51.333 0 93 10.667 125 32c27.333 18 41 44.333 41 79c0 24.667 -17.333 82 -52 172l-92 238h-477zM618.999 1878h118l232 -351h-58l-233 211l-233 -211h-58z" />
    <glyph glyph-name="Atilde" unicode="&#xc3;" horiz-adv-x="1356" 
d="M362 596h439l-217 547zM346 549l-43.001 -103.002c-34.667 -83.333 -57.667 -156.666 -69 -219.999c-3.33301 -19.333 -5 -36.666 -5 -51.999c0 -80.667 59.667 -129 179 -145v-29h-447v29c86 0 194.667 162 326 486l366 902h39l447 -1088
c82.667 -200 164.334 -300 245.001 -300v-29h-583v28c51.333 0 93 10.667 125 32c27.333 18 41 44.333 41 79c0 24.667 -17.333 82 -52 172l-92 238h-477zM910.999 1824h54.001c-26.667 -134.667 -91.667 -202 -195 -202h-12c-7.33301 0 -14.333 0.666992 -21 2l-41 8
l-109 27l-26 4l-30 2c-20.667 1.33301 -37.834 -5 -51.501 -19s-26.167 -37.667 -37.5 -71h-51c24 142 89.667 213 197 213c20 0 41 -3 63 -9l141 -37l25 -2c21.333 -2 40.333 4 57 18c14.667 12 27 34 37 66z" />
    <glyph glyph-name="Adieresis" unicode="&#xc4;" horiz-adv-x="1356" 
d="M362 596h439l-217 547zM346 549l-43.001 -103.002c-34.667 -83.333 -57.667 -156.666 -69 -219.999c-3.33301 -19.333 -5 -36.666 -5 -51.999c0 -80.667 59.667 -129 179 -145v-29h-447v29c86 0 194.667 162 326 486l366 902h39l447 -1088
c82.667 -200 164.334 -300 245.001 -300v-29h-583v28c51.333 0 93 10.667 125 32c27.333 18 41 44.333 41 79c0 24.667 -17.333 82 -52 172l-92 238h-477zM853.999 1783c26.667 0 49.667 -10 69 -30s29 -43.333 29 -70c0 -28.667 -9.16699 -52.5 -27.5 -71.5
s-41.833 -28.5 -70.5 -28.5c-28 0 -51.667 9.66699 -71 29s-29 43 -29 71c0 26 10.167 49.167 30.5 69.5s43.5 30.5 69.5 30.5zM501.999 1783c26 0 49.167 -10.167 69.5 -30.5s30.5 -43.5 30.5 -69.5c0 -28 -9.66699 -51.667 -29 -71s-43 -29 -71 -29
s-51.333 9.66699 -70 29s-28 43 -28 71c0 26.667 9.66699 50 29 70s42.333 30 69 30z" />
    <glyph glyph-name="Aring" unicode="&#xc5;" horiz-adv-x="1356" 
d="M684 1874c-42 0 -76.998 -14.5 -104.998 -43.5s-42 -64.5 -42 -106.5c0 -41.333 14.167 -76.5 42.5 -105.5s63.166 -43.5 104.499 -43.5s76.666 14.5 105.999 43.5s44 64.167 44 105.5c0 42 -14.5 77.5 -43.5 106.5s-64.5 43.5 -106.5 43.5zM684.002 1964
c67.333 0 124.5 -23.167 171.5 -69.5s70.5 -103.166 70.5 -170.499s-23.5 -124 -70.5 -170s-104.167 -69 -171.5 -69s-124.5 23 -171.5 69s-70.5 102.667 -70.5 170s23.5 124.166 70.5 170.499s104.167 69.5 171.5 69.5zM362.002 596h439l-217 547zM346.002 549
l-43.001 -103.002c-34.667 -83.333 -57.667 -156.666 -69 -219.999c-3.33301 -19.333 -5 -36.666 -5 -51.999c0 -80.667 59.667 -129 179 -145v-29h-447v29c86.667 0 195.667 163.333 327 490l31 77l334 821h39l447 -1088c82.667 -200 164.334 -300 245.001 -300v-29h-583
v28c51.333 0 93 10.667 125 32c27.333 18 41 44.333 41 79c0 24.667 -17.333 82 -52 172l-92 238h-477z" />
    <glyph glyph-name="AE" unicode="&#xc6;" horiz-adv-x="1892" 
d="M494 754h378v587h-53zM1090 418c0 -150.667 8.66602 -244.331 25.999 -280.998c31.333 -64 110 -96 236 -96c255.333 0 400.666 125.667 435.999 377h29l-15 -418h-1128v29h16c68 0 117 29 147 87c22.667 44 35.334 107.667 38.001 191c-2 -70 -3 -7.66699 -3 187v223
h-393l-170 -299c-80.667 -142 -121 -236.333 -121 -283c0 -70.667 46 -106 138 -106h12v-29h-416v29c62.667 20 127 74 193 162c32 42.667 77.667 115.667 137 219l424 737c8.66699 15.333 19.334 38.666 32.001 69.999c8.66699 34.667 13 51.667 13 51
c0 58.667 -55.333 88 -166 88v28h1128l15 -331h-27c-24 112.667 -74.333 191 -151 235c-62.667 35.333 -157 53 -283 53h-147v-587h10c98.667 0 168 17.667 208 53c42.667 38 64 100.667 64 188h27v-546h-27c0 93.333 -23 162.666 -69 207.999c-40.667 40 -109 60 -205 60
h-8v-299z" />
    <glyph glyph-name="Ccedilla" unicode="&#xc7;" horiz-adv-x="1419" 
d="M682 -28c-162 16 -294.333 75.333 -397 178c-122 121.333 -183 287.666 -183 498.999c0 221.333 62.667 403 188 545c130.667 148.667 305 223 523 223c56.667 0 131 -14 223 -42s148.667 -42 170 -42c24 0 44 15.667 60 47h30l11 -440h-27
c-33.333 123.333 -83 222.333 -149 297c-80 91.333 -177 137 -291 137c-166.667 0 -293.334 -79.333 -380.001 -238c-69.333 -128 -104 -282.667 -104 -464c0 -177.333 37 -322.666 111 -435.999c87.333 -132.667 215 -199 383 -199c118 0 215 32 291 96
c79.333 66 124.333 157 135 273h37c0 -128.667 -52.333 -235.667 -157 -321c-102 -83.333 -228 -122.666 -378 -117.999l-32 1v-80l40 4h12c3.33301 0 9 0.666992 17 2c51.333 0 93.333 -14.667 126 -44s49 -69.333 49 -120c0 -117.333 -73.333 -176 -220 -176
c-84 0 -180.667 26.333 -290 79l26 56c46 -22.667 89.333 -40.334 130 -53.001s75.334 -19 104.001 -19c78.667 0 118 35.667 118 107c0 64.667 -34 96 -102 94l-37 -1l-36 -5z" />
    <glyph glyph-name="Egrave" unicode="&#xc8;" horiz-adv-x="1356" 
d="M86 0l-0.00292969 28.998h16c68.667 0 118 29 148 87c22.667 44 35.334 107.333 38.001 190c-2 -66 -3 -3.33301 -3 188v397c0 194.667 1 257.334 3 188.001c-2.66699 82.667 -15.334 146 -38.001 190c-30 58 -79.333 87 -148 87h-16v28h1061l14 -331h-26
c-23.333 114 -73.333 192.333 -150 235c-61.333 35.333 -155.666 53 -282.999 53h-200v-587c126.667 0 214.334 18.167 263.001 54.5s73 98.5 73 186.5h28v-546h-28c0 96 -26.667 165.333 -80 208c-49.333 40 -134.666 60 -255.999 60v-299
c0 -158.667 11.333 -256.667 34 -294c33.333 -55.333 120.333 -83 261 -83c136.667 0 241 29 313 87c75.333 60.667 122.333 157.334 141 290.001h29l-14 -418h-1180zM564.997 1826l289 -299h-67l-330 207c-41.333 26 -62 53.333 -62 82c0 19.333 7.16699 35.833 21.5 49.5
s31.166 20.5 50.499 20.5c26.667 0 59.334 -20 98.001 -60z" />
    <glyph glyph-name="Eacute" unicode="&#xc9;" horiz-adv-x="1356" 
d="M86 0l-0.00292969 28.998h16c68.667 0 118 29 148 87c22.667 44 35.334 107.333 38.001 190c-2 -66 -3 -3.33301 -3 188v397c0 194.667 1 257.334 3 188.001c-2.66699 82.667 -15.334 146 -38.001 190c-30 58 -79.333 87 -148 87h-16v28h1061l14 -331h-26
c-23.333 114 -73.333 192.333 -150 235c-61.333 35.333 -155.666 53 -282.999 53h-200v-587c126.667 0 214.334 18.167 263.001 54.5s73 98.5 73 186.5h28v-546h-28c0 96 -26.667 165.333 -80 208c-49.333 40 -134.666 60 -255.999 60v-299
c0 -158.667 11.333 -256.667 34 -294c33.333 -55.333 120.333 -83 261 -83c136.667 0 241 29 313 87c75.333 60.667 122.333 157.334 141 290.001h29l-14 -418h-1180zM898.997 1734l-330.001 -207h-67l289 299c38.667 40 71.334 60 98.001 60c48 0 72 -23.333 72 -70
c0 -14 -5 -27.333 -15 -40c-13.333 -16.667 -29 -30.667 -47 -42z" />
    <glyph glyph-name="Ecircumflex" unicode="&#xca;" horiz-adv-x="1356" 
d="M86 0l-0.00292969 28.998h16c68.667 0 118 29 148 87c22.667 44 35.334 107.333 38.001 190c-2 -66 -3 -3.33301 -3 188v397c0 194.667 1 257.334 3 188.001c-2.66699 82.667 -15.334 146 -38.001 190c-30 58 -79.333 87 -148 87h-16v28h1061l14 -331h-26
c-23.333 114 -73.333 192.333 -150 235c-61.333 35.333 -155.666 53 -282.999 53h-200v-587c126.667 0 214.334 18.167 263.001 54.5s73 98.5 73 186.5h28v-546h-28c0 96 -26.667 165.333 -80 208c-49.333 40 -134.666 60 -255.999 60v-299
c0 -158.667 11.333 -256.667 34 -294c33.333 -55.333 120.333 -83 261 -83c136.667 0 241 29 313 87c75.333 60.667 122.333 157.334 141 290.001h29l-14 -418h-1180zM618.997 1878h118l232 -351h-58l-233 211l-233 -211h-58z" />
    <glyph glyph-name="Edieresis" unicode="&#xcb;" horiz-adv-x="1356" 
d="M86 0l-0.00292969 28.998h16c68.667 0 118 29 148 87c22.667 44 35.334 107.333 38.001 190c-2 -66 -3 -3.33301 -3 188v397c0 194.667 1 257.334 3 188.001c-2.66699 82.667 -15.334 146 -38.001 190c-30 58 -79.333 87 -148 87h-16v28h1061l14 -331h-26
c-23.333 114 -73.333 192.333 -150 235c-61.333 35.333 -155.666 53 -282.999 53h-200v-587c126.667 0 214.334 18.167 263.001 54.5s73 98.5 73 186.5h28v-546h-28c0 96 -26.667 165.333 -80 208c-49.333 40 -134.666 60 -255.999 60v-299
c0 -158.667 11.333 -256.667 34 -294c33.333 -55.333 120.333 -83 261 -83c136.667 0 241 29 313 87c75.333 60.667 122.333 157.334 141 290.001h29l-14 -418h-1180zM853.997 1783c26.667 0 49.667 -10 69 -30s29 -43.333 29 -70c0 -28.667 -9.16699 -52.5 -27.5 -71.5
s-41.833 -28.5 -70.5 -28.5c-28 0 -51.667 9.66699 -71 29s-29 43 -29 71c0 26 10.167 49.167 30.5 69.5s43.5 30.5 69.5 30.5zM501.997 1783c26 0 49.167 -10.167 69.5 -30.5s30.5 -43.5 30.5 -69.5c0 -28 -9.66699 -51.667 -29 -71s-43 -29 -71 -29
s-51.333 9.66699 -70 29s-28 43 -28 71c0 26.667 9.66699 50 29 70s42.333 30 69 30z" />
    <glyph glyph-name="Igrave" unicode="&#xcc;" horiz-adv-x="807" 
d="M717 1384v-27.999h-17c-69.333 0 -119.333 -30.667 -150 -92c-22.667 -46.667 -35 -113.334 -37 -200.001c2 93.333 3 28.666 3 -194.001v-356c0 -236 -1.33301 -301 -4 -195c2 -86.667 14.667 -153 38 -199c30 -60.667 80 -91 150 -91h17v-29h-627v29h16
c68.667 0 118 29 148 87c22.667 44 35.334 107.333 38.001 190c-2 -66 -3 -3.33301 -3 188v397c0 194.667 1 257.334 3 188.001c-2.66699 82.667 -15.334 146 -38.001 190c-30 58 -79.333 87 -148 87h-16v28h627zM290 1826l289 -299h-67l-330 207
c-41.333 26 -62 53.333 -62 82c0 19.333 7.16699 35.833 21.5 49.5s31.166 20.5 50.499 20.5c26.667 0 59.334 -20 98.001 -60z" />
    <glyph glyph-name="Iacute" unicode="&#xcd;" horiz-adv-x="807" 
d="M717 1384v-27.999h-17c-69.333 0 -119.333 -30.667 -150 -92c-22.667 -46.667 -35 -113.334 -37 -200.001c2 93.333 3 28.666 3 -194.001v-356c0 -236 -1.33301 -301 -4 -195c2 -86.667 14.667 -153 38 -199c30 -60.667 80 -91 150 -91h17v-29h-627v29h16
c68.667 0 118 29 148 87c22.667 44 35.334 107.333 38.001 190c-2 -66 -3 -3.33301 -3 188v397c0 194.667 1 257.334 3 188.001c-2.66699 82.667 -15.334 146 -38.001 190c-30 58 -79.333 87 -148 87h-16v28h627zM624 1734l-330.001 -207h-67l289 299
c38.667 40 71.334 60 98.001 60c48 0 72 -23.333 72 -70c0 -14 -5 -27.333 -15 -40c-13.333 -16.667 -29 -30.667 -47 -42z" />
    <glyph glyph-name="Icircumflex" unicode="&#xce;" horiz-adv-x="807" 
d="M717 1384v-27.999h-17c-69.333 0 -119.333 -30.667 -150 -92c-22.667 -46.667 -35 -113.334 -37 -200.001c2 93.333 3 28.666 3 -194.001v-356c0 -236 -1.33301 -301 -4 -195c2 -86.667 14.667 -153 38 -199c30 -60.667 80 -91 150 -91h17v-29h-627v29h16
c68.667 0 118 29 148 87c22.667 44 35.334 107.333 38.001 190c-2 -66 -3 -3.33301 -3 188v397c0 194.667 1 257.334 3 188.001c-2.66699 82.667 -15.334 146 -38.001 190c-30 58 -79.333 87 -148 87h-16v28h627zM344 1878h118l232 -351h-58l-233 211l-233 -211h-58z" />
    <glyph glyph-name="Idieresis" unicode="&#xcf;" horiz-adv-x="807" 
d="M717 1384v-27.999h-17c-69.333 0 -119.333 -30.667 -150 -92c-22.667 -46.667 -35 -113.334 -37 -200.001c2 93.333 3 28.666 3 -194.001v-356c0 -236 -1.33301 -301 -4 -195c2 -86.667 14.667 -153 38 -199c30 -60.667 80 -91 150 -91h17v-29h-627v29h16
c68.667 0 118 29 148 87c22.667 44 35.334 107.333 38.001 190c-2 -66 -3 -3.33301 -3 188v397c0 194.667 1 257.334 3 188.001c-2.66699 82.667 -15.334 146 -38.001 190c-30 58 -79.333 87 -148 87h-16v28h627zM579 1783c26.667 0 49.667 -10 69 -30s29 -43.333 29 -70
c0 -28.667 -9.16699 -52.5 -27.5 -71.5s-41.833 -28.5 -70.5 -28.5c-28 0 -51.667 9.66699 -71 29s-29 43 -29 71c0 26 10.167 49.167 30.5 69.5s43.5 30.5 69.5 30.5zM227 1783c26 0 49.167 -10.167 69.5 -30.5s30.5 -43.5 30.5 -69.5c0 -28 -9.66699 -51.667 -29 -71
s-43 -29 -71 -29s-51.333 9.66699 -70 29s-28 43 -28 71c0 26.667 9.66699 50 29 70s42.333 30 69 30z" />
    <glyph glyph-name="Eth" unicode="&#xd0;" horiz-adv-x="1546" 
d="M1337 104l-65.002 7c-183.333 -96 -350.666 -144 -501.999 -144c-208 0 -372 65 -492 195c-117.333 126.667 -176 294.667 -176 504c0 215.333 64.333 393.333 193 534c132 144.667 304.667 217 518 217c56.667 0 131 -14 223 -42s148.667 -42 170 -42
c24 0 44 15.667 60 47h30l11 -440h-27c-33.333 123.333 -83 222.333 -149 297c-80 91.333 -177 137 -291 137c-170 0 -297.667 -82.333 -383 -247c-67.333 -129.333 -101 -287.333 -101 -474c0 -170 35 -313.667 105 -431c84.667 -141.333 206.667 -212 366 -212
c92.667 0 166.834 25.833 222.501 77.5s83.5 123.5 83.5 215.5c0 70 -16.333 120.333 -49 151c-36 33.333 -91.333 50 -166 50v26h616v-26c-79.333 0 -134.333 -16 -165 -48c-26.667 -28 -38.667 -91.333 -36 -190zM480.998 1839l51 -0.000976562
c17.333 -71.333 66 -115.666 146 -132.999c27.333 -6 59.333 -9 96 -9c137.333 0 217.333 47.333 240 142h51c-27.333 -182 -124.333 -273 -291 -273c-167.333 0 -265 91 -293 273z" />
    <glyph glyph-name="Ntilde" unicode="&#xd1;" horiz-adv-x="1567" 
d="M1282 354v632.999c0 114.667 -8.33301 196 -25 244c-30 83.333 -90.667 125 -182 125v28h455v-28c-90.667 0 -150.667 -42 -180 -126c-16.667 -48 -25 -129 -25 -243v-1001h-29l-979 1224v-813c0 -114.667 8.33301 -195.667 25 -243c29.333 -84 89.333 -126 180 -126v-28
h-452v29c90.667 0 150.667 42 180 126c16 46.667 24 127.334 24 242.001v602c0 115.333 -7.33301 194.333 -22 237c-27.333 80 -86 120 -176 120v28h379zM1017 1824h54.001c-26.667 -134.667 -91.667 -202 -195 -202h-12c-7.33301 0 -14.333 0.666992 -21 2l-41 8l-109 27
l-26 4l-30 2c-20.667 1.33301 -37.834 -5 -51.501 -19s-26.167 -37.667 -37.5 -71h-51c24 142 89.667 213 197 213c20 0 41 -3 63 -9l141 -37l25 -2c21.333 -2 40.333 4 57 18c14.667 12 27 34 37 66z" />
    <glyph glyph-name="Ograve" unicode="&#xd2;" horiz-adv-x="1659" 
d="M829 10c164 0 289.666 76.332 376.999 228.999c71.333 124.667 107 275.667 107 453c0 182 -34.333 333.667 -103 455c-84.667 151.333 -211 227 -379 227c-163.333 0 -288.666 -75.667 -375.999 -227c-72.667 -125.333 -109 -275.666 -109 -450.999
c0 -176 35.667 -327.333 107 -454c88 -154.667 213.333 -232 376 -232zM89.999 685.999c0 168.667 54 319.667 162 453c150 185.333 346.667 278 590 278c143.333 0 276.333 -37.333 399 -112c126.667 -77.333 217 -180 271 -308c38 -90.667 57 -193 57 -307
c0 -207.333 -70 -378 -210 -512c-67.333 -64.667 -148.333 -116 -243 -154s-188.667 -57 -282 -57c-208 0 -383 66.333 -525 199c-146 136.667 -219 310 -219 520zM715.999 1826l289 -299h-67l-330 207c-41.333 26 -62 53.333 -62 82c0 19.333 7.16699 35.833 21.5 49.5
s31.166 20.5 50.499 20.5c26.667 0 59.334 -20 98.001 -60z" />
    <glyph glyph-name="Oacute" unicode="&#xd3;" horiz-adv-x="1659" 
d="M829 10c164 0 289.666 76.332 376.999 228.999c71.333 124.667 107 275.667 107 453c0 182 -34.333 333.667 -103 455c-84.667 151.333 -211 227 -379 227c-163.333 0 -288.666 -75.667 -375.999 -227c-72.667 -125.333 -109 -275.666 -109 -450.999
c0 -176 35.667 -327.333 107 -454c88 -154.667 213.333 -232 376 -232zM89.999 685.999c0 168.667 54 319.667 162 453c150 185.333 346.667 278 590 278c143.333 0 276.333 -37.333 399 -112c126.667 -77.333 217 -180 271 -308c38 -90.667 57 -193 57 -307
c0 -207.333 -70 -378 -210 -512c-67.333 -64.667 -148.333 -116 -243 -154s-188.667 -57 -282 -57c-208 0 -383 66.333 -525 199c-146 136.667 -219 310 -219 520zM1050 1734l-330.001 -207h-67l289 299c38.667 40 71.334 60 98.001 60c48 0 72 -23.333 72 -70
c0 -14 -5 -27.333 -15 -40c-13.333 -16.667 -29 -30.667 -47 -42z" />
    <glyph glyph-name="Ocircumflex" unicode="&#xd4;" horiz-adv-x="1659" 
d="M829 10c164 0 289.666 76.332 376.999 228.999c71.333 124.667 107 275.667 107 453c0 182 -34.333 333.667 -103 455c-84.667 151.333 -211 227 -379 227c-163.333 0 -288.666 -75.667 -375.999 -227c-72.667 -125.333 -109 -275.666 -109 -450.999
c0 -176 35.667 -327.333 107 -454c88 -154.667 213.333 -232 376 -232zM89.999 685.999c0 168.667 54 319.667 162 453c150 185.333 346.667 278 590 278c143.333 0 276.333 -37.333 399 -112c126.667 -77.333 217 -180 271 -308c38 -90.667 57 -193 57 -307
c0 -207.333 -70 -378 -210 -512c-67.333 -64.667 -148.333 -116 -243 -154s-188.667 -57 -282 -57c-208 0 -383 66.333 -525 199c-146 136.667 -219 310 -219 520zM769.999 1878h118l232 -351h-58l-233 211l-233 -211h-58z" />
    <glyph glyph-name="Otilde" unicode="&#xd5;" horiz-adv-x="1659" 
d="M829 10c164 0 289.666 76.332 376.999 228.999c71.333 124.667 107 275.667 107 453c0 182 -34.333 333.667 -103 455c-84.667 151.333 -211 227 -379 227c-163.333 0 -288.666 -75.667 -375.999 -227c-72.667 -125.333 -109 -275.666 -109 -450.999
c0 -176 35.667 -327.333 107 -454c88 -154.667 213.333 -232 376 -232zM89.999 685.999c0 168.667 54 319.667 162 453c150 185.333 346.667 278 590 278c143.333 0 276.333 -37.333 399 -112c126.667 -77.333 217 -180 271 -308c38 -90.667 57 -193 57 -307
c0 -207.333 -70 -378 -210 -512c-67.333 -64.667 -148.333 -116 -243 -154s-188.667 -57 -282 -57c-208 0 -383 66.333 -525 199c-146 136.667 -219 310 -219 520zM1062 1824h54.001c-26.667 -134.667 -91.667 -202 -195 -202h-12c-7.33301 0 -14.333 0.666992 -21 2l-41 8
l-109 27l-26 4l-30 2c-20.667 1.33301 -37.834 -5 -51.501 -19s-26.167 -37.667 -37.5 -71h-51c24 142 89.667 213 197 213c20 0 41 -3 63 -9l141 -37l25 -2c21.333 -2 40.333 4 57 18c14.667 12 27 34 37 66z" />
    <glyph glyph-name="Odieresis" unicode="&#xd6;" horiz-adv-x="1659" 
d="M829 10c164 0 289.666 76.332 376.999 228.999c71.333 124.667 107 275.667 107 453c0 182 -34.333 333.667 -103 455c-84.667 151.333 -211 227 -379 227c-163.333 0 -288.666 -75.667 -375.999 -227c-72.667 -125.333 -109 -275.666 -109 -450.999
c0 -176 35.667 -327.333 107 -454c88 -154.667 213.333 -232 376 -232zM89.999 685.999c0 168.667 54 319.667 162 453c150 185.333 346.667 278 590 278c143.333 0 276.333 -37.333 399 -112c126.667 -77.333 217 -180 271 -308c38 -90.667 57 -193 57 -307
c0 -207.333 -70 -378 -210 -512c-67.333 -64.667 -148.333 -116 -243 -154s-188.667 -57 -282 -57c-208 0 -383 66.333 -525 199c-146 136.667 -219 310 -219 520zM1005 1783c26.667 0 49.667 -10 69 -30s29 -43.333 29 -70c0 -28.667 -9.16699 -52.5 -27.5 -71.5
s-41.833 -28.5 -70.5 -28.5c-28 0 -51.667 9.66699 -71 29s-29 43 -29 71c0 26 10.167 49.167 30.5 69.5s43.5 30.5 69.5 30.5zM652.999 1783c26 0 49.167 -10.167 69.5 -30.5s30.5 -43.5 30.5 -69.5c0 -28 -9.66699 -51.667 -29 -71s-43 -29 -71 -29
s-51.333 9.66699 -70 29s-28 43 -28 71c0 26.667 9.66699 50 29 70s42.333 30 69 30z" />
    <glyph glyph-name="multiply" unicode="&#xd7;" horiz-adv-x="1706" 
d="M381 1169l477 -477l475 477l82 -82l-475 -477l475 -475l-82 -82l-475 475l-477 -475l-80 82l475 475l-475 477z" />
    <glyph glyph-name="Oslash" unicode="&#xd8;" horiz-adv-x="1659" 
d="M1194 1180l-684.001 -1016c32 -48.667 78.667 -87 140 -115c56.667 -26 116.334 -39 179.001 -39c164 0 289.667 76.333 377 229c71.333 124.667 107 275.667 107 453c0 206 -39.667 368.667 -119 488zM466.999 211l686 1016c-90 98 -197.333 147 -322 147
c-162.667 0 -288 -76 -376 -228c-72.667 -125.333 -109 -275.333 -109 -450c0 -183.333 40.333 -345 121 -485zM218.999 -156l172 254.001c-200.667 139.333 -301 332.666 -301 579.999c0 208 73.333 383.667 220 527c146 141.333 323.333 212 532 212
c98.667 0 192.334 -17.667 281.001 -53c28 -11.333 58.333 -26.333 91 -45l134 197h73l-151 -226c199.333 -141.333 299 -341.333 299 -600c0 -212 -73 -386 -219 -522c-142 -134 -319.667 -201 -533 -201c-94.667 0 -188.334 18.333 -281.001 55
c-30.667 12 -62 26.667 -94 44l-147 -222h-76z" />
    <glyph glyph-name="Ugrave" unicode="&#xd9;" horiz-adv-x="1507" 
d="M1233 987c0 114.667 -8.33203 195.998 -24.999 243.998c-30 83.333 -90.667 125 -182 125v28h453l-1 -28c-90.667 0 -150.667 -42 -180 -126c-16 -47.333 -24 -128.333 -24 -243v-436c0 -207.333 -35 -354 -105 -440c-78.667 -96 -218.334 -144 -419.001 -144
c-200 0 -342.667 46.333 -428 139c-40 43.333 -65.667 108.333 -77 195c-4.66699 38.667 -7 110.334 -7 215.001v354c0 234.667 1.33301 300 4 196c-2 86.667 -14.667 153 -38 199c-30.667 60.667 -81 91 -151 91h-16v28h616v-28h-16c-68.667 0 -118 -29 -148 -87
c-22.667 -44 -35 -107.333 -37 -190c2 72.667 3 10 3 -188v-373c0 -159.333 23.333 -273.666 70 -342.999c57.333 -84 161 -126 311 -126c156 0 264 44.667 324 134c48.667 72 73 191.333 73 358v446zM698.001 1826l289 -299h-67l-330 207c-41.333 26 -62 53.333 -62 82
c0 19.333 7.16699 35.833 21.5 49.5s31.166 20.5 50.499 20.5c26.667 0 59.334 -20 98.001 -60z" />
    <glyph glyph-name="Uacute" unicode="&#xda;" horiz-adv-x="1507" 
d="M1233 987c0 114.667 -8.33203 195.998 -24.999 243.998c-30 83.333 -90.667 125 -182 125v28h453l-1 -28c-90.667 0 -150.667 -42 -180 -126c-16 -47.333 -24 -128.333 -24 -243v-436c0 -207.333 -35 -354 -105 -440c-78.667 -96 -218.334 -144 -419.001 -144
c-200 0 -342.667 46.333 -428 139c-40 43.333 -65.667 108.333 -77 195c-4.66699 38.667 -7 110.334 -7 215.001v354c0 234.667 1.33301 300 4 196c-2 86.667 -14.667 153 -38 199c-30.667 60.667 -81 91 -151 91h-16v28h616v-28h-16c-68.667 0 -118 -29 -148 -87
c-22.667 -44 -35 -107.333 -37 -190c2 72.667 3 10 3 -188v-373c0 -159.333 23.333 -273.666 70 -342.999c57.333 -84 161 -126 311 -126c156 0 264 44.667 324 134c48.667 72 73 191.333 73 358v446zM1032 1734l-330.001 -207h-67l289 299c38.667 40 71.334 60 98.001 60
c48 0 72 -23.333 72 -70c0 -14 -5 -27.333 -15 -40c-13.333 -16.667 -29 -30.667 -47 -42z" />
    <glyph glyph-name="Ucircumflex" unicode="&#xdb;" horiz-adv-x="1507" 
d="M1233 987c0 114.667 -8.33203 195.998 -24.999 243.998c-30 83.333 -90.667 125 -182 125v28h453l-1 -28c-90.667 0 -150.667 -42 -180 -126c-16 -47.333 -24 -128.333 -24 -243v-436c0 -207.333 -35 -354 -105 -440c-78.667 -96 -218.334 -144 -419.001 -144
c-200 0 -342.667 46.333 -428 139c-40 43.333 -65.667 108.333 -77 195c-4.66699 38.667 -7 110.334 -7 215.001v354c0 234.667 1.33301 300 4 196c-2 86.667 -14.667 153 -38 199c-30.667 60.667 -81 91 -151 91h-16v28h616v-28h-16c-68.667 0 -118 -29 -148 -87
c-22.667 -44 -35 -107.333 -37 -190c2 72.667 3 10 3 -188v-373c0 -159.333 23.333 -273.666 70 -342.999c57.333 -84 161 -126 311 -126c156 0 264 44.667 324 134c48.667 72 73 191.333 73 358v446zM752.001 1878h118l232 -351h-58l-233 211l-233 -211h-58z" />
    <glyph glyph-name="Udieresis" unicode="&#xdc;" horiz-adv-x="1507" 
d="M1233 987c0 114.667 -8.33203 195.998 -24.999 243.998c-30 83.333 -90.667 125 -182 125v28h453l-1 -28c-90.667 0 -150.667 -42 -180 -126c-16 -47.333 -24 -128.333 -24 -243v-436c0 -207.333 -35 -354 -105 -440c-78.667 -96 -218.334 -144 -419.001 -144
c-200 0 -342.667 46.333 -428 139c-40 43.333 -65.667 108.333 -77 195c-4.66699 38.667 -7 110.334 -7 215.001v354c0 234.667 1.33301 300 4 196c-2 86.667 -14.667 153 -38 199c-30.667 60.667 -81 91 -151 91h-16v28h616v-28h-16c-68.667 0 -118 -29 -148 -87
c-22.667 -44 -35 -107.333 -37 -190c2 72.667 3 10 3 -188v-373c0 -159.333 23.333 -273.666 70 -342.999c57.333 -84 161 -126 311 -126c156 0 264 44.667 324 134c48.667 72 73 191.333 73 358v446zM987.001 1783c26.667 0 49.667 -10 69 -30s29 -43.333 29 -70
c0 -28.667 -9.16699 -52.5 -27.5 -71.5s-41.833 -28.5 -70.5 -28.5c-28 0 -51.667 9.66699 -71 29s-29 43 -29 71c0 26 10.167 49.167 30.5 69.5s43.5 30.5 69.5 30.5zM635.001 1783c26 0 49.167 -10.167 69.5 -30.5s30.5 -43.5 30.5 -69.5c0 -28 -9.66699 -51.667 -29 -71
s-43 -29 -71 -29s-51.333 9.66699 -70 29s-28 43 -28 71c0 26.667 9.66699 50 29 70s42.333 30 69 30z" />
    <glyph glyph-name="Yacute" unicode="&#xdd;" horiz-adv-x="807" 
d="M717 1384v-27.999h-17c-69.333 0 -119.333 -30.667 -150 -92c-22.667 -46.667 -35 -113.334 -37 -200.001c2 93.333 3 28.666 3 -194.001v-356c0 -236 -1.33301 -301 -4 -195c2 -86.667 14.667 -153 38 -199c30 -60.667 80 -91 150 -91h17v-29h-627v29h16
c68.667 0 118 29 148 87c22.667 44 35.334 107.333 38.001 190c-2 -66 -3 -3.33301 -3 188v397c0 194.667 1 257.334 3 188.001c-2.66699 82.667 -15.334 146 -38.001 190c-30 58 -79.333 87 -148 87h-16v28h627zM403 1790c28.667 0 53.167 -10.667 73.5 -32
s30.5 -46.333 30.5 -75s-10.167 -53.167 -30.5 -73.5s-44.833 -30.5 -73.5 -30.5s-53.167 9.83301 -73.5 29.5s-30.5 44.5 -30.5 74.5c0 28.667 10.167 53.667 30.5 75s44.833 32 73.5 32z" />
    <glyph glyph-name="Thorn" unicode="&#xde;" horiz-adv-x="1139" 
d="M497 -30c-50 6.66699 -98.6689 18.668 -146.002 36.001c-71.333 26 -113.333 39.667 -126 41c-28.667 0 -47 -19 -55 -57h-33l-18 434h26c22 -118.667 65.333 -214.667 130 -288c74 -84 167.333 -126 280 -126c80.667 0 144.334 26.333 191.001 79
c44.667 50.667 67 116.667 67 198c0 80 -28.333 148 -85 204c-39.333 39.333 -103.666 80.333 -192.999 123c-129.333 62.667 -216.333 113 -261 151c-81.333 69.333 -122 155.666 -122 258.999c0 110 35.667 203 107 279s161.666 114 270.999 114
c68.667 0 134.667 -12.667 198 -38l95 -38c24.667 0 41.334 18 50.001 54h30l19 -385h-25c-77.333 242.667 -195.333 364 -354 364c-64 0 -115.833 -20.5 -155.5 -61.5s-59.5 -93.5 -59.5 -157.5c0 -72 28.333 -132.667 85 -182c33.333 -29.333 93.666 -65 180.999 -107
l131 -63c68 -32.667 109 -54 123 -64c117.333 -83.333 176 -199.333 176 -348c0 -129.333 -44.333 -233.666 -133 -312.999c-84.667 -75.333 -192.667 -113 -324 -113h-6v-77l40 4h12c3.33301 0 9 0.666992 17 2c51.333 0 93.333 -14.667 126 -44s49 -69.333 49 -120
c0 -117.333 -73.333 -176 -220 -176c-84 0 -180.667 26.333 -290 79l26 56c46 -22.667 89.333 -40.334 130 -53.001s75.334 -19 104.001 -19c78.667 0 118 35.667 118 107c0 64.667 -34 96 -102 94l-37 -1l-36 -5z" />
    <glyph glyph-name="germandbls" unicode="&#xdf;" horiz-adv-x="1034" 
d="M360 1104l-0.00195312 -805c0 -95.333 2 -152.333 6 -171c13.333 -66 49.666 -99 108.999 -99v-29h-420v29h8c74.667 0 119.334 29.333 134.001 88c4 14.667 6 78 6 190v744c0 237.333 118 356 354 356c78.667 0 144.667 -18.333 198 -55c60.667 -42 91 -100.667 91 -176
c0 -60 -40.333 -131.333 -121 -214l-37 -38c-40.667 -42 -61 -90 -61 -144c0 -67.333 37.833 -129.833 113.5 -187.5s126.834 -103.834 153.501 -138.501c42.667 -54.667 64 -118 64 -190c0 -83.333 -27.167 -153 -81.5 -209s-123.166 -84 -206.499 -84
c-27.333 0 -52.5 4.66699 -75.5 14s-40.833 22 -53.5 38l24 24c14.667 -18 35 -29 61 -33c8 -1.33301 18.333 -2 31 -2c50 0 89 20 117 60c24.667 34.667 37 78.334 37 131.001c0 86 -47.667 168 -143 246l-33 27c-92.667 76 -139 145.333 -139 208
c0 52 27.667 107.333 83 166l17 18c68 72 102 158 102 258c0 162.667 -58.667 244 -176 244c-108 0 -162 -88.667 -162 -266z" />
    <glyph glyph-name="agrave" unicode="&#xe0;" horiz-adv-x="930" 
d="M567 492l-107 -59c-151.333 -83.333 -227 -170.333 -227 -261c0 -46 12.333 -83.333 37 -112c26 -30.667 61.667 -46 107 -46c126.667 0 190 93.667 190 281v197zM561 78c-53.333 -71.333 -133.001 -106.998 -239.001 -106.998c-168 0 -252 75.333 -252 226
c0 107.333 103.667 190.666 311 249.999l14 4c69.333 20 114 39 134 57c24 21.333 36 50 36 86v74c0 124 -56 186 -168 186c-40.667 0 -69.667 -6.83301 -87 -20.5s-30 -39.834 -38 -78.501c-14 -69.333 -42.667 -104 -86 -104c-51.333 0 -77 24 -77 72
c0 60 37.333 105 112 135c54 22 116.333 33 187 33c102 0 177 -16 225 -48c58.667 -38.667 88 -106 88 -202v-455c0 -108.667 26.667 -163 80 -163c40 0 80.333 21 121 63l22 -18c-41.333 -64.667 -107.666 -97 -198.999 -97c-106.667 0 -168 35.667 -184 107zM316.999 1300
l289 -299h-67l-330 207c-41.333 26 -62 53.333 -62 82c0 19.333 7.16699 35.833 21.5 49.5s31.166 20.5 50.499 20.5c26.667 0 59.334 -20 98.001 -60z" />
    <glyph glyph-name="aacute" unicode="&#xe1;" horiz-adv-x="930" 
d="M567 492l-107 -59c-151.333 -83.333 -227 -170.333 -227 -261c0 -46 12.333 -83.333 37 -112c26 -30.667 61.667 -46 107 -46c126.667 0 190 93.667 190 281v197zM561 78c-53.333 -71.333 -133.001 -106.998 -239.001 -106.998c-168 0 -252 75.333 -252 226
c0 107.333 103.667 190.666 311 249.999l14 4c69.333 20 114 39 134 57c24 21.333 36 50 36 86v74c0 124 -56 186 -168 186c-40.667 0 -69.667 -6.83301 -87 -20.5s-30 -39.834 -38 -78.501c-14 -69.333 -42.667 -104 -86 -104c-51.333 0 -77 24 -77 72
c0 60 37.333 105 112 135c54 22 116.333 33 187 33c102 0 177 -16 225 -48c58.667 -38.667 88 -106 88 -202v-455c0 -108.667 26.667 -163 80 -163c40 0 80.333 21 121 63l22 -18c-41.333 -64.667 -107.666 -97 -198.999 -97c-106.667 0 -168 35.667 -184 107zM650.999 1208
l-330.001 -207h-67l289 299c38.667 40 71.334 60 98.001 60c48 0 72 -23.333 72 -70c0 -14 -5 -27.333 -15 -40c-13.333 -16.667 -29 -30.667 -47 -42z" />
    <glyph glyph-name="acircumflex" unicode="&#xe2;" horiz-adv-x="930" 
d="M567 492l-107 -59c-151.333 -83.333 -227 -170.333 -227 -261c0 -46 12.333 -83.333 37 -112c26 -30.667 61.667 -46 107 -46c126.667 0 190 93.667 190 281v197zM561 78c-53.333 -71.333 -133.001 -106.998 -239.001 -106.998c-168 0 -252 75.333 -252 226
c0 107.333 103.667 190.666 311 249.999l14 4c69.333 20 114 39 134 57c24 21.333 36 50 36 86v74c0 124 -56 186 -168 186c-40.667 0 -69.667 -6.83301 -87 -20.5s-30 -39.834 -38 -78.501c-14 -69.333 -42.667 -104 -86 -104c-51.333 0 -77 24 -77 72
c0 60 37.333 105 112 135c54 22 116.333 33 187 33c102 0 177 -16 225 -48c58.667 -38.667 88 -106 88 -202v-455c0 -108.667 26.667 -163 80 -163c40 0 80.333 21 121 63l22 -18c-41.333 -64.667 -107.666 -97 -198.999 -97c-106.667 0 -168 35.667 -184 107zM370.999 1352
h118l232 -351h-58l-233 211l-233 -211h-58z" />
    <glyph glyph-name="atilde" unicode="&#xe3;" horiz-adv-x="930" 
d="M567 492l-107 -59c-151.333 -83.333 -227 -170.333 -227 -261c0 -46 12.333 -83.333 37 -112c26 -30.667 61.667 -46 107 -46c126.667 0 190 93.667 190 281v197zM561 78c-53.333 -71.333 -133.001 -106.998 -239.001 -106.998c-168 0 -252 75.333 -252 226
c0 107.333 103.667 190.666 311 249.999l14 4c69.333 20 114 39 134 57c24 21.333 36 50 36 86v74c0 124 -56 186 -168 186c-40.667 0 -69.667 -6.83301 -87 -20.5s-30 -39.834 -38 -78.501c-14 -69.333 -42.667 -104 -86 -104c-51.333 0 -77 24 -77 72
c0 60 37.333 105 112 135c54 22 116.333 33 187 33c102 0 177 -16 225 -48c58.667 -38.667 88 -106 88 -202v-455c0 -108.667 26.667 -163 80 -163c40 0 80.333 21 121 63l22 -18c-41.333 -64.667 -107.666 -97 -198.999 -97c-106.667 0 -168 35.667 -184 107zM662.999 1298
h54.001c-26.667 -134.667 -91.667 -202 -195 -202h-12c-7.33301 0 -14.333 0.666992 -21 2l-41 8l-109 27l-26 4l-30 2c-20.667 1.33301 -37.834 -5 -51.501 -19s-26.167 -37.667 -37.5 -71h-51c24 142 89.667 213 197 213c20 0 41 -3 63 -9l141 -37l25 -2
c21.333 -2 40.333 4 57 18c14.667 12 27 34 37 66z" />
    <glyph glyph-name="adieresis" unicode="&#xe4;" horiz-adv-x="930" 
d="M567 492l-107 -59c-151.333 -83.333 -227 -170.333 -227 -261c0 -46 12.333 -83.333 37 -112c26 -30.667 61.667 -46 107 -46c126.667 0 190 93.667 190 281v197zM561 78c-53.333 -71.333 -133.001 -106.998 -239.001 -106.998c-168 0 -252 75.333 -252 226
c0 107.333 103.667 190.666 311 249.999l14 4c69.333 20 114 39 134 57c24 21.333 36 50 36 86v74c0 124 -56 186 -168 186c-40.667 0 -69.667 -6.83301 -87 -20.5s-30 -39.834 -38 -78.501c-14 -69.333 -42.667 -104 -86 -104c-51.333 0 -77 24 -77 72
c0 60 37.333 105 112 135c54 22 116.333 33 187 33c102 0 177 -16 225 -48c58.667 -38.667 88 -106 88 -202v-455c0 -108.667 26.667 -163 80 -163c40 0 80.333 21 121 63l22 -18c-41.333 -64.667 -107.666 -97 -198.999 -97c-106.667 0 -168 35.667 -184 107zM605.999 1257
c26.667 0 49.667 -10 69 -30s29 -43.333 29 -70c0 -28.667 -9.16699 -52.5 -27.5 -71.5s-41.833 -28.5 -70.5 -28.5c-28 0 -51.667 9.66699 -71 29s-29 43 -29 71c0 26 10.167 49.167 30.5 69.5s43.5 30.5 69.5 30.5zM253.999 1257c26 0 49.167 -10.167 69.5 -30.5
s30.5 -43.5 30.5 -69.5c0 -28 -9.66699 -51.667 -29 -71s-43 -29 -71 -29s-51.333 9.66699 -70 29s-28 43 -28 71c0 26.667 9.66699 50 29 70s42.333 30 69 30z" />
    <glyph glyph-name="aring" unicode="&#xe5;" horiz-adv-x="930" 
d="M561 78c-53.333 -71.333 -133.001 -106.998 -239.001 -106.998c-168 0 -252 75.333 -252 226c0 107.333 103.667 190.666 311 249.999l14 4c69.333 20 114 39 134 57c24 21.333 36 50 36 86v74c0 124 -56 186 -168 186c-40.667 0 -69.667 -6.83301 -87 -20.5
s-30 -39.834 -38 -78.501c-14 -69.333 -42.667 -104 -86 -104c-51.333 0 -77 24 -77 72c0 60 37.333 105 112 135c54 22 116.333 33 187 33c102 0 177 -16 225 -48c58.667 -38.667 88 -106 88 -202v-455c0 -108.667 26.667 -163 80 -163c40 0 80.333 21 121 63l22 -18
c-41.333 -64.667 -107.666 -97 -198.999 -97c-106.667 0 -168 35.667 -184 107zM423.999 1348c-42 0 -77.167 -14.499 -105.5 -43.499s-42.5 -64.5 -42.5 -106.5c0 -40.667 14.5 -75.667 43.5 -105s63.833 -44 104.5 -44c41.333 0 76.833 14.5 106.5 43.5
s44.5 64.167 44.5 105.5s-14.833 76.666 -44.5 105.999s-65.167 44 -106.5 44zM423.999 1440c67.333 0 124.501 -23.502 171.501 -70.502s70.5 -104.167 70.5 -171.5s-23.5 -124.166 -70.5 -170.499s-104.167 -69.5 -171.5 -69.5c-66.667 0 -123.334 23.333 -170.001 70
s-70 103.334 -70 170.001c0 68 23 125.333 69 172s103 70 171 70zM567 492.001l-107 -59c-151.333 -83.333 -227 -170.333 -227 -261c0 -46 12.333 -83.333 37 -112c26 -30.667 61.667 -46 107 -46c126.667 0 190 93.667 190 281v197z" />
    <glyph glyph-name="ae" unicode="&#xe6;" horiz-adv-x="1380" 
d="M756 612l408.999 0.000976562c0 71.333 -19 130.666 -57 177.999c-34.667 42.667 -79.667 64 -135 64c-119.333 0 -191.666 -80.667 -216.999 -242zM699.999 776.001c92 76.667 188.333 114.997 289 114.997c93.333 0 169.333 -28.167 228 -84.5s88 -131.166 88 -224.499
v-9h-557l-9 -63l-2 -35c-0.666992 -13.333 -1 -26.666 -1 -39.999c0 -112 26.667 -208.667 80 -290s124.666 -122 213.999 -122c126 0 212.667 64.667 260 194h37c-46.667 -164 -162.667 -246 -348 -246c-140 0 -250.667 48.667 -332 146
c-94.667 -96 -197.667 -144 -309 -144c-177.333 0 -266 74.667 -266 224c0 114 115.333 199.667 346 257c99.333 24.667 149 71.334 149 140.001v74c0 124 -56 186 -168 186c-40 0 -68.833 -7 -86.5 -21s-30.5 -40.333 -38.5 -79c-14 -68.667 -42.667 -103 -86 -103
c-51.333 0 -77 24 -77 72c0 78.667 59.333 130.667 178 156c36.667 8 78.334 12 125.001 12c138 0 233.333 -38.333 286 -115zM566.999 491.998l-107.002 -59c-151.333 -83.333 -227 -170.333 -227 -261c0 -47.333 13.333 -85.5 40 -114.5s63.334 -43.5 110.001 -43.5
c78.667 0 131.334 29 158.001 87c17.333 38 26 102.667 26 194v197z" />
    <glyph glyph-name="ccedilla" unicode="&#xe7;" horiz-adv-x="846" 
d="M427 -25c-96 12 -176 50.6689 -240 116.002c-78 79.333 -117 185 -117 317c0 134.667 38.333 247.334 115 338.001c82 96.667 189 145 321 145c62.667 0 121.667 -12 177 -36c72 -30.667 108 -73.334 108 -128.001s-26 -82 -78 -82c-46 0 -75.5 34.833 -88.5 104.5
s-51.833 104.5 -116.5 104.5c-92.667 0 -160 -52.333 -202 -157c-30.667 -75.333 -46 -167 -46 -275c0 -110.667 20.667 -200.334 62 -269.001c50.667 -84 127.667 -126 231 -126c128 0 204.333 62 229 186h35c-12.667 -80 -49.334 -141 -110.001 -183
c-55.333 -39.333 -125 -59 -209 -59h-7v-83l40 4h12c3.33301 0 9 0.666992 17 2c51.333 0 93.333 -14.667 126 -44s49 -69.333 49 -120c0 -117.333 -73.333 -176 -220 -176c-84 0 -180.667 26.333 -290 79l26 56c46 -22.667 89.333 -40.334 130 -53.001
s75.334 -19 104.001 -19c78.667 0 118 35.667 118 107c0 64.667 -34 96 -102 94l-37 -1l-36 -5z" />
    <glyph glyph-name="egrave" unicode="&#xe8;" horiz-adv-x="944" 
d="M279 612l438 1c0 69.333 -21 128.333 -63 177c-36.667 42.667 -84 64 -142 64c-65.333 0 -119.333 -24.667 -162 -74c-37.333 -44 -61 -100 -71 -168zM268 573l-6 -55.002l-2 -45c-6 -129.333 22.333 -238.666 85 -327.999c56 -81.333 131.333 -122 226 -122
c136 0 228.333 64.667 277 194h41c-50.667 -164 -175 -246 -373 -246c-136.667 0 -245.167 39.333 -325.5 118s-120.5 186.334 -120.5 323.001c0 138 41.667 251.667 125 341c85.333 92 196.333 138 333 138c96.667 0 176 -27 238 -81c65.333 -56.667 98 -132.667 98 -228
v-9h-596zM403 1300l289 -299h-67l-330 207c-41.333 26 -62 53.333 -62 82c0 19.333 7.16699 35.833 21.5 49.5s31.166 20.5 50.499 20.5c26.667 0 59.334 -20 98.001 -60z" />
    <glyph glyph-name="eacute" unicode="&#xe9;" horiz-adv-x="944" 
d="M279 612l438 1c0 69.333 -21 128.333 -63 177c-36.667 42.667 -84 64 -142 64c-65.333 0 -119.333 -24.667 -162 -74c-37.333 -44 -61 -100 -71 -168zM268 573l-6 -55.002l-2 -45c-6 -129.333 22.333 -238.666 85 -327.999c56 -81.333 131.333 -122 226 -122
c136 0 228.333 64.667 277 194h41c-50.667 -164 -175 -246 -373 -246c-136.667 0 -245.167 39.333 -325.5 118s-120.5 186.334 -120.5 323.001c0 138 41.667 251.667 125 341c85.333 92 196.333 138 333 138c96.667 0 176 -27 238 -81c65.333 -56.667 98 -132.667 98 -228
v-9h-596zM737 1208l-330.001 -207h-67l289 299c38.667 40 71.334 60 98.001 60c48 0 72 -23.333 72 -70c0 -14 -5 -27.333 -15 -40c-13.333 -16.667 -29 -30.667 -47 -42z" />
    <glyph glyph-name="ecircumflex" unicode="&#xea;" horiz-adv-x="944" 
d="M279 612l438 1c0 69.333 -21 128.333 -63 177c-36.667 42.667 -84 64 -142 64c-65.333 0 -119.333 -24.667 -162 -74c-37.333 -44 -61 -100 -71 -168zM268 573l-6 -55.002l-2 -45c-6 -129.333 22.333 -238.666 85 -327.999c56 -81.333 131.333 -122 226 -122
c136 0 228.333 64.667 277 194h41c-50.667 -164 -175 -246 -373 -246c-136.667 0 -245.167 39.333 -325.5 118s-120.5 186.334 -120.5 323.001c0 138 41.667 251.667 125 341c85.333 92 196.333 138 333 138c96.667 0 176 -27 238 -81c65.333 -56.667 98 -132.667 98 -228
v-9h-596zM457 1352h118l232 -351h-58l-233 211l-233 -211h-58z" />
    <glyph glyph-name="edieresis" unicode="&#xeb;" horiz-adv-x="944" 
d="M279 612l438 1c0 69.333 -21 128.333 -63 177c-36.667 42.667 -84 64 -142 64c-65.333 0 -119.333 -24.667 -162 -74c-37.333 -44 -61 -100 -71 -168zM268 573l-6 -55.002l-2 -45c-6 -129.333 22.333 -238.666 85 -327.999c56 -81.333 131.333 -122 226 -122
c136 0 228.333 64.667 277 194h41c-50.667 -164 -175 -246 -373 -246c-136.667 0 -245.167 39.333 -325.5 118s-120.5 186.334 -120.5 323.001c0 138 41.667 251.667 125 341c85.333 92 196.333 138 333 138c96.667 0 176 -27 238 -81c65.333 -56.667 98 -132.667 98 -228
v-9h-596zM692 1257c26.667 0 49.667 -10 69 -30s29 -43.333 29 -70c0 -28.667 -9.16699 -52.5 -27.5 -71.5s-41.833 -28.5 -70.5 -28.5c-28 0 -51.667 9.66699 -71 29s-29 43 -29 71c0 26 10.167 49.167 30.5 69.5s43.5 30.5 69.5 30.5zM340 1257
c26 0 49.167 -10.167 69.5 -30.5s30.5 -43.5 30.5 -69.5c0 -28 -9.66699 -51.667 -29 -71s-43 -29 -71 -29s-51.333 9.66699 -70 29s-28 43 -28 71c0 26.667 9.66699 50 29 70s42.333 30 69 30z" />
    <glyph glyph-name="igrave" unicode="&#xec;" horiz-adv-x="578" 
d="M375 307c0 -110 2.00098 -173.001 6.00098 -189.001c16 -59.333 61 -89 135 -89h8v-29h-454v29h8c73.333 0 117.666 29.667 132.999 89c4 16 6 79 6 189v324c0 62.667 -9 106.667 -27 132c-20.667 28.667 -60.667 45.334 -120 50.001v23c40.667 6 93.667 15.667 159 29
c56 12 104.667 24 146 36v-594zM176.001 1300l289 -299h-67l-330 207c-41.333 26 -62 53.333 -62 82c0 19.333 7.16699 35.833 21.5 49.5s31.166 20.5 50.499 20.5c26.667 0 59.334 -20 98.001 -60z" />
    <glyph glyph-name="iacute" unicode="&#xed;" horiz-adv-x="578" 
d="M375 307c0 -110 2.00098 -173.001 6.00098 -189.001c16 -59.333 61 -89 135 -89h8v-29h-454v29h8c73.333 0 117.666 29.667 132.999 89c4 16 6 79 6 189v324c0 62.667 -9 106.667 -27 132c-20.667 28.667 -60.667 45.334 -120 50.001v23c40.667 6 93.667 15.667 159 29
c56 12 104.667 24 146 36v-594zM510.001 1208l-330.001 -207h-67l289 299c38.667 40 71.334 60 98.001 60c48 0 72 -23.333 72 -70c0 -14 -5 -27.333 -15 -40c-13.333 -16.667 -29 -30.667 -47 -42z" />
    <glyph glyph-name="icircumflex" unicode="&#xee;" horiz-adv-x="578" 
d="M375 307c0 -110 2.00098 -173.001 6.00098 -189.001c16 -59.333 61 -89 135 -89h8v-29h-454v29h8c73.333 0 117.666 29.667 132.999 89c4 16 6 79 6 189v324c0 62.667 -9 106.667 -27 132c-20.667 28.667 -60.667 45.334 -120 50.001v23c40.667 6 93.667 15.667 159 29
c56 12 104.667 24 146 36v-594zM230.001 1352h118l232 -351h-58l-233 211l-233 -211h-58z" />
    <glyph glyph-name="idieresis" unicode="&#xef;" horiz-adv-x="578" 
d="M375 307c0 -110 2.00098 -173.001 6.00098 -189.001c16 -59.333 61 -89 135 -89h8v-29h-454v29h8c73.333 0 117.666 29.667 132.999 89c4 16 6 79 6 189v324c0 62.667 -9 106.667 -27 132c-20.667 28.667 -60.667 45.334 -120 50.001v23c40.667 6 93.667 15.667 159 29
c56 12 104.667 24 146 36v-594zM465.001 1257c26.667 0 49.667 -10 69 -30s29 -43.333 29 -70c0 -28.667 -9.16699 -52.5 -27.5 -71.5s-41.833 -28.5 -70.5 -28.5c-28 0 -51.667 9.66699 -71 29s-29 43 -29 71c0 26 10.167 49.167 30.5 69.5s43.5 30.5 69.5 30.5z
M113.001 1257c26 0 49.167 -10.167 69.5 -30.5s30.5 -43.5 30.5 -69.5c0 -28 -9.66699 -51.667 -29 -71s-43 -29 -71 -29s-51.333 9.66699 -70 29s-28 43 -28 71c0 26.667 9.66699 50 29 70s42.333 30 69 30z" />
    <glyph glyph-name="eth" unicode="&#xf0;" horiz-adv-x="877" 
d="M434 344c72 0 118 48.667 138 146c6.66699 32 10 68.667 10 110c0 172 -49.333 258 -148 258c-100.667 0 -151 -86 -151 -258c0 -170.667 50.333 -256 151 -256zM350 326c-148.667 42.667 -223.001 129.335 -223.001 260.002c0 84.667 29 156.667 87 216
s129.333 89 214 89c90 0 163.667 -24.667 221 -74c48 50.667 104 76 168 76c25.333 0 49.333 -6.33301 72 -19c26 -15.333 39 -35 39 -59c0 -34 -18.667 -51 -56 -51c-18 0 -38.333 13.333 -61 40s-41.667 40 -57 40c-17.333 0 -44.666 -15 -81.999 -45
c46 -52.667 69 -121.667 69 -207c0 -78.667 -23.333 -142.667 -70 -192c-50 -54 -116.667 -85 -200 -93l-80 -8c-125.333 -12.667 -188 -45.334 -188 -98.001c0 -47.333 41.667 -70 125 -68l188 4c117.333 2 205.666 -19.667 264.999 -65c56.667 -44 85 -113 85 -207
c0 -103.333 -48.667 -182.666 -146 -237.999c-78.667 -44.667 -174 -67 -286 -67c-102 0 -186.333 15.333 -253 46c-89.333 41.333 -134 107 -134 197c0 40.667 10.667 75.667 32 105c24 32.667 55.667 49 95 49c62.667 0 94 -28.667 94 -86l-1 -11l-1 -9l-8 -1
c-10 23.333 -30.333 35 -61 35c-63.333 0 -95 -36 -95 -108c0 -62.667 34.333 -109.667 103 -141c52 -24.667 113.333 -37 184 -37c88 0 162 15.333 222 46c77.333 40 116 99.667 116 179c0 77.333 -41.333 126.666 -124 147.999c-35.333 9.33301 -108.666 14 -219.999 14
c-180 0 -270 51 -270 153c0 111.333 79 173.666 237 186.999zM144.999 1313l51 -0.000976562c17.333 -71.333 66 -115.666 146 -132.999c27.333 -6 59.333 -9 96 -9c137.333 0 217.333 47.333 240 142h51c-27.333 -182 -124.333 -273 -291 -273c-167.333 0 -265 91 -293 273
z" />
    <glyph glyph-name="ntilde" unicode="&#xf1;" horiz-adv-x="1139" 
d="M375 307c0 -110 2.00195 -173 6.00195 -189c16 -59.333 61 -89 135 -89h8v-29h-454v29h8c73.333 0 117.666 29.667 132.999 89c4 16 6 79 6 189v324c0 62.667 -9 106.667 -27 132c-20.667 28.667 -60.667 45.334 -120 50.001v23c104.667 14 198 35.667 280 65l12 -4
l13 -119c60.667 58 131.667 94 213 108c26.667 4.66699 56 7 88 7c103.333 0 173.666 -22.667 210.999 -68c34 -40.667 51 -114.334 51 -221.001v-297c0 -110 2 -173 6 -189c16 -59.333 61 -89 135 -89h8v-29h-454v29h8c59.333 0 97.333 13 114 39s25 105.667 25 239v293
c0 162.667 -61.333 244 -184 244c-70 0 -128.667 -28 -176 -84c-16 -18.667 -27.5 -40.5 -34.5 -65.5s-10.5 -61.833 -10.5 -110.5v-277zM802.002 1298h54.001c-26.667 -134.667 -91.667 -202 -195 -202h-12c-7.33301 0 -14.333 0.666992 -21 2l-41 8l-109 27l-26 4l-30 2
c-20.667 1.33301 -37.834 -5 -51.501 -19s-26.167 -37.667 -37.5 -71h-51c24 142 89.667 213 197 213c20 0 41 -3 63 -9l141 -37l25 -2c21.333 -2 40.333 4 57 18c14.667 12 27 34 37 66z" />
    <glyph glyph-name="ograve" unicode="&#xf2;" horiz-adv-x="1057" 
d="M528 854c-99.333 0 -171.667 -48.333 -217 -145c-34 -72 -51 -164.333 -51 -277s16.667 -205 50 -277c45.333 -96.667 118 -145 218 -145s172.667 48.333 218 145c34 72 51 164.333 51 277c0 281.333 -89.667 422 -269 422zM527.999 891
c128.667 0 237.001 -44.3311 325.001 -132.998s132 -197.334 132 -326.001c0 -127.333 -44.333 -236 -133 -326s-196.667 -135 -324 -135c-128 0 -236 44.833 -324 134.5s-132 198.5 -132 326.5c0 127.333 44.167 235.666 132.5 324.999s196.166 134 323.499 134zM415 1300
l289 -299h-67l-330 207c-41.333 26 -62 53.333 -62 82c0 19.333 7.16699 35.833 21.5 49.5s31.166 20.5 50.499 20.5c26.667 0 59.334 -20 98.001 -60z" />
    <glyph glyph-name="oacute" unicode="&#xf3;" horiz-adv-x="1057" 
d="M528 854c-99.333 0 -171.667 -48.333 -217 -145c-34 -72 -51 -164.333 -51 -277s16.667 -205 50 -277c45.333 -96.667 118 -145 218 -145s172.667 48.333 218 145c34 72 51 164.333 51 277c0 281.333 -89.667 422 -269 422zM527.999 891
c128.667 0 237.001 -44.3311 325.001 -132.998s132 -197.334 132 -326.001c0 -127.333 -44.333 -236 -133 -326s-196.667 -135 -324 -135c-128 0 -236 44.833 -324 134.5s-132 198.5 -132 326.5c0 127.333 44.167 235.666 132.5 324.999s196.166 134 323.499 134zM749 1208
l-330.001 -207h-67l289 299c38.667 40 71.334 60 98.001 60c48 0 72 -23.333 72 -70c0 -14 -5 -27.333 -15 -40c-13.333 -16.667 -29 -30.667 -47 -42z" />
    <glyph glyph-name="ocircumflex" unicode="&#xf4;" horiz-adv-x="1057" 
d="M528 854c-99.333 0 -171.667 -48.333 -217 -145c-34 -72 -51 -164.333 -51 -277s16.667 -205 50 -277c45.333 -96.667 118 -145 218 -145s172.667 48.333 218 145c34 72 51 164.333 51 277c0 281.333 -89.667 422 -269 422zM527.999 891
c128.667 0 237.001 -44.3311 325.001 -132.998s132 -197.334 132 -326.001c0 -127.333 -44.333 -236 -133 -326s-196.667 -135 -324 -135c-128 0 -236 44.833 -324 134.5s-132 198.5 -132 326.5c0 127.333 44.167 235.666 132.5 324.999s196.166 134 323.499 134zM469 1352
h118l232 -351h-58l-233 211l-233 -211h-58z" />
    <glyph glyph-name="otilde" unicode="&#xf5;" horiz-adv-x="1057" 
d="M528 854c-99.333 0 -171.667 -48.333 -217 -145c-34 -72 -51 -164.333 -51 -277s16.667 -205 50 -277c45.333 -96.667 118 -145 218 -145s172.667 48.333 218 145c34 72 51 164.333 51 277c0 281.333 -89.667 422 -269 422zM527.999 891
c128.667 0 237.001 -44.3311 325.001 -132.998s132 -197.334 132 -326.001c0 -127.333 -44.333 -236 -133 -326s-196.667 -135 -324 -135c-128 0 -236 44.833 -324 134.5s-132 198.5 -132 326.5c0 127.333 44.167 235.666 132.5 324.999s196.166 134 323.499 134zM761 1298
h54.001c-26.667 -134.667 -91.667 -202 -195 -202h-12c-7.33301 0 -14.333 0.666992 -21 2l-41 8l-109 27l-26 4l-30 2c-20.667 1.33301 -37.834 -5 -51.501 -19s-26.167 -37.667 -37.5 -71h-51c24 142 89.667 213 197 213c20 0 41 -3 63 -9l141 -37l25 -2
c21.333 -2 40.333 4 57 18c14.667 12 27 34 37 66z" />
    <glyph glyph-name="odieresis" unicode="&#xf6;" horiz-adv-x="1057" 
d="M528 854c-99.333 0 -171.667 -48.333 -217 -145c-34 -72 -51 -164.333 -51 -277s16.667 -205 50 -277c45.333 -96.667 118 -145 218 -145s172.667 48.333 218 145c34 72 51 164.333 51 277c0 281.333 -89.667 422 -269 422zM527.999 891
c128.667 0 237.001 -44.3311 325.001 -132.998s132 -197.334 132 -326.001c0 -127.333 -44.333 -236 -133 -326s-196.667 -135 -324 -135c-128 0 -236 44.833 -324 134.5s-132 198.5 -132 326.5c0 127.333 44.167 235.666 132.5 324.999s196.166 134 323.499 134zM704 1257
c26.667 0 49.667 -10 69 -30s29 -43.333 29 -70c0 -28.667 -9.16699 -52.5 -27.5 -71.5s-41.833 -28.5 -70.5 -28.5c-28 0 -51.667 9.66699 -71 29s-29 43 -29 71c0 26 10.167 49.167 30.5 69.5s43.5 30.5 69.5 30.5zM352 1257c26 0 49.167 -10.167 69.5 -30.5
s30.5 -43.5 30.5 -69.5c0 -28 -9.66699 -51.667 -29 -71s-43 -29 -71 -29s-51.333 9.66699 -70 29s-28 43 -28 71c0 26.667 9.66699 50 29 70s42.333 30 69 30z" />
    <glyph glyph-name="divide" unicode="&#xf7;" horiz-adv-x="1706" 
d="M854 365c31.333 0 58.333 -11.333 81 -34s34 -49.667 34 -81s-11.333 -58.333 -34 -81s-49.667 -34 -81 -34c-32 0 -59.167 11.167 -81.5 33.5s-33.5 49.5 -33.5 81.5s11.167 59.167 33.5 81.5s49.5 33.5 81.5 33.5zM254 670h1198v-117h-1198v117zM854 1085
c31.333 0 58.333 -11.167 81 -33.5s34 -49.166 34 -80.499c0 -32 -11.167 -59.167 -33.5 -81.5s-49.5 -33.5 -81.5 -33.5s-59.167 11.167 -81.5 33.5s-33.5 49.5 -33.5 81.5c0 31.333 11.333 58.166 34 80.499s49.667 33.5 81 33.5z" />
    <glyph glyph-name="oslash" unicode="&#xf8;" horiz-adv-x="1057" 
d="M741 723l-393 -629c36.667 -56 96.667 -84 180 -84c100 0 172.667 48.333 218 145c34 72 51 164.333 51 277c0 123.333 -18.667 220.333 -56 291zM313 139l394.001 631c-42.667 56 -102.334 84 -179.001 84c-178.667 0 -268 -140.667 -268 -422
c0 -97.333 17.667 -195 53 -293zM152.001 -119l110.001 170c-126.667 98 -190 225 -190 381c0 127.333 44.167 235.666 132.5 324.999s196.166 134 323.499 134c37.333 0 74 -4.66699 110 -14s72.667 -23.666 110 -42.999l75 120h62l-92 -147c128 -92 192 -217 192 -375
c0 -127.333 -44.333 -236 -133 -326s-196.667 -135 -324 -135c-88 0 -161.667 20 -221 60l-94 -150h-61z" />
    <glyph glyph-name="ugrave" unicode="&#xf9;" horiz-adv-x="1124" 
d="M764 557c0 129.333 -8.50195 207.833 -25.502 235.5s-54.833 41.5 -113.5 41.5h-11v28h306v-649c0 -62 7 -104.667 21 -128c18.667 -30 56 -47.333 112 -52l-1 -23l-100.5 -12c-27 -3.33301 -75.167 -10 -144.5 -20l-43 -7v113
c-59.333 -56 -129.666 -91.333 -210.999 -106c-26.667 -4.66699 -56.667 -7 -90 -7c-103.333 0 -174 22.333 -212 67c-34.667 40.667 -52 114 -52 220v299c0 129.333 -8.5 207.833 -25.5 235.5s-55.167 41.5 -114.5 41.5h-10v28h307v-600c0 -162.667 61.667 -244 185 -244
c47.333 0 91.333 14.333 132 43s67.334 65.334 80.001 110.001c7.33301 25.333 11 66.666 11 123.999v262zM449.998 1300l289 -299h-67l-330 207c-41.333 26 -62 53.333 -62 82c0 19.333 7.16699 35.833 21.5 49.5s31.166 20.5 50.499 20.5c26.667 0 59.334 -20 98.001 -60z
" />
    <glyph glyph-name="uacute" unicode="&#xfa;" horiz-adv-x="1124" 
d="M764 557c0 129.333 -8.50195 207.833 -25.502 235.5s-54.833 41.5 -113.5 41.5h-11v28h306v-649c0 -62 7 -104.667 21 -128c18.667 -30 56 -47.333 112 -52l-1 -23l-100.5 -12c-27 -3.33301 -75.167 -10 -144.5 -20l-43 -7v113
c-59.333 -56 -129.666 -91.333 -210.999 -106c-26.667 -4.66699 -56.667 -7 -90 -7c-103.333 0 -174 22.333 -212 67c-34.667 40.667 -52 114 -52 220v299c0 129.333 -8.5 207.833 -25.5 235.5s-55.167 41.5 -114.5 41.5h-10v28h307v-600c0 -162.667 61.667 -244 185 -244
c47.333 0 91.333 14.333 132 43s67.334 65.334 80.001 110.001c7.33301 25.333 11 66.666 11 123.999v262zM783.998 1208l-330.001 -207h-67l289 299c38.667 40 71.334 60 98.001 60c48 0 72 -23.333 72 -70c0 -14 -5 -27.333 -15 -40c-13.333 -16.667 -29 -30.667 -47 -42z
" />
    <glyph glyph-name="ucircumflex" unicode="&#xfb;" horiz-adv-x="1124" 
d="M764 557c0 129.333 -8.50195 207.833 -25.502 235.5s-54.833 41.5 -113.5 41.5h-11v28h306v-649c0 -62 7 -104.667 21 -128c18.667 -30 56 -47.333 112 -52l-1 -23l-100.5 -12c-27 -3.33301 -75.167 -10 -144.5 -20l-43 -7v113
c-59.333 -56 -129.666 -91.333 -210.999 -106c-26.667 -4.66699 -56.667 -7 -90 -7c-103.333 0 -174 22.333 -212 67c-34.667 40.667 -52 114 -52 220v299c0 129.333 -8.5 207.833 -25.5 235.5s-55.167 41.5 -114.5 41.5h-10v28h307v-600c0 -162.667 61.667 -244 185 -244
c47.333 0 91.333 14.333 132 43s67.334 65.334 80.001 110.001c7.33301 25.333 11 66.666 11 123.999v262zM503.998 1352h118l232 -351h-58l-233 211l-233 -211h-58z" />
    <glyph glyph-name="udieresis" unicode="&#xfc;" horiz-adv-x="1124" 
d="M764 557c0 129.333 -8.50195 207.833 -25.502 235.5s-54.833 41.5 -113.5 41.5h-11v28h306v-649c0 -62 7 -104.667 21 -128c18.667 -30 56 -47.333 112 -52l-1 -23l-100.5 -12c-27 -3.33301 -75.167 -10 -144.5 -20l-43 -7v113
c-59.333 -56 -129.666 -91.333 -210.999 -106c-26.667 -4.66699 -56.667 -7 -90 -7c-103.333 0 -174 22.333 -212 67c-34.667 40.667 -52 114 -52 220v299c0 129.333 -8.5 207.833 -25.5 235.5s-55.167 41.5 -114.5 41.5h-10v28h307v-600c0 -162.667 61.667 -244 185 -244
c47.333 0 91.333 14.333 132 43s67.334 65.334 80.001 110.001c7.33301 25.333 11 66.666 11 123.999v262zM738.998 1257c26.667 0 49.667 -10 69 -30s29 -43.333 29 -70c0 -28.667 -9.16699 -52.5 -27.5 -71.5s-41.833 -28.5 -70.5 -28.5c-28 0 -51.667 9.66699 -71 29
s-29 43 -29 71c0 26 10.167 49.167 30.5 69.5s43.5 30.5 69.5 30.5zM386.998 1257c26 0 49.167 -10.167 69.5 -30.5s30.5 -43.5 30.5 -69.5c0 -28 -9.66699 -51.667 -29 -71s-43 -29 -71 -29s-51.333 9.66699 -70 29s-28 43 -28 71c0 26.667 9.66699 50 29 70
s42.333 30 69 30z" />
    <glyph glyph-name="yacute" unicode="&#xfd;" horiz-adv-x="578" 
d="M375 307c0 -110 2.00098 -173.001 6.00098 -189.001c16 -59.333 61 -89 135 -89h8v-29h-454v29h8c73.333 0 117.666 29.667 132.999 89c4 16 6 79 6 189v324c0 62.667 -9 106.667 -27 132c-20.667 28.667 -60.667 45.334 -120 50.001v23c40.667 6 93.667 15.667 159 29
c56 12 104.667 24 146 36v-594z" />
    <glyph glyph-name="thorn" unicode="&#xfe;" horiz-adv-x="793" 
d="M325 -20c-14 2.66699 -34.6689 9.33105 -62.002 19.998l-75 29c-10.667 0 -21.667 -4 -33 -12c-8.66699 -6 -18 -16.333 -28 -31h-18v299h18c22.667 -88 50.334 -152.333 83.001 -193c43.333 -54.667 104.333 -82 183 -82c101.333 0 152 49.333 152 148
c0 72.667 -50.667 137.334 -152 194.001c-106.667 60 -174.667 109.833 -204 149.5s-44 88.167 -44 145.5c0 68.667 23 126.5 69 173.5s103 70.5 171 70.5c29.333 0 66 -8.16699 110 -24.5s68.667 -24.5 74 -24.5c17.333 0 31.666 11.667 42.999 35h19v-256h-19
c-32 154 -105 231 -219 231c-38 0 -69 -12.333 -93 -37s-36 -56 -36 -94c0 -45.333 17.667 -84.666 53 -117.999c20.667 -19.333 58.334 -43.666 113.001 -72.999c88 -46.667 147.667 -85 179 -115c52.667 -50.667 79 -113.334 79 -188.001
c0 -79.333 -27.667 -142.666 -83 -189.999c-52 -44 -118.333 -66 -199 -66h-17v-83l40 4h12c3.33301 0 9 0.666992 17 2c51.333 0 93.333 -14.667 126 -44s49 -69.333 49 -120c0 -117.333 -73.333 -176 -220 -176c-84 0 -180.667 26.333 -290 79l26 56
c46 -22.667 89.333 -40.334 130 -53.001s75.334 -19 104.001 -19c78.667 0 118 35.667 118 107c0 64.667 -34 96 -102 94l-37 -1l-36 -5z" />
    <glyph glyph-name="ydieresis" unicode="&#xff;" horiz-adv-x="915" 
d="M410 -182c-34.667 -83.333 -62 -139.332 -82 -167.999c-42 -61.333 -92 -92 -150 -92c-61.333 0 -92 25 -92 75c0 18 7.5 33.167 22.5 45.5s31.5 18.5 49.5 18.5c10.667 0 26.334 -3.83301 47.001 -11.5s36.334 -11.5 47.001 -11.5c31.333 0 60.666 27.333 87.999 82
c50.667 101.333 76 174.333 76 219c0 30 -15 83.333 -45 160l-187 477c-27.333 70 -51 118.667 -71 146c-36 50.667 -80.333 76 -133 76v28h442v-28c-76.667 -6.66699 -115 -34.667 -115 -84c0 -21.333 5 -46.333 15 -75c2 -6 6 -16 12 -30l184 -477l176 430
c23.333 57.333 35 105 35 143c0 62 -40.333 93 -121 93v28h314v-28c-44.667 -8 -84.334 -39.667 -119.001 -95c-16 -24.667 -38.667 -72.334 -68 -143.001zM635 1257c26.667 0 49.667 -10 69 -30s29 -43.333 29 -70c0 -28.667 -9.16699 -52.5 -27.5 -71.5
s-41.833 -28.5 -70.5 -28.5c-28 0 -51.667 9.66699 -71 29s-29 43 -29 71c0 26 10.167 49.167 30.5 69.5s43.5 30.5 69.5 30.5zM283 1257c26 0 49.167 -10.167 69.5 -30.5s30.5 -43.5 30.5 -69.5c0 -28 -9.66699 -51.667 -29 -71s-43 -29 -71 -29s-51.333 9.66699 -70 29
s-28 43 -28 71c0 26.667 9.66699 50 29 70s42.333 30 69 30z" />
    <glyph glyph-name="Cacute" unicode="&#x106;" horiz-adv-x="1419" 
d="M1313 406c0 -128.667 -52.332 -235.668 -156.999 -321.001c-96 -78.667 -222 -118 -378 -118c-208.667 0 -373.5 61.5 -494.5 184.5s-181.5 288.833 -181.5 497.5c0 221.333 62.667 403 188 545c130.667 148.667 305 223 523 223c56.667 0 131 -14 223 -42
s148.667 -42 170 -42c24 0 44 15.667 60 47h30l11 -440h-27c-33.333 123.333 -83 222.333 -149 297c-80 91.333 -177 137 -291 137c-166.667 0 -293.334 -79.333 -380.001 -238c-69.333 -128 -104 -282.667 -104 -464c0 -177.333 37 -322.666 111 -435.999
c87.333 -132.667 215 -199 383 -199c118 0 215 32 291 96c79.333 66 124.333 157 135 273h37zM1034 1734l-330.001 -207h-67l289 299c38.667 40 71.334 60 98.001 60c48 0 72 -23.333 72 -70c0 -14 -5 -27.333 -15 -40c-13.333 -16.667 -29 -30.667 -47 -42z" />
    <glyph glyph-name="cacute" unicode="&#x107;" horiz-adv-x="846" 
d="M817 213c-12.667 -80 -49.333 -140.999 -110 -182.999c-55.333 -39.333 -125 -59 -209 -59c-129.333 0 -233 40.333 -311 121s-117 186 -117 316c0 134.667 38.333 247.334 115 338.001c82 96.667 189 145 321 145c62.667 0 121.667 -12 177 -36
c72 -30.667 108 -73.334 108 -128.001s-26 -82 -78 -82c-46 0 -75.5 34.833 -88.5 104.5s-51.833 104.5 -116.5 104.5c-92.667 0 -160 -52.333 -202 -157c-30.667 -75.333 -46 -167 -46 -275c0 -110.667 20.667 -200.334 62 -269.001c50.667 -84 127.667 -126 231 -126
c128 0 204.333 62 229 186h35zM719.001 1208l-330.001 -207h-67l289 299c38.667 40 71.334 60 98.001 60c48 0 72 -23.333 72 -70c0 -14 -5 -27.333 -15 -40c-13.333 -16.667 -29 -30.667 -47 -42z" />
    <glyph glyph-name="Ccaron" unicode="&#x10c;" horiz-adv-x="1419" 
d="M1313 406c0 -128.667 -52.332 -235.668 -156.999 -321.001c-96 -78.667 -222 -118 -378 -118c-208.667 0 -373.5 61.5 -494.5 184.5s-181.5 288.833 -181.5 497.5c0 221.333 62.667 403 188 545c130.667 148.667 305 223 523 223c56.667 0 131 -14 223 -42
s148.667 -42 170 -42c24 0 44 15.667 60 47h30l11 -440h-27c-33.333 123.333 -83 222.333 -149 297c-80 91.333 -177 137 -291 137c-166.667 0 -293.334 -79.333 -380.001 -238c-69.333 -128 -104 -282.667 -104 -464c0 -177.333 37 -322.666 111 -435.999
c87.333 -132.667 215 -199 383 -199c118 0 215 32 291 96c79.333 66 124.333 157 135 273h37zM522.001 1878h58l233 -211l233 211h58l-232 -351h-118z" />
    <glyph glyph-name="ccaron" unicode="&#x10d;" horiz-adv-x="846" 
d="M817 213c-12.667 -80 -49.333 -140.999 -110 -182.999c-55.333 -39.333 -125 -59 -209 -59c-129.333 0 -233 40.333 -311 121s-117 186 -117 316c0 134.667 38.333 247.334 115 338.001c82 96.667 189 145 321 145c62.667 0 121.667 -12 177 -36
c72 -30.667 108 -73.334 108 -128.001s-26 -82 -78 -82c-46 0 -75.5 34.833 -88.5 104.5s-51.833 104.5 -116.5 104.5c-92.667 0 -160 -52.333 -202 -157c-30.667 -75.333 -46 -167 -46 -275c0 -110.667 20.667 -200.334 62 -269.001c50.667 -84 127.667 -126 231 -126
c128 0 204.333 62 229 186h35zM207.001 1352h58l233 -211l233 211h58l-232 -351h-118z" />
    <glyph glyph-name="dcroat" unicode="&#x111;" horiz-adv-x="1096" 
d="M735 1180c0 62 -8.66602 105.333 -25.999 130c-20.667 28 -60.334 44.667 -119.001 50v22l161 18c33.333 4 80 11 140 21v-303h194v-47h-194v-858c0 -60.667 7.33301 -103 22 -127c18.667 -29.333 55.667 -47 111 -53v-23l-152 -18l-137 -21v109
c-60.667 -72.667 -148.667 -109 -264 -109c-118.667 0 -215.667 46.333 -291 139c-69.333 86 -104 190 -104 312c0 129.333 37.667 238.333 113 327c79.333 94.667 182.333 142 309 142c85.333 0 164.333 -34.333 237 -103v283h-352v47h352v62zM735.001 301
l0.000976562 262.001c0 191.333 -71 287 -213 287c-96.667 0 -167.334 -48.667 -212.001 -146c-32 -70.667 -48 -161.334 -48 -272.001c0 -278.667 89.333 -418 268 -418c72.667 0 126.667 31.333 162 94c28.667 50 43 114.333 43 193z" />
    <glyph glyph-name="Gbreve" unicode="&#x11e;" horiz-adv-x="1546" 
d="M1337 104l-65.002 7c-183.333 -96 -350.666 -144 -501.999 -144c-208 0 -372 65 -492 195c-117.333 126.667 -176 294.667 -176 504c0 215.333 64.333 393.333 193 534c132 144.667 304.667 217 518 217c56.667 0 131 -14 223 -42s148.667 -42 170 -42
c24 0 44 15.667 60 47h30l11 -440h-27c-33.333 123.333 -83 222.333 -149 297c-80 91.333 -177 137 -291 137c-170 0 -297.667 -82.333 -383 -247c-67.333 -129.333 -101 -287.333 -101 -474c0 -170 35 -313.667 105 -431c84.667 -141.333 206.667 -212 366 -212
c92.667 0 166.834 25.833 222.501 77.5s83.5 123.5 83.5 215.5c0 70 -16.333 120.333 -49 151c-36 33.333 -91.333 50 -166 50v26h616v-26c-79.333 0 -134.333 -16 -165 -48c-26.667 -28 -38.667 -91.333 -36 -190zM480.998 1839l51 -0.000976562
c17.333 -71.333 66 -115.666 146 -132.999c27.333 -6 59.333 -9 96 -9c137.333 0 217.333 47.333 240 142h51c-27.333 -182 -124.333 -273 -291 -273c-167.333 0 -265 91 -293 273z" />
    <glyph glyph-name="gbreve" unicode="&#x11f;" horiz-adv-x="877" 
d="M434 344c72 0 118 48.667 138 146c6.66699 32 10 68.667 10 110c0 172 -49.333 258 -148 258c-100.667 0 -151 -86 -151 -258c0 -170.667 50.333 -256 151 -256zM350 326c-148.667 42.667 -223.001 129.335 -223.001 260.002c0 84.667 29 156.667 87 216
s129.333 89 214 89c90 0 163.667 -24.667 221 -74c48 50.667 104 76 168 76c25.333 0 49.333 -6.33301 72 -19c26 -15.333 39 -35 39 -59c0 -34 -18.667 -51 -56 -51c-18 0 -38.333 13.333 -61 40s-41.667 40 -57 40c-17.333 0 -44.666 -15 -81.999 -45
c46 -52.667 69 -121.667 69 -207c0 -78.667 -23.333 -142.667 -70 -192c-50 -54 -116.667 -85 -200 -93l-80 -8c-125.333 -12.667 -188 -45.334 -188 -98.001c0 -47.333 41.667 -70 125 -68l188 4c117.333 2 205.666 -19.667 264.999 -65c56.667 -44 85 -113 85 -207
c0 -103.333 -48.667 -182.666 -146 -237.999c-78.667 -44.667 -174 -67 -286 -67c-102 0 -186.333 15.333 -253 46c-89.333 41.333 -134 107 -134 197c0 40.667 10.667 75.667 32 105c24 32.667 55.667 49 95 49c62.667 0 94 -28.667 94 -86l-1 -11l-1 -9l-8 -1
c-10 23.333 -30.333 35 -61 35c-63.333 0 -95 -36 -95 -108c0 -62.667 34.333 -109.667 103 -141c52 -24.667 113.333 -37 184 -37c88 0 162 15.333 222 46c77.333 40 116 99.667 116 179c0 77.333 -41.333 126.666 -124 147.999c-35.333 9.33301 -108.666 14 -219.999 14
c-180 0 -270 51 -270 153c0 111.333 79 173.666 237 186.999zM144.999 1313l51 -0.000976562c17.333 -71.333 66 -115.666 146 -132.999c27.333 -6 59.333 -9 96 -9c137.333 0 217.333 47.333 240 142h51c-27.333 -182 -124.333 -273 -291 -273c-167.333 0 -265 91 -293 273
z" />
    <glyph glyph-name="Idotaccent" unicode="&#x130;" horiz-adv-x="807" 
d="M717 1384v-27.999h-17c-69.333 0 -119.333 -30.667 -150 -92c-22.667 -46.667 -35 -113.334 -37 -200.001c2 93.333 3 28.666 3 -194.001v-356c0 -236 -1.33301 -301 -4 -195c2 -86.667 14.667 -153 38 -199c30 -60.667 80 -91 150 -91h17v-29h-627v29h16
c68.667 0 118 29 148 87c22.667 44 35.334 107.333 38.001 190c-2 -66 -3 -3.33301 -3 188v397c0 194.667 1 257.334 3 188.001c-2.66699 82.667 -15.334 146 -38.001 190c-30 58 -79.333 87 -148 87h-16v28h627zM403 1790c28.667 0 53.167 -10.667 73.5 -32
s30.5 -46.333 30.5 -75s-10.167 -53.167 -30.5 -73.5s-44.833 -30.5 -73.5 -30.5s-53.167 9.83301 -73.5 29.5s-30.5 44.5 -30.5 74.5c0 28.667 10.167 53.667 30.5 75s44.833 32 73.5 32z" />
    <glyph glyph-name="dotlessi" unicode="&#x131;" horiz-adv-x="578" 
d="M375 307c0 -110 2.00098 -173.001 6.00098 -189.001c16 -59.333 61 -89 135 -89h8v-29h-454v29h8c73.333 0 117.666 29.667 132.999 89c4 16 6 79 6 189v324c0 62.667 -9 106.667 -27 132c-20.667 28.667 -60.667 45.334 -120 50.001v23c40.667 6 93.667 15.667 159 29
c56 12 104.667 24 146 36v-594z" />
    <glyph glyph-name="Lslash" unicode="&#x141;" horiz-adv-x="1309" 
d="M512 418c0 -150.667 11.667 -246.334 35 -287.001c34 -60 117.333 -90 250 -90c140.667 0 247 28 319 84c76.667 59.333 125.334 157 146.001 293h28l-14 -418h-1182v29h17c70 0 120 30.667 150 92c23.333 46 36 112.333 38 199c-2.66699 -104.667 -4 -40 -4 194v90
l-285 -190v65l285 191v200c0 237.333 1.33301 302 4 194c-2 87.333 -14.667 154 -38 200c-30 61.333 -80 92 -150 92h-17v28h617v-28h-17c-68 0 -117 -29 -147 -87c-22.667 -44 -35.334 -107.667 -38.001 -191c2 58.667 3 -3.66602 3 -186.999v-103l377 254v-65l-377 -256
v-303z" />
    <glyph glyph-name="lslash" unicode="&#x142;" horiz-adv-x="584" 
d="M371 791l192 145v-59l-192 -146v-424c0 -110 2 -173 6 -189c16 -59.333 61 -89 135 -89h8v-29h-457v29h9c74 0 118.667 29.667 134 89c4.66699 16.667 7 79.667 7 189v338l-195 -143v57l195 146v475c0 66 -10.333 111.667 -31 137c-23.333 28.667 -63 43 -119 43v22
l138 15l170 24v-630z" />
    <glyph glyph-name="OE" unicode="&#x152;" horiz-adv-x="2073" 
d="M1053 326l-0.00195312 733.001c0 110 -8.33301 183 -25 219c-28 58.667 -88.667 88 -182 88c-169.333 0 -298.666 -73.333 -387.999 -220c-74.667 -122 -112 -273.333 -112 -454c0 -184.667 38 -337.334 114 -458.001c90.667 -142.667 223.334 -214 398.001 -214
c88 0 145 31 171 93c16 36.667 24 107.667 24 213zM1270 418.001c0 -150.667 8.66602 -244.33 25.999 -280.997c31.333 -64 110 -96 236 -96c257.333 0 402.666 125.667 435.999 377h29l-15 -418h-647c-28 0 -91.667 -2.33301 -191 -7c-32.667 -0.666992 -74 -2 -124 -4
l-186 -12c-15.333 -0.666992 -30.666 -1 -45.999 -1c-84.667 0 -168.667 15.333 -252 46s-160.833 80.5 -232.5 149.5s-125.167 145.167 -160.5 228.5s-53 178.666 -53 285.999c0 169.333 54 319.666 162 450.999c146.667 178.667 343.334 268 590.001 268
c78.667 -7.33301 141.667 -11 189 -11c30.667 0 77 -1.66699 139 -5s108.333 -5 139 -5h555l14 -331h-27c-24 113.333 -74.333 191.666 -151 234.999c-62.667 35.333 -157 53 -283 53h-147v-587h10c98.667 0 168 17.667 208 53c43.333 38.667 65 101.334 65 188.001h26v-546
h-27c0 93.333 -23 162.666 -69 207.999c-40.667 40 -109 60 -205 60h-8v-299z" />
    <glyph glyph-name="oe" unicode="&#x153;" horiz-adv-x="1616" 
d="M852 133c-98 -108 -210.67 -162 -338.003 -162c-124.667 0 -230 46 -316 138c-84 89.333 -126 197 -126 323s42.333 234 127 324s189.667 135 315 135c130.667 0 247.334 -58 350.001 -174c85.333 116 202 174 350 174c94.667 0 172.334 -28 233.001 -84s91 -131 91 -225
v-9h-573l-9 -64l-2 -36c-0.666992 -12.667 -1 -25 -1 -37c0 -112 27.5 -208.833 82.5 -290.5s128.167 -122.5 219.5 -122.5c133.333 0 223 64.667 269 194h39c-23.333 -81.333 -68.666 -143.333 -135.999 -186c-62 -40 -137 -60 -225 -60c-159.333 0 -276 54 -350 162z
M972.997 612l424 1c0 69.333 -20.333 128.333 -61 177c-35.333 42.667 -81.333 64 -138 64c-124.667 0 -199.667 -80.667 -225 -242zM517.997 10c96.667 0 166.333 49.334 209 148.001c31.333 71.333 47 162.666 47 273.999c0 281.333 -85.333 422 -256 422
c-96.667 0 -166.667 -49.333 -210 -148c-32 -72 -48 -163.333 -48 -274s16 -202 48 -274c43.333 -98.667 113.333 -148 210 -148z" />
    <glyph glyph-name="Scedilla" unicode="&#x15e;" horiz-adv-x="1139" 
d="M137 -10l-18.001 434h26c22 -118.667 65.333 -214.667 130 -288c74 -84 167.333 -126 280 -126c80.667 0 144.334 26.333 191.001 79c44.667 50.667 67 116.667 67 198c0 80 -28.333 148 -85 204c-39.333 39.333 -103.666 80.333 -192.999 123
c-129.333 62.667 -216.333 113 -261 151c-81.333 69.333 -122 155.666 -122 258.999c0 110 35.667 203 107 279s161.666 114 270.999 114c68.667 0 134.667 -12.667 198 -38l95 -38c24.667 0 41.334 18 50.001 54h30l19 -385h-25c-77.333 242.667 -195.333 364 -354 364
c-64 0 -115.833 -20.5 -155.5 -61.5s-59.5 -93.5 -59.5 -157.5c0 -72 28.333 -132.667 85 -182c33.333 -29.333 93.666 -65 180.999 -107l131 -63c68 -32.667 109 -54 123 -64c117.333 -83.333 176 -199.333 176 -348c0 -129.333 -44.333 -233.666 -133 -312.999
c-84.667 -75.333 -192.667 -113 -324 -113c-60.667 0 -124.667 12.333 -192 37c-75.333 27.333 -125.333 42.333 -150 45c-28.667 0 -47 -19 -55 -57h-33zM496.999 0l63.999 0.000976562v-112l40 4h12c3.33301 0 9 0.666992 17 2c51.333 0 93.333 -14.667 126 -44
s49 -69.333 49 -120c0 -117.333 -73.333 -176 -220 -176c-84 0 -180.667 26.333 -290 79l26 56c46 -22.667 89.333 -40.334 130 -53.001s75.334 -19 104.001 -19c78.667 0 118 35.667 118 107c0 64.667 -34 96 -102 94l-37 -1l-36 -5z" />
    <glyph glyph-name="scedilla" unicode="&#x15f;" horiz-adv-x="793" 
d="M109 -14l-0.000976562 298.997h18c22.667 -88 50.334 -152.333 83.001 -193c43.333 -54.667 104.333 -82 183 -82c101.333 0 152 49.333 152 148c0 72.667 -50.667 137.334 -152 194.001c-106.667 60 -174.667 109.833 -204 149.5s-44 88.167 -44 145.5
c0 68.667 23 126.5 69 173.5s103 70.5 171 70.5c29.333 0 66 -8.16699 110 -24.5s68.667 -24.5 74 -24.5c17.333 0 31.666 11.667 42.999 35h19v-256h-19c-32 154 -105 231 -219 231c-38 0 -69 -12.333 -93 -37s-36 -56 -36 -94c0 -45.333 17.667 -84.666 53 -117.999
c20.667 -19.333 58.334 -43.666 113.001 -72.999c88 -46.667 147.667 -85 179 -115c52.667 -50.667 79 -113.334 79 -188.001c0 -79.333 -27.667 -142.666 -83 -189.999c-52 -44 -118.333 -66 -199 -66c-45.333 0 -93 9.66699 -143 29l-75 29c-10.667 0 -21.667 -4 -33 -12
c-8.66699 -6 -18 -16.333 -28 -31h-18zM324.999 -0.00292969l63.999 0.000976562v-112l40 4h12c3.33301 0 9 0.666992 17 2c51.333 0 93.333 -14.667 126 -44s49 -69.333 49 -120c0 -117.333 -73.333 -176 -220 -176c-84 0 -180.667 26.333 -290 79l26 56
c46 -22.667 89.333 -40.334 130 -53.001s75.334 -19 104.001 -19c78.667 0 118 35.667 118 107c0 64.667 -34 96 -102 94l-37 -1l-36 -5z" />
    <glyph glyph-name="Scaron" unicode="&#x160;" horiz-adv-x="1139" 
d="M137 -10l-18.001 434h26c22 -118.667 65.333 -214.667 130 -288c74 -84 167.333 -126 280 -126c80.667 0 144.334 26.333 191.001 79c44.667 50.667 67 116.667 67 198c0 80 -28.333 148 -85 204c-39.333 39.333 -103.666 80.333 -192.999 123
c-129.333 62.667 -216.333 113 -261 151c-81.333 69.333 -122 155.666 -122 258.999c0 110 35.667 203 107 279s161.666 114 270.999 114c68.667 0 134.667 -12.667 198 -38l95 -38c24.667 0 41.334 18 50.001 54h30l19 -385h-25c-77.333 242.667 -195.333 364 -354 364
c-64 0 -115.833 -20.5 -155.5 -61.5s-59.5 -93.5 -59.5 -157.5c0 -72 28.333 -132.667 85 -182c33.333 -29.333 93.666 -65 180.999 -107l131 -63c68 -32.667 109 -54 123 -64c117.333 -83.333 176 -199.333 176 -348c0 -129.333 -44.333 -233.666 -133 -312.999
c-84.667 -75.333 -192.667 -113 -324 -113c-60.667 0 -124.667 12.333 -192 37c-75.333 27.333 -125.333 42.333 -150 45c-28.667 0 -47 -19 -55 -57h-33zM277.999 1878h58l233 -211l233 211h58l-232 -351h-118z" />
    <glyph glyph-name="scaron" unicode="&#x161;" horiz-adv-x="793" 
d="M109 -14l-0.000976562 298.997h18c22.667 -88 50.334 -152.333 83.001 -193c43.333 -54.667 104.333 -82 183 -82c101.333 0 152 49.333 152 148c0 72.667 -50.667 137.334 -152 194.001c-106.667 60 -174.667 109.833 -204 149.5s-44 88.167 -44 145.5
c0 68.667 23 126.5 69 173.5s103 70.5 171 70.5c29.333 0 66 -8.16699 110 -24.5s68.667 -24.5 74 -24.5c17.333 0 31.666 11.667 42.999 35h19v-256h-19c-32 154 -105 231 -219 231c-38 0 -69 -12.333 -93 -37s-36 -56 -36 -94c0 -45.333 17.667 -84.666 53 -117.999
c20.667 -19.333 58.334 -43.666 113.001 -72.999c88 -46.667 147.667 -85 179 -115c52.667 -50.667 79 -113.334 79 -188.001c0 -79.333 -27.667 -142.666 -83 -189.999c-52 -44 -118.333 -66 -199 -66c-45.333 0 -93 9.66699 -143 29l-75 29c-10.667 0 -21.667 -4 -33 -12
c-8.66699 -6 -18 -16.333 -28 -31h-18zM105.999 1352h58l233 -211l233 211h58l-232 -351h-118z" />
    <glyph glyph-name="Ydieresis" unicode="&#x178;" horiz-adv-x="1247" 
d="M750 397c0 -124 4.99805 -203.999 14.998 -239.999c23.333 -85.333 79 -128 167 -128h16v-29h-616v29h16c88 0 143.667 42.667 167 128c10 36.667 15 116.667 15 240v189l-324 564c-78 137.333 -159 206 -243 206v28h594v-28c-47.333 0 -84.666 -8 -111.999 -24
c-22 -12.667 -33 -33.334 -33 -62.001c0 -34 12.333 -73 37 -117l276 -494l211 367c41.333 72 69 134.667 83 188c4.66699 17.333 7 31 7 41c0 32 -13 56.833 -39 74.5s-63.333 26.5 -112 26.5l-1 28h441v-28c-89.333 0 -199.666 -112.667 -330.999 -338l-7 -12l-227 -394
v-215zM800.998 1783c26.667 0 49.667 -10 69 -30s29 -43.333 29 -70c0 -28.667 -9.16699 -52.5 -27.5 -71.5s-41.833 -28.5 -70.5 -28.5c-28 0 -51.667 9.66699 -71 29s-29 43 -29 71c0 26 10.167 49.167 30.5 69.5s43.5 30.5 69.5 30.5zM448.998 1783
c26 0 49.167 -10.167 69.5 -30.5s30.5 -43.5 30.5 -69.5c0 -28 -9.66699 -51.667 -29 -71s-43 -29 -71 -29s-51.333 9.66699 -70 29s-28 43 -28 71c0 26.667 9.66699 50 29 70s42.333 30 69 30z" />
    <glyph glyph-name="Zcaron" unicode="&#x17d;" horiz-adv-x="1395" 
d="M80 0v12.001l864 1329h-319c-143.333 0 -249 -20 -317 -60c-83.333 -48 -139 -136.333 -167 -265h-26l24 368h1071v-12l-852 -1329h308c192 0 331.833 28.667 419.5 86s152.5 159.666 194.5 306.999h29l-23 -436h-1206zM407 1878h58l233 -211l233 211h58l-232 -351h-118z
" />
    <glyph glyph-name="zcaron" unicode="&#x17e;" horiz-adv-x="909" 
d="M29 0v10.001l579 815h-194c-81.333 0 -142.666 -14.667 -183.999 -44c-46 -32 -77 -86.333 -93 -163h-24l30 244h658v-14l-574 -809h234c110 0 190.667 16.667 242 50c57.333 37.333 98.666 106.666 123.999 207.999h27l-31 -297h-794zM164 1352h58l233 -211l233 211h58
l-232 -351h-118z" />
    <glyph glyph-name="florin" unicode="&#x192;" horiz-adv-x="1081" 
d="M491 833l-209.999 1.00098l8 43h211c43.333 360 177 540 401 540c134 0 201 -42.333 201 -127c0 -48.667 -24.667 -73 -74 -73c-48 0 -80 24.333 -96 73l-5 15c-16 48.667 -37.667 73 -65 73c-81.333 0 -149 -167 -203 -501h213l-8 -43h-211l-60 -460
c-38 -230.667 -89.667 -410.334 -155 -539.001c-88 -172.667 -202 -259 -342 -259c-50 0 -93 10.667 -129 32c-43.333 26 -65 62.333 -65 109c0 54.667 26.667 82 80 82c45.333 0 71.666 -25 78.999 -75l4 -28c8 -55.333 31.333 -83 70 -83c116 0 232.333 391 349 1173z" />
    <glyph glyph-name="circumflex" unicode="&#x2c6;" 
d="M453 1352h118l232 -351h-58l-233 211l-233 -211h-58z" />
    <glyph glyph-name="caron" unicode="&#x2c7;" 
d="M221 1352h58l233 -211l233 211h58l-232 -351h-118z" />
    <glyph glyph-name="breve" unicode="&#x2d8;" 
d="M219 1313l51 -0.000976562c17.333 -71.333 66 -115.666 146 -132.999c27.333 -6 59.333 -9 96 -9c137.333 0 217.333 47.333 240 142h51c-27.333 -182 -124.333 -273 -291 -273c-167.333 0 -265 91 -293 273z" />
    <glyph glyph-name="dotaccent" unicode="&#x2d9;" 
d="M512 1264c28.667 0 53.167 -10.667 73.5 -32s30.5 -46.333 30.5 -75s-10.167 -53.167 -30.5 -73.5s-44.833 -30.5 -73.5 -30.5s-53.167 9.83301 -73.5 29.5s-30.5 44.5 -30.5 74.5c0 28.667 10.167 53.667 30.5 75s44.833 32 73.5 32z" />
    <glyph glyph-name="ring" unicode="&#x2da;" 
d="M512 1374c-40.667 0 -75.332 -14.833 -103.999 -44.5s-43 -65.167 -43 -106.5s14.167 -76.333 42.5 -105s63.166 -43 104.499 -43s77 14.5 107 43.5s45 63.833 45 104.5c0 41.333 -15 76.833 -45 106.5s-65.667 44.5 -107 44.5zM512.002 1464
c67.333 0 124.501 -23 171.501 -69s70.5 -102.667 70.5 -170c0 -68 -23.333 -125.333 -70 -172s-104 -70 -172 -70c-66 0 -122.5 23.167 -169.5 69.5s-70.5 103.833 -70.5 172.5c0 67.333 23.167 124 69.5 170s103.166 69 170.499 69z" />
    <glyph glyph-name="ogonek" unicode="&#x2db;" 
d="M600 31l49.001 0.000976562c-120 -96 -180 -185 -180 -267c0 -78.667 33.333 -118 100 -118c50.667 0 90.334 24.333 119.001 73l29 -18c-22.667 -46.667 -52.834 -83.334 -90.501 -110.001s-77.834 -40 -120.501 -40c-44.667 0 -81.667 12.667 -111 38
c-31.333 26.667 -47 62 -47 106c0 115.333 84 227.333 252 336z" />
    <glyph glyph-name="tilde" unicode="&#x2dc;" 
d="M745 1298h54.001c-26.667 -134.667 -91.667 -202 -195 -202h-12c-7.33301 0 -14.333 0.666992 -21 2l-41 8l-109 27l-26 4l-30 2c-20.667 1.33301 -37.834 -5 -51.501 -19s-26.167 -37.667 -37.5 -71h-51c24 142 89.667 213 197 213c20 0 41 -3 63 -9l141 -37l25 -2
c21.333 -2 40.333 4 57 18c14.667 12 27 34 37 66z" />
    <glyph glyph-name="Delta" unicode="&#x394;" horiz-adv-x="1208" 
d="M555 1212l-389 -1042h768zM596 1497h29l555 -1497h-1151z" />
    <glyph glyph-name="Delta" unicode="&#x2206;" horiz-adv-x="1208" 
d="M555 1212l-389 -1042h768zM596 1497h29l555 -1497h-1151z" />
    <glyph glyph-name="Omega" unicode="&#x3a9;" horiz-adv-x="1567" 
d="M1100 188l-0.00292969 -25.998h313l66 203h61l-108 -365h-500c134 232.667 218.333 453.667 253 663c11.333 68 17 135 17 201c0 160 -28.667 288 -86 384c-71.333 118 -181.333 177 -330 177c-149.333 0 -259.666 -59 -330.999 -177
c-57.333 -95.333 -86 -223.333 -86 -384c0 -262 90.667 -550 272 -864h-500l-110 365h61l68 -203h311v26c-97.333 119.333 -168.666 225.666 -213.999 318.999c-59.333 121.333 -89 244.666 -89 369.999c0 180.667 57.833 329.167 173.5 445.5s263.834 174.5 444.501 174.5
s328.667 -58.167 444 -174.5s173 -264.833 173 -445.5c0 -124 -30 -247.333 -90 -370c-45.333 -92.667 -116.333 -199 -213 -319z" />
    <glyph glyph-name="Omega" unicode="&#x2126;" horiz-adv-x="1567" 
d="M1100 188l-0.00292969 -25.998h313l66 203h61l-108 -365h-500c134 232.667 218.333 453.667 253 663c11.333 68 17 135 17 201c0 160 -28.667 288 -86 384c-71.333 118 -181.333 177 -330 177c-149.333 0 -259.666 -59 -330.999 -177
c-57.333 -95.333 -86 -223.333 -86 -384c0 -262 90.667 -550 272 -864h-500l-110 365h61l68 -203h311v26c-97.333 119.333 -168.666 225.666 -213.999 318.999c-59.333 121.333 -89 244.666 -89 369.999c0 180.667 57.833 329.167 173.5 445.5s263.834 174.5 444.501 174.5
s328.667 -58.167 444 -174.5s173 -264.833 173 -445.5c0 -124 -30 -247.333 -90 -370c-45.333 -92.667 -116.333 -199 -213 -319z" />
    <glyph glyph-name="pi" unicode="&#x3c0;" horiz-adv-x="1354" 
d="M1329 885l-34.999 -162h-329c-17.333 -92.667 -29 -160 -35 -202c-12.667 -89.333 -19 -172.666 -19 -249.999c0 -68 -6.33301 -129 -19 -183c-20.667 -87.333 -54.334 -131 -101.001 -131c-52 0 -78 31.333 -78 94c0 34.667 28 140 84 316
c66 207.333 102.667 326 110 356h-375l-23 -128c-10 -58 -17 -107.667 -21 -149c-6 -60 -9 -117 -9 -171c0 -68.667 -6.66699 -130.334 -20 -185.001c-20.667 -88.667 -55 -133 -103 -133c-51.333 0 -77 32 -77 96c0 50 27.667 157.667 83 323
c68 202 105.667 317.667 113 347h-133c-87.333 0 -147 -14.667 -179 -44c-28.667 -26 -53 -83 -73 -171h-59c22 124 55.333 214 100 270c56.667 71.333 142 107 256 107h942z" />
    <glyph glyph-name="endash" unicode="&#x2013;" 
d="M0 401v84h1024v-84h-1024z" />
    <glyph glyph-name="emdash" unicode="&#x2014;" horiz-adv-x="2048" 
d="M0 401v84h2048v-84h-2048z" />
    <glyph glyph-name="quoteleft" unicode="&#x2018;" horiz-adv-x="541" 
d="M238 1119l31.001 10l30 4c66.667 0 100 -36.333 100 -109c0 -31.333 -11.833 -58.333 -35.5 -81s-51.167 -34 -82.5 -34c-42.667 0 -76.334 17.333 -101.001 52c-22 30.667 -33 68 -33 112c0 146 87 260.667 261 344l12 -22c-121.333 -76 -182 -168 -182 -276z" />
    <glyph glyph-name="quoteright" unicode="&#x2019;" horiz-adv-x="541" 
d="M321 1210l-34 -13.001l-27 -3c-29.333 0 -53.333 9.66699 -72 29s-28 44.333 -28 75c0 33.333 11.5 61.5 34.5 84.5s51.167 34.5 84.5 34.5c42 0 75.333 -17.333 100 -52c22 -31.333 33 -68.666 33 -111.999c0 -147.333 -86.667 -262 -260 -344l-13 23
c86 53.333 142.667 120 170 200c8 24.667 12 50.667 12 78z" />
    <glyph glyph-name="quotesinglbase" unicode="&#x201a;" horiz-adv-x="541" 
d="M301 14l-31.001 -11l-30 -3c-30 0 -54.667 9.5 -74 28.5s-29 43.5 -29 73.5c0 33.333 11.5 61.5 34.5 84.5s51.167 34.5 84.5 34.5c42.667 0 76.334 -17.333 101.001 -52c22.667 -30.667 34 -68 34 -112c0 -144 -87.333 -258 -262 -342l-12 23
c122.667 77.333 184 169.333 184 276z" />
    <glyph glyph-name="quotedblleft" unicode="&#x201c;" horiz-adv-x="915" 
d="M612 1119l30.999 9l31 5c30 0 54.167 -10.5 72.5 -31.5s27.5 -46.833 27.5 -77.5s-12.167 -57.5 -36.5 -80.5s-51.833 -34.5 -82.5 -34.5c-44 0 -77.667 17 -101 51c-21.333 30 -32 67.667 -32 113c0 145.333 86.667 260 260 344l13 -22
c-85.333 -52.667 -141.666 -118.667 -168.999 -198c-9.33301 -26 -14 -52 -14 -78zM237.999 1119l31.001 10l30 4c66.667 0 100 -36.333 100 -109c0 -31.333 -11.833 -58.333 -35.5 -81s-51.167 -34 -82.5 -34c-42.667 0 -76.334 17.333 -101.001 52
c-22 30.667 -33 68 -33 112c0 146 87 260.667 261 344l12 -22c-121.333 -76 -182 -168 -182 -276z" />
    <glyph glyph-name="quotedblright" unicode="&#x201d;" horiz-adv-x="915" 
d="M321 1210l-34 -13.001l-27 -3c-29.333 0 -53.333 9.66699 -72 29s-28 44.333 -28 75c0 33.333 11.5 61.5 34.5 84.5s51.167 34.5 84.5 34.5c42 0 75.333 -17.333 100 -52c22 -31.333 33 -68.666 33 -111.999c0 -147.333 -86.667 -262 -260 -344l-13 23
c86 53.333 142.667 120 170 200c8 24.667 12 50.667 12 78zM696 1210l-34 -13l-27 -3c-29.333 0 -53.333 10 -72 30s-28 44.667 -28 74c0 33.333 11.333 61.5 34 84.5s50.667 34.5 84 34.5c42.667 0 76 -17.333 100 -52c22 -30.667 33 -68 33 -112
c0 -147.333 -86.667 -262 -260 -344l-12 23c86 53.333 142.667 120 170 200c8 24.667 12 50.667 12 78z" />
    <glyph glyph-name="quotedblbase" unicode="&#x201e;" horiz-adv-x="915" 
d="M675 14l-31.001 -10.999l-30 -3c-29.333 0 -53.666 9.66699 -72.999 29s-29 43.666 -29 72.999c0 33.333 11.5 61.5 34.5 84.5s51.167 34.5 84.5 34.5c42.667 0 76 -17.333 100 -52c22 -30.667 33 -68 33 -112c0 -142.667 -86.667 -256.667 -260 -342l-12 23
c122 76 183 168 183 276zM302.999 14.001l-31 -11l-30 -3c-30 0 -54.667 9.5 -74 28.5s-29 43.5 -29 73.5c0 33.333 11.5 61.5 34.5 84.5s51.167 34.5 84.5 34.5c42.667 0 76 -17.333 100 -52c22 -30.667 33 -68 33 -112c0 -146 -86.667 -260 -260 -342l-12 23
c122.667 76.667 184 168.667 184 276z" />
    <glyph glyph-name="dagger" unicode="&#x2020;" horiz-adv-x="995" 
d="M473 -319c0 314.667 -32.002 602.668 -96.002 864.001c32 48 56 101.667 72 161c20 73.333 30 142.333 30 207c-43.333 0 -98 -14.333 -164 -43s-110.333 -43 -133 -43c-70.667 0 -106 33 -106 99c0 72 37.333 108 112 108c20.667 0 63.334 -13.333 128.001 -40
s117.667 -40 159 -40h4v13c0 54.667 -15 123 -45 205s-45 129 -45 141c0 69.333 37 104 111 104c70.667 0 106 -34.667 106 -104c0 -8 -15 -54.5 -45 -139.5s-45 -155.833 -45 -212.5v-7h4c42 0 95.667 13.333 161 40s107.333 40 126 40c75.333 0 113 -34.667 113 -104
c0 -68.667 -37 -103 -111 -103c-22 0 -63.333 14 -124 42c-63.333 29.333 -119.666 44 -168.999 44c0 -64.667 10 -133.667 30 -207c16 -58.667 40 -112.334 72 -161.001c-46.667 -169.333 -76 -372.666 -88 -609.999c-4 -80.667 -6 -165.334 -6 -254.001h-51z" />
    <glyph glyph-name="daggerdbl" unicode="&#x2021;" horiz-adv-x="995" 
d="M377 545c46 72.667 77.334 161.002 94.001 265.002c5.33301 33.333 8 67.666 8 102.999c-43.333 0 -98 -14.333 -164 -43s-110.333 -43 -133 -43c-70.667 0 -106 33 -106 99c0 72 37.333 108 112 108c20.667 0 63.334 -13.333 128.001 -40s117.667 -40 159 -40h4v13
c0 54.667 -15 123 -45 205s-45 129 -45 141c0 69.333 37 104 111 104c70.667 0 106 -34.667 106 -104c0 -8 -15 -54.5 -45 -139.5s-45 -155.833 -45 -212.5v-7h4c42 0 95.667 13.333 161 40s107.333 40 126 40c75.333 0 113 -34.667 113 -104c0 -68.667 -37 -103 -111 -103
c-22 0 -63.333 14 -124 42c-63.333 29.333 -119.666 44 -168.999 44c0 -64 10 -132.667 30 -206c16.667 -60.667 40.667 -114.667 72 -162c-44.667 -70 -75.334 -158 -92.001 -264c-6 -36 -9 -71.667 -9 -107c42.667 0 97.167 14.333 163.5 43s110.5 43 132.5 43
c71.333 0 107 -34 107 -102c0 -31.333 -10.5 -56.666 -31.5 -75.999s-47.5 -29 -79.5 -29c-22.667 0 -66.167 13.333 -130.5 40s-117.166 40 -158.499 40h-4v-12c0 -72 14.667 -145 44 -219c28 -70 42.667 -112.333 44 -127c0 -70 -36 -105 -108 -105
c-71.333 0 -107 35 -107 105c0 7.33301 15 53.666 45 138.999s45 156.333 45 213v6h-4c-42 0 -95.833 -13.333 -161.5 -40s-108.834 -40 -129.501 -40c-32.667 0 -58.834 9.83301 -78.501 29.5s-29.5 46.167 -29.5 79.5c0 65.333 35.333 98 106 98
c25.333 0 68.666 -14 129.999 -42c64 -29.333 119.667 -44 167 -44c0 64.667 -10 134 -30 208c-16 59.333 -40 113.666 -72 162.999z" />
    <glyph glyph-name="bullet" unicode="&#x2022;" horiz-adv-x="1208" 
d="M307 762c0 82 29 151.667 87 209s128 86 210 86c81.333 0 150.833 -28.833 208.5 -86.5s86.5 -127.167 86.5 -208.5c0 -82 -29 -152 -87 -210s-128 -87 -210 -87s-151.667 29 -209 87s-86 128 -86 210z" />
    <glyph glyph-name="ellipsis" unicode="&#x2026;" horiz-adv-x="2048" 
d="M342 -16c-31.333 0 -58.833 11.833 -82.5 35.5s-35.5 51.167 -35.5 82.5c0 33.333 11.333 61.5 34 84.5s50.667 34.5 84 34.5c32.667 0 60.667 -11.667 84 -35s35 -51.333 35 -84s-11.667 -60.5 -35 -83.5s-51.333 -34.5 -84 -34.5zM1024 -16
c-31.333 0 -58.833 11.833 -82.5 35.5s-35.5 51.167 -35.5 82.5c0 33.333 11.333 61.5 34 84.5s50.667 34.5 84 34.5c32.667 0 60.667 -11.667 84 -35s35 -51.333 35 -84s-11.667 -60.5 -35 -83.5s-51.333 -34.5 -84 -34.5zM1708 -16c-31.333 0 -58.833 11.833 -82.5 35.5
s-35.5 51.167 -35.5 82.5c0 33.333 11.333 61.5 34 84.5s50.667 34.5 84 34.5c32.667 0 60.667 -11.667 84 -35s35 -51.333 35 -84s-11.667 -60.5 -35 -83.5s-51.333 -34.5 -84 -34.5z" />
    <glyph glyph-name="perthousand" unicode="&#x2030;" horiz-adv-x="2355" 
d="M1976 6c49.333 0 87.334 34.333 114 103c26.667 68.667 40 166 40 292c0 262.667 -51.333 394 -154 394c-48 0 -85.5 -34.167 -112.5 -102.5s-40.5 -165.5 -40.5 -291.5c0 -263.333 51 -395 153 -395zM1978 -35c-97.333 0 -175.667 50.666 -235 151.999
c-50.667 85.333 -76 180 -76 284c0 102.667 25.667 197 77 283c59.333 101.333 137.333 152 234 152s174.667 -50.667 234 -152c50.667 -85.333 76 -179.666 76 -282.999c0 -104.667 -25 -199.667 -75 -285c-58.667 -100.667 -137 -151 -235 -151zM1243 -35.001
c-97.333 0 -175.667 50.667 -235 152c-50.667 85.333 -76 180 -76 284c0 102.667 25.667 197 77 283c59.333 101.333 137.333 152 234 152s174.667 -50.667 234 -152c50 -85.333 75 -179.666 75 -282.999c0 -104.667 -25 -199.334 -75 -284.001
c-58.667 -101.333 -136.667 -152 -234 -152zM376.999 548.999c-96.667 0 -174.668 50.335 -234.001 151.002c-50 85.333 -75 179.666 -75 282.999s25 197.666 75 282.999c59.333 100.667 137.333 151 234 151s174.667 -50.333 234 -151c50 -85.333 75 -179.666 75 -282.999
c0 -104.667 -24.667 -199.334 -74 -284.001c-59.333 -100 -137.666 -150 -234.999 -150zM1241 6.00098c61.333 0 105 54.334 131 163.001c15.333 65.333 23 142.666 23 231.999c0 262.667 -51.333 394 -154 394c-61.333 0 -105 -54.333 -131 -163
c-15.333 -65.333 -23 -142.333 -23 -231c0 -263.333 51.333 -395 154 -395zM376.998 588.002c48 0 85.667 34 113 102c26.667 66 40 163.667 40 293c0 263.333 -51 395 -153 395c-101.333 0 -152 -131.667 -152 -395s50.667 -395 152 -395zM294.998 -34.998l944 1452h84
l-942 -1452h-86z" />
    <glyph glyph-name="guilsinglleft" unicode="&#x2039;" horiz-adv-x="473" 
d="M72 432l278 365h47l-141 -365l141 -366h-47z" />
    <glyph glyph-name="guilsinglright" unicode="&#x203a;" horiz-adv-x="473" 
d="M403 432l-280 -366h-47l143 366l-143 365h47z" />
    <glyph glyph-name="fraction" unicode="&#x2044;" horiz-adv-x="342" 
d="M-260 -33h-82l944 1450h80z" />
    <glyph glyph-name="franc" unicode="&#x20a3;" horiz-adv-x="1882" 
d="M502 537c0 -206.667 -1.00098 -280.332 -3.00098 -220.999c2.66699 -88.667 18.334 -155.334 47.001 -200.001c36.667 -58 97 -87 181 -87h16v-29h-657v29h16c68.667 0 118 29 148 87c22.667 44 35.334 107.333 38.001 190c-2 -66 -3 -3.33301 -3 188v397
c0 194.667 1 257.334 3 188.001c-2.66699 82.667 -15.334 146 -38.001 190c-30 58 -79.333 87 -148 87h-16v28h1038l15 -331h-29c-24 113.333 -73.667 191.666 -149 234.999c-62 35.333 -156.333 53 -283 53h-176v-587c115.333 0 196.333 18.333 243 55s70 98.667 70 186h29
v-546h-29c0 93.333 -24.5 161.333 -73.5 204s-128.833 64 -239.5 64v-180zM1518 301.002c0 -108 3.66699 -172.334 11 -193.001c18.667 -52.667 68.334 -79 149.001 -79h12v-29h-477v29h8c73.333 0 117.666 29.667 132.999 89c4 16 6 79 6 189v324
c0 62.667 -9 106.667 -27 132c-20.667 28.667 -60.667 45.334 -120 50.001v23c104.667 14 198 35.667 280 65l12 -4l7 -85l2 -101c59.333 120 140.333 180 243 180c100 0 150 -36.333 150 -109c0 -21.333 -6.83301 -38.5 -20.5 -51.5s-32.167 -19.5 -55.5 -19.5
c-25.333 0 -52.5 19 -81.5 57s-54.5 57 -76.5 57c-40.667 0 -76.667 -33.5 -108 -100.5s-47 -149.5 -47 -247.5v-176z" />
    <glyph glyph-name="trademark" unicode="&#x2122;" horiz-adv-x="1683" 
d="M788 1438l183 0.000976562l141 -400l148 400h174v-25l-30 -2c-30.667 -2 -46 -19.667 -46 -53v-373c0 -15.333 4.33301 -27.833 13 -37.5s19.667 -14.834 33 -15.501l30 -2v-27h-236v27l31 2c30 2 45 19.667 45 53v395l-178 -479h-15l-174 479v-395
c0 -33.333 15.667 -51 47 -53l31 -2v-27h-197v27l34 2c29.333 2 44 19.667 44 53v371c0 33.333 -15.667 51 -47 53l-31 2v27zM256 1438h440l11 -178h-25c-10 100.667 -55.667 151 -137 151h-21v-426c0 -33.333 15 -51 45 -53l31 -2v-27h-248v27l31 2c30 2 45 19.667 45 53
v426h-20c-80.667 0 -126.667 -50.333 -138 -151h-26z" />
    <glyph glyph-name="partialdiff" unicode="&#x2202;" horiz-adv-x="1044" 
d="M754 604c7.33301 49.333 13.6699 103.001 19.0029 161.001c0 18 1.16699 44.5 3.5 79.5s3.5 61.5 3.5 79.5c0 195.333 -50.333 293 -151 293c-32 0 -71 -21.167 -117 -63.5s-82.333 -63.5 -109 -63.5c-20 0 -37.167 7.16699 -51.5 21.5s-21.5 31.5 -21.5 51.5
c0 47.333 28 85.666 84 114.999c46.667 24.667 95.667 37 147 37c132 0 231.333 -64.667 298 -194c51.333 -101.333 77 -225 77 -371c0 -182 -35 -346.667 -105 -494c-88.667 -187.333 -214.667 -281 -378 -281c-102.667 0 -185.334 38.333 -248.001 115
c-58.667 71.333 -88 159.333 -88 264c0 116.667 32.667 217.667 98 303c71.333 93.333 163.666 140 276.999 140c127.333 0 214.666 -64.333 261.999 -193zM709.004 483.001c0 162.667 -57.333 244 -172 244c-91.333 0 -160 -57.667 -206 -173
c-33.333 -84.667 -50 -180.667 -50 -288c0 -159.333 57.333 -239 172 -239c90 0 158.333 57 205 171c34 84.667 51 179.667 51 285z" />
    <glyph glyph-name="product" unicode="&#x220f;" horiz-adv-x="1595" 
d="M57 1473h1479v-70h-186v-1727h186v-69h-555v69h197v1727h-762v-1727h196v-69h-555v69h187v1727h-187v70z" />
    <glyph glyph-name="c294" unicode="&#x2211;" horiz-adv-x="1434" 
d="M12 1473l1135 0.000976562l98 -340h-74l-67 219c-10.667 34 -45.667 51 -105 51h-741l864 -850v-37l-858 -756h893c35.333 0 58.666 3 69.999 9c15.333 7.33301 27.666 25.666 36.999 54.999l71 229h74l-135 -446h-1260v28l959 838l-961 950v50z" />
    <glyph glyph-name="radical" unicode="&#x221a;" horiz-adv-x="1288" 
d="M1106 1647h182v-82h-119l-594 -1606h-53l-323 893l-119 -43l-23 68l262 92l265 -729z" />
    <glyph glyph-name="infinity" unicode="&#x221e;" horiz-adv-x="1706" 
d="M905 559c67.333 -125.333 158.999 -187.999 274.999 -187.999c70.667 0 128 24.667 172 74c42 47.333 63 106.666 63 177.999c0 67.333 -18.333 125 -55 173c-40 52 -92.667 78 -158 78c-67.333 0 -129.666 -37.667 -186.999 -113c-32 -42.667 -68.667 -110 -110 -202z
M802.999 666.001c-68 126.667 -158.999 189.999 -272.999 189.999c-72.667 0 -130.334 -24 -173.001 -72s-64 -108.667 -64 -182c0 -67.333 18.333 -124.666 55 -171.999c40 -52 92.667 -78 158 -78c68.667 0 131 37.333 187 112c32 42 68.667 109.333 110 202zM866 494
c-89.333 -176.667 -196.333 -265.001 -321 -265.001c-96.667 0 -175.334 40.333 -236.001 121c-54.667 73.333 -82 160 -82 260c0 102.667 23.333 189.334 70 260.001c54 82 129.667 123 227 123c124 0 229.333 -88.667 316 -266
c44.667 92.667 93.334 160.834 146.001 204.501s111 65.5 175 65.5c96.667 0 175.334 -40.333 236.001 -121c54.667 -73.333 82 -160 82 -260c0 -102 -23 -188.333 -69 -259c-54 -82.667 -129.333 -124 -226 -124c-72 0 -136.333 27.667 -193 83
c-38.667 37.333 -80.334 96.666 -125.001 177.999z" />
    <glyph glyph-name="integral" unicode="&#x222b;" horiz-adv-x="1020" 
d="M301 -268c37.333 0 64.999 55.334 82.999 166.001c16.667 101.333 27.667 267.333 33 498l5 216c4.66699 192.667 13.667 334 27 424c18 119.333 43 217.666 75 294.999c60 144.667 153.667 217 281 217c78 0 130 -28 156 -84c8 -17.333 12 -37 12 -59
c0 -71.333 -37.667 -107 -113 -107c-78 0 -117 42.333 -117 127c0 14 -6.66699 21.667 -20 23c-38.667 0 -67 -53 -85 -159c-17.333 -96.667 -28.666 -255 -33.999 -475l-6 -245c-1.33301 -60 -4.33301 -145 -9 -255c-16.667 -209.333 -45 -360.333 -85 -453
c-67.333 -154.667 -164.333 -232 -291 -232c-44.667 0 -82.667 11 -114 33c-34.667 25.333 -52 59.333 -52 102c0 76.667 38.333 115 115 115c28.667 0 54.5 -9 77.5 -27s34.5 -41 34.5 -69c0 -34 9 -51 27 -51z" />
    <glyph glyph-name="approxequal" unicode="&#x2248;" horiz-adv-x="1706" 
d="M1530 584v-131c-138.667 -97.333 -268.334 -146 -389.001 -146c-66.667 0 -163 23.167 -289 69.5s-222.333 69.5 -289 69.5c-102 0 -230.333 -53 -385 -159v131c144 98 273 147 387 147c68.667 0 167.834 -23.167 297.501 -69.5s223.167 -69.5 280.5 -69.5
c104 0 233 52.667 387 158zM1530 934l0.00195312 -130.999c-137.333 -96 -266.333 -144 -387 -144c-66.667 0 -163.334 23 -290.001 69s-223.334 69 -290.001 69c-56 0 -113.667 -12.167 -173 -36.5s-130 -64.833 -212 -121.5v131c141.333 96.667 270.333 145 387 145
c68 0 166.5 -22.833 295.5 -68.5s223.167 -68.5 282.5 -68.5c58.667 0 117.167 11.667 175.5 35s128.833 63.666 211.5 120.999z" />
    <glyph glyph-name="approxequal" unicode="&#x22f2;" horiz-adv-x="1706" 
d="M1530 584v-131c-138.667 -97.333 -268.334 -146 -389.001 -146c-66.667 0 -163 23.167 -289 69.5s-222.333 69.5 -289 69.5c-102 0 -230.333 -53 -385 -159v131c144 98 273 147 387 147c68.667 0 167.834 -23.167 297.501 -69.5s223.167 -69.5 280.5 -69.5
c104 0 233 52.667 387 158zM1530 934l0.00195312 -130.999c-137.333 -96 -266.333 -144 -387 -144c-66.667 0 -163.334 23 -290.001 69s-223.334 69 -290.001 69c-56 0 -113.667 -12.167 -173 -36.5s-130 -64.833 -212 -121.5v131c141.333 96.667 270.333 145 387 145
c68 0 166.5 -22.833 295.5 -68.5s223.167 -68.5 282.5 -68.5c58.667 0 117.167 11.667 175.5 35s128.833 63.666 211.5 120.999z" />
    <glyph glyph-name="notequal" unicode="&#x2260;" horiz-adv-x="1706" 
d="M1210 1180l88 -70l-196 -250h350v-115h-424l-211 -270h635v-115h-709l-251 -319l-89 70l197 249h-346v115h420l211 270h-631v115h704z" />
    <glyph glyph-name="lessequal" unicode="&#x2264;" horiz-adv-x="1706" 
d="M262 150h1182v-117h-1182v117zM1444 1192v-125l-977 -324l977 -323v-125l-1182 399v101z" />
    <glyph glyph-name="greaterequal" unicode="&#x2265;" horiz-adv-x="1706" 
d="M262 150h1182v-117h-1182v117zM262 1192l1182 -397v-101l-1182 -399v125l979 323l-979 324v125z" />
    <glyph glyph-name="lozenge" unicode="&#x25ca;" horiz-adv-x="1012" 
d="M506 1409l-385 -817l385 -825l385 825zM506 1653l500 -1061l-500 -1069l-500 1069z" />
    <glyph glyph-name="apple" unicode="&#xf000;" horiz-adv-x="1618" 
d="M836 1216l-1.99902 14.001v23c0 88 34 167 102 237c63.333 65.333 139.666 106.666 228.999 123.999l1 -23l1 -39c2 -85.333 -32 -163 -102 -233s-138.333 -105 -205 -105h-8zM1505 403.001c-60.667 -131.333 -111.33 -224.331 -151.997 -278.998
c-78.667 -106 -164.334 -159 -257.001 -159c-30 0 -73.167 11 -129.5 33s-97.833 33 -124.5 33c-28.667 0 -71.834 -11 -129.501 -33s-100.5 -33 -128.5 -33c-85.333 0 -171.333 58.667 -258 176c-67.333 91.333 -120 189.666 -158 294.999c-36.667 102 -55 202.333 -55 301
c0 140.667 39 256.667 117 348c82.667 97.333 193 146 331 146c38 0 88.167 -11.333 150.5 -34s105.166 -34 128.499 -34c22.667 0 63.167 11.667 121.5 35s109.166 35 152.499 35c142.667 0 262.334 -54.667 359.001 -164c-134 -84.667 -201 -194 -201 -328
c0 -156.667 77.667 -269.334 233 -338.001z" />
    <glyph glyph-name="fi" unicode="&#xf001;" horiz-adv-x="1161" 
d="M217 825l-140.999 -0.000976562v37h141v152c0 200.667 72.667 324.334 218 371.001c50 16 109.667 24 179 24c75.333 0 141.333 -10 198 -30c81.333 -28.667 122 -74 122 -136c0 -50.667 -26 -76 -78 -76c-36.667 0 -67.667 38 -93 114l-1 3
c-19.333 58.667 -76 88 -170 88c-97.333 0 -161 -36.667 -191 -110c-17.333 -43.333 -26 -124 -26 -242v-158h291c95.333 0 192.666 13 291.999 39v-594c0 -110 2.33301 -173.333 7 -190c15.333 -58.667 60.333 -88 135 -88h8v-29h-457v29h8c74 0 119 29.667 135 89
c4.66699 17.333 7 80.333 7 189v338c0 68.667 -11.333 115.667 -34 141c-24.667 26 -70.667 39 -138 39h-254v-524c0 -129.333 8.33301 -207 25 -233s55.334 -39 116.001 -39h8v-29h-454v29h8c73.333 0 117.666 29.667 132.999 89c4 16 6 79 6 189v518z" />
    <glyph glyph-name="fl" unicode="&#xf002;" horiz-adv-x="1161" 
d="M217 825h-141.001v37h141v152c0 262 113.333 393 340 393c79.333 0 148.333 -11.667 207 -35l109 24l85 25v-1114c0 -110 2.33301 -173.333 7 -190c15.333 -58.667 60.333 -88 135 -88h8v-29h-457v29h8c74 0 119 29.667 135 89c4.66699 17.333 7 80.333 7 189v877h-4
c-40.667 0 -67 29.333 -79 88c-14 65.333 -63 98 -147 98c-89.333 0 -147.666 -39 -174.999 -117c-14 -41.333 -21 -119 -21 -233v-158h209v-37h-209v-524c0 -129.333 8.33301 -207 25 -233s55.334 -39 116.001 -39h8v-29h-454v29h8c73.333 0 117.666 29.667 132.999 89
c4 16 6 79 6 189v518z" />
    <glyph glyph-name=".null" horiz-adv-x="0" 
 />
    <glyph glyph-name="glyph2" horiz-adv-x="541" 
 />
    <glyph glyph-name="minus" horiz-adv-x="639" 
d="M70 383v119h499v-119h-499z" />
    <glyph glyph-name="HT" horiz-adv-x="541" 
 />
    <glyph glyph-name="nonmarkingreturn" horiz-adv-x="541" 
 />
  </font>
</defs>
</svg>
